<svg width="26" height="30" viewBox="0 0 26 30" fill="none" xmlns="http://www.w3.org/2000/svg">
<path d="M11.4836 16.2746C11.4836 17.2654 10.7717 17.5786 9.89706 17.5786H7.60371V14.8627H9.94282C10.8886 14.8679 11.4836 15.2632 11.4836 16.2746ZM11.092 12.0493C11.092 11.1406 10.3954 10.925 9.62247 10.925H7.60879V13.225H9.7801C10.5479 13.225 11.092 12.8862 11.092 12.0493ZM17.8195 13.2404C16.889 13.2404 16.2686 13.8257 16.2076 14.7652H19.3705C19.284 13.8154 18.7959 13.2404 17.8195 13.2404ZM24.781 5.33929V23.4107C24.781 24.7712 23.6877 25.875 22.3401 25.875H4.44082C3.09328 25.875 2 24.7712 2 23.4107V5.33929C2 3.97879 3.09328 2.875 4.44082 2.875H22.3401C23.6877 2.875 24.781 3.97879 24.781 5.33929ZM15.816 10.7299H19.7722V9.7596H15.816V10.7299ZM13.6295 16.3926C13.6295 15.1554 13.0498 14.0875 11.8497 13.7435C12.7243 13.3225 13.182 12.8348 13.182 11.844C13.182 9.88281 11.7328 9.40536 10.0598 9.40536H5.45782V19.2625H10.192C11.9667 19.2522 13.6295 18.3949 13.6295 16.3926ZM21.3231 15.6328C21.3231 13.5228 20.0976 11.7618 17.8856 11.7618C15.7296 11.7618 14.2702 13.3944 14.2702 15.5404C14.2702 17.7634 15.6584 19.2882 17.8856 19.2882C19.5739 19.2882 20.6672 18.5232 21.196 16.8855H19.4823C19.2942 17.4964 18.5365 17.8147 17.9467 17.8147C16.8076 17.8147 16.2127 17.1422 16.2127 16.0025H21.3079C21.313 15.8844 21.3231 15.756 21.3231 15.6328Z" fill="white"/>
</svg>
