<svg width="26" height="30" viewBox="0 0 26 30" fill="none" xmlns="http://www.w3.org/2000/svg">
<path d="M10.5665 17.5166C10.5665 18.5161 9.84833 18.832 8.96606 18.832H6.65267V16.0925H9.01222C9.9663 16.0976 10.5665 16.4964 10.5665 17.5166V17.5166ZM10.1715 13.2545C10.1715 12.3378 9.46875 12.1203 8.68907 12.1203H6.6578V14.4404H8.84808C9.62263 14.4404 10.1715 14.0986 10.1715 13.2545V13.2545ZM16.9578 14.456C16.0191 14.456 15.3933 15.0464 15.3317 15.9941H18.5223C18.435 15.036 17.9426 14.456 16.9578 14.456ZM23.98 6.48582V24.7151C23.98 26.0875 22.8772 27.201 21.5179 27.201H3.46214C2.10283 27.201 1 26.0875 1 24.7151V6.48582C1 5.11344 2.10283 4 3.46214 4H21.5179C22.8772 4 23.98 5.11344 23.98 6.48582ZM14.9368 11.9235H18.9275V10.9448H14.9368V11.9235ZM12.7311 17.6357C12.7311 16.3877 12.1463 15.3105 10.9358 14.9635C11.818 14.5388 12.2797 14.0468 12.2797 13.0473C12.2797 11.069 10.8178 10.5874 9.1302 10.5874H4.48804V20.5307H9.26357C11.0538 20.5203 12.7311 19.6555 12.7311 17.6357V17.6357ZM20.492 16.8693C20.492 14.7408 19.2558 12.9645 17.0244 12.9645C14.8496 12.9645 13.3774 14.6113 13.3774 16.7761C13.3774 19.0185 14.7777 20.5566 17.0244 20.5566C18.7274 20.5566 19.8303 19.7849 20.3637 18.1329H18.6351C18.4453 18.7492 17.681 19.0703 17.086 19.0703C15.937 19.0703 15.3369 18.3918 15.3369 17.2422H20.4766C20.4817 17.123 20.492 16.9936 20.492 16.8693Z" fill="white"/>
</svg>
