<svg width="32" height="32" viewBox="0 0 32 32" fill="none" xmlns="http://www.w3.org/2000/svg">
<path d="M13.9911 17.9821C13.9911 19.0161 13.2411 19.3429 12.3196 19.3429H9.90357V16.5089H12.3679C13.3643 16.5143 13.9911 16.9268 13.9911 17.9821ZM13.5786 13.5732C13.5786 12.625 12.8446 12.4 12.0304 12.4H9.90893V14.8H12.1964C13.0054 14.8 13.5786 14.4464 13.5786 13.5732ZM20.6661 14.8161C19.6857 14.8161 19.0321 15.4268 18.9679 16.4071H22.3C22.2089 15.4161 21.6946 14.8161 20.6661 14.8161ZM28 6.57143V25.4286C28 26.8482 26.8482 28 25.4286 28H6.57143C5.15179 28 4 26.8482 4 25.4286V6.57143C4 5.15179 5.15179 4 6.57143 4H25.4286C26.8482 4 28 5.15179 28 6.57143ZM18.5554 12.1964H22.7232V11.1839H18.5554V12.1964ZM16.2518 18.1054C16.2518 16.8143 15.6411 15.7 14.3768 15.3411C15.2982 14.9018 15.7804 14.3929 15.7804 13.3589C15.7804 11.3125 14.2536 10.8143 12.4911 10.8143H7.64286V21.1H12.6304C14.5 21.0893 16.2518 20.1946 16.2518 18.1054ZM24.3571 17.3125C24.3571 15.1107 23.0661 13.2732 20.7357 13.2732C18.4643 13.2732 16.9268 14.9768 16.9268 17.2161C16.9268 19.5357 18.3893 21.1268 20.7357 21.1268C22.5143 21.1268 23.6661 20.3286 24.2232 18.6196H22.4179C22.2196 19.2571 21.4214 19.5893 20.8 19.5893C19.6 19.5893 18.9732 18.8875 18.9732 17.6982H24.3411C24.3464 17.575 24.3571 17.4411 24.3571 17.3125Z" fill="#FFF4E9"/>
</svg>
