<svg width="32" height="32" viewBox="0 0 32 32" fill="none" xmlns="http://www.w3.org/2000/svg">
<path d="M25 28H7C6.17187 28 5.46484 27.707 4.87891 27.1211C4.29297 26.5352 4 25.8281 4 25V7C4 6.17188 4.29297 5.46484 4.87891 4.87891C5.46484 4.29297 6.17187 4 7 4H25C25.8281 4 26.5352 4.29297 27.1211 4.87891C27.707 5.46484 28 6.17188 28 7V25C28 25.8281 27.707 26.5352 27.1211 27.1211C26.5352 27.707 25.8281 28 25 28ZM16 13C15.1719 13 14.4648 13.293 13.8789 13.8789C13.293 14.4648 13 15.1719 13 16C13 16.8281 13.293 17.5352 13.8789 18.1211C14.4648 18.707 15.1719 19 16 19C16.8281 19 17.5352 18.707 18.1211 18.1211C18.707 17.5352 19 16.8281 19 16C19 15.1719 18.707 14.4648 18.1211 13.8789C17.5352 13.293 16.8281 13 16 13ZM25 7.75C25 7.54688 24.9258 7.37109 24.7773 7.22266C24.6289 7.07422 24.4531 7 24.25 7H21.25C21.0469 7 20.8711 7.07422 20.7227 7.22266C20.5742 7.37109 20.5 7.54688 20.5 7.75V10.75C20.5 10.9531 20.5742 11.1289 20.7227 11.2773C20.8711 11.4258 21.0469 11.5 21.25 11.5H24.25C24.4531 11.5 24.6289 11.4258 24.7773 11.2773C24.9258 11.1289 25 10.9531 25 10.75V7.75ZM25 15.25C25 15.0469 24.9258 14.8711 24.7773 14.7227C24.6289 14.5742 24.4531 14.5 24.25 14.5H22.75C22.5469 14.5 22.3711 14.5742 22.2227 14.7227C22.0742 14.8711 22 15.0469 22 15.25V16C22 17.6562 21.4141 19.0703 20.2422 20.2422C19.0703 21.4141 17.6562 22 16 22C14.3437 22 12.9297 21.4141 11.7578 20.2422C10.5859 19.0703 10 17.6562 10 16V15.25C10 15.0469 9.92578 14.8711 9.77734 14.7227C9.62891 14.5742 9.45312 14.5 9.25 14.5H7.75C7.54688 14.5 7.37109 14.5742 7.22266 14.7227C7.07422 14.8711 7 15.0469 7 15.25V24.25C7 24.4531 7.07422 24.6289 7.22266 24.7773C7.37109 24.9258 7.54688 25 7.75 25H24.25C24.4531 25 24.6289 24.9258 24.7773 24.7773C24.9258 24.6289 25 24.4531 25 24.25V15.25Z" fill="#FFF4E9"/>
</svg>
