<svg width="30" height="30" viewBox="0 0 30 30" fill="none" xmlns="http://www.w3.org/2000/svg">
<path d="M23.1179 27H5.88477C5.09192 27 4.41501 26.7192 3.85404 26.1577C3.29306 25.5962 3.01257 24.9186 3.01257 24.125V6.875C3.01257 6.08138 3.29306 5.40381 3.85404 4.84229C4.41501 4.28076 5.09192 4 5.88477 4H23.1179C23.9108 4 24.5877 4.28076 25.1487 4.84229C25.7096 5.40381 25.9901 6.08138 25.9901 6.875V24.125C25.9901 24.9186 25.7096 25.5962 25.1487 26.1577C24.5877 26.7192 23.9108 27 23.1179 27ZM14.5014 12.625C13.7085 12.625 13.0316 12.9058 12.4706 13.4673C11.9096 14.0288 11.6292 14.7064 11.6292 15.5C11.6292 16.2936 11.9096 16.9712 12.4706 17.5327C13.0316 18.0942 13.7085 18.375 14.5014 18.375C15.2942 18.375 15.9711 18.0942 16.5321 17.5327C17.0931 16.9712 17.3735 16.2936 17.3735 15.5C17.3735 14.7064 17.0931 14.0288 16.5321 13.4673C15.9711 12.9058 15.2942 12.625 14.5014 12.625ZM23.1179 7.59375C23.1179 7.39909 23.0469 7.23063 22.9048 7.08838C22.7627 6.94613 22.5944 6.875 22.3999 6.875H19.5277C19.3332 6.875 19.1649 6.94613 19.0228 7.08838C18.8807 7.23063 18.8096 7.39909 18.8096 7.59375V10.4688C18.8096 10.6634 18.8807 10.8319 19.0228 10.9741C19.1649 11.1164 19.3332 11.1875 19.5277 11.1875H22.3999C22.5944 11.1875 22.7627 11.1164 22.9048 10.9741C23.0469 10.8319 23.1179 10.6634 23.1179 10.4688V7.59375ZM23.1179 14.7812C23.1179 14.5866 23.0469 14.4181 22.9048 14.2759C22.7627 14.1336 22.5944 14.0625 22.3999 14.0625H20.9638C20.7693 14.0625 20.601 14.1336 20.4589 14.2759C20.3168 14.4181 20.2457 14.5866 20.2457 14.7812V15.5C20.2457 17.0872 19.6848 18.4424 18.5628 19.5654C17.4409 20.6885 16.087 21.25 14.5014 21.25C12.9157 21.25 11.5618 20.6885 10.4399 19.5654C9.31794 18.4424 8.75696 17.0872 8.75696 15.5V14.7812C8.75696 14.5866 8.68591 14.4181 8.54379 14.2759C8.40168 14.1336 8.23339 14.0625 8.03891 14.0625H6.60282C6.40835 14.0625 6.24005 14.1336 6.09794 14.2759C5.95583 14.4181 5.88477 14.5866 5.88477 14.7812V23.4062C5.88477 23.6009 5.95583 23.7694 6.09794 23.9116C6.24005 24.0539 6.40835 24.125 6.60282 24.125H22.3999C22.5944 24.125 22.7627 24.0539 22.9048 23.9116C23.0469 23.7694 23.1179 23.6009 23.1179 23.4062V14.7812Z" fill="white"/>
</svg>
