<svg width="32" height="32" viewBox="0 0 32 32" fill="none" xmlns="http://www.w3.org/2000/svg">
<path d="M27.04 4H4.96C4.429 4 4 4.429 4 4.96V27.04C4 27.571 4.429 28 4.96 28H27.04C27.571 28 28 27.571 28 27.04V4.96C28 4.429 27.571 4 27.04 4ZM11.119 24.451H7.558V12.997H11.119V24.451ZM9.34 11.431C8.93178 11.431 8.53273 11.3099 8.1933 11.0832C7.85388 10.8564 7.58933 10.534 7.43311 10.1569C7.27689 9.77971 7.23602 9.36471 7.31566 8.96433C7.3953 8.56396 7.59188 8.19619 7.88053 7.90753C8.16919 7.61888 8.53696 7.4223 8.93733 7.34266C9.33771 7.26302 9.75271 7.30389 10.1299 7.46011C10.507 7.61633 10.8294 7.88088 11.0562 8.2203C11.2829 8.55973 11.404 8.95878 11.404 9.367C11.401 10.507 10.477 11.431 9.34 11.431ZM24.451 24.451H20.893V18.88C20.893 17.551 20.869 15.844 19.042 15.844C17.191 15.844 16.906 17.29 16.906 18.784V24.451H13.351V12.997H16.765V14.563H16.813C17.287 13.663 18.448 12.712 20.182 12.712C23.788 12.712 24.451 15.085 24.451 18.169V24.451Z" fill="#FFF4E9"/>
</svg>
