<svg width="132" height="132" viewBox="0 0 132 132" fill="none" xmlns="http://www.w3.org/2000/svg">
<g clip-path="url(#clip0_938_232)">
<rect x="4" y="4" width="124" height="124" fill="#DBDBDB"/>
<path d="M82.3503 102.08C72.0596 100.427 61.571 100.427 51.2803 102.08L66.7003 121.82L82.3503 102.08Z" fill="white" stroke="#4F4F4F" stroke-width="2" stroke-miterlimit="10"/>
<path d="M82.3501 102.08L66.7001 121.82L51.2802 102.08C35.6902 104.82 24.6401 112.73 24.6401 129.93C24.6401 131.32 24.7101 141.54 24.8501 142.93H108.54C108.68 141.58 108.75 131.36 108.75 129.93C108.75 112.82 97.8201 104.89 82.3501 102.08Z" fill="#A97F4B" stroke="#A97F4B" stroke-width="2" stroke-miterlimit="10"/>
<path d="M82.3501 102.08L66.7001 121.82L51.2802 102.08C35.6902 104.82 24.6401 112.73 24.6401 129.93C24.6401 131.32 24.7101 141.54 24.8501 142.93H108.54C108.68 141.58 108.75 131.36 108.75 129.93C108.75 112.82 97.8201 104.89 82.3501 102.08Z" stroke="white" stroke-width="0.5" stroke-linecap="round" stroke-linejoin="round"/>
<path d="M76.9503 104.21L77.0003 95.7V93.63C71.2203 96.17 61.8803 97.12 57.3203 97.45V103.74" fill="white"/>
<path d="M76.9503 104.21L77.0003 95.7V93.63C71.2203 96.17 61.8803 97.12 57.3203 97.45V103.74" stroke="#4F4F4F" stroke-width="2" stroke-miterlimit="10"/>
<path d="M66.7002 121.78V133.92" stroke="white" stroke-width="0.5" stroke-miterlimit="10"/>
<path d="M70.0899 125.54C71.0233 125.54 71.7799 124.783 71.7799 123.85C71.7799 122.917 71.0233 122.16 70.0899 122.16C69.1565 122.16 68.3999 122.917 68.3999 123.85C68.3999 124.783 69.1565 125.54 70.0899 125.54Z" fill="white"/>
<path d="M68.4319 98.7982C83.5023 98.7982 95.7193 86.5813 95.7193 71.5109C95.7193 56.4405 83.5023 44.2235 68.4319 44.2235C53.3615 44.2235 41.1445 56.4405 41.1445 71.5109C41.1445 86.5813 53.3615 98.7982 68.4319 98.7982Z" fill="#E4E4E4"/>
<path d="M97.738 71.7714C97.9333 59.6581 89.9881 48.3915 78.461 44.484C77.0934 44.0282 75.7257 43.6374 74.293 43.3769C62.5705 41.2929 50.1968 46.1122 43.7494 56.2716C37.2369 66.5614 38.1486 80.2376 45.8985 89.6808C53.5181 98.9285 66.478 102.185 77.8097 98.5377C89.402 94.8907 97.6077 84.0149 97.738 71.7714ZM43.6843 61.9375C47.4615 51.6478 57.5559 44.1584 68.6271 44.2887C70.0599 44.2887 71.4926 44.484 72.9254 44.7445C83.8664 46.8285 92.5931 55.5553 94.612 66.4963C96.696 77.5024 91.6162 88.9644 82.108 94.7605C77.419 97.626 71.8834 98.9936 66.3477 98.4726C60.747 97.9516 55.4067 95.542 51.2388 91.8299C42.9028 84.4707 39.8419 72.4226 43.6843 61.9375ZM73.1207 43.8979C74.6837 44.1584 76.1165 44.6143 77.5492 45.1353C76.4421 44.8097 75.335 44.484 74.1627 44.2887C67.3246 43.0513 60.2911 44.2887 54.3648 47.5449C58.5979 44.8748 63.5474 43.3769 68.6922 43.442C70.1901 43.5072 71.6229 43.6374 73.1207 43.8979Z" fill="#4F4F4F"/>
<g opacity="0.3">
<path opacity="0.3" d="M83.2805 50.6708C87.8392 56.4018 90.0534 63.9563 88.5556 71.7062C85.9506 85.8383 72.3395 95.1512 58.2073 92.5462C54.886 91.9601 51.8251 90.7227 49.0898 89.0294C52.8671 93.7184 58.2725 97.1701 64.6547 98.3423C78.7868 100.947 92.3979 91.6344 95.0029 77.5023C97.0218 66.6265 92.0072 56.1413 83.2805 50.6708Z" fill="#828282"/>
</g>
<path d="M63.5475 72.3573C63.3521 73.0086 63.5475 73.6598 63.6777 74.3111C64.0685 75.6787 64.4592 76.9812 65.6315 77.893C66.4781 78.5442 67.455 78.8698 68.4319 79.0652C72.4696 79.9118 74.5536 78.0883 75.9864 74.5065L63.5475 72.3573Z" fill="white"/>
<path d="M62.6361 72.4875C62.3756 73.5295 62.7664 74.7017 63.1571 75.6786C63.4827 76.5252 63.8735 77.3718 64.5247 77.9579C65.8924 79.2604 68.1066 79.7815 69.9301 79.7815C71.4931 79.7815 73.1212 79.3256 74.3586 78.2836C75.596 77.3067 76.3775 75.874 76.9636 74.3761C77.0287 74.1807 76.7682 74.0505 76.638 74.0505C72.991 73.3992 69.344 72.748 65.697 72.1618C65.176 72.0967 64.655 71.9665 64.134 71.9013C63.6781 71.8362 63.1571 71.9665 62.8315 72.227C62.571 72.4875 62.571 72.748 62.9617 72.8131C66.6087 73.4643 70.2557 74.1156 73.9027 74.7017C74.4237 74.7668 74.9447 74.8971 75.4657 74.9622C75.3355 74.832 75.2052 74.7017 75.1401 74.6366C74.6842 75.8088 74.0981 76.9811 73.1212 77.8277C72.3397 78.5441 71.428 78.7395 70.386 78.7395C68.823 78.6743 67.0646 78.1533 66.0226 76.9811C65.5016 76.395 65.2411 75.6786 64.9806 74.9622C64.7201 74.1156 64.3294 73.1387 64.5247 72.227C64.655 71.6408 62.7664 71.9013 62.6361 72.4875Z" fill="#383838"/>
<path d="M64.7197 76.4604C65.2407 75.8742 66.0222 75.6137 66.8037 75.5486C69.2133 75.2881 71.6881 76.1999 73.3162 77.9582C73.3162 77.9582 71.8183 79.7817 68.9528 79.4561C65.4361 78.9351 64.7197 76.4604 64.7197 76.4604Z" fill="#EF6461"/>
<path d="M65.5013 76.6556C66.2828 75.809 67.911 76.0044 68.8878 76.2649C70.2555 76.5905 71.4928 77.3068 72.4697 78.3488C72.5348 78.1535 72.5348 77.9581 72.6 77.7627C72.5348 77.893 72.4046 77.9581 72.2743 78.0884C72.2743 78.0884 72.0138 78.2837 72.2092 78.1535C72.1441 78.2186 72.079 78.2837 71.9487 78.3488C71.8836 78.414 71.7533 78.4791 71.6882 78.5442C71.6231 78.6093 71.6231 78.6093 71.6882 78.5442C71.6231 78.5442 71.558 78.6093 71.558 78.6093C71.1672 78.8047 70.8416 78.935 70.3206 78.935C69.6693 79.0001 69.0181 78.8698 68.432 78.6745C67.5853 78.414 66.8038 77.893 66.2177 77.1766C66.0223 76.9161 65.8921 76.7207 65.827 76.5254C65.7618 76.4602 65.7618 76.33 65.6967 76.1997C65.5013 75.4834 63.6127 76.0043 63.8081 76.7207C64.1337 77.7627 65.0455 78.6094 65.8921 79.1304C67.9761 80.3677 70.7113 80.3677 72.7953 79.1955C73.3163 78.935 73.7722 78.6094 74.163 78.1535C74.2932 78.0232 74.4235 77.7627 74.2932 77.5673C73.0558 76.2649 71.3626 75.3531 69.5391 75.0926C67.7156 74.767 65.306 74.8321 64.0035 76.33C63.743 76.6556 63.8081 76.9812 64.1988 77.0463C64.5896 77.1115 65.2408 76.9812 65.5013 76.6556Z" fill="#383838"/>
<path d="M58.988 60.9607C58.2717 60.5699 57.425 60.1792 56.7087 60.4397C56.1225 60.6351 55.7318 61.2212 55.4713 61.7422C55.1457 62.3934 55.0805 63.1749 55.2759 63.8913C55.6015 64.8682 56.7738 65.5194 57.8158 65.3241C58.8578 65.1287 59.6393 64.0216 59.509 62.9144C59.3788 62.0678 58.5973 61.2212 57.7507 61.4166C57.0994 61.5468 56.7087 62.1981 56.6435 62.8493C56.5133 63.5657 57.0343 64.4774 57.7507 64.4123C58.4019 64.3472 58.7275 63.6308 58.8578 62.9796C58.9229 62.6539 58.9229 62.2632 58.7275 62.0027C58.5322 61.7422 58.0763 61.6771 57.8809 61.9376" fill="#4F4F4F"/>
<path d="M59.8995 60.3096C59.3133 59.984 58.6621 59.7235 58.0108 59.5933C57.1642 59.463 56.3176 59.6584 55.6012 60.1143C54.6243 60.7004 54.0382 61.9378 53.908 63.0449C53.8428 64.152 54.2987 65.1289 55.2756 65.715C56.3176 66.3663 57.7503 66.3663 58.7923 65.7801C59.7692 65.2591 60.6158 64.3474 60.681 63.1751C60.7461 62.068 60.0297 61.026 58.9877 60.7004C57.555 60.3096 55.992 61.1563 55.471 62.5239C55.1453 63.3705 55.471 64.5428 56.3827 64.9335C57.1642 65.3243 58.2062 65.1289 58.9226 64.673C59.4436 64.2823 59.7692 63.6961 59.9646 63.0449C60.0948 62.3936 60.0948 61.6773 59.5087 61.2865C58.7923 60.7004 57.4247 60.9609 56.8386 61.6121C56.7083 61.8075 56.5781 62.0029 56.6432 62.1983C56.7083 62.3936 56.9037 62.589 57.0991 62.589C57.6201 62.7193 58.4016 62.589 58.7923 62.1331C58.9226 62.0029 58.9226 62.068 58.5318 62.2634C58.2062 62.4588 58.076 62.5239 57.6852 62.4588C57.555 62.4588 57.6201 62.4588 57.6852 62.4588C57.6852 62.4588 57.4898 62.3936 57.6201 62.4588C57.7503 62.5239 57.4898 62.3936 57.555 62.4588C57.6201 62.4588 57.555 62.4588 57.555 62.4588C57.6201 62.5239 57.6201 62.6541 57.6201 62.7193C57.6201 62.589 57.6201 62.7844 57.6201 62.8495C57.6201 62.9146 57.6201 63.0449 57.6201 63.11C57.6201 63.1751 57.6201 63.2403 57.555 63.3054C57.555 63.3705 57.555 63.3705 57.4898 63.4356C57.4898 63.5659 57.555 63.3054 57.4898 63.4356C57.4898 63.5008 57.3596 63.8264 57.2945 63.8264C57.2945 63.8264 57.4898 63.631 57.2945 63.7613L57.2293 63.8264C57.1642 63.8915 57.2945 63.7613 57.2945 63.7613C57.1642 63.8915 57.4247 63.6961 57.4898 63.6961C57.6852 63.631 57.555 63.6961 57.555 63.6961C57.6852 63.6961 57.7503 63.6961 57.8155 63.631C58.0108 63.631 57.8806 63.631 57.8155 63.631C58.076 63.631 58.0108 63.6961 57.9457 63.631C57.9457 63.631 58.076 63.6961 58.0108 63.6961L57.9457 63.631C57.8155 63.5659 58.0108 63.631 57.9457 63.631L57.8806 63.5659C57.8155 63.5008 57.8155 63.4356 57.7503 63.3705C57.6852 63.3054 57.7503 63.3705 57.7503 63.4356C57.7503 63.4356 57.7503 63.3705 57.6852 63.3705C57.6201 63.2403 57.6201 63.0449 57.555 62.9146C57.555 62.7844 57.555 62.9798 57.555 62.8495C57.555 62.7844 57.555 62.7193 57.555 62.6541C57.555 62.589 57.6201 62.5239 57.6201 62.4588C57.6201 62.3285 57.555 62.589 57.6201 62.4588C57.6201 62.3936 57.6852 62.3936 57.6852 62.3285L57.8155 62.1331C57.8155 62.1331 57.6852 62.2634 57.7503 62.1983L57.8155 62.1331C57.9457 62.0029 57.6852 62.2634 57.8155 62.1331C57.8806 62.068 57.6852 62.1983 57.6852 62.1983C57.8155 62.1331 57.6201 62.1983 57.555 62.2634C57.7503 62.1983 57.4247 62.2634 57.4247 62.2634C57.4898 62.2634 57.6201 62.2634 57.4247 62.2634C57.2293 62.2634 57.3596 62.2634 57.4247 62.2634C57.0991 62.1983 57.2945 62.1983 57.3596 62.2634C57.3596 62.2634 57.4898 62.2634 57.3596 62.2634C57.2945 62.2634 57.2945 62.2634 57.3596 62.2634C57.4247 62.3285 57.4898 62.3936 57.6201 62.3936C57.6201 62.3936 57.4898 62.3285 57.555 62.3936C57.555 62.4588 57.6201 62.4588 57.6852 62.5239C57.7503 62.589 57.7503 62.6541 57.8155 62.6541C57.8806 62.7193 57.8806 62.7844 57.9457 62.8495C57.8806 62.7193 58.0108 62.9798 58.0108 62.9798C58.0108 63.0449 58.076 63.11 58.076 63.1751C58.076 63.2403 58.076 63.4356 58.076 63.3705C58.076 63.3054 58.076 63.5008 58.076 63.5008C58.076 63.5659 58.076 63.6961 58.0108 63.7613C58.0108 63.8264 57.9457 63.8915 57.9457 64.0218C58.0108 63.8915 57.9457 64.0218 57.9457 64.0869C57.8806 64.152 57.8806 64.2171 57.8155 64.2823L57.7503 64.3474C57.6852 64.4776 57.7503 64.3474 57.7503 64.3474C57.7503 64.3474 57.6201 64.4776 57.6201 64.5428L57.555 64.6079C57.4898 64.673 57.4247 64.673 57.6201 64.5428C57.555 64.5428 57.4898 64.6079 57.4247 64.673C57.3596 64.7381 57.2945 64.7381 57.4898 64.6079C57.4247 64.6079 57.4247 64.673 57.3596 64.673C57.3596 64.673 57.2945 64.673 57.2945 64.7381C57.1642 64.8033 57.4247 64.673 57.4247 64.673C57.4247 64.673 57.2945 64.673 57.2945 64.7381C57.2945 64.7381 57.555 64.673 57.4247 64.7381C57.4247 64.7381 57.3596 64.7381 57.2945 64.7381C57.0991 64.7381 57.3596 64.7381 57.4247 64.7381C57.3596 64.7381 57.2945 64.7381 57.1642 64.7381C56.9037 64.7381 57.2945 64.8033 57.1642 64.7381C57.0991 64.7381 57.034 64.673 56.9688 64.673C56.9037 64.673 57.034 64.673 57.034 64.7381C57.034 64.7381 56.9688 64.7381 56.9688 64.673C56.9037 64.6079 56.8386 64.6079 56.7083 64.5428C56.6432 64.4776 56.5781 64.4776 56.513 64.4125C56.6432 64.4776 56.513 64.4125 56.513 64.3474C56.3827 64.2171 56.3176 64.0869 56.2525 63.9566C56.2525 63.8915 56.1873 63.8915 56.1873 63.8264C56.1873 63.8264 56.2525 63.9566 56.1873 63.8264C56.1873 63.7613 56.1222 63.6961 56.1222 63.5659C56.1222 63.5008 56.0571 63.3705 56.0571 63.3054C56.0571 63.2403 56.0571 63.1751 56.0571 63.11C56.0571 63.11 56.0571 62.9798 56.0571 63.0449C56.0571 62.8495 56.0571 62.589 56.1222 62.3936C56.1222 62.2634 56.1873 62.1983 56.1873 62.068C56.1873 62.0029 56.1873 62.0029 56.2525 61.9378C56.1873 62.068 56.2525 61.8726 56.3176 61.8726C56.3827 61.6773 56.4478 61.547 56.5781 61.3516L56.6432 61.2865C56.7083 61.1563 56.513 61.4168 56.6432 61.2865C56.7083 61.2214 56.7735 61.1563 56.8386 61.0911C56.9037 60.9609 56.6432 61.2214 56.7735 61.1563C56.8386 61.1563 56.8386 61.0911 56.9037 61.0911C56.9688 61.026 56.7735 61.1563 56.7735 61.1563C56.7735 61.1563 57.034 61.026 56.8386 61.1563C56.6432 61.2214 56.7735 61.1563 56.8386 61.1563C56.7735 61.1563 56.5781 61.1563 56.7735 61.1563C56.4478 61.1563 56.8386 61.1563 56.9037 61.1563C56.9037 61.1563 56.7083 61.0911 56.9037 61.1563C56.9688 61.1563 57.034 61.1563 57.0991 61.2214C57.1642 61.2214 57.1642 61.2214 57.2293 61.2865C57.2293 61.2865 57.4247 61.3516 57.2945 61.2865C57.4898 61.3516 57.7503 61.4819 57.9457 61.6121C58.4667 61.8726 59.1831 61.8075 59.639 61.4168C60.0948 61.1563 60.4205 60.6353 59.8995 60.3096Z" fill="#383838"/>
<path d="M87.1882 66.7568C86.4719 66.3661 85.6252 65.9753 84.9089 66.2358C84.3227 66.4312 83.932 67.0173 83.6715 67.5383C83.3459 68.1896 83.2807 68.9711 83.4761 69.6875C83.8017 70.6643 84.974 71.3156 86.016 71.1202C87.058 70.9248 87.8395 69.8177 87.7092 68.7106C87.579 67.864 86.7975 67.0173 85.9509 67.2127C85.2996 67.343 84.9089 67.9942 84.8437 68.6455C84.7135 69.3618 85.2345 70.2736 85.9509 70.2085C86.6021 70.1433 86.9277 69.427 87.058 68.7757C87.1231 68.4501 87.1231 68.0593 86.9277 67.7988C86.7324 67.5383 86.2765 67.4732 86.0811 67.7337" fill="#4F4F4F"/>
<path d="M88.1656 66.1707C87.5794 65.8451 86.9933 65.5846 86.2769 65.4543C85.4303 65.3241 84.5837 65.5195 83.8673 65.9753C82.8904 66.5615 82.3043 67.7988 82.1741 68.906C82.1089 70.0131 82.5648 70.99 83.5417 71.5761C84.5837 72.2273 86.0164 72.2273 87.0584 71.6412C88.0353 71.1202 88.8819 70.2085 88.9471 69.0362C89.0122 67.9291 88.2958 66.8871 87.2538 66.5615C85.8211 66.1707 84.2581 67.0173 83.7371 68.385C83.4114 69.2316 83.7371 70.4038 84.6488 70.7946C85.4303 71.1853 86.4723 70.99 87.1887 70.5341C87.7097 70.1433 88.0353 69.5572 88.2307 68.906C88.3609 68.2547 88.3609 67.5383 87.7748 67.1476C87.0584 66.5615 85.6908 66.822 85.1047 67.4732C84.9744 67.6686 84.8442 67.864 84.9093 68.0593C84.9745 68.2547 85.1698 68.4501 85.3652 68.4501C85.8862 68.5803 86.6677 68.4501 87.0584 67.9942C87.1887 67.864 87.1887 67.9291 86.7979 68.1245C86.4723 68.3198 86.3421 68.385 85.9513 68.3198C85.8211 68.3198 85.8862 68.3198 85.9513 68.3198C85.9513 68.3198 85.756 68.2547 85.8862 68.3198C86.0165 68.385 85.7559 68.2547 85.8211 68.3198C85.8862 68.3198 85.8211 68.3198 85.8211 68.3198C85.8862 68.385 85.8862 68.5152 85.8862 68.5803C85.8862 68.4501 85.8862 68.6455 85.8862 68.7106C85.8862 68.7757 85.8862 68.906 85.8862 68.9711C85.8862 69.0362 85.8862 69.1013 85.8211 69.1665C85.8211 69.2316 85.8211 69.2316 85.7559 69.2967C85.7559 69.427 85.8211 69.1665 85.7559 69.2967C85.7559 69.3618 85.6257 69.6875 85.5606 69.6875C85.5606 69.6875 85.756 69.4921 85.5606 69.6223L85.4954 69.6875C85.4303 69.7526 85.5606 69.6223 85.5606 69.6223C85.4303 69.7526 85.6908 69.5572 85.7559 69.5572C85.9513 69.4921 85.8211 69.5572 85.8211 69.5572C85.9513 69.5572 86.0164 69.5572 86.0816 69.4921C86.2769 69.4921 86.1467 69.4921 86.0816 69.4921C86.3421 69.4921 86.2769 69.5572 86.2118 69.4921C86.2118 69.4921 86.3421 69.5572 86.2769 69.5572L86.2118 69.4921C86.0816 69.427 86.2769 69.4921 86.2118 69.4921L86.1467 69.427C86.0816 69.3618 86.0816 69.2967 86.0164 69.2316C85.9513 69.1665 86.0164 69.2316 86.0164 69.2967C86.0164 69.2967 86.0164 69.2316 85.9513 69.2316C85.8862 69.1013 85.8862 68.906 85.8211 68.7757C85.8211 68.6455 85.8211 68.8408 85.8211 68.7106C85.8211 68.6455 85.8211 68.5803 85.8211 68.5152C85.8211 68.4501 85.8862 68.385 85.8862 68.3198C85.8862 68.1896 85.8211 68.4501 85.8862 68.3198C85.8862 68.2547 85.9513 68.2547 85.9513 68.1896L86.0816 67.9942C86.0816 67.9942 85.9513 68.1245 86.0164 68.0593L86.0816 67.9942C86.2118 67.864 85.9513 68.1245 86.0816 67.9942C86.1467 67.9291 85.9513 68.0593 85.9513 68.0593C86.0816 67.9942 85.8862 68.0593 85.8211 68.1245C86.0164 68.0593 85.6908 68.1245 85.6908 68.1245C85.7559 68.1245 85.8862 68.1245 85.6908 68.1245C85.4954 68.1245 85.6257 68.1245 85.6908 68.1245C85.3652 68.0593 85.5606 68.0593 85.6257 68.1245C85.6257 68.1245 85.7559 68.1245 85.6257 68.1245C85.5606 68.1245 85.5606 68.1245 85.6257 68.1245C85.6908 68.1896 85.756 68.2547 85.8862 68.2547C85.8862 68.2547 85.7559 68.1896 85.8211 68.2547C85.8211 68.3198 85.8862 68.3198 85.9513 68.385C86.0164 68.4501 86.0164 68.5152 86.0816 68.5152C86.1467 68.5803 86.1467 68.6455 86.2118 68.7106C86.1467 68.5803 86.2769 68.8408 86.2769 68.8408C86.2769 68.906 86.3421 68.9711 86.3421 69.0362C86.3421 69.1013 86.3421 69.2967 86.3421 69.2316C86.3421 69.1665 86.3421 69.3618 86.3421 69.3618C86.3421 69.427 86.3421 69.5572 86.2769 69.6223C86.2769 69.6875 86.2118 69.7526 86.2118 69.8828C86.2769 69.7526 86.2118 69.8828 86.2118 69.948C86.1467 70.0131 86.1467 70.0782 86.0816 70.1433L86.0164 70.2085C85.9513 70.3387 86.0164 70.2085 86.0164 70.2085C86.0164 70.2085 85.8862 70.3387 85.8862 70.4038L85.8211 70.469C85.7559 70.5341 85.6908 70.5341 85.8862 70.4038C85.8211 70.4038 85.7559 70.469 85.6908 70.5341C85.6257 70.5992 85.5606 70.5992 85.7559 70.469C85.6908 70.469 85.6908 70.5341 85.6257 70.5341C85.6257 70.5341 85.5606 70.5341 85.5606 70.5992C85.4303 70.6643 85.6908 70.5341 85.6908 70.5341C85.6908 70.5341 85.5606 70.5341 85.5606 70.5992C85.5606 70.5992 85.8211 70.5341 85.6908 70.5992C85.6908 70.5992 85.6257 70.5992 85.5606 70.5992C85.3652 70.5992 85.6257 70.5992 85.6908 70.5992C85.6257 70.5992 85.5606 70.5992 85.4303 70.5992C85.1698 70.5992 85.5606 70.6643 85.4303 70.5992C85.3652 70.5992 85.3001 70.5341 85.235 70.5341C85.1698 70.5341 85.3001 70.5341 85.3001 70.5992C85.3001 70.5992 85.235 70.5992 85.235 70.5341C85.1698 70.469 85.1047 70.469 84.9744 70.4038C84.9093 70.3387 84.8442 70.3387 84.7791 70.2736C84.9093 70.3387 84.7791 70.2736 84.7791 70.2085C84.6488 70.0782 84.5837 69.948 84.5186 69.8177C84.5186 69.7526 84.4534 69.7526 84.4534 69.6875C84.4534 69.6875 84.5186 69.8177 84.4534 69.6875C84.4534 69.6223 84.3883 69.5572 84.3883 69.427C84.3883 69.3618 84.3232 69.2316 84.3232 69.1665C84.3232 69.1013 84.3232 69.0362 84.3232 68.9711C84.3232 68.9711 84.3232 68.8408 84.3232 68.906C84.3232 68.7106 84.3232 68.4501 84.3883 68.2547C84.3883 68.1245 84.4534 68.0593 84.4534 67.9291C84.4534 67.864 84.4534 67.864 84.5186 67.7988C84.4534 67.9291 84.5186 67.7337 84.5837 67.7337C84.6488 67.5383 84.7139 67.4081 84.8442 67.2127L84.9093 67.1476C84.9745 67.0173 84.7791 67.2778 84.9093 67.1476C84.9745 67.0825 85.0396 67.0173 85.1047 66.9522C85.1698 66.822 84.9093 67.0825 85.0396 67.0173C85.1047 67.0173 85.1047 66.9522 85.1698 66.9522C85.2349 66.8871 85.0396 67.0173 85.0396 67.0173C85.0396 67.0173 85.3001 66.8871 85.1047 67.0173C84.9093 67.0825 85.0396 67.0173 85.1047 67.0173C85.0396 67.0173 84.8442 67.0173 85.0396 67.0173C84.7139 67.0173 85.1047 67.0173 85.1698 67.0173C85.1698 67.0173 84.9744 66.9522 85.1698 67.0173C85.2349 67.0173 85.3001 67.0173 85.3652 67.0825C85.4303 67.0825 85.4303 67.0825 85.4954 67.1476C85.4954 67.1476 85.6908 67.2127 85.5606 67.1476C85.756 67.2127 86.0165 67.343 86.2118 67.4732C86.7328 67.7337 87.4492 67.6686 87.9051 67.2778C88.2958 67.0173 88.6866 66.4312 88.1656 66.1707Z" fill="#383838"/>
<path d="M66.218 55.5553C65.7621 56.2716 65.3714 57.0531 64.7853 57.7044C64.0038 58.551 63.0269 59.072 61.9198 59.2674C59.7706 59.6581 57.6866 58.9418 55.5375 58.4859C53.4535 57.9649 51.109 57.7044 49.2855 58.8766C46.2246 60.7653 45.7688 65.5845 42.6428 67.408C40.3634 68.7105 37.2374 67.7336 35.6093 65.6496C33.9812 63.5656 33.0043 58.6813 33.395 55.946C33.8509 52.6898 36.4559 51.0616 39.5819 50.736C42.0567 50.4755 44.4663 52.2339 46.8759 51.6478C48.9599 51.1268 50.2624 49.0428 51.7603 47.3495C54.3653 44.484 58.0774 42.8559 61.7895 41.9441C76.2473 38.4274 92.5285 46.2424 99.4317 59.9838C100.409 62.0026 101.255 64.282 100.669 66.4311C100.083 68.5803 97.478 70.2084 95.7196 68.9059C94.1566 67.7336 94.0915 65.0635 92.4634 63.9564C91.5516 63.3703 90.3794 63.3703 89.3374 63.3703C83.2808 63.1098 77.68 58.3556 76.117 52.2339C73.0561 50.9314 69.1486 52.1036 66.9344 54.5784C66.6739 54.904 66.4134 55.2296 66.218 55.5553Z" fill="#EF6461"/>
<path d="M65.1764 54.3831C64.2646 55.8159 63.4831 57.2486 61.7247 57.7045C59.9012 58.1604 58.0777 57.7045 56.3194 57.2486C53.2585 56.4671 49.7417 55.881 47.3321 58.3557C45.5737 60.1141 44.8574 62.5889 43.3595 64.5426C42.6431 65.5195 41.6663 66.2359 40.4289 66.3661C39.1915 66.5615 37.8239 66.1056 36.847 65.259C35.2189 63.8914 34.6979 60.8956 34.5676 58.7465C34.5025 57.5742 34.5025 56.3369 35.0235 55.2949C35.5445 54.1877 36.4563 53.4714 37.5634 52.9504C38.7356 52.3642 40.1684 52.1689 41.4709 52.3642C43.099 52.6247 44.5969 53.276 46.225 53.3411C49.4812 53.4062 51.1094 50.4756 53.1282 48.3916C57.2311 44.1585 63.8087 42.7257 69.5397 42.7257C75.0102 42.7257 80.4156 44.2887 85.1697 46.8937C89.8587 49.4336 93.9616 53.1457 96.8271 57.6394C97.6086 58.8767 98.325 60.1141 98.9111 61.4166C99.4972 62.7842 99.9531 64.4775 99.367 65.9102C98.9762 66.9522 97.8691 67.9291 96.6968 67.9942C95.6549 68.0594 95.4595 67.0825 95.0687 66.2359C94.4826 64.8682 93.7662 63.5006 92.3986 62.7191C91.031 61.9376 89.5331 62.133 88.0352 61.9376C85.3651 61.612 82.8904 60.4397 80.8715 58.6162C79.8946 57.7045 79.048 56.6625 78.3967 55.4902C78.1362 55.0344 77.8757 54.5134 77.6804 53.9924C77.3547 53.1457 77.2245 52.1689 76.6384 51.4525C75.6615 50.4105 73.5775 50.2802 72.275 50.3454C70.8422 50.4105 69.4746 50.8664 68.2372 51.5827C66.9999 52.1689 65.9579 53.1457 65.1764 54.3831C64.46 55.4902 66.4789 57.965 67.3255 56.7276C69.0839 53.9924 72.9914 52.2991 76.1825 53.6016C75.7917 53.0806 75.401 52.5596 75.0102 52.0386C76.5081 57.8999 81.132 62.8494 87.0584 64.4775C88.426 64.8682 89.8587 64.8031 91.2263 64.9985C92.6591 65.1287 92.7242 65.8451 93.3103 67.0825C93.8965 68.4501 94.7431 69.8829 96.1758 70.5992C97.3481 71.1854 98.7157 71.0551 99.8228 70.3387C102.884 68.5152 102.493 64.6077 101.451 61.7422C100.409 58.8767 98.6506 56.2066 96.762 53.797C93.2452 49.3034 88.6213 45.6564 83.4765 43.1816C78.3967 40.772 72.796 39.5346 67.1952 39.7951C61.2037 40.0556 54.7564 41.9442 50.6535 46.503C49.6766 47.6101 48.83 48.8475 47.6577 49.6941C46.2901 50.671 44.8574 50.4756 43.2944 50.0849C41.7314 49.6941 40.2335 49.2382 38.6054 49.4987C37.3029 49.6941 36.0004 50.0849 34.9584 50.8664C32.679 52.4294 32.0278 55.0995 32.2231 57.7045C32.4185 60.5049 33.0698 63.6309 34.6979 65.9754C36.326 68.3199 39.452 70.2085 42.3826 69.3619C44.9876 68.6455 46.225 66.1707 47.4624 63.9565C48.0485 62.9145 48.6346 61.7422 49.5464 60.8956C50.6535 59.8536 52.1514 59.528 53.6492 59.5931C57.166 59.8536 60.6827 61.8725 64.1995 60.3746C65.8276 59.6582 66.6091 58.2255 67.4557 56.8579C67.9767 55.6205 65.9579 53.0806 65.1764 54.3831Z" fill="#4F4F4F"/>
<path d="M76.5728 29.7007C68.9532 28.2679 60.0962 29.896 53.9093 34.2594C49.5459 37.3854 46.7456 42.0093 45.5733 47.2193C45.5733 47.2193 45.5733 47.2193 45.5082 47.2193C45.5082 47.2193 19.5884 46.568 38.0188 60.114C37.8886 59.2674 38.0188 58.7464 38.0188 58.7464L44.1406 54.7738C44.1406 54.7738 44.1406 53.5364 44.7267 51.9083C44.7267 51.778 44.7918 51.7129 44.7918 51.5826H44.8569C46.0943 51.778 56.6446 50.9965 72.2745 52.9503C72.2745 52.9503 72.2094 52.6898 72.2745 52.6898C72.2745 52.6898 72.3397 52.7549 72.3397 52.82V52.9503C72.7304 53.0154 73.1212 53.0805 73.5119 53.1456C75.9867 53.6015 78.5917 54.1876 81.3269 54.904C83.4109 55.425 85.4949 56.0763 87.644 56.7275C88.165 56.9229 88.7512 57.0531 89.2722 57.2485C92.3982 58.3556 95.6544 59.593 98.9758 61.0258C99.106 61.0909 99.2363 61.156 99.3665 61.2211C99.3665 61.2211 99.9527 57.8346 100.018 57.6393C100.278 54.7738 100.148 51.778 99.4317 48.9776C97.0872 39.3392 88.8163 33.3477 79.6988 30.4822C78.6568 30.1565 77.6148 29.896 76.5728 29.7007ZM73.1863 48.5218L67.2599 47.4798C67.0645 47.6752 68.9532 44.1584 73.8375 44.7445V44.8097C78.5265 45.2655 79.1127 49.5638 79.1127 49.5638L73.1863 48.5218Z" fill="#FFEB70"/>
<path d="M75.9863 28.5284C65.9571 26.7049 53.5833 29.5053 47.5918 38.4274C45.9637 40.837 44.8566 43.5722 44.2053 46.4377C44.2704 46.3075 44.4007 46.1772 44.4658 46.1121C44.9217 45.9819 44.1402 46.047 43.9448 46.047C43.3587 46.047 42.7074 46.047 42.1213 46.1121C40.2978 46.1772 38.4743 46.3726 36.6508 46.6982C33.6551 47.2844 28.9661 48.7171 30.2034 52.7549C31.3106 56.1414 34.7622 58.7464 37.4974 60.7652C37.8882 61.0909 39.5163 61.8724 39.3861 60.635C39.3209 60.2442 39.3209 59.8535 39.4512 59.5279C39.3861 59.6581 39.2558 59.7884 39.1907 59.8535C40.6234 58.9417 42.1213 57.9649 43.5541 57.0531C44.1402 56.6624 44.7914 56.3367 45.3124 55.946C45.6381 55.6855 45.5729 55.425 45.6381 55.0342C45.7683 54.1225 46.0939 53.2759 46.2893 52.4292C46.0288 52.5595 45.7683 52.6897 45.4427 52.82C46.0939 52.9502 46.7452 52.8851 47.3313 52.8851C48.5036 52.8851 49.7409 52.8851 50.9132 52.8851C55.0812 52.8851 59.1841 53.0154 63.2869 53.2759C66.4781 53.4712 69.7343 53.7969 72.9254 54.1876C73.4464 54.2527 73.772 54.1225 73.772 53.5364C73.772 53.4712 73.772 53.341 73.772 53.2759C73.0557 53.2107 72.3393 53.1456 71.5578 53.0805C71.4275 52.9502 71.3624 52.7549 71.2322 52.6246C71.167 52.4292 71.167 52.2339 71.1019 52.1036C71.1019 52.1687 71.1019 52.1687 71.1019 52.2339C70.9717 53.1456 72.2742 54.0574 72.9905 54.1876C82.1732 55.8157 91.1604 58.6161 99.6918 62.4585C100.017 62.5887 100.734 62.719 100.864 62.198C101.19 60.1791 101.58 58.1602 101.58 56.0762C101.58 52.4944 100.929 48.8474 99.4964 45.5911C96.9565 39.8601 92.1373 35.4316 86.7319 32.501C83.3454 30.6124 79.6984 29.2448 75.9863 28.5284C75.335 28.3981 75.0094 28.854 75.2699 29.4401C75.5304 30.0914 76.377 30.7426 77.0934 30.8729C82.4337 31.8498 87.9693 34.4547 91.9419 38.1669C96.3704 42.3349 98.78 48.0659 98.78 54.1225C98.78 56.3367 98.3893 58.3556 98.0637 60.5047C98.4544 60.4396 98.8452 60.3094 99.2359 60.2442C90.5092 56.3367 81.2614 53.4712 71.8183 51.778C72.4695 52.4292 73.1208 53.0805 73.7069 53.7317C73.8372 53.1456 73.4464 52.6897 73.1208 52.299C72.6649 51.8431 70.8414 50.8011 70.9065 52.1036C70.9065 52.1687 70.9065 52.299 70.9065 52.3641C71.167 52.1687 71.4275 51.9734 71.7532 51.7129C63.2218 50.6709 54.6904 50.215 46.1591 50.3452C45.7032 50.3452 45.2473 50.3452 44.7914 50.3452C44.6612 50.3452 44.4658 50.3452 44.3356 50.3452C43.9448 50.3452 44.5961 50.4104 44.2704 50.3452C43.9448 50.2801 43.5541 50.3452 43.4238 50.736C43.1633 51.778 42.7726 52.82 42.7726 53.9271C42.8377 53.7969 42.9679 53.6666 43.0331 53.6015C41.7957 54.4481 40.4932 55.2296 39.2558 56.0762C38.6046 56.5321 37.8882 56.9229 37.2369 57.3787C37.1067 57.4439 36.8462 57.5741 36.7811 57.7044C36.4554 58.1602 36.5857 59.072 36.6508 59.5279C37.3021 59.4627 37.8882 59.4627 38.5394 59.3976C37.1067 58.3556 35.8042 57.3136 34.5668 56.0111C34.0458 55.4901 33.9807 55.3599 33.5248 54.7737C33.4597 54.6435 33.3946 54.5784 33.3294 54.4481C33.1341 54.1876 33.3294 54.5132 33.2643 54.3179C33.1341 54.1225 33.0689 53.9271 32.9387 53.6666C32.8736 53.4712 32.9387 53.6666 32.8736 53.6015C32.8736 53.5364 32.8084 53.4061 32.8084 53.341C32.7433 53.1456 32.7433 52.9502 32.7433 52.7549C32.7433 52.8851 32.7433 52.6246 32.7433 52.4944C32.7433 52.3641 32.8084 52.1687 32.8736 52.0385C32.9387 51.778 32.8736 51.9734 33.0038 51.7129C33.0689 51.5826 33.1992 51.4524 33.2643 51.3221C33.3294 51.1919 33.4597 51.0616 33.5899 50.9965C33.6551 50.9314 33.9807 50.6709 33.9156 50.736C35.2181 49.7591 37.0416 49.3032 38.4743 49.0427C40.1676 48.7171 41.9259 48.5217 43.6843 48.4566C44.6612 48.3915 45.7683 48.5869 46.6801 48.3264C46.8103 48.2612 46.9406 48.131 46.9406 48.0007C48.0477 43.1815 50.6527 38.753 54.6253 35.6921C58.5979 32.6964 63.6777 31.0683 68.562 30.5473C71.4276 30.2216 74.293 30.3519 77.1585 30.8729C77.8098 31.0031 78.1354 30.5473 77.8749 29.9611C77.5493 29.3099 76.7027 28.6586 75.9863 28.5284Z" fill="#FEC14E"/>
<path d="M44.0098 50.2802L43.7493 50.3453C43.6841 50.3453 43.619 50.4104 43.5539 50.4755C43.5539 50.5407 43.4888 50.6058 43.4888 50.6709C44.4005 51.1919 45.3123 51.7129 46.224 52.299C46.224 52.299 46.224 52.299 46.224 52.2339C45.3123 51.7129 44.4005 51.1919 43.4888 50.6058C43.4888 50.736 43.4888 50.8663 43.5539 50.9965C43.619 51.1919 43.6841 51.3222 43.7493 51.4524C43.8795 51.6478 44.0098 51.778 44.14 51.9083C44.2703 52.0385 44.4656 52.1688 44.661 52.299C44.7913 52.3641 44.9215 52.4293 44.9866 52.4944C45.182 52.5595 45.3774 52.6246 45.6379 52.6246C45.703 52.6246 45.8333 52.5595 45.8984 52.5595C46.0286 52.4944 46.1589 52.3642 46.1589 52.2339C46.1589 52.1037 46.1589 51.9734 46.0938 51.8432C46.0286 51.6478 45.9635 51.5175 45.8984 51.3873C45.7681 51.1919 45.6379 51.0617 45.5076 50.9314C45.3774 50.8012 45.182 50.6709 44.9866 50.5407C44.8564 50.4755 44.7261 50.4104 44.661 50.3453C44.4656 50.2802 44.2703 50.2802 44.0098 50.2802C43.9446 50.2802 43.8144 50.2802 43.7493 50.2802C43.619 50.3453 43.4888 50.4755 43.4888 50.6058C43.4888 50.6058 43.4888 50.6058 43.4888 50.6709C43.4888 50.8012 43.4888 50.9314 43.5539 51.0617C43.619 51.257 43.6841 51.3873 43.7493 51.5175C43.8795 51.7129 44.0098 51.8431 44.14 51.9734C44.2703 52.1036 44.4656 52.2339 44.661 52.3642C44.7913 52.4293 44.9215 52.4944 44.9866 52.5595C45.182 52.6247 45.3774 52.6898 45.6379 52.6898C45.703 52.6898 45.8333 52.6246 45.8984 52.6246C46.0286 52.5595 46.1589 52.4293 46.1589 52.299C46.1589 52.3641 46.0938 52.4293 46.0938 52.4944C46.0286 52.5595 45.9635 52.5595 45.8984 52.6246C45.8333 52.6246 45.703 52.6898 45.6379 52.6898C45.7681 52.6898 45.8984 52.6898 45.9635 52.5595C46.0938 52.4944 46.1589 52.4293 46.1589 52.299C46.1589 52.1688 46.1589 52.0385 46.0938 51.9083C46.0286 51.7129 45.9635 51.5827 45.8984 51.4524C45.8333 51.3222 45.703 51.257 45.6379 51.1268C45.4425 50.9314 45.182 50.736 44.9866 50.6058C44.8564 50.5407 44.7261 50.4755 44.661 50.4104C44.4656 50.3453 44.2703 50.2802 44.0098 50.2802Z" fill="#FEC14E"/>
<path d="M72.5999 47.3495C71.5579 47.1541 70.5159 46.9587 69.539 46.8285C68.8226 46.6982 68.1714 46.568 67.455 46.4377C67.2596 46.3726 67.0642 46.3726 66.8037 46.3075C66.7386 46.3075 66.7386 46.3075 66.6735 46.3075C66.6084 46.3075 66.413 46.3075 66.3479 46.3075C66.2176 46.3075 65.6315 46.6331 66.0874 46.3726C66.6084 46.568 67.1294 46.6982 67.7155 46.8936C67.976 47.3495 68.3016 47.8705 68.5621 48.3264C68.5621 48.5217 68.4319 48.5217 68.5621 48.3915C68.6272 48.2612 68.7575 48.131 68.8226 48.0007C69.0831 47.6751 69.4739 47.2844 69.7995 47.089C71.102 46.1772 72.7301 45.7865 74.2931 45.9819C73.6419 45.3306 72.9906 44.6794 72.4045 44.0281C72.4045 44.0281 72.4045 44.0281 72.4045 44.0932C72.2742 44.9399 73.5767 45.9819 74.2931 46.047C74.5536 46.047 74.8141 46.1121 75.0095 46.1772C75.27 46.2424 75.3351 46.2424 75.4654 46.3075C75.5956 46.3726 75.6607 46.3726 75.791 46.4377C75.8561 46.4377 76.1166 46.6331 75.8561 46.4377C75.9212 46.5029 75.9864 46.5029 76.1166 46.568C76.1817 46.568 76.4422 46.7634 76.2469 46.6331C76.0515 46.5029 76.3771 46.6982 76.3771 46.6982C76.4422 46.7634 76.5074 46.8285 76.5725 46.8285C76.2469 46.568 76.5725 46.8936 76.7027 46.9587C76.833 47.089 76.833 47.089 76.7027 46.9587C76.7679 47.0239 76.7679 47.089 76.833 47.1541C76.8981 47.2844 77.0284 47.4146 77.0935 47.5449C76.8981 47.2844 77.0935 47.61 77.1586 47.6751C77.2237 47.8054 77.2889 47.9356 77.2889 48.0007C77.354 48.131 77.354 48.1961 77.4191 48.3264C77.5494 48.5869 77.354 48.131 77.4191 48.3915C77.4842 48.5869 77.5494 48.7822 77.5494 48.9776C77.8099 48.7822 78.0704 48.5869 78.396 48.3264C76.5725 48.0007 74.6187 47.6751 72.5999 47.3495C71.9486 47.2192 71.623 47.6751 71.8835 48.2612C72.2091 48.9125 72.9906 49.5637 73.707 49.694C75.6607 50.0196 77.6145 50.4104 79.6334 50.736C80.0892 50.8011 80.5451 50.6709 80.48 50.0847C79.959 46.6331 76.6376 44.0281 73.3162 43.6374C73.9675 44.2886 74.6187 44.9399 75.2049 45.5911C75.2049 45.5911 75.2049 45.5911 75.2049 45.526C75.3351 44.6794 74.0326 43.6374 73.3162 43.5722C71.1671 43.3769 69.0831 43.6374 67.3247 45.005C66.934 45.3306 66.4781 45.7214 66.2176 46.1121C66.1525 46.2424 66.0874 46.3075 66.0222 46.4377C65.6966 47.089 66.2827 47.8054 66.8037 48.131C67.1945 48.3915 67.9109 48.9125 68.4319 48.652C68.497 48.652 68.5621 48.5217 68.6272 48.5217C68.3667 48.5869 68.1062 48.652 67.9109 48.7171C69.8646 49.0427 71.8835 49.4335 73.8372 49.7591C74.4885 49.8894 74.8141 49.4335 74.5536 48.8474C74.1629 48.131 73.3814 47.4797 72.5999 47.3495Z" fill="#FEC14E"/>
<path d="M40.4278 63.175C43.8807 63.175 46.6798 60.4342 46.6798 57.0532C46.6798 53.6723 43.8807 50.9315 40.4278 50.9315C36.9749 50.9315 34.1758 53.6723 34.1758 57.0532C34.1758 60.4342 36.9749 63.175 40.4278 63.175Z" fill="#EF6461"/>
<path d="M45.573 52.1686C43.6843 50.7358 41.6003 49.4333 39.1907 49.3031C37.1067 49.1728 35.2181 50.0846 33.8505 51.6476C30.0732 56.011 32.8736 61.6768 35.4786 65.7797C35.8693 66.431 36.4555 67.0171 37.1067 67.4078C37.5626 67.7334 37.6928 67.6683 37.3672 67.1473C34.8925 63.2398 32.548 58.0298 36.1298 53.927C37.3672 52.4942 39.1256 51.5825 41.0793 51.5825C43.3587 51.6476 45.1822 52.7547 46.9406 54.0572C47.3965 54.3828 47.5267 54.2526 47.2011 53.7967C46.7452 53.2106 46.1591 52.6245 45.573 52.1686Z" fill="#4F4F4F"/>
</g>
<rect x="4.5" y="4.5" width="123" height="123" stroke="#0A74A6"/>
<rect x="0.5" y="0.5" width="7" height="7" fill="white" stroke="#0A74A6"/>
<rect x="0.5" y="124.5" width="7" height="7" fill="white" stroke="#0A74A6"/>
<rect x="124.5" y="0.5" width="7" height="7" fill="white" stroke="#0A74A6"/>
<rect x="124.5" y="124.5" width="7" height="7" fill="white" stroke="#0A74A6"/>
<defs>
<clipPath id="clip0_938_232">
<rect x="4" y="4" width="124" height="124" fill="white"/>
</clipPath>
</defs>
</svg>
