<svg width="132" height="132" viewBox="0 0 132 132" fill="none" xmlns="http://www.w3.org/2000/svg">
<g clip-path="url(#clip0_804_3637)">
<rect x="4" y="4" width="124" height="124" fill="white"/>
<path d="M54.4586 93H77.4236V98.4029H53.7285L54.4586 93Z" fill="white" stroke="black" stroke-width="0.81" stroke-linecap="round" stroke-linejoin="round"/>
<path d="M81.3756 96.2709C80.0127 99.7853 73.6265 102.443 65.9358 102.443C58.2451 102.443 51.859 99.7853 50.4961 96.2709C35.543 99.0357 25 106.765 25 123.344C25 124.697 25.0681 134.646 25.2044 135.961H106.667C106.804 134.646 106.872 124.697 106.872 123.344C106.872 106.765 96.3286 99.0357 81.3756 96.2709Z" stroke="black" stroke-width="0.08" stroke-linecap="round" stroke-linejoin="round"/>
<path d="M81.3756 96.2709C80.0127 99.7853 73.6265 102.443 65.9358 102.443C58.2451 102.443 51.859 99.7853 50.4961 96.2709C35.543 99.0357 25 106.765 25 123.344C25 124.697 25.0681 134.646 25.2044 135.961H106.667C106.803 134.646 106.872 124.697 106.872 123.344C106.872 106.765 96.3286 99.0357 81.3756 96.2709Z" fill="#D9D9D9" stroke="#222221" stroke-width="0.81" stroke-miterlimit="10"/>
<path d="M65.9456 102.433C73.6363 102.433 80.0225 99.7756 81.3854 96.2612C76.625 95.3753 71.4167 94.9957 65.9456 94.9957C60.4745 94.9957 55.276 95.3753 50.5059 96.2612C51.8688 99.7756 58.2549 102.433 65.9456 102.433Z" fill="white" stroke="#222221" stroke-width="0.81" stroke-miterlimit="10"/>
<g clip-path="url(#clip1_804_3637)">
<path d="M75.8695 97.05L75.9195 88.54L75.9495 86.47C70.1595 89.02 60.8295 89.97 56.2695 90.29L56.2895 96.58" fill="white"/>
<path d="M75.8695 97.05L75.9195 88.54L75.9495 86.47C70.1595 89.02 60.8295 89.97 56.2695 90.29L56.2895 96.58" stroke="#222221" stroke-width="1.02" stroke-miterlimit="10"/>
</g>
<path d="M54.4604 93L65.9477 98.3153L60.8173 106.746L47.4414 97.5268L54.4604 93Z" fill="#0A74A6" stroke="#222221" stroke-width="0.81" stroke-miterlimit="10"/>
<path d="M77.4229 93L65.9453 98.3153L71.0757 106.746L84.4419 97.5268L77.4229 93Z" fill="#0A74A6" stroke="#222221" stroke-width="0.81" stroke-miterlimit="10"/>
<path d="M44.5146 72.9713C40.2906 71.2155 38.8262 66.2313 38.0378 61.9268C36.0666 51.1655 38.263 44.3122 44.2893 39.3846C50.4845 34.2872 58.482 34.9668 66.4795 35.1367C74.4769 35.3067 84.2766 34.004 90.4719 28.9631C89.4581 31.5685 87.7685 33.8907 85.6846 35.7031C88.5006 36.3262 91.6546 35.4199 93.6821 33.3243C92.781 36.3262 91.0351 39.1014 88.7259 41.2537C90.6971 41.7635 92.8936 41.0272 94.1327 39.4413C93.6258 41.4236 92.7247 43.3493 91.4856 44.9352C91.0914 45.3883 90.6971 45.8981 90.5282 46.4645C89.5707 49.1265 91.5419 52.015 92.1615 54.5638C92.8936 57.7355 92.8936 61.0772 92.2741 64.249C91.2603 69.2332 87.8811 70.8757 83.9387 73.5377C76.0539 78.8051 69.4644 78.4653 60.2279 76.3696C53.9201 74.9537 48.288 71.4987 42.7687 68.0438" fill="#9CF1F4"/>
<path d="M45.5287 72.0648C40.4035 69.8559 39.3334 63.1159 38.7702 58.1884C38.207 53.2042 38.4886 47.8801 41.3046 43.519C42.5437 41.6499 44.177 39.9507 46.0919 38.7047C48.5136 37.1188 51.4423 36.4391 54.3146 36.156C60.3409 35.5329 66.4234 36.3825 72.4497 35.8161C79.0392 35.1931 85.7413 33.3807 91.0354 29.1328C90.4722 29.246 89.8526 29.3027 89.2894 29.416C88.332 31.7381 86.924 33.8338 85.0091 35.4763C84.8965 35.5896 84.0517 36.4958 84.6149 36.6091C88.2757 37.3454 91.8802 35.8728 94.4709 33.324C93.795 33.4939 93.1192 33.6639 92.4434 33.8338C91.5986 36.5524 90.1342 39.1012 88.0504 41.0835C87.9378 41.1968 87.0929 42.0464 87.6562 42.2163C90.3595 42.8393 93.2318 41.5366 94.9215 39.441C94.2456 39.6109 93.5698 39.7808 92.8939 39.9507C92.556 41.3101 92.0491 42.6694 91.317 43.8588C90.6411 44.9349 89.6274 45.8978 89.2331 47.1438C88.4446 49.6926 89.9653 52.1847 90.6974 54.5635C91.5986 57.3954 91.6549 60.6805 91.2043 63.6257C90.8664 65.8912 90.1906 67.9868 88.501 69.5727C86.9803 71.0453 84.9528 72.1781 83.1505 73.3675C81.123 74.6702 78.8702 75.7463 76.5048 76.3127C71.6049 77.5021 66.5361 76.6525 61.6925 75.5764C55.1031 74.0472 49.3584 70.5922 43.7264 67.0806C43.1069 66.6842 40.9667 68.44 41.6426 68.8931C46.9367 72.1781 52.2871 75.4631 58.3697 77.049C63.4385 78.3517 68.9015 79.2579 74.083 78.2951C76.73 77.7853 79.2644 76.8225 81.5736 75.5198C83.8264 74.2737 86.0792 72.8011 88.163 71.2152C90.0779 69.7426 91.7112 68.0435 92.6686 65.8346C93.7951 63.1159 93.964 59.8875 93.7387 56.999C93.5698 55.2998 93.2882 53.6573 92.6686 52.0714C92.1618 50.6554 91.4859 49.2395 91.3733 47.7102C91.317 46.9173 91.4296 46.0677 91.8802 45.388C92.3307 44.765 92.8376 44.142 93.2318 43.519C94.133 42.103 94.8088 40.5738 95.2031 38.9312C95.4847 37.8551 93.4008 39.1578 93.1755 39.441C92.3307 40.5171 90.9227 40.687 89.6274 40.3472C89.5147 40.7437 89.3458 41.0835 89.2331 41.48C91.7675 39.1012 93.7387 36.2126 94.7525 32.8709C94.8651 32.4178 94.5272 32.3612 94.1893 32.4744C93.6261 32.5877 93.1192 32.9842 92.725 33.3807C91.148 34.9099 88.6699 35.2497 86.5861 34.8533C86.4734 35.2497 86.3045 35.5896 86.1918 35.986C88.5573 33.9471 90.3595 31.455 91.5422 28.5664C91.7675 28.1133 91.4859 28 91.148 28C90.6411 28.0566 90.1906 28.3965 89.7963 28.6797C85.347 32.3045 79.1518 33.4939 73.5761 33.9471C67.3809 34.4568 61.073 33.5506 54.8778 34.4002C51.7239 34.8533 48.6263 35.7595 45.8666 37.4586C43.5011 38.9312 41.4173 40.857 39.7277 43.1225C36.6301 47.3138 35.7289 52.4679 36.0669 57.5653C36.2921 60.7937 36.799 64.1354 37.8691 67.1939C38.8266 70.0258 40.5162 72.5746 43.3322 73.8206C44.2333 74.1605 46.2608 72.348 45.5287 72.0648Z" fill="#4F4F4F"/>
<path d="M66.0864 90.869C79.1193 90.869 89.6846 80.244 89.6846 67.1374C89.6846 54.0308 79.1193 43.4058 66.0864 43.4058C53.0535 43.4058 42.4883 54.0308 42.4883 67.1374C42.4883 80.244 53.0535 90.869 66.0864 90.869Z" fill="#E4E4E4"/>
<path d="M90.3036 62.7763C88.5577 52.3548 80.0533 44.0289 69.6341 42.4997C68.395 42.3298 67.156 42.2165 65.917 42.2165C55.6104 42.2731 45.867 48.3335 41.9809 58.0753C38.0385 67.9304 40.9671 79.4847 49.0772 86.2813C57.0184 92.9647 68.564 93.7576 77.6315 88.8301C86.8681 83.7892 92.1058 73.1978 90.3036 62.7763ZM42.8257 62.8896C44.4027 53.5442 51.8369 45.5015 61.2424 43.859C62.4814 43.6325 63.7205 43.5758 64.9595 43.5192C74.5339 43.6325 83.3762 49.6928 86.8117 58.755C90.3036 67.8171 87.8255 78.4086 80.6165 84.922C77.0684 88.1504 72.5627 90.1894 67.8318 90.5858C62.9883 90.9823 58.0885 89.8495 53.9208 87.3008C45.6417 82.3166 41.1924 72.4615 42.8257 62.8896ZM64.9595 42.7829C66.3112 42.7829 67.6629 42.8962 68.9582 43.1793C67.9445 43.0661 66.9307 42.9528 65.9733 42.9528C59.947 43.0094 54.146 45.1617 49.6404 48.8998C52.8507 45.9546 56.7931 43.859 61.1861 43.1227C62.4251 42.8962 63.6642 42.7829 64.9595 42.7829Z" fill="#4F4F4F"/>
<g opacity="0.3">
<path opacity="0.3" d="M75.379 46.9739C80.1662 51.1085 83.2075 57.2821 83.2075 64.1354C83.2075 76.6525 73.1262 86.7908 60.6795 86.7908C57.7508 86.7908 54.9348 86.2244 52.4004 85.2049C56.3428 88.6032 61.4679 90.6989 67.1 90.6989C79.5467 90.6989 89.628 80.5606 89.628 68.0434C89.628 58.4715 83.7144 50.2589 75.379 46.9739Z" fill="#828282"/>
</g>
<path d="M55.6096 58.8684C54.9338 58.6418 54.1453 58.4719 53.5821 58.8117C53.1315 59.0949 52.8499 59.6047 52.7373 60.1711C52.6246 60.7941 52.6246 61.4737 52.9626 62.0401C53.4131 62.8331 54.5395 63.1729 55.3843 62.7764C56.2291 62.38 56.6797 61.3038 56.3981 60.4543C56.1728 59.7179 55.328 59.1516 54.5959 59.4914C54.089 59.7179 53.8637 60.341 53.8637 60.9074C53.92 61.5304 54.4832 62.21 55.1027 62.0401C55.6096 61.8702 55.7786 61.1906 55.7786 60.6242C55.7786 60.341 55.7223 60.0011 55.497 59.8312C55.2717 59.6613 54.8775 59.6613 54.7648 59.8879" fill="#4F4F4F"/>
<path d="M56.1728 58.2454C55.0464 57.9056 53.6947 57.7356 52.6809 58.5286C51.8361 59.2082 51.4982 60.2844 51.6109 61.3605C51.7235 62.3234 52.343 63.0597 53.2441 63.4561C54.2016 63.8526 55.4969 63.6827 56.3418 63.003C57.1302 62.4366 57.5808 61.5304 57.4682 60.5676C57.4118 59.6614 56.6234 58.9251 55.7785 58.7551C54.5395 58.5286 53.1878 59.1516 52.8499 60.4543C52.6246 61.3605 53.1315 62.4366 54.0889 62.6632C54.8211 62.8331 55.7785 62.6066 56.2854 61.9835C56.6234 61.5871 56.7923 61.134 56.736 60.6242C56.736 60.0578 56.6234 59.4914 56.0602 59.2082C55.328 58.8118 54.0889 59.095 53.6947 59.8313C53.4694 60.2844 53.92 60.5676 54.3142 60.5676C54.7648 60.5676 55.4406 60.3977 55.6659 59.9445C55.7222 59.7746 55.4406 60.1145 55.4406 60.1145C55.2717 60.2277 55.0464 60.2844 54.8774 60.341C54.8774 60.341 54.6521 60.341 54.7085 60.341C54.8211 60.341 54.5395 60.2844 54.5395 60.2844C54.4269 60.2277 54.4832 60.2844 54.5395 60.2844C54.6521 60.341 54.4832 60.2844 54.4832 60.2844C54.4832 60.2844 54.5395 60.341 54.5395 60.3977C54.4832 60.341 54.5395 60.341 54.5395 60.3977C54.5958 60.5109 54.5958 60.6808 54.5958 60.7941C54.5958 60.9074 54.5958 60.6808 54.5958 60.7941C54.5958 60.8508 54.5958 60.8508 54.5958 60.9074C54.5958 60.964 54.5958 61.0207 54.5958 61.134C54.5958 61.1906 54.5958 61.2472 54.5395 61.3039C54.5395 61.3605 54.5395 61.3605 54.5395 61.4171C54.4832 61.5304 54.5395 61.4171 54.5395 61.3605C54.5395 61.4171 54.4832 61.4738 54.4832 61.5304C54.4832 61.5871 54.4269 61.6437 54.4832 61.5304C54.5958 61.4171 54.4832 61.5304 54.4269 61.5304C54.3705 61.5871 54.3142 61.6437 54.4832 61.4738C54.4832 61.4738 54.3705 61.5304 54.5395 61.4738C54.5958 61.4738 54.8774 61.3605 54.7648 61.3605C54.6521 61.4171 54.9337 61.3039 54.9337 61.3039C54.9901 61.3039 55.159 61.3039 55.2153 61.3039H55.1027C55.1027 61.3039 55.2153 61.4171 55.159 61.3605C55.1027 61.3605 55.1027 61.3039 55.0464 61.3039C54.9337 61.2472 55.0464 61.3039 55.0464 61.3039L54.9901 61.2472C54.9337 61.1906 54.9337 61.134 54.8774 61.0773L54.8211 61.0207C54.8774 61.134 54.8211 61.0773 54.8211 61.0207C54.7648 60.964 54.7648 60.8508 54.7648 60.7941C54.7648 60.7375 54.7648 60.6808 54.7085 60.6242C54.7085 60.7941 54.7085 60.5676 54.7085 60.5109C54.7085 60.4543 54.7085 60.3977 54.7648 60.341V60.2844C54.8211 60.1145 54.7085 60.341 54.7648 60.2844C54.8211 60.2277 54.8211 60.1711 54.8774 60.1145L54.9337 60.0012C54.9337 60.0012 54.8211 60.1145 54.9337 60.0578L54.9901 60.0012C54.9901 60.0012 54.8211 60.1145 54.9337 60.0578C55.0464 60.0012 54.7085 60.1711 54.8211 60.1145C54.8774 60.0578 55.0464 60.0578 54.7085 60.1711C54.7648 60.1711 54.8774 60.1711 54.5958 60.1711C54.6521 60.1711 54.7085 60.1711 54.5395 60.1711C54.3705 60.1711 54.4832 60.1711 54.5395 60.1711C54.6521 60.1711 54.4269 60.1145 54.4269 60.1711L54.6521 60.2277C54.6521 60.2277 54.4832 60.1145 54.5958 60.2277C54.6521 60.2277 54.6521 60.2844 54.7085 60.2844L54.8774 60.3977C54.8774 60.3977 54.7648 60.2844 54.8211 60.341L54.8774 60.3977C54.9337 60.4543 54.9337 60.5109 54.9901 60.5676C54.9901 60.6242 55.0464 60.6242 55.0464 60.6808C55.0464 60.6808 55.1027 60.8508 55.1027 60.7375C55.0464 60.6808 55.1027 60.7375 55.1027 60.7375C55.1027 60.7941 55.1027 60.7941 55.159 60.8508C55.159 60.9074 55.2153 60.964 55.2153 61.0773C55.2153 61.134 55.2153 61.1906 55.2153 61.2472C55.2153 61.3039 55.2153 61.1906 55.2153 61.1906C55.2153 61.2472 55.2153 61.3039 55.2153 61.3039C55.2153 61.4171 55.159 61.5871 55.159 61.7003L55.1027 61.8136C55.1027 61.8136 55.159 61.7003 55.1027 61.757C55.0464 61.8136 55.0464 61.9269 54.9901 61.9835C54.9337 62.0402 54.9337 62.0968 54.8774 62.1535C54.7648 62.3234 54.9337 62.0968 54.8774 62.1535C54.8211 62.2101 54.7648 62.2667 54.7085 62.3234C54.6521 62.38 54.5958 62.38 54.7648 62.2667C54.7085 62.2667 54.7085 62.3234 54.6521 62.3234C54.6521 62.3234 54.5958 62.38 54.5395 62.38C54.5395 62.38 54.7648 62.2667 54.6521 62.3234C54.5958 62.3234 54.3705 62.4366 54.5958 62.38C54.7648 62.3234 54.5958 62.38 54.5395 62.38C54.7648 62.2667 54.7648 62.3234 54.6521 62.38C54.5958 62.38 54.5395 62.38 54.5395 62.38C54.4269 62.38 54.6521 62.38 54.6521 62.38C54.5958 62.38 54.5958 62.38 54.5395 62.38C54.4269 62.38 54.2579 62.3234 54.4832 62.38C54.4269 62.38 54.3705 62.38 54.3142 62.3234H54.2579C54.2579 62.3234 54.0889 62.2667 54.2016 62.3234C54.3142 62.3234 54.2016 62.3234 54.2016 62.3234C54.1453 62.3234 54.1453 62.2667 54.0889 62.2667C54.0326 62.2101 53.9763 62.2101 53.92 62.1535L53.8637 62.0968C53.8637 62.0968 53.9763 62.2101 53.92 62.1535C53.8637 62.0968 53.8073 62.0402 53.751 61.9835C53.6947 61.9269 53.6947 61.8703 53.6384 61.8136C53.6384 61.8136 53.5257 61.6437 53.5821 61.7003C53.5257 61.5304 53.4694 61.3605 53.4131 61.1906C53.4131 61.0773 53.3568 61.0207 53.3568 60.9074C53.3568 60.8508 53.3568 60.9074 53.3568 60.9074C53.3568 60.8508 53.3568 60.7941 53.3568 60.6808C53.3568 60.5109 53.4131 60.341 53.4131 60.1711C53.4131 60.0578 53.4694 60.0012 53.4694 59.8879C53.4694 59.8879 53.5257 59.718 53.4694 59.8313C53.4131 59.9445 53.5257 59.7746 53.5257 59.7746C53.5821 59.718 53.5821 59.6047 53.6384 59.5481L53.6947 59.4348C53.6947 59.4348 53.5821 59.5481 53.6947 59.4348L53.751 59.3782C53.8637 59.2649 53.6384 59.4348 53.751 59.3782C53.8073 59.3782 53.92 59.2649 53.751 59.3782C53.5821 59.4348 53.8073 59.3782 53.8073 59.3782C53.8073 59.3782 53.5257 59.4348 53.6947 59.4348C53.8637 59.3782 53.6384 59.4348 53.5821 59.4348H53.6947C53.8637 59.4348 53.5257 59.4348 53.6384 59.4348C53.751 59.4348 53.8073 59.4348 53.92 59.4348C53.9763 59.4348 54.0889 59.4348 53.9763 59.4348C53.8637 59.4348 54.0326 59.4348 54.0326 59.4348C54.2016 59.4914 54.4269 59.5481 54.5958 59.6047C55.0464 59.718 55.7222 59.6047 56.0602 59.2082C56.1728 59.095 56.2854 58.8684 56.2291 58.6985C56.5107 58.4153 56.3981 58.302 56.1728 58.2454Z" fill="#383838"/>
<path d="M77.0686 61.0772C76.3928 60.8506 75.6043 60.6807 75.0411 61.0205C74.5905 61.3037 74.3089 61.8135 74.1963 62.3799C74.0836 63.0029 74.0836 63.6825 74.4216 64.2489C74.8721 65.0419 75.9985 65.3817 76.8433 64.9852C77.6881 64.5888 78.1387 63.5126 77.8571 62.6631C77.6318 61.9268 76.787 61.3604 76.0548 61.7002C75.548 61.9268 75.3227 62.5498 75.379 63.1162C75.4353 63.7392 75.9985 64.4188 76.618 64.2489C77.1249 64.079 77.2939 63.3994 77.2939 62.833C77.2939 62.5498 77.2376 62.2099 77.0123 62.04C76.787 61.8701 76.3928 61.8701 76.2801 62.0967" fill="#4F4F4F"/>
<path d="M77.6318 60.4542C76.5054 60.1144 75.1537 59.9444 74.1399 60.7374C73.2951 61.417 72.9572 62.4932 73.0698 63.5693C73.1825 64.5322 73.802 65.2685 74.7031 65.6649C75.6606 66.0614 76.9559 65.8915 77.8007 65.2118C78.5892 64.6454 79.0398 63.7392 78.9271 62.7764C78.8708 61.8702 78.0823 61.1339 77.2375 60.9639C75.9985 60.7374 74.6468 61.3604 74.3089 62.6631C74.0836 63.5693 74.5905 64.6454 75.5479 64.872C76.2801 65.0419 77.2375 64.8154 77.7444 64.1923C78.0823 63.7959 78.2513 63.3428 78.195 62.833C78.195 62.2666 78.0823 61.7002 77.5191 61.417C76.787 61.0206 75.5479 61.3038 75.1537 62.0401C74.9284 62.4932 75.379 62.7764 75.7732 62.7764C76.2238 62.7764 76.8996 62.6065 77.1249 62.1533C77.1812 61.9834 76.8996 62.3233 76.8996 62.3233C76.7307 62.4365 76.5054 62.4932 76.3364 62.5498C76.3364 62.5498 76.1111 62.5498 76.1674 62.5498C76.2801 62.5498 75.9985 62.4932 75.9985 62.4932C75.8859 62.4365 75.9422 62.4932 75.9985 62.4932C76.1111 62.5498 75.9422 62.4932 75.9422 62.4932C75.9422 62.4932 75.9985 62.5498 75.9985 62.6065C75.9422 62.5498 75.9985 62.5498 75.9985 62.6065C76.0548 62.7197 76.0548 62.8896 76.0548 63.0029C76.0548 63.1162 76.0548 62.8896 76.0548 63.0029C76.0548 63.0596 76.0548 63.0596 76.0548 63.1162C76.0548 63.1728 76.0548 63.2295 76.0548 63.3428C76.0548 63.3994 76.0548 63.456 75.9985 63.5127C75.9985 63.5693 75.9985 63.5693 75.9985 63.626C75.9422 63.7392 75.9985 63.626 75.9985 63.5693C75.9985 63.626 75.9422 63.6826 75.9422 63.7392C75.9422 63.7959 75.8858 63.8525 75.9422 63.7392C76.0548 63.626 75.9422 63.7392 75.8858 63.7392C75.8295 63.7959 75.7732 63.8525 75.9422 63.6826C75.9422 63.6826 75.8295 63.7392 75.9985 63.6826C76.0548 63.6826 76.3364 63.5693 76.2238 63.5693C76.1111 63.626 76.3927 63.5127 76.3927 63.5127C76.4491 63.5127 76.618 63.5127 76.6743 63.5127H76.5617C76.5617 63.5127 76.6743 63.626 76.618 63.5693C76.5617 63.5693 76.5617 63.5127 76.5054 63.5127C76.3927 63.456 76.5054 63.5127 76.5054 63.5127L76.4491 63.456C76.3927 63.3994 76.3927 63.3428 76.3364 63.2861L76.2801 63.2295C76.3364 63.3428 76.2801 63.2861 76.2801 63.2295C76.2238 63.1728 76.2238 63.0596 76.2238 63.0029C76.2238 62.9463 76.2238 62.8896 76.1674 62.833C76.1674 63.0029 76.1674 62.7764 76.1674 62.7197C76.1674 62.6631 76.1674 62.6065 76.2238 62.5498V62.4932C76.2801 62.3233 76.1674 62.5498 76.2238 62.4932C76.2801 62.4365 76.2801 62.3799 76.3364 62.3233L76.3927 62.21C76.3927 62.21 76.2801 62.3233 76.3927 62.2666L76.4491 62.21C76.4491 62.21 76.2801 62.3233 76.3927 62.2666C76.5054 62.21 76.1675 62.3799 76.2801 62.3233C76.3364 62.2666 76.5054 62.2666 76.1674 62.3799C76.2238 62.3799 76.3364 62.3799 76.0548 62.3799C76.1111 62.3799 76.1675 62.3799 75.9985 62.3799C75.8295 62.3799 75.9422 62.3799 75.9985 62.3799C76.1111 62.3799 75.8858 62.3233 75.8858 62.3799L76.1111 62.4365C76.1111 62.4365 75.9422 62.3233 76.0548 62.4365C76.1111 62.4365 76.1111 62.4932 76.1674 62.4932L76.3364 62.6065C76.3364 62.6065 76.2238 62.4932 76.2801 62.5498L76.3364 62.6065C76.3927 62.6631 76.3927 62.7197 76.4491 62.7764C76.4491 62.833 76.5054 62.833 76.5054 62.8896C76.5054 62.8896 76.5617 63.0596 76.5617 62.9463C76.5054 62.8896 76.5617 62.9463 76.5617 62.9463C76.5617 63.0029 76.5617 63.0029 76.618 63.0596C76.618 63.1162 76.6743 63.1728 76.6743 63.2861C76.6743 63.3428 76.6743 63.3994 76.6743 63.456C76.6743 63.5127 76.6743 63.3994 76.6743 63.3994C76.6743 63.456 76.6743 63.5127 76.6743 63.5127C76.6743 63.626 76.618 63.7959 76.618 63.9091L76.5617 64.0224C76.5617 64.0224 76.618 63.9091 76.5617 63.9658C76.5054 64.0224 76.5054 64.1357 76.4491 64.1923C76.6743 64.1923 76.6743 64.1923 76.618 64.249C76.5054 64.4189 76.6743 64.1923 76.618 64.249C76.5617 64.3056 76.5054 64.3623 76.4491 64.4189C76.3927 64.4755 76.3364 64.4755 76.5054 64.3623C76.449 64.3623 76.4491 64.4189 76.3927 64.4189C76.3927 64.4189 76.3364 64.4755 76.2801 64.4755C76.2801 64.4755 76.5054 64.3623 76.3927 64.4189C76.3364 64.4189 76.1111 64.5322 76.3364 64.4755C76.5054 64.4189 76.3364 64.4755 76.2801 64.4755C76.5054 64.3623 76.5054 64.4189 76.3927 64.4755C76.3364 64.4755 76.2801 64.4755 76.2801 64.4755C76.1675 64.4755 76.3927 64.4755 76.3927 64.4755C76.3364 64.4755 76.3364 64.4755 76.2801 64.4755C76.1675 64.4755 75.9985 64.4189 76.2238 64.4755C76.1674 64.4755 76.1111 64.4755 76.0548 64.4189H75.9985C75.9985 64.4189 75.8295 64.3623 75.9422 64.4189C76.0548 64.4189 75.9422 64.4189 75.9422 64.4189C75.8858 64.4189 75.8858 64.3623 75.8295 64.3623C75.7732 64.3056 75.7169 64.3056 75.6606 64.249L75.6042 64.1923C75.6042 64.1923 75.7169 64.3056 75.6606 64.249C75.6042 64.1923 75.5479 64.1357 75.4916 64.0791C75.4353 64.0224 75.4353 63.9658 75.379 63.9091C75.379 63.9091 75.2663 63.7392 75.3226 63.7959C75.2663 63.626 75.21 63.456 75.1537 63.2861C75.1537 63.1728 75.0974 63.1162 75.0974 63.0029C75.0974 62.9463 75.0974 63.0029 75.0974 63.0029C75.0974 62.9463 75.0974 62.8897 75.0974 62.7764C75.0974 62.6065 75.1537 62.4365 75.1537 62.2666C75.1537 62.1533 75.21 62.0967 75.21 61.9834C75.21 61.9834 75.2663 61.8135 75.21 61.9268C75.1537 62.0401 75.2663 61.8702 75.2663 61.8702C75.3226 61.8135 75.3226 61.7002 75.379 61.6436L75.4353 61.5303C75.4353 61.5303 75.3226 61.6436 75.4353 61.5303L75.4916 61.4737C75.6042 61.3604 75.379 61.5303 75.4916 61.4737C75.5479 61.4737 75.6606 61.3604 75.4916 61.4737C75.3226 61.5303 75.5479 61.4737 75.5479 61.4737C75.5479 61.4737 75.2663 61.5303 75.4353 61.5303C75.6042 61.4737 75.379 61.5303 75.3226 61.5303H75.4353C75.6042 61.5303 75.2663 61.5303 75.379 61.5303C75.4916 61.5303 75.5479 61.5303 75.6606 61.5303C75.7169 61.5303 75.8295 61.5303 75.7169 61.5303C75.6042 61.5303 75.7732 61.5303 75.7732 61.5303C75.9422 61.587 76.1675 61.6436 76.3364 61.7002C76.787 61.8135 77.4628 61.7002 77.8007 61.3038C77.9134 61.1905 78.026 60.9639 77.9697 60.794C78.026 60.6241 77.8571 60.5108 77.6318 60.4542Z" fill="#383838"/>
<path d="M57.7499 73.0275C62.1992 72.4611 66.7048 73.0842 70.7598 74.8399C71.0977 74.9532 71.492 74.8966 71.8299 74.7267C71.8862 74.7267 72.5621 74.3868 72.3368 74.2736C67.9438 72.4045 63.1566 71.7248 58.482 72.3479C58.2004 72.4045 57.5809 72.4611 57.4119 72.7443C57.1867 73.0275 57.4683 73.0842 57.7499 73.0275Z" fill="#383838"/>
<path d="M44.1768 52.1847C44.5148 51.9581 44.909 51.7316 45.3596 51.6183C47.1055 51.0519 49.0204 52.921 50.8226 52.921C57.3558 52.9776 62.3683 52.921 73.5197 51.1652C77.4621 50.5422 81.1792 48.4465 82.5872 47.8801L87.2055 46.2943C87.1491 46.181 87.1491 46.0111 87.0928 45.8978C88.8951 44.8217 89.402 44.9916 89.1203 42.8959C88.2192 43.4057 86.6986 41.8764 86.6986 41.8764C88.1629 40.4605 88.1066 40.4038 87.3744 37.8551C85.7411 39.0445 85.0653 37.4586 82.6435 37.4586C83.2067 36.7223 83.601 35.8161 82.3056 34.5701C81.3482 35.5896 79.4333 36.2692 76.7299 36.6657C70.76 37.6286 58.7075 33.1541 45.1343 40.857C41.5861 42.8393 39.9528 45.8411 39.5586 49.0129C40.854 50.0324 42.5999 51.1652 44.1768 52.1847Z" fill="#9CF1F4"/>
<path d="M42.7682 50.0887C45.3026 51.9011 48.3439 52.5808 51.3852 52.9773C54.4265 53.3737 57.4115 53.487 60.4528 53.4304C66.479 53.3171 72.5053 52.241 78.2499 50.3719C81.4602 49.2958 84.6141 47.9931 87.5991 46.4072C88.7255 45.8408 86.3037 44.5381 85.5152 44.9912C75.5466 50.3153 64.1136 52.6941 52.8495 51.7312C49.9772 51.5047 46.8233 51.2215 44.4578 49.5223C44.0073 49.1825 43.1062 48.8427 42.543 49.1259C42.0361 49.3524 42.4303 49.8622 42.7682 50.0887Z" fill="#4F4F4F"/>
<path d="M43.9512 53.9405C43.3317 55.1299 44.0076 56.6025 44.3455 57.7919C44.796 59.2645 45.1903 60.7371 45.6409 62.2664C46.2604 64.4186 47.0489 66.6275 49.2453 67.647C50.6533 68.2701 52.2303 68.6099 53.751 68.8364C55.1026 69.063 56.5106 69.2329 57.9186 69.1196C60.5094 68.8931 62.3679 67.1939 63.6633 64.985C65.184 62.3797 65.8598 59.3212 67.7184 56.8857C67.831 56.7724 66.0851 56.206 66.0851 56.206C64.3392 55.7529 62.7622 54.9034 61.0726 54.2237C59.214 53.4874 57.2428 52.9776 55.2716 52.7511C51.5545 52.298 47.8373 52.8077 44.1765 53.3175C43.9512 53.3741 44.965 53.8272 45.0213 53.8272C45.5282 53.9971 46.2041 54.2803 46.7109 54.2237C50.0901 53.7139 53.582 53.2042 57.0175 53.6007C58.5945 53.7706 59.8899 54.2237 61.3542 54.8467C63.1001 55.6397 64.846 56.2627 66.6483 56.7724C66.0851 56.5459 65.5219 56.3193 65.015 56.0928C62.3679 59.5477 62.03 64.9284 58.0876 67.3638C56.9612 67.9869 55.6658 68.2134 54.4268 68.2134C53.1878 68.2134 52.005 67.8736 50.766 67.7603C50.4844 67.7603 51.0476 67.9869 50.8786 67.7603C50.8223 67.7037 50.6533 67.647 50.597 67.5904C50.4281 67.4771 50.2591 67.3072 50.0901 67.1373C49.7522 66.7408 49.4706 66.2877 49.189 65.778C48.7385 64.8151 48.4569 63.7956 48.1189 62.7761C47.7247 61.3602 47.2741 60.0008 46.8799 58.5849C46.542 57.3955 45.8661 55.9229 46.4857 54.7334C46.7109 54.6768 44.1765 53.4874 43.9512 53.9405Z" fill="#EF6461"/>
<path d="M85.9671 58.3016C86.305 59.491 85.4039 60.6805 84.897 61.7C84.2775 62.8894 83.6579 64.0221 83.0384 65.2115C82.081 66.9673 81.1235 69.3462 79.096 70.0258C77.9696 70.4223 76.6179 70.1957 75.4915 70.1391C74.5341 70.0825 73.464 69.9692 72.5629 69.5161C70.8169 68.6099 70.0285 66.2877 69.5779 64.5319C68.9021 61.9265 68.6768 59.2645 67.5504 56.7724C67.3814 56.9423 67.2125 57.1122 67.0435 57.3388C70.5353 57.1689 73.8019 55.9228 77.3501 56.1494C80.8419 56.4326 84.2211 57.6786 87.4314 58.868C87.7693 58.9813 88.6141 59.2079 88.6141 58.6415C88.6141 58.1317 87.544 57.6786 87.2061 57.5653C83.6579 56.2626 80.0535 55.0166 76.3363 54.6201C74.5904 54.4502 72.7881 54.5069 71.0422 54.8467C69.24 55.1865 67.4377 55.6396 65.5792 55.7529C65.2412 55.7529 64.9033 55.8662 65.0723 56.3193C66.255 58.8114 66.3676 61.5867 67.0998 64.192C67.7757 66.5709 69.0147 68.7231 71.1549 70.0825C73.5766 71.5551 76.5053 71.8383 79.265 71.8383C80.5603 71.8383 81.7431 71.5551 82.7005 70.7621C83.6016 70.0258 84.2211 69.0063 84.7843 67.9868C85.5728 66.5142 86.3613 65.0416 87.1498 63.569C87.8256 62.323 89.0084 60.7371 88.6141 59.2079C88.4452 58.6415 87.713 58.3016 87.2061 58.1317C86.9808 58.0184 85.7981 57.7919 85.9671 58.3016Z" fill="#EF6461"/>
</g>
<rect x="4.5" y="4.5" width="123" height="123" stroke="#0A74A6"/>
<rect x="0.5" y="0.5" width="7" height="7" fill="white" stroke="#0A74A6"/>
<rect x="0.5" y="124.5" width="7" height="7" fill="white" stroke="#0A74A6"/>
<rect x="124.5" y="0.5" width="7" height="7" fill="white" stroke="#0A74A6"/>
<rect x="124.5" y="124.5" width="7" height="7" fill="white" stroke="#0A74A6"/>
<defs>
<clipPath id="clip0_804_3637">
<rect x="4" y="4" width="124" height="124" fill="white"/>
</clipPath>
<clipPath id="clip1_804_3637">
<rect width="21.55" height="18.05" fill="white" transform="translate(55 79)"/>
</clipPath>
</defs>
</svg>
