<svg width="132" height="132" viewBox="0 0 132 132" fill="none" xmlns="http://www.w3.org/2000/svg">
<g clip-path="url(#clip0_804_3799)">
<rect x="4" y="4" width="124" height="124" fill="white"/>
<path d="M81.7009 99.46C76.8609 98.58 71.5809 98.2 66.0509 98.2C60.5209 98.2 55.4109 98.57 50.6309 99.42L66.0509 119.16L81.7009 99.46Z" fill="white" stroke="#222221" stroke-width="0.81" stroke-miterlimit="10"/>
<path d="M81.7 99.46L66.05 119.16L50.63 99.42C35.04 102.19 24 110.11 24 127.31C24 128.7 24.07 138.92 24.21 140.27H107.88C108.02 138.92 108.09 128.7 108.09 127.31C108.09 110.2 97.16 102.27 81.69 99.4699L81.7 99.46Z" fill="white" stroke="#222221" stroke-width="0.81" stroke-miterlimit="10"/>
<path d="M81.7 99.46L66.05 119.16L50.63 99.42C35.04 102.19 24 110.11 24 127.31C24 128.7 24.07 138.92 24.21 140.27H107.88C108.02 138.92 108.09 128.7 108.09 127.31C108.09 110.2 97.16 102.27 81.69 99.4699L81.7 99.46Z" fill="#965450" stroke="black" stroke-width="0.08" stroke-linecap="round" stroke-linejoin="round"/>
<path d="M76.2895 101.58L76.3395 93.07L76.3694 91C70.5794 93.55 61.2495 94.5 56.6895 94.82L56.7095 101.11" fill="white"/>
<path d="M76.2895 101.58L76.3395 93.07L76.3694 91C70.5794 93.55 61.2495 94.5 56.6895 94.82L56.7095 101.11" stroke="#222221" stroke-width="1.02" stroke-miterlimit="10"/>
<path d="M66.0508 119.16V131.3" stroke="white" stroke-width="0.81" stroke-miterlimit="10"/>
<path d="M69.44 122.92C70.3734 122.92 71.13 122.163 71.13 121.23C71.13 120.297 70.3734 119.54 69.44 119.54C68.5066 119.54 67.75 120.297 67.75 121.23C67.75 122.163 68.5066 122.92 69.44 122.92Z" fill="white"/>
<path d="M69.44 130.02C70.3734 130.02 71.13 129.263 71.13 128.33C71.13 127.397 70.3734 126.64 69.44 126.64C68.5066 126.64 67.75 127.397 67.75 128.33C67.75 129.263 68.5066 130.02 69.44 130.02Z" fill="white"/>
<path d="M100.578 54.4065C100.578 54.4065 98.9618 54.4065 96.6348 51.4977C95.4066 50.011 92.9503 41.608 87.1328 36.1783C82.2849 31.6536 74.6575 28.7448 63.1518 28.7448C41.9502 28.7448 39.1061 41.4787 39.1061 41.4787C39.1061 41.4787 29.8627 45.8741 31.4787 64.8133C31.4787 64.8133 31.608 71.7944 35.357 78.7754C39.1061 85.7564 36.7144 88.148 35.2278 88.6005C33.03 89.2469 38.9768 91.7678 41.0453 89.8286C41.0453 89.8286 41.6916 91.9617 39.8171 93.0606C38.5243 93.8362 44.3418 94.9351 47.8323 92.6081C47.3152 93.6423 46.5396 94.6119 46.1517 95.129C49.513 96.034 52.4217 93.1898 52.8095 90.2164C52.8742 89.6993 52.8742 89.1176 52.6803 88.6651C54.7487 88.7944 76.0796 90.0872 76.9199 90.2164C77.7602 90.3457 80.4104 95.84 87.1328 94.9351C92.0454 94.2241 86.6804 94.2887 87.7792 89.2469C87.7792 89.2469 90.3648 90.4104 92.3039 88.9883C94.1785 87.5663 89.7184 88.6005 91.4636 82.8476C91.4636 82.8476 101.224 72.4407 96.3116 56.2164C96.1823 56.1517 98.6386 57.1213 100.578 54.4065Z" fill="#0A74A6"/>
<path d="M100.901 53.8247C100.771 53.8247 101.095 53.8894 100.901 53.8247C100.836 53.8247 100.707 53.7601 100.577 53.6954C99.9956 53.5015 99.4139 53.049 98.9614 52.6612C98.0565 51.8855 97.3454 50.9806 96.8283 49.9464C95.5356 47.2962 94.4367 44.646 92.8854 42.1251C91.0755 39.087 88.8777 36.3722 86.0336 34.2391C83.642 32.3646 80.8625 31.0072 77.8891 30.1022C74.2047 28.9387 70.3264 28.4216 66.448 28.2277C62.4404 28.0338 58.4974 28.2277 54.5545 29.0034C49.7065 29.9729 44.9233 32.106 41.4974 35.8551C40.0753 37.4711 38.6533 39.4749 38.1362 41.608C38.3301 41.414 38.524 41.2848 38.7179 41.0908C37.2312 41.8019 36.0031 43.03 35.0335 44.2581C32.3833 47.5547 31.0905 51.7563 30.5734 55.8932C30.1856 58.9958 30.3148 62.0339 30.5088 65.0719C30.638 67.0757 30.8966 69.0149 31.3491 70.954C31.8015 72.8286 32.3833 74.6385 33.159 76.4483C33.9346 78.2582 34.9689 79.9389 35.6799 81.8134C36.3263 83.494 36.9727 86.0796 35.6152 87.6309C35.5506 87.6955 35.292 87.9541 35.3567 87.8894C35.292 87.8894 35.292 87.9541 35.2274 87.9541C35.0981 88.0834 35.1628 88.0187 35.1628 88.0187C34.9042 88.2126 35.292 87.9541 34.9689 88.0834C34.6457 88.2126 34.3871 88.2773 34.1285 88.5358C33.4175 89.1822 34.0639 89.8286 34.7103 90.1518C36.7141 91.3153 39.9461 91.5739 41.7559 89.9579C41.1742 89.9579 40.6571 90.0225 40.0753 90.0225C40.3985 91.1214 40.0107 92.0263 39.1057 92.7374C38.2654 93.3838 38.7179 93.9655 39.6229 94.2241C42.4023 95.0644 45.9575 94.418 48.3491 92.8666C47.832 92.7374 47.3795 92.6081 46.8624 92.4788C46.41 93.3838 45.8282 94.2241 45.1818 94.9997C44.9879 95.2583 45.2464 95.5168 45.505 95.5815C47.6381 96.0986 49.9005 95.5168 51.5164 94.0301C53.0031 92.6727 54.1666 90.3457 53.5202 88.3419C53.0678 88.6005 52.6799 88.859 52.2275 89.1822C58.5621 89.5701 64.8967 89.9579 71.2313 90.3457C72.5887 90.4104 73.9461 90.5396 75.3036 90.6043C75.6268 90.6043 75.9499 90.6689 76.3378 90.6689C76.5963 90.6689 76.2731 90.6689 76.2731 90.6689C76.3378 90.7336 76.4671 90.7982 76.5317 90.9275C77.5659 91.9617 78.4709 93.0606 79.7636 93.9009C81.7028 95.1936 83.9652 95.6461 86.2922 95.5168C87.0032 95.4522 90.9462 95.1936 90.0412 93.6423C89.718 93.1898 89.3302 92.802 89.007 92.2849C88.4899 91.3153 88.4899 90.1518 88.6838 89.0529C88.1021 89.2469 87.585 89.4408 87.0032 89.6347C88.3606 90.2164 89.9766 90.3457 91.3987 89.8932C91.9804 89.6993 94.1135 88.7944 93.5317 87.7602C93.2086 87.1784 92.4975 86.9845 92.1743 86.3381C91.9158 85.7564 91.8511 85.11 91.9158 84.4636C91.9804 84.0111 92.1097 83.5586 92.1743 83.1062C92.239 82.589 92.1097 82.9769 92.1743 82.8476C92.3682 82.4598 92.8207 82.0719 93.1439 81.6841C93.7257 80.9084 94.2428 80.0681 94.7599 79.2278C96.3112 76.5776 97.4101 73.6689 97.9918 70.6308C99.0261 65.7183 98.6382 60.6118 97.2162 55.7639C96.6344 56.0224 96.1173 56.2164 95.5356 56.4749C97.7979 57.3152 100.19 56.0871 101.547 54.2772C101.741 54.0833 101.224 53.8247 100.901 53.8247C100.448 53.7601 99.931 54.0186 99.6724 54.3418C99.1553 54.9882 98.5089 55.6992 97.604 55.7639C97.4101 55.7639 97.2808 55.7639 97.0869 55.6992C97.0223 55.6992 96.5698 55.5053 96.893 55.6346C96.5051 55.5053 95.0184 55.6346 95.2124 56.3456C97.3454 63.4559 96.9576 71.148 93.5964 77.8058C92.8207 79.3571 91.8511 80.9084 90.7523 82.2659C90.7523 82.2659 90.7523 82.2659 90.6876 82.3951C90.623 82.4598 90.623 82.4598 90.5584 82.5244C90.2352 82.9122 90.1705 83.3647 90.1059 83.8172C89.8473 84.9807 89.7827 86.3381 90.5584 87.3723C90.7523 87.6955 91.0755 87.8894 91.334 88.148C91.4633 88.2126 91.5279 88.3419 91.6572 88.4066C91.7219 88.4712 91.6572 88.4712 91.6572 88.4712C91.7219 88.3419 91.5926 88.4712 91.5279 88.5358C91.0755 88.859 90.623 88.9883 90.1059 88.9883C89.5241 88.9883 88.8777 88.859 88.3606 88.6651C87.9082 88.4712 86.8093 88.6005 86.68 89.2469C86.3568 90.9275 86.6154 92.4788 87.7142 93.7716C87.8435 93.9009 87.9728 94.0948 88.1021 94.2241C88.1667 94.2887 88.1667 94.2887 88.1667 94.2887C88.1667 94.2887 88.296 94.1594 88.3606 94.0301C88.4253 93.9655 88.5546 93.9655 88.3606 93.9655C88.2314 93.9655 88.1021 94.0301 87.9728 94.0301C87.3264 94.1594 86.7447 94.2241 86.0983 94.2887C84.0298 94.3533 82.026 93.6423 80.4747 92.4142C79.5051 91.6385 78.7941 90.6043 77.8891 89.8286C77.372 89.4408 76.661 89.4408 76.0146 89.3761C74.7864 89.3115 73.5583 89.1822 72.3302 89.1176C68.6457 88.859 65.026 88.6651 61.3415 88.4066C58.5621 88.2126 55.718 88.0834 52.9385 87.8894C52.5506 87.8894 51.4518 88.148 51.6457 88.7298C52.5506 91.6385 49.6419 95.129 46.6039 94.418C46.7331 94.6119 46.7978 94.8058 46.9271 94.9997C47.5735 94.2241 48.1552 93.3838 48.6077 92.4788C49.0601 91.6385 47.4442 91.8971 47.121 92.091C45.1818 93.3838 42.7902 93.4484 40.5924 92.9313C40.4632 92.9313 40.4632 92.8666 40.4632 92.8666C40.5278 92.8666 40.3985 93.1252 40.3339 93.1252L40.2692 93.1898C40.3985 93.1252 40.4632 93.0606 40.5278 92.9959C41.0449 92.6081 41.4327 92.1556 41.6913 91.5739C41.9499 90.9275 42.0145 90.0872 41.8206 89.3761C41.6267 88.7298 40.4632 89.1822 40.14 89.4408C39.4936 90.0225 38.2654 89.764 37.4898 89.5701C37.0373 89.4408 36.5202 89.3115 36.1324 89.0529C36.0677 88.9883 35.486 88.6005 35.5506 88.6005C35.8092 88.7944 35.1628 89.0529 35.4213 89.0529C35.5506 89.0529 35.7445 88.9237 35.9384 88.859C36.2616 88.7297 36.5848 88.4712 36.908 88.2773C37.4898 87.7602 37.8776 87.1784 38.0715 86.4674C38.9765 83.6879 37.3605 80.6499 36.1324 78.2582C34.4517 74.9617 33.2882 71.3419 32.7065 67.7221C32.5772 66.8171 32.4479 65.8476 32.4479 64.9426C32.4479 64.878 32.4479 64.7487 32.4479 64.6841C32.4479 64.4255 32.4479 65.0073 32.4479 64.6194C32.3833 63.5852 32.3187 62.6156 32.254 61.5814C32.1247 58.3494 32.3833 55.1821 33.159 52.1441C33.9993 48.7829 35.486 45.357 38.1362 42.9654C38.3301 42.8361 38.4594 42.6422 38.6533 42.5129C38.8472 42.3836 38.5886 42.5775 38.7826 42.4483C38.8472 42.3836 38.9765 42.319 39.0411 42.2543C39.235 42.1251 39.4289 41.9958 39.6875 41.8665C39.8168 41.8019 39.4289 41.9958 39.6229 41.9311C39.8814 41.7372 40.0753 41.6726 40.2046 41.3494C40.2692 41.2201 40.2692 41.0262 40.3339 40.8969C40.9803 38.9578 42.3377 37.0186 43.889 35.4672C47.121 32.2353 51.5811 30.5547 56.0412 29.8437C59.6609 29.2619 63.3454 29.1973 67.0298 29.3912C70.2617 29.6497 73.6876 30.1669 76.9842 31.2657C79.6344 32.106 82.1553 33.3342 84.353 34.9501C86.8739 36.8247 88.9424 39.2163 90.623 41.8665C92.1743 44.2581 93.3378 46.8437 94.566 49.4293C95.4709 51.4331 96.5698 53.243 98.5736 54.4065C99.0907 54.665 99.6724 54.9882 100.254 54.9882C100.642 54.9882 101.288 54.8589 101.482 54.4711C101.612 54.0186 101.288 53.8247 100.901 53.8247Z" fill="#4F4F4F"/>
<path d="M47.3805 95.5169C46.928 95.5169 46.4755 95.4522 46.023 95.323C45.8938 95.323 45.8291 95.1937 45.8291 95.1291C45.8291 95.0644 45.8291 94.9351 45.8938 94.8705C46.217 94.4827 46.6048 93.9656 46.9926 93.3192C45.312 94.0948 43.5668 94.2241 42.5325 94.2241C41.4337 94.2241 39.5591 94.0302 39.3006 93.3192C39.236 93.1899 39.236 92.9313 39.6238 92.7374C40.7873 92.0264 40.8519 90.9275 40.8519 90.2811C40.3348 90.6043 39.6238 90.7336 38.7835 90.7336C37.0382 90.7336 34.5819 89.8933 34.4527 88.9884C34.4527 88.7944 34.4527 88.4066 35.1637 88.2127C35.4223 88.148 36.2626 87.8249 36.715 86.726C37.2968 85.4979 37.4261 83.1062 35.0991 78.7754C31.2854 71.9237 31.1561 64.878 31.1561 64.8134C29.6047 46.9084 37.6846 41.9312 38.8481 41.2848C39.236 39.9274 43.1143 28.4217 63.1524 28.4217C73.8824 28.4217 82.0269 30.9426 87.3273 35.9198C91.5289 39.8628 94.0498 45.3571 95.5365 48.6537C96.1182 49.8818 96.5707 50.8514 96.8939 51.3039C99.027 54.0187 100.578 54.0833 100.578 54.0833C100.708 54.0833 100.772 54.148 100.837 54.2126C100.902 54.2772 100.902 54.4065 100.837 54.5358C99.6087 56.2164 98.1867 56.6042 97.2171 56.6042C97.0232 56.6042 96.7646 56.6042 96.6353 56.5396C98.9623 64.7487 97.5403 71.4712 95.8597 75.6727C94.1791 80.0035 91.9167 82.5245 91.5935 82.9769C90.6239 86.2735 91.7228 87.1138 92.4338 87.6309C92.6924 87.8249 92.9509 88.0188 92.9509 88.342C92.9509 88.6652 92.6277 88.9237 92.3692 89.1823C91.6581 89.6994 90.8178 89.9579 89.8483 89.9579C89.0079 89.9579 88.2969 89.764 87.9091 89.6348C87.5859 91.7678 88.4908 92.8667 89.0079 93.5131C89.3311 93.8363 89.5251 94.1595 89.3958 94.4827C89.2665 94.8059 88.814 94.9998 87.0688 95.1937C86.5517 95.2583 86.0346 95.323 85.5174 95.323C81.1866 95.323 78.795 92.6728 77.5022 91.2507C77.179 90.9275 76.8558 90.5397 76.7265 90.4751C76.0802 90.3458 61.1486 89.4408 52.9394 88.9237C53.0041 89.3116 53.0687 89.764 53.004 90.2165C52.7455 92.8021 50.4185 95.5169 47.3805 95.5169ZM46.6048 94.8705C46.8633 94.9351 47.1219 94.9351 47.3158 94.9351C50.0307 94.9351 52.0991 92.4142 52.4223 90.1519C52.4869 89.6347 52.4223 89.1176 52.293 88.7298C52.2284 88.6652 52.293 88.5359 52.3577 88.4712C52.4223 88.4066 52.4869 88.342 52.6162 88.342C55.0079 88.4712 76.0802 89.764 76.9205 89.8933C77.2437 89.9579 77.5022 90.2811 78.0193 90.8629C79.2475 92.2203 81.5098 94.7412 85.5174 94.7412C85.9699 94.7412 86.487 94.6766 87.0041 94.6119C87.392 94.5473 88.5555 94.418 88.814 94.2241C88.7494 94.1595 88.6201 93.9656 88.5555 93.8363C87.9737 93.1253 86.8102 91.7678 87.392 89.1176C87.392 89.053 87.4566 88.9237 87.5859 88.9237C87.6505 88.8591 87.7798 88.8591 87.8444 88.9237C87.8444 88.9237 88.7494 89.3116 89.9129 89.3116C90.7532 89.3116 91.4642 89.1176 92.046 88.6652C92.3692 88.4066 92.4338 88.2773 92.4338 88.2773C92.4338 88.2127 92.2399 88.0834 92.1106 88.0188C91.3349 87.437 89.9775 86.4028 91.0764 82.7184C91.0764 82.6537 91.141 82.6537 91.141 82.5891C91.2057 82.4598 100.708 72.1176 95.9243 56.2164C95.9243 56.0871 95.9243 56.0225 95.989 55.8932C96.0536 55.8286 96.1829 55.8286 96.3121 55.8286C96.3121 55.8286 96.7 55.9579 97.2171 55.9579C97.9928 55.9579 99.027 55.6993 99.9966 54.5358C99.2855 54.3419 97.9928 53.6309 96.3768 51.627C95.989 51.1746 95.6011 50.205 94.9547 48.9122C93.468 45.6803 91.0118 40.2506 86.8749 36.3723C81.7037 31.5243 73.6885 29.0034 63.1524 29.0034C52.3577 29.0034 46.4755 32.4293 43.4375 35.2734C40.1409 38.3761 39.4299 41.4787 39.4299 41.5434C39.4299 41.608 39.3652 41.6726 39.236 41.7373C39.1713 41.8019 30.1865 46.3267 31.7378 64.7488C31.7378 64.8134 31.8671 71.7298 35.6162 78.5815C38.0725 83.1062 37.8785 85.6918 37.2321 87.0492C36.6504 88.342 35.6808 88.7298 35.293 88.8591C35.0344 88.9237 35.0344 88.9884 35.0344 88.9884C35.0344 89.2469 36.7797 90.2165 38.7188 90.2165C39.3652 90.2165 40.2055 90.0872 40.7873 89.5701C40.8519 89.5055 40.9812 89.4408 41.1105 89.5055C41.2398 89.5055 41.3044 89.6347 41.3044 89.6994C41.3044 89.6994 41.9508 92.0264 39.947 93.2545C40.2055 93.3838 41.0458 93.6424 42.4679 93.6424C44.4071 93.6424 46.2816 93.1253 47.5744 92.2849C47.7037 92.2203 47.8329 92.2203 47.9622 92.2849C48.0915 92.3496 48.0915 92.5435 48.0268 92.6081C47.639 93.5131 47.0573 94.2887 46.6048 94.8705Z" fill="#0A74A6"/>
<path d="M47.9618 95.1291C47.6386 95.1291 47.3154 95.1291 47.0569 95.0644C46.6044 94.9351 46.7983 94.8059 46.9276 94.5473C47.2508 94.0948 47.574 93.707 47.8326 93.1899C48.0911 92.8021 46.4751 93.1899 46.3459 93.2545C44.7945 93.9656 42.3382 94.2888 40.6576 93.5777C40.3991 93.4484 40.0112 93.2545 40.1405 92.9313C40.2698 92.6081 40.9162 92.3496 41.1101 92.091C41.5626 91.5093 41.6919 90.8629 41.6272 90.1519C41.6272 89.764 40.2698 90.2165 40.1405 90.2811C38.977 90.9275 36.7147 90.2811 35.6804 89.5055C35.5512 89.3762 35.3572 89.2469 35.2926 89.053C35.228 88.9237 35.3572 88.5359 35.1633 88.6652C35.2926 88.5359 35.7451 88.4712 35.8744 88.4066C36.1329 88.2773 36.3915 88.1481 36.65 87.9541C38.266 86.5967 38.0074 84.2051 37.4903 82.3952C37.1025 80.5853 36.1975 79.0986 35.4219 77.4826C34.6462 75.8667 33.9998 74.1214 33.4181 72.3761C32.7717 70.0491 32.3192 67.6575 32.1253 65.2012C31.8021 60.1594 31.7375 54.9883 33.3534 50.0757C34.323 47.167 35.8097 44.3228 38.2014 42.319C38.5245 42.0605 38.6538 41.9312 39.0417 41.6726C39.1709 41.608 39.2356 41.5434 39.3649 41.4787C39.4295 41.4787 39.4295 41.4141 39.4941 41.4141H39.5588C39.2356 41.608 39.6234 41.4141 39.6881 41.3495C40.0112 40.897 40.1405 40.2506 40.3991 39.7335C41.4979 37.3418 43.2432 35.338 45.3763 33.7221C49.19 30.8133 53.9086 29.5205 58.6273 29.1327C65.1558 28.5509 72.1368 29.1327 78.2775 31.3951C80.8631 32.3646 83.3193 33.7221 85.4524 35.4673C87.9733 37.5358 89.9125 40.1213 91.5931 42.9008C93.0152 45.3571 94.114 48.0073 95.4068 50.5282C95.9886 51.7563 96.9582 52.8552 98.057 53.6955C98.3802 53.9541 98.7681 54.2126 99.1559 54.3419C99.3498 54.4065 99.6084 54.4712 99.8023 54.5358C100.061 54.6651 100.061 54.5358 99.8023 54.9883C99.6084 55.3115 99.2205 55.6347 98.8973 55.8932C98.4449 56.2164 97.9924 56.3457 97.4753 56.2811C97.2167 56.2164 95.6007 56.4103 95.7947 56.9274C97.4106 62.6157 97.4753 68.6271 95.6654 74.2507C94.8897 76.707 93.7262 79.0986 92.2395 81.2963C91.8517 81.8781 91.3346 82.4598 90.9467 83.0416C90.4296 83.7526 90.3003 85.1747 90.4296 86.015C90.5589 86.7906 90.8821 87.3724 91.4638 87.8895C91.6578 88.0834 91.981 88.2127 92.1102 88.4712C92.3042 88.9237 91.7224 89.3116 91.3346 89.5055C90.5589 89.8933 89.5893 89.6348 88.8137 89.3762C88.4905 89.2469 87.1977 89.4408 87.133 89.8933C86.9391 91.4446 87.2623 92.6081 88.2319 93.8363C88.4905 94.0948 88.749 94.3534 88.6197 94.7412C88.6197 94.6766 88.8137 94.6766 88.4258 94.7412C87.2623 94.8705 86.2281 95.0644 85.0646 94.8705C83.384 94.6766 81.8973 93.9656 80.6045 92.9313C80.152 92.5435 79.6996 92.1557 79.2471 91.7032C78.8593 91.2507 78.3421 90.4751 77.825 90.2811C77.4372 90.0872 76.8554 90.1519 76.4676 90.1519C75.498 90.0872 74.4638 90.0226 73.4942 89.9579C70.5208 89.764 67.4828 89.5701 64.5094 89.3762C60.9543 89.1823 57.3991 88.9237 53.7793 88.7298C53.5208 88.7298 52.1634 88.9237 52.228 89.3762C52.6805 91.8971 50.612 95.323 47.8972 95.3876C47.574 95.3876 46.7983 95.5169 46.6691 95.8401C46.4751 96.1633 46.863 96.1633 47.1215 96.1633C50.7413 96.0986 54.8136 92.8667 54.1672 88.9237C53.6501 89.1176 53.133 89.3762 52.6158 89.5701C59.209 89.9579 65.8668 90.4104 72.46 90.7982C73.4296 90.8629 74.4638 90.9275 75.4334 90.9922C75.6919 90.9922 75.9505 90.9922 76.2091 91.0568C76.403 91.1214 76.1444 91.0568 76.2091 91.0568C76.5969 91.3154 76.8554 91.7032 77.114 92.0264C79.3764 94.4827 82.2205 95.9694 85.6463 95.8401C86.8098 95.7755 87.9733 95.6462 89.0722 95.323C89.5247 95.1937 90.3003 94.9998 90.5589 94.4827C90.8821 93.8363 89.9125 93.1253 89.5893 92.6081C89.0076 91.7032 88.8783 90.669 89.0722 89.6348C88.4905 89.8287 87.9733 89.9579 87.3916 90.1519C88.8783 90.669 90.4943 90.6043 91.981 90.0226C92.9505 89.6348 94.9544 88.6005 93.5969 87.5017C93.0152 86.9846 92.5627 86.5321 92.3688 85.6918C92.1749 84.7222 92.3042 83.3648 92.9505 82.5891C96.2471 78.5815 98.1863 73.475 98.7681 68.3039C99.2205 64.2963 98.8327 60.2887 97.7338 56.4103C97.1521 56.6042 96.5703 56.7982 96.0532 57.0567C97.6045 57.2506 99.2205 56.8628 100.449 56.0225C100.836 55.7639 102 54.859 102 54.2772C101.935 53.954 101.612 53.8894 101.354 53.8248C101.548 53.8894 101.354 53.8248 101.224 53.8248C98.1217 52.7259 97.0874 49.4293 95.7947 46.7145C94.1787 43.3533 92.3688 40.0567 89.8479 37.2772C87.5209 34.6916 84.6121 32.6878 81.4448 31.3304C77.9543 29.7144 74.3345 28.8741 70.7147 28.4217C66.5779 27.9046 62.3117 27.8399 58.1748 28.357C52.5512 29.0034 46.863 30.8133 42.5968 34.627C40.593 36.4369 38.7185 38.8285 38.0074 41.4787C38.1367 41.3495 38.266 41.2848 38.3953 41.1555C33.5474 43.7411 31.285 49.6232 30.5093 54.6651C29.7983 58.9959 29.8629 63.5853 30.5093 67.9161C30.9618 70.8895 31.7375 73.7982 32.9656 76.5777C34.1291 79.2925 36.0036 81.8134 36.1329 84.8515C36.1975 85.6918 36.0683 86.6614 35.5512 87.3724C35.3572 87.6309 35.0987 87.8249 34.8401 88.0188C35.0987 87.8249 34.9694 87.9541 34.7755 88.0188C34.5816 88.0834 34.323 88.1481 34.1291 88.2773C33.8059 88.4712 33.3534 88.7944 33.4181 89.2469C33.612 90.3458 35.6804 90.7983 36.5207 90.9275C38.1367 91.2507 39.8173 91.1214 41.304 90.3458C40.7869 90.4104 40.3344 90.4104 39.8173 90.4751C39.8173 90.9275 39.8173 91.4446 39.5588 91.8325C39.3002 92.3496 38.6538 92.5435 38.3953 93.0606C37.8782 93.9656 39.3649 94.2887 39.9466 94.418C42.4675 94.8705 45.1177 94.418 47.4447 93.3838C46.9276 93.3838 46.4751 93.3838 45.958 93.4484C45.6995 93.8363 45.5056 94.1595 45.247 94.5473C45.1177 94.7412 44.7299 94.9998 44.7945 95.323C44.8592 95.9694 46.2166 95.9047 46.6691 95.9047C47.0569 95.9047 47.6386 95.8401 47.9618 95.5815C48.3497 95.3876 48.3497 95.1291 47.9618 95.1291Z" fill="#4F4F4F"/>
<path d="M45.8288 95.2583C47.8326 95.5169 49.9657 94.9351 51.4524 93.5131C52.1634 92.8667 52.6806 92.091 53.0037 91.1861C53.133 90.7982 53.2623 90.3458 53.3269 89.8933C53.3916 89.5701 53.133 88.4066 53.2623 88.2773C52.9391 88.4066 52.5513 88.5359 52.2281 88.6652C51.9049 88.7298 52.0342 88.6652 52.2281 88.6652C52.3574 88.6652 52.4866 88.6652 52.6159 88.6652C53.0037 88.6652 53.3916 88.7298 53.7794 88.7298C54.8783 88.7944 55.9771 88.8591 57.1406 88.9237C60.0494 89.1176 62.9581 89.3115 65.8669 89.4408C68.4525 89.6347 71.1027 89.764 73.6882 89.9579C74.3992 90.0226 75.1103 90.0226 75.8213 90.0872C75.8859 90.0872 76.0152 90.0872 76.0799 90.0872C76.2091 90.0872 76.0799 90.0872 76.0152 90.0872C76.0799 90.0872 76.1445 90.1519 76.2091 90.1519C76.7909 90.669 77.308 91.2507 77.8251 91.7678C79.1825 93.1252 80.7985 94.1595 82.673 94.6119C83.9658 94.9351 85.2586 94.9351 86.5514 94.7412C87.4563 94.6119 88.4905 94.4827 89.3308 94.0948C89.3955 94.0948 89.848 93.8363 89.7187 93.707C89.2662 93.1252 88.7491 92.6081 88.4905 91.8971C88.2966 91.4446 88.232 91.0568 88.1673 90.6043C88.1673 90.3458 88.1027 90.0872 88.1673 89.764C88.1673 89.5701 88.1673 88.7944 88.2966 88.7298C87.9734 88.8591 87.7149 88.9237 87.3917 89.053C86.8746 89.1823 86.8746 88.9237 87.1331 89.1176C87.2624 89.1823 87.3917 89.2469 87.5856 89.2469C88.0381 89.3762 88.4905 89.4408 89.0076 89.5055C90.1065 89.5701 91.2054 89.3762 92.175 88.8591C92.4335 88.7298 93.4031 88.2773 93.3385 87.8248C93.2738 87.5663 92.5628 87.1785 92.3689 86.9199C91.3993 85.821 91.5286 84.2051 91.8518 82.8477C91.981 82.2659 92.1103 82.1366 92.4981 81.6842C95.4069 77.9997 97.2168 73.4104 97.9278 68.7564C98.251 66.7526 98.3157 64.7487 98.1864 62.7449C98.1217 61.5814 97.9925 60.3533 97.7339 59.1898C97.6046 58.5434 97.4753 57.9617 97.3461 57.3153C97.2168 56.9274 96.7643 55.8286 96.9582 55.4407C96.829 55.57 96.6997 55.6347 96.5704 55.7639C96.635 55.7639 96.6997 55.6993 96.6997 55.6993C96.3118 55.7639 95.924 55.8932 95.5362 55.9578C96.4411 56.0871 97.1522 56.1518 98.0571 55.9578C99.156 55.6993 100.126 55.1175 100.901 54.2126C101.03 54.0833 101.03 53.954 100.837 53.8894C98.6388 53.1784 97.1522 50.9806 96.2472 48.9768C95.213 46.7145 94.1788 44.5168 92.9506 42.3837C90.3004 37.7943 86.6806 34.0452 81.8974 31.7182C76.8555 29.3266 71.2319 28.4863 65.673 28.2924C60.0494 28.0985 54.3612 28.6802 49.1254 30.8779C45.3764 32.4293 41.9505 34.8855 39.8174 38.376C39.3649 39.1517 38.9125 39.992 38.6539 40.8323C38.5893 40.9616 38.46 41.1555 38.5246 41.2848C38.5246 41.3494 38.7832 41.0909 38.7185 41.2202C38.3953 41.5434 37.8136 41.8019 37.4258 42.0605C32.19 46.6498 30.7033 54.148 30.6387 60.4179C30.6387 64.6841 31.0265 69.0149 32.3193 73.0872C32.8364 74.7031 33.4181 76.1898 34.1292 77.7412C34.8402 79.2279 35.6159 80.5853 36.133 82.1366C36.6501 83.688 37.0379 85.6271 36.3269 87.2431C36.0683 87.7602 35.6805 88.2773 35.1634 88.6005C35.228 88.6005 34.8402 88.7298 34.6463 88.7944C34.517 88.7944 34.3231 88.9237 34.1938 89.053C34.1292 89.1176 34.1292 89.1823 34.1292 89.2469C34.1938 89.5701 34.7109 89.764 35.0341 89.8933C35.7451 90.2165 36.5208 90.4104 37.2965 90.5397C38.0722 90.6043 38.8478 90.6043 39.5588 90.475C40.3992 90.2811 40.9809 89.9579 41.6919 89.5701C41.2395 89.6994 40.787 89.8287 40.3992 89.8933C40.5931 89.8933 40.5284 90.9275 40.5284 90.9922C40.4638 91.8971 40.076 92.7374 39.3003 93.2545C39.2357 93.3192 38.9771 93.5131 39.1064 93.5777C40.2699 94.2241 42.0151 94.0948 43.3079 93.9656C44.2129 93.9009 45.1178 93.707 45.9581 93.4484C46.4106 93.3192 46.8631 93.1252 47.2509 92.9313C47.4448 92.8667 47.6387 92.7374 47.768 92.6728C47.8973 92.6081 48.479 92.3496 47.8973 92.5435C47.6387 92.5435 47.3155 92.6081 47.057 92.6081C47.4448 92.7374 45.9581 94.7412 45.7642 95.0644C45.5703 95.323 46.4752 95.2583 46.5399 95.2583C46.9277 95.1937 47.3802 95.0644 47.6387 94.7412C47.9619 94.2887 48.2851 93.8363 48.6083 93.3838C48.8022 93.0606 49.2547 92.5435 49.0608 92.1557C48.6729 91.38 47.1862 92.1557 46.7984 92.4142C45.8288 92.996 44.73 93.2545 43.6311 93.2545C42.7908 93.3192 41.7566 93.3192 40.9809 92.9313C40.9163 93.0606 40.8516 93.1899 40.787 93.2545C41.7566 92.6081 42.403 91.7678 42.4676 90.6043C42.5322 90.0226 42.5322 89.1823 41.8212 89.1176C41.1748 89.053 40.5931 89.3762 40.076 89.6347C39.4296 90.0226 38.5246 89.764 37.8136 89.5701C37.2318 89.4408 36.7794 89.053 36.2623 88.8591C36.2623 88.8591 36.1976 88.7298 36.133 88.7298C36.1976 88.7298 35.0988 89.2469 35.9391 88.9884C36.1976 88.9237 36.4562 88.7944 36.6501 88.6652C38.3953 87.6956 38.9125 85.821 38.7185 83.9465C38.3953 80.7146 36.3269 77.9997 35.1634 75.0263C33.4181 70.6309 32.7718 65.9769 32.7071 61.2582C32.4486 56.475 33.0303 51.5624 35.228 47.2962C35.8744 46.0681 36.6501 44.8399 37.6197 43.8057C38.2014 43.224 38.8478 42.5776 39.4296 42.1897C39.6235 42.0605 39.7528 41.9958 39.9467 41.8666C40.0113 41.8019 39.7528 41.9958 39.882 41.9312C40.1406 41.7373 40.3345 41.6726 40.4638 41.4141C40.787 40.7677 40.9163 40.1213 41.2395 39.4749C41.9505 38.1175 42.8554 36.8247 43.9543 35.7259C46.7984 32.6232 50.8707 30.9426 54.9429 30.1023C58.3041 29.4559 61.73 29.3266 65.1559 29.4559C68.3232 29.5852 71.4905 29.973 74.5932 30.7487C79.9582 32.1061 84.8708 34.8209 88.3613 39.2164C90.2358 41.5434 91.6578 44.1289 92.9506 46.7791C93.5324 47.9426 94.0495 49.1708 94.6312 50.3343C95.213 51.5624 95.9887 52.5966 97.0229 53.5662C97.6693 54.148 98.4449 54.6651 99.3499 54.9883C99.3499 54.859 99.2852 54.7943 99.2852 54.6651C98.962 54.9883 98.5742 55.5054 98.0571 55.6347C97.6693 55.6993 97.2814 55.5054 96.9582 55.5054C96.4411 55.4407 95.924 55.6346 95.4715 55.8932C94.9544 56.2164 95.0837 56.5396 95.213 57.0567C95.924 59.513 96.3118 62.0985 96.3765 64.6195C96.5058 68.5624 95.7301 72.5701 94.1788 76.1898C93.2738 78.2583 92.175 80.3267 90.7529 82.1366C90.6236 82.2659 90.4943 82.4598 90.3651 82.5891C89.9772 83.0416 89.9126 83.688 89.848 84.2051C89.5894 85.6271 89.7833 87.0492 90.8822 88.0834C91.0115 88.2127 91.4639 88.6005 91.4639 88.4712C91.4639 88.6652 90.8822 88.8591 90.7529 88.9237C90.3651 88.9883 89.9126 88.9237 89.5248 88.7944C88.6198 88.6005 87.7149 88.2127 86.8099 88.9237C86.0989 89.5055 86.3575 91.3153 86.5514 92.1557C86.8099 93.0606 87.4563 93.6424 87.9734 94.418C88.1027 94.2887 88.232 94.1595 88.3613 94.0302C88.6845 93.9009 88.1027 94.0302 88.0381 94.0948C87.8441 94.1595 87.5856 94.1595 87.3917 94.1595C86.616 94.2887 85.8403 94.2887 85.0647 94.1595C83.9012 94.0302 82.8023 93.5777 81.8327 92.996C81.0571 92.5435 80.346 91.9617 79.6996 91.3154C79.1825 90.7336 78.6008 89.8933 77.8897 89.5701C77.3726 89.3762 76.6616 89.3762 76.1445 89.3762C74.981 89.3115 73.8175 89.1823 72.654 89.1176C66.6426 88.7298 60.5665 88.342 54.5551 87.9541C53.6501 87.8895 51.3231 87.6309 51.3878 88.9237C51.3878 89.2469 51.5171 89.5055 51.5171 89.8287C51.5171 90.2165 51.4524 90.6043 51.3231 90.9275C51.1939 91.5093 50.9353 92.091 50.6121 92.5435C49.9011 93.6424 48.8022 94.6119 47.3802 94.418C46.9277 94.3534 46.4752 94.4827 46.0874 94.6766C45.9581 94.8059 45.441 95.1937 45.8288 95.2583Z" fill="#4F4F4F"/>
<path d="M64.7029 94.8705C79.6608 94.8705 91.7866 82.7447 91.7866 67.7868C91.7866 52.8289 79.6608 40.7031 64.7029 40.7031C49.7449 40.7031 37.6191 52.8289 37.6191 67.7868C37.6191 82.7447 49.7449 94.8705 64.7029 94.8705Z" fill="#E4E4E4" stroke="white" stroke-miterlimit="10"/>
<path d="M93.403 62.8096C91.3992 50.9161 81.5741 41.4141 69.6805 39.6689C68.2584 39.475 66.8364 39.3457 65.4143 39.3457C53.5854 39.4103 42.4029 46.3267 37.9428 57.4446C33.4181 68.6918 36.7793 81.8781 46.0873 89.6348C55.2014 97.2622 68.4524 98.1671 78.8592 92.5436C89.3954 86.7907 95.4068 74.7678 93.403 62.8096ZM38.8477 63.0036C40.6576 52.3381 49.19 43.1594 59.9847 41.2849C61.4067 41.0263 62.8288 40.9617 64.2508 40.897C75.3041 40.9617 85.3878 47.9427 89.3954 58.2203C93.403 68.5625 90.5589 80.65 82.2851 88.0835C78.2128 91.7679 73.0417 94.0949 67.6121 94.5474C62.0531 94.9998 56.4295 93.7071 51.6462 90.7983C42.1443 85.1101 36.9732 73.8629 38.8477 63.0036ZM64.2508 40.0567C65.8022 40.0567 67.3535 40.186 68.8402 40.5092C67.6767 40.3799 66.5132 40.2506 65.4143 40.2506C58.498 40.3153 51.8402 42.7716 46.669 47.0377C50.3535 43.6765 54.8782 41.2849 59.92 40.4446C61.3421 40.1214 62.8288 40.0567 64.2508 40.0567Z" fill="#4F4F4F"/>
<g opacity="0.3">
<path opacity="0.3" d="M75.4332 44.7754C80.9276 49.4941 84.418 56.5397 84.418 64.361C84.418 78.6462 72.8477 90.2166 58.5625 90.2166C55.2012 90.2166 51.9693 89.5702 49.0605 88.4067C53.5853 92.285 59.4674 94.6767 65.9313 94.6767C80.2165 94.6767 91.7869 83.1063 91.7869 68.8211C91.7223 57.8971 84.9352 48.5891 75.4332 44.7754Z" fill="#B2B2B2"/>
</g>
<path d="M71.2972 73.0226C70.5861 71.9884 69.4873 71.2127 68.3238 70.6956C67.2895 70.2431 66.1907 70.0492 65.1565 69.9199C63.1526 69.6614 61.0196 69.7907 59.4682 71.2127C58.5633 72.053 58.3047 73.4104 59.2743 74.3154C59.9207 74.8971 60.8256 75.0911 61.7306 75.0911C62.5709 75.0911 63.4758 74.9618 64.3161 75.0911C65.2857 75.2203 66.2553 75.6728 66.9663 76.3192C67.3542 76.6424 67.6774 77.0949 68.1945 77.2888C68.7762 77.5473 69.4226 77.4181 70.0044 77.1595C70.7154 76.9009 71.3618 76.4485 71.685 75.7374C72.1375 74.8971 71.8789 73.7983 71.2972 73.0226Z" fill="#383838"/>
<path d="M59.0151 60.4827C58.8212 59.7716 57.8516 59.9009 57.2698 59.9655C55.3953 60.2241 53.5854 60.418 51.7109 60.6766C51.323 60.7412 50.7413 60.8705 50.4827 61.1937C50.2888 61.4522 50.5474 61.5169 50.7413 61.5169C50.5474 62.6157 51.0645 63.7146 51.9694 64.361C53.0683 65.2013 54.4904 65.1367 55.7185 64.6842C57.0113 64.2317 58.1101 63.3268 58.6919 62.0986C58.8858 61.7108 59.1444 60.9998 59.0151 60.4827Z" fill="#383838"/>
<path d="M81.0151 60.4827C80.8212 59.7716 79.8516 59.9009 79.2698 59.9655C77.3953 60.2241 75.5854 60.418 73.7109 60.6766C73.323 60.7412 72.7413 60.8705 72.4827 61.1937C72.2888 61.4522 72.5474 61.5169 72.7413 61.5169C72.5474 62.6157 73.0645 63.7146 73.9694 64.361C75.0683 65.2013 76.4904 65.1367 77.7185 64.6842C79.0113 64.2317 80.1101 63.3268 80.6919 62.0986C80.8858 61.7108 81.1444 60.9998 81.0151 60.4827Z" fill="#383838"/>
<path d="M46.3461 50.205C46.3461 50.205 48.4145 54.9883 54.5552 56.4103C54.5552 56.4103 55.137 55.0529 52.0343 45.551C52.0343 45.551 59.4032 55.0529 71.3614 56.4103L68.4526 48.5244C68.4526 48.5244 73.1713 52.9198 82.2207 57.1214C87.7797 59.7069 91.7226 59.1252 91.7226 59.1252C91.7226 59.1252 97.3462 26.3532 56.8822 32.0414C56.8822 32.0414 25.7263 44.3875 40.0115 66.7526C40.0761 66.7526 45.5058 59.5776 46.3461 50.205Z" fill="#0A74A6"/>
<path d="M65.8664 31.3304C96.5699 31.3304 91.8513 59.0605 91.8513 59.0605C91.8513 59.0605 91.4634 59.1252 90.7524 59.1252C89.2011 59.1252 86.1631 58.8666 82.2847 57.0567C73.2353 52.8552 68.5166 48.4597 68.5166 48.4597L71.4254 56.3457C59.4672 54.9883 52.0983 45.4863 52.0983 45.4863C55.201 55.0529 54.5546 56.4103 54.5546 56.4103C48.4139 54.9883 46.3455 50.205 46.3455 50.205C45.4405 59.5776 40.0108 66.7526 40.0108 66.7526C34.1933 35.0795 56.8816 32.0414 56.8816 32.0414C60.2428 31.589 63.1516 31.3304 65.8664 31.3304ZM65.8664 30.7487C63.0869 30.7487 60.0489 31.0072 56.8816 31.395C56.5584 31.4597 48.7371 32.6232 43.3721 39.992C38.7181 46.3913 37.4253 55.4407 39.4937 66.8172C39.5584 67.0757 39.6876 67.205 39.9462 67.2697C40.0108 67.2697 40.0108 67.2697 40.0755 67.2697C40.2694 67.2697 40.3987 67.205 40.528 67.0111C40.7219 66.7526 45.4405 60.4826 46.7333 51.8856C47.8968 53.5016 50.2238 55.8932 54.4253 56.8628C54.49 56.8628 54.49 56.8628 54.5546 56.8628C54.8132 56.8628 55.0071 56.7335 55.0717 56.5396C55.201 56.2164 55.4596 54.6651 53.3911 47.8133C56.2999 50.7221 62.5698 55.8932 71.2961 56.9274H71.3607C71.5546 56.9274 71.6839 56.8628 71.8132 56.7335C71.9425 56.6042 71.9425 56.3457 71.8778 56.1518L69.6801 50.2696C71.8132 51.8856 75.8855 54.7297 81.8969 57.5738C86.0338 59.4484 89.2011 59.7069 90.7524 59.7069C91.4634 59.7069 91.9159 59.6423 91.9159 59.6423C92.1745 59.5776 92.3684 59.3837 92.433 59.1898C92.4977 58.7373 94.3722 47.2316 87.3912 38.8932C82.8018 33.5281 75.5623 30.7487 65.8664 30.7487Z" fill="#0A74A6"/>
<path d="M34.6463 55.1822C35.4219 59.4484 36.5208 63.7145 38.6539 67.5282C38.7832 67.7868 39.7527 69.2735 40.2052 68.4978C42.9201 63.5853 46.0227 58.802 47.4448 53.3723C47.0569 53.3723 46.6691 53.3077 46.2813 53.3077C48.5436 56.1518 51.9049 58.0909 55.46 58.6081C55.8478 58.6727 55.9125 58.1556 55.9125 57.897C55.6539 54.7297 54.6197 51.627 54.4258 48.4597C53.9733 48.4597 53.4562 48.3951 53.0037 48.3951C55.2661 51.4331 58.5627 53.4369 61.8593 55.1822C65.0912 56.9274 68.8403 58.802 72.654 58.802C73.365 58.802 73.0418 57.7031 72.9772 57.3799C72.2015 55.2468 70.8441 53.1137 70.6502 50.7867C70.2623 50.8514 69.8745 50.9807 69.4867 51.0453C73.0418 54.4065 76.9848 57.3153 81.5742 59.1252C83.7719 60.0301 86.1635 60.6765 88.4905 61.0643C90.0419 61.3229 92.1749 61.5814 93.597 60.8704C94.5019 60.4179 93.0799 57.5092 92.1103 58.0263C91.4639 58.3495 90.6236 58.3495 89.9126 58.3495C89.1369 58.3495 88.3612 58.2849 87.5856 58.1556C85.3232 57.7677 83.1255 57.186 80.9924 56.281C76.8555 54.6004 73.1064 52.0795 69.9391 48.9768C69.4867 48.5244 68.711 48.2658 68.7756 49.2354C68.9696 52.0795 70.4562 54.6004 71.4258 57.2506C71.5551 56.7982 71.6198 56.281 71.749 55.8286C68.2585 55.8286 64.8973 54.2126 61.8593 52.5966C59.1444 51.1099 55.9125 49.494 54.038 46.973C53.6501 46.4559 52.4866 45.6803 52.6159 46.9084C52.8745 50.0757 53.9087 53.1784 54.1026 56.3457C54.2319 56.0871 54.4258 55.8932 54.5551 55.6347C51.517 55.2468 48.7376 53.6309 46.7984 51.2392C46.4752 50.8514 45.8288 50.5282 45.6349 51.1746C44.2775 56.475 41.1102 61.129 38.5246 65.8476C39.0417 66.1708 39.5588 66.494 40.0759 66.8172C38.2014 63.5206 37.2965 59.7716 36.5854 56.0225C36.4562 55.3761 36.0037 54.4065 35.3573 54.148C34.5816 54.0187 34.517 54.7297 34.6463 55.1822Z" fill="#4F4F4F"/>
</g>
<rect x="4.5" y="4.5" width="123" height="123" stroke="#0A74A6"/>
<rect x="0.5" y="0.5" width="7" height="7" fill="white" stroke="#0A74A6"/>
<rect x="0.5" y="124.5" width="7" height="7" fill="white" stroke="#0A74A6"/>
<rect x="124.5" y="0.5" width="7" height="7" fill="white" stroke="#0A74A6"/>
<rect x="124.5" y="124.5" width="7" height="7" fill="white" stroke="#0A74A6"/>
<defs>
<clipPath id="clip0_804_3799">
<rect x="4" y="4" width="124" height="124" fill="white"/>
</clipPath>
</defs>
</svg>
