<svg width="132" height="132" viewBox="0 0 132 132" fill="none" xmlns="http://www.w3.org/2000/svg">
<g clip-path="url(#clip0_802_2336)">
<rect x="4" y="4" width="124" height="124" fill="white"/>
<path d="M82.8816 103.214C81.4473 106.314 79.1564 108.94 76.2789 110.781C73.4015 112.622 70.0576 113.601 66.6416 113.604C63.2257 113.601 59.8818 112.622 57.0043 110.781C54.1269 108.94 51.8359 106.314 50.4016 103.214C48.5616 103.561 46.7916 103.987 45.0916 104.494L34.1616 143.914H99.1616L88.2316 104.494C86.505 103.994 84.7216 103.567 82.8816 103.214Z" fill="white" stroke="#222221" stroke-width="0.81" stroke-miterlimit="10"/>
<path d="M24.5918 130.954C24.5918 132.344 24.6618 142.564 24.8018 143.954H34.1618L45.0918 104.534C32.8118 108.174 24.5918 116.104 24.5918 130.954Z" fill="white" stroke="#4F4F4F" stroke-width="2" stroke-miterlimit="10"/>
<path d="M108.702 130.954C108.702 116.104 100.482 108.174 88.2017 104.494L99.1317 143.914H108.492C108.622 142.604 108.702 132.344 108.702 130.954Z" fill="white" stroke="#4F4F4F" stroke-width="2" stroke-miterlimit="10"/>
<path d="M82.8819 103.214C77.5234 102.249 72.0862 101.791 66.6419 101.844C61.1976 101.791 55.7603 102.249 50.4019 103.214C51.8378 106.312 54.1296 108.934 57.0071 110.772C59.8846 112.609 63.2276 113.586 66.6419 113.586C70.0561 113.586 73.3991 112.609 76.2766 110.772C79.1541 108.934 81.4459 106.312 82.8819 103.214Z" fill="white" stroke="#4F4F4F" stroke-width="2" stroke-miterlimit="10"/>
<path d="M76.8919 105.234V96.7141V94.6541C71.1119 97.1941 61.7719 98.1441 57.2119 98.4741V104.764" fill="white"/>
<path d="M76.8919 105.234V96.7141V94.6541C71.1119 97.1941 61.7719 98.1441 57.2119 98.4741V104.764" stroke="#505050" stroke-width="2" stroke-miterlimit="10"/>
<path d="M82.8816 103.214C81.4473 106.314 79.1564 108.94 76.2789 110.781C73.4015 112.622 70.0576 113.601 66.6416 113.604C63.2257 113.601 59.8818 112.622 57.0043 110.781C54.1269 108.94 51.8359 106.314 50.4016 103.214C48.5616 103.561 46.7916 103.987 45.0916 104.494L34.1616 143.914H99.1616L88.2316 104.494C86.505 103.994 84.7216 103.567 82.8816 103.214Z" fill="#5DA399" stroke="#5DA399" stroke-width="2" stroke-linecap="round" stroke-linejoin="round"/>
<path d="M62.2452 29.3137C52.8797 30.7654 43.9791 36.2264 37.6025 44.729C31.4253 52.9551 28.6355 63.8081 29.8311 74.2462C30.0968 76.5274 30.5618 78.8777 31.4917 80.9515C33.5508 85.7904 37.8682 89.3159 42.5178 91.3206C47.1673 93.3253 52.3483 94.0857 57.3964 94.4313C62.9759 94.9152 68.5553 94.9843 74.1348 94.8461C78.8508 94.7078 83.6332 94.2931 88.0835 92.634C92.5338 90.975 96.7184 88.0025 98.9767 83.6475C100.969 79.7764 101.368 75.2831 101.567 70.9281C101.7 67.1262 101.766 63.3242 101.169 59.5913C99.8402 50.4666 94.9914 41.8948 87.8842 36.2955C80.0464 30.0741 70.9465 28.0003 62.2452 29.3137Z" fill="#C95D63"/>
<path d="M60.9168 28.4151C47.0345 30.6272 34.9456 41.3419 30.2961 55.0981C27.9049 62.1491 27.1742 70.3061 29.1005 77.5644C31.0931 84.8918 37.3368 89.869 43.9127 92.4958C47.6987 94.0166 51.7505 94.777 55.8022 95.1918C59.9869 95.6756 64.1715 95.883 68.4225 95.883C72.6071 95.9522 76.8581 95.883 81.1091 95.4683C84.9616 95.0535 88.8806 94.224 92.3345 92.3576C95.2571 90.8368 97.914 88.6938 99.7074 85.9288C101.833 82.6798 102.63 78.7395 102.896 74.8684C103.493 66.988 103.294 58.9692 100.239 51.6418C94.5264 37.7473 80.5113 27.9312 66.0313 28.0004C64.3043 28.0004 62.5773 28.1386 60.9168 28.4151C60.3854 28.4843 61.581 29.452 61.6474 29.5212C62.1124 29.8668 62.9094 30.4198 63.5737 30.2816C70.2159 29.3138 77.1238 30.2816 83.0354 33.5996C88.7477 36.7795 93.3973 41.964 96.3863 47.9781C97.8476 50.9505 98.9767 54.1995 99.5745 57.5176C100.305 61.5269 100.372 65.6054 100.239 69.6148C100.106 73.3476 99.9067 77.2188 98.5782 80.7442C97.449 83.9241 95.3235 86.62 92.733 88.6247C86.755 93.1871 78.9836 93.8783 71.81 94.0166C67.7583 94.1549 63.7065 94.0857 59.6547 93.8092C55.7358 93.6018 51.8169 93.2562 48.0308 92.4958C44.7761 91.8045 41.5215 90.6985 38.7317 88.763C36.2077 86.9657 34.1486 84.408 32.8866 81.5046C31.4917 78.1174 31.0931 74.1772 31.0931 70.5134C31.0931 66.9188 31.5581 63.2551 32.4216 59.7988C35.8756 46.3881 46.2374 35.2587 59.1234 31.4567C60.6511 31.0419 62.1788 30.6963 63.7065 30.4198C64.2379 30.3507 63.0423 29.3829 62.9759 29.3138C62.3781 28.8299 61.581 28.2769 60.9168 28.4151Z" fill="#4F4F4F"/>
<path d="M67.4262 98.7399C82.7968 98.7399 95.2571 86.2795 95.2571 70.9089C95.2571 55.5383 82.7968 43.078 67.4262 43.078C52.0556 43.078 39.5952 55.5383 39.5952 70.9089C39.5952 86.2795 52.0556 98.7399 67.4262 98.7399Z" fill="#E4E4E4"/>
<path d="M95.9877 65.7282C93.9286 53.5065 83.8324 43.7424 71.6107 41.949C70.1494 41.7497 68.6881 41.6169 67.2268 41.6169C55.0715 41.6833 43.5805 48.7905 38.9973 60.2151C34.3478 71.7726 37.8017 85.3228 47.3666 93.2934C56.7321 101.131 70.3487 102.061 81.0427 96.2824C91.9359 90.4373 98.0468 78.0163 95.9877 65.7282ZM39.9273 65.9274C41.7871 54.9678 50.5548 45.5358 61.6473 43.6096C63.1086 43.3439 64.5699 43.2774 66.0312 43.211C77.3894 43.2774 87.7513 50.451 91.8695 61.0122C95.9877 71.6398 93.0651 84.0607 84.563 91.6993C80.3784 95.4854 75.0647 97.8766 69.4852 98.3415C63.7729 98.8065 57.9941 97.478 53.0789 94.489C43.3148 88.6439 38.0674 77.1528 39.9273 65.9274ZM66.0976 42.3475C67.6918 42.3475 69.2859 42.4804 70.8136 42.8125C69.618 42.6796 68.4224 42.5468 67.2932 42.5468C60.1861 42.6132 53.3446 45.1373 48.0308 49.5211C51.8168 46.0672 56.4664 43.6096 61.6473 42.7461C63.1086 42.4804 64.5699 42.3475 66.0976 42.3475Z" fill="#4F4F4F"/>
<g opacity="0.3">
<path opacity="0.3" d="M78.3859 47.1964C84.0318 52.0452 87.6186 59.2852 87.6186 67.3223C87.6186 82.0016 75.7291 93.8912 61.0497 93.8912C57.5958 93.8912 54.2746 93.227 51.2856 92.0314C55.9352 96.0167 61.9796 98.4744 68.6219 98.4744C83.3012 98.4744 95.1908 86.5848 95.1908 71.9054C95.1908 60.6801 88.2164 51.1153 78.3859 47.1964Z" fill="#828282"/>
</g>
<path d="M54.6065 50.5838C53.0788 50.3845 51.4847 50.7831 50.2891 51.7794C49.0935 52.7757 48.4293 54.1706 48.2964 55.6983C48.23 56.2297 48.6285 56.8939 48.8942 57.2925C49.0271 57.4917 49.5584 57.9567 49.6249 57.4253C49.8905 54.5027 52.6803 52.4436 55.5364 52.7757C56.0014 52.8422 55.6693 51.9123 55.6029 51.7794C55.47 51.5137 55.3372 51.1816 55.1379 50.9159C54.9386 50.8495 54.8058 50.6502 54.6065 50.5838Z" fill="#383838"/>
<path d="M77.9871 54.0378C77.7214 54.1042 78.0535 54.0378 78.0535 54.0378C78.12 54.0378 78.1864 54.0378 78.3192 54.0378C78.3857 54.0378 78.4521 54.0378 78.5849 54.0378C78.7842 54.0378 78.5185 54.0378 78.6513 54.0378C78.9835 54.1042 79.3156 54.1042 79.6477 54.237C79.5148 54.1706 79.7141 54.237 79.7141 54.237C79.7805 54.237 79.8469 54.3034 79.9134 54.3034C80.1126 54.3699 80.2455 54.4363 80.3783 54.5691C80.7104 54.7684 80.8433 54.8348 81.109 55.1005C82.0389 55.8976 82.7031 57.0932 82.8359 58.3552C82.9024 58.953 83.5666 59.0194 84.0316 58.953C84.4965 58.8202 85.2936 58.4216 85.2271 57.8902C85.0943 56.2961 84.3637 54.7684 83.0352 53.7721C81.5739 52.5765 79.7141 52.2443 77.9207 52.4436C77.4557 52.51 76.7251 52.975 76.7251 53.5064C76.7915 54.0378 77.5886 54.1042 77.9871 54.0378Z" fill="#383838"/>
<path d="M61.1826 68.4515C61.7804 64.8647 58.3264 61.8093 54.8725 62.0086C51.3521 62.2078 48.3631 65.1968 48.031 68.6508C47.9646 69.6471 49.8908 69.3814 49.9572 68.5179C50.2229 66.1267 52.0827 63.5363 54.6732 63.4034C57.3301 63.2706 59.6549 66.0603 59.1899 68.6508C59.0571 69.5807 61.0497 69.315 61.1826 68.4515Z" fill="#383838"/>
<path d="M73.2716 67.9201C73.1388 65.3961 75.3971 63.0713 77.9212 63.4698C80.5781 63.8684 82.4379 66.7245 82.4379 69.315C82.4379 70.3113 84.3642 69.9792 84.3642 69.1822C84.3642 66.5253 82.9029 63.9348 80.5781 62.7392C77.9876 61.4108 74.9322 62.1414 72.9395 64.1341C71.9432 65.1968 71.279 66.5917 71.3454 68.053C71.3454 68.5179 71.8103 68.7172 72.2089 68.6508C72.541 68.6508 73.2716 68.3851 73.2716 67.9201Z" fill="#383838"/>
<path d="M59.7876 79.4774C59.7876 80.1416 60.1861 80.7395 60.5847 81.3373C61.4482 82.5329 62.2452 83.662 63.6401 84.127C64.6364 84.4591 65.6992 84.4591 66.7619 84.3263C70.8801 83.7949 72.3414 81.3373 72.5407 77.4183L59.7876 79.4774Z" fill="white"/>
<path d="M58.7908 79.7432C58.8572 80.806 59.6543 81.6694 60.2521 82.4665C60.8499 83.1972 61.4477 83.8614 62.3112 84.3263C64.2374 85.2563 66.695 84.9906 68.6877 84.3263C70.149 83.8614 71.4774 83.0643 72.2745 81.7359C73.138 80.4074 73.4037 78.8133 73.4701 77.2856C73.4701 76.887 72.9387 76.887 72.673 76.9535C68.9534 77.5513 65.2337 78.1491 61.5141 78.7469C60.9827 78.8133 60.4513 78.9461 59.92 79.0126C59.5878 79.079 58.8572 79.2118 58.7908 79.6104C58.7244 80.0089 59.3886 80.0089 59.5878 79.9425C63.3075 79.3447 67.0271 78.7469 70.7468 78.1491C71.2782 78.0826 71.8096 77.9498 72.3409 77.8834C72.0752 77.7505 71.8096 77.6177 71.5439 77.5513C71.411 79.876 70.8132 82.5329 68.422 83.4628C66.9607 83.9942 65.1009 84.1271 63.706 83.33C62.9754 82.9315 62.444 82.2672 61.9126 81.603C61.3813 80.8724 60.7835 80.1417 60.717 79.2118C60.6506 78.6804 58.7244 79.079 58.7908 79.7432Z" fill="#383838"/>
<path d="M62.2446 83.0642C62.5103 82.3336 63.241 81.8022 63.9716 81.4701C66.1635 80.4073 68.8869 80.4737 71.0788 81.6029C71.0788 81.6029 70.2153 83.9277 67.3591 84.4591C63.7723 85.1897 62.2446 83.0642 62.2446 83.0642Z" fill="#C95D63"/>
<path d="M63.1751 83.0642C63.64 81.8686 65.1013 81.47 66.2969 81.2708C67.6918 81.0715 69.0867 81.3372 70.3487 82.0014C70.2823 81.8686 70.2159 81.7357 70.1494 81.6029C70.1494 81.6029 70.2159 81.4036 70.1494 81.6029C70.083 81.6693 70.083 81.8021 70.0166 81.8686C69.8173 82.2007 69.6845 82.3999 69.4852 82.5992C68.7546 83.3963 67.8911 83.7948 66.8283 83.9277C65.4999 84.0605 63.9722 83.662 63.2415 82.5992C62.843 82.0014 60.9832 82.6656 61.4481 83.3963C62.1123 84.3926 63.5072 84.924 64.6364 85.0568C66.9612 85.389 69.6845 84.6583 71.2122 82.8649C71.6107 82.4664 71.8764 81.935 72.0757 81.4036C72.1421 81.2708 72.0093 81.0715 71.8764 81.0051C70.1494 80.1416 68.1568 79.8095 66.2969 80.1416C64.57 80.4073 62.1788 81.1379 61.4481 82.9313C60.9832 83.8612 62.9094 83.7284 63.1751 83.0642Z" fill="#383838"/>
<path d="M40.9235 64.0676C40.4586 65.4625 41.6542 66.7909 42.3184 67.9865C43.1155 69.315 43.979 70.6434 44.776 71.9718C46.0381 74.0309 47.5658 75.8243 50.1562 76.1564C51.5511 76.3557 53.0788 76.2893 54.4737 76.2229C55.935 76.1564 57.3963 75.9572 58.7911 75.5586C61.3152 74.7616 63.3079 73.2339 64.437 70.8427C65.6991 68.1193 65.7655 64.9311 67.2932 62.2742C67.4925 62.0085 66.9611 61.9421 66.8282 61.9421C64.7027 61.8092 62.6436 61.2779 60.5845 60.8793C58.5919 60.4808 56.5328 60.3479 54.5401 60.4808C50.3555 60.6801 46.2373 61.7428 42.252 62.872C41.9863 62.9384 40.7907 63.2705 40.9235 63.7355C41.0564 64.2004 42.252 63.8683 42.5177 63.8019C46.1709 62.8056 49.8905 61.8092 53.6766 61.6764C57.5291 61.5435 61.1823 62.872 65.0348 63.1377C64.902 63.0048 64.7027 62.9384 64.5699 62.8056C63.0422 65.3296 62.9757 68.3186 61.8466 71.0419C61.3152 72.2375 60.651 73.3667 59.5882 74.1638C58.5254 74.9608 57.197 75.0273 55.8686 75.0937C54.4073 75.1601 52.6139 75.293 51.219 74.7616C50.0234 74.2302 49.0935 73.2339 48.3628 72.1711C47.4329 70.8427 46.7023 69.4478 45.8388 68.1193C45.3738 67.3887 44.9089 66.6581 44.4439 65.861C44.0454 65.1968 43.5804 64.4661 43.8461 63.6691C44.0454 63.1377 42.9162 63.3369 42.7169 63.4034C42.1856 63.3369 41.0564 63.5362 40.9235 64.0676Z" fill="#0A74A6"/>
<path d="M88.0836 62.0084C88.6814 62.9384 87.7515 64.4661 87.4194 65.396C86.9544 66.7244 86.423 68.0529 85.9581 69.4477C85.3603 71.1083 84.6296 73.0345 82.637 73.3002C80.3122 73.6323 77.5889 74.0309 75.3969 73.101C73.4707 72.3039 72.0758 70.6433 71.0795 68.8499C69.751 66.5916 68.954 64.0675 67.1606 62.0749C66.6292 62.5398 66.1642 63.0048 65.6329 63.5362C69.4189 62.8719 72.9393 61.145 76.7918 60.8793C80.6443 60.6136 84.5632 61.2114 88.3493 61.8092C89.0135 61.942 89.877 61.8092 90.4084 61.2778C90.8069 60.8793 90.7405 60.2815 90.1427 60.1486C86.0245 59.4844 81.9063 58.8866 77.7881 59.0859C75.7955 59.1523 73.8028 59.4844 71.943 60.0822C69.9503 60.68 68.0905 61.4106 66.0314 61.8092C65.5664 61.8756 63.8395 62.4734 64.5037 63.2705C66.2971 65.3296 67.1606 67.92 68.5554 70.2448C69.8839 72.4367 71.7437 74.2301 74.2013 74.9608C76.9911 75.8243 80.3122 75.4922 83.1684 74.8944C85.8917 74.363 87.5522 72.5696 88.5486 70.112C89.2128 68.5178 89.7442 66.8573 90.342 65.2631C90.8733 63.8683 91.6704 62.3406 90.8069 60.8793C90.2091 59.9494 87.4194 60.8793 88.0836 62.0084Z" fill="#0A74A6"/>
<path d="M56.068 35.8382C52.8133 38.2959 49.6914 41.0856 46.8353 44.0082C46.636 44.2075 46.8353 44.4067 46.9681 44.5396C48.0309 45.6023 49.9571 45.5359 51.2192 44.8717C52.5476 44.2075 53.7432 43.0783 55.0052 42.1484C57.5957 40.2221 60.2526 38.2959 62.8431 36.3696C61.9131 36.0375 60.9832 35.7718 60.0533 35.4397C56.2008 38.628 52.3483 41.8163 48.4958 45.0709C48.0309 45.4695 48.4294 45.8016 48.8944 46.0009C49.4922 46.2665 50.4221 46.333 51.0863 46.0673C55.9351 43.9418 60.784 41.4177 65.4335 38.628C64.5036 38.2959 63.5737 38.0302 62.6438 37.6981C59.4555 40.0893 56.2008 42.4805 53.0126 44.8717C52.4148 45.3366 53.079 45.7352 53.5439 45.868C54.2082 46.0673 55.2045 46.1337 55.8023 45.7352C59.5219 43.5432 63.2416 41.2849 66.9612 39.0929C66.0313 38.7608 65.1014 38.4951 64.1715 38.163C61.6475 40.2221 58.9906 42.0819 56.2008 43.7425C57.1307 44.0746 58.0606 44.3403 58.9906 44.6724C61.9131 42.6797 64.9021 40.8863 68.024 39.2922C67.0277 39.0265 66.0313 38.8272 65.035 38.5616C63.308 40.0893 61.3818 41.4841 59.3891 42.6797C60.3854 42.9454 61.3818 43.1447 62.3781 43.4104C64.2379 41.617 66.297 40.1557 68.5554 38.8937C67.6255 38.5616 66.6955 38.2959 65.7656 37.9638C61.8467 41.152 57.5957 44.0082 53.1454 46.3994C54.0753 46.7315 55.0052 46.9972 55.9351 47.3293C57.6621 46.0009 59.4555 44.8053 61.3818 43.8089C60.4519 43.4768 59.5219 43.2111 58.592 42.879C56.9979 43.8089 55.4038 44.7388 53.8096 45.6023C54.7395 45.9344 55.6694 46.2001 56.5994 46.5322C60.1862 43.9418 64.0387 41.8163 68.2233 40.2221C67.3598 39.89 66.4963 39.5579 65.6992 39.2258C62.5109 41.8827 58.9241 44.141 55.1381 45.868C56.0016 46.2001 56.865 46.5322 57.6621 46.8643C60.3854 44.7388 63.3744 43.0119 66.6291 41.7498C65.6992 41.4841 64.8357 41.152 63.9058 40.8863C61.7139 43.4104 59.057 45.4695 56.0016 46.8643C56.865 47.1965 57.7285 47.5286 58.5256 47.8607C62.2453 45.5359 66.0977 43.344 70.0831 41.3513C69.1532 41.0192 68.2233 40.7535 67.2933 40.4214C64.57 42.5469 61.6475 44.3403 58.5256 45.8016C59.3891 46.1337 60.2526 46.4658 61.0497 46.7979C64.1051 44.141 67.4926 41.8827 71.2123 40.2221C70.2824 39.9564 69.4189 39.6243 68.489 39.3586C65.8321 42.3476 62.8431 44.8717 59.3891 46.8643C60.319 47.1965 61.2489 47.4621 62.1788 47.7943C65.3671 45.2038 68.8875 43.0119 72.6736 41.4177C71.7436 41.152 70.8802 40.8199 69.9502 40.5542C66.6955 43.4768 63.1087 46.0673 59.2562 48.1264C60.1862 48.4585 61.1161 48.7242 62.046 49.0563C66.8948 44.9381 72.0758 41.2185 77.5224 37.9638C76.5925 37.6316 75.6626 37.366 74.7326 37.0338C69.751 40.6207 64.6365 43.8753 59.2562 46.8643C60.2526 47.13 61.2489 47.3293 62.2453 47.595C63.6401 46.2665 65.2343 45.2702 67.0277 44.7388C66.297 44.3403 65.4999 43.9418 64.7693 43.6097C61.7139 44.8053 58.5256 45.7352 55.3373 46.4658C55.1381 46.5987 54.6067 46.6651 54.6067 47.0636C54.6067 47.3957 55.1381 47.6614 55.4038 47.7278C61.7139 49.5212 68.2897 50.1855 74.7991 49.5877C75.1312 49.5877 75.9947 49.5212 76.0611 48.9899C76.0611 48.5249 75.1976 48.2592 74.8655 48.2592C70.0831 47.595 65.3007 47.3957 60.5183 47.6614C61.1161 48.0599 61.7139 48.4585 62.3117 48.7906C65.6328 46.9972 69.4189 45.9344 73.2049 46.0009C72.8728 45.6023 72.4743 45.1374 72.1422 44.7388C68.4225 46.0673 64.6365 47.4621 60.9168 48.7906C60.319 48.9899 60.319 49.4548 60.8504 49.7869C61.5146 50.1855 62.4445 50.119 63.1752 49.9198C68.4225 48.3921 73.537 46.6651 78.6516 44.7388C79.0501 44.606 79.3158 44.2739 78.9837 43.8753C78.5187 43.4768 77.7217 43.4104 77.1238 43.4104C73.1385 43.4768 69.2196 44.2075 65.4999 45.5359C66.3634 45.868 67.2269 46.2001 68.024 46.5322C70.548 44.9381 73.2714 43.6761 76.1275 43.0119C75.3304 42.6797 74.5334 42.3476 73.7363 42.0819C70.8802 44.6724 67.559 46.7315 63.9722 48.0599C64.9021 48.3256 65.7656 48.6577 66.6955 48.9234C69.1532 46.2001 71.5444 43.4104 74.002 40.6871C74.467 40.1557 73.2049 39.8236 72.8728 39.7572C72.2086 39.6243 71.2787 39.6243 70.8137 40.0893C67.9576 43.0783 65.1014 46.0673 62.2453 49.1227C61.8467 49.5877 62.9095 49.9862 63.1752 49.9862C63.773 50.119 64.7029 50.2519 65.2343 49.8533C68.4889 47.4621 71.8101 45.0709 75.0648 42.6797C74.1348 42.3476 73.2049 42.0819 72.275 41.7498C68.9539 44.2739 65.5664 46.7315 62.2453 49.2555C63.1752 49.5877 64.1051 49.8533 65.035 50.1855C67.0941 48.4585 69.4853 47.13 72.1422 46.4658C71.4115 46.0673 70.6809 45.7352 69.9502 45.3366C68.2897 46.7315 66.5627 47.9271 64.7029 48.9899C65.6328 49.322 66.5627 49.5877 67.4926 49.9198C70.4816 47.6614 73.7363 45.7352 77.2567 44.3403C76.3932 44.0082 75.5297 43.6761 74.7326 43.344C72.5407 44.8717 70.3488 46.3994 68.0904 47.9271C67.4926 48.3256 68.2233 48.7906 68.6218 48.9234C69.286 49.1227 70.2824 49.1891 70.8802 48.7906C72.8728 47.5286 74.8655 46.2665 76.8582 45.0045C75.9282 44.6724 74.9983 44.4067 74.0684 44.0746C71.4115 45.868 68.7546 47.7278 66.1642 49.5212C65.5664 49.9198 66.297 50.3847 66.6955 50.5176C67.3598 50.7168 68.3561 50.7833 68.9539 50.3847C71.4115 48.857 73.8027 47.3293 76.2604 45.8016C75.3304 45.4695 74.4005 45.2038 73.4706 44.8717C71.6108 46.3994 69.5517 47.6614 67.3598 48.5913C68.2233 48.9234 69.0868 49.2555 69.8838 49.5877C71.8101 47.9935 74.002 46.6651 76.3268 45.8016C75.3969 45.5359 74.5334 45.2038 73.6035 44.9381C72.5407 46.2001 71.2787 47.2629 69.751 48.0599C70.6809 48.3921 71.6108 48.6577 72.5407 48.9899C74.5334 47.6614 76.526 46.2665 78.5187 44.9381C77.5888 44.606 76.6589 44.3403 75.729 44.0082C73.9356 45.3366 72.2086 46.6651 70.4152 48.0599C69.8174 48.5249 70.4816 48.9234 70.9466 49.0563C71.6772 49.2556 72.5407 49.322 73.2049 48.9234C74.5334 48.1928 75.8618 47.4621 77.1903 46.7315C76.2604 46.3994 75.3304 46.1337 74.4005 45.8016C72.275 47.3293 70.1495 48.7906 67.9576 50.3183C68.8875 50.6504 69.8174 50.9161 70.7473 51.2482C73.0057 49.3884 75.5297 47.7943 78.1866 46.5987C77.2567 46.333 76.3932 46.0009 75.4633 45.7352C74.2013 47.3293 72.5407 48.5913 70.548 49.1891C71.4115 49.5212 72.275 49.8533 73.0721 50.1855C75.8618 48.5249 78.718 46.7979 81.5077 45.1374C80.5114 44.8717 79.5151 44.6724 78.5187 44.4067C76.8582 46.333 74.8655 47.8607 72.5407 48.9234C73.4706 49.2555 74.4005 49.5212 75.3304 49.8533C77.7881 47.7278 80.5114 45.868 83.5004 44.5396C82.6369 44.2075 81.7734 43.8753 80.9763 43.5432C78.5187 45.4695 75.8618 47.1965 73.0721 48.6577C74.002 48.9899 74.9319 49.2555 75.8618 49.5877C78.3195 47.9935 80.9099 46.5322 83.6332 45.4031C82.7697 45.0709 81.9063 44.7388 81.1092 44.4067C77.9873 46.2665 74.7326 47.9271 71.4115 49.3884C70.8137 49.6541 70.7473 50.0526 71.3451 50.3847C71.9429 50.7168 73.0057 50.7833 73.6699 50.5176C77.9873 48.7906 82.3048 47.13 86.6222 45.4031C85.7587 45.0709 84.8953 44.7388 84.0982 44.4067C81.7734 45.6023 79.5151 46.7979 77.1903 47.9271C76.5925 48.2592 77.1903 48.7242 77.5888 48.857C78.253 49.1227 79.1165 49.1891 79.7807 48.9234C82.3712 47.9935 85.0281 47.0636 87.6186 46.1337C86.7551 45.8016 85.8916 45.4695 85.0945 45.1374C82.3712 46.5987 79.5151 47.7278 76.526 48.5913C77.2567 48.9899 78.0538 49.3884 78.7844 49.7205C81.1756 48.9899 83.5668 48.3256 85.958 47.595C85.2274 47.1965 84.4303 46.7979 83.6997 46.4658C81.5741 47.4621 79.4486 48.3921 77.3231 49.3884C76.7253 49.6541 76.6589 50.0526 77.2567 50.3847C77.8545 50.7168 78.9837 50.8497 79.5815 50.5176C82.2384 49.2555 85.0281 48.2592 87.8843 47.3957C87.1536 46.9972 86.3565 46.5987 85.6259 46.2665C82.5705 47.5286 79.4486 48.7906 76.3932 50.0526C75.7954 50.3183 75.729 50.7168 76.3268 51.049C76.9246 51.3811 77.9873 51.4475 78.6516 51.1818C80.8435 50.3183 83.0354 49.4548 85.1609 48.5913C84.2975 48.2592 83.434 47.9271 82.6369 47.595C79.4486 49.0563 76.1275 50.119 72.6736 50.7168C71.1458 50.9825 69.5517 51.1818 67.9576 51.1818C66.6955 51.1818 65.7656 50.8497 64.9686 49.9198C64.4372 50.2519 63.9722 50.584 63.4409 50.9161C72.6736 50.9825 82.5041 50.7833 90.1426 44.9381C89.1463 44.7388 88.0835 44.5396 87.0872 44.4067C86.8215 46.8643 83.3675 47.595 81.4413 48.1264C78.718 48.9234 75.8618 49.2555 73.0057 49.1227C72.6071 49.1227 71.3451 49.0563 71.2787 49.7205C71.2123 50.3183 72.5407 50.5176 72.8728 50.5176C77.0574 50.7833 81.242 50.3847 85.2274 49.1891C87.8843 48.3921 91.6039 46.8643 91.2718 43.4768C91.2054 42.6797 89.7441 42.6797 89.2127 42.6797C83.5668 42.6133 77.9209 43.1447 72.4079 44.2739C73.1385 44.6724 73.8692 45.0045 74.5998 45.4031C77.1903 43.9418 79.98 42.879 82.9026 42.2148C82.1719 41.8163 81.4413 41.4841 80.7107 41.0856C78.6516 42.0819 76.526 42.879 74.3341 43.5432C75.1976 43.8753 76.0611 44.2075 76.8582 44.5396C78.9173 43.2775 81.1756 42.3476 83.5004 41.6834C82.6369 41.3513 81.7734 41.0192 80.9763 40.6871C79.2494 41.5506 77.5224 42.4141 75.7954 43.2111C76.7253 43.5432 77.6552 43.8089 78.5851 44.141C79.6479 43.344 80.9099 42.6797 82.2384 42.7462C81.707 42.4141 81.242 42.0819 80.7107 41.7498C78.5851 43.8753 75.9947 45.4031 73.0721 46.2001C73.9356 46.5322 74.7991 46.8643 75.5961 47.1965C77.0574 45.9344 78.8508 44.9381 80.7771 45.0709C80.2457 44.7388 79.7807 44.4067 79.2494 44.0746C78.6516 45.2702 77.1903 46.5987 75.6626 46.2665C76.0611 46.5987 76.3932 46.8643 76.7917 47.1965C78.5851 45.5359 80.1793 43.6761 81.6406 41.6834C82.2384 40.8863 79.0501 40.2885 78.4523 41.0856C76.991 43.0783 75.3969 44.9381 73.6035 46.5987C73.0721 47.0636 74.5334 47.5286 74.7326 47.5286C77.7217 48.1264 80.8435 47.1965 82.7033 44.7388C83.2347 44.0746 81.4413 43.7425 81.1756 43.7425C78.1866 43.5432 75.3304 44.4067 73.0721 46.3994C72.6071 46.7979 73.0057 47.13 73.4706 47.3293C74.1348 47.595 74.9319 47.595 75.6626 47.3957C78.9172 46.5322 81.7734 44.7388 84.1646 42.4141C84.7624 41.8163 82.7697 41.4177 82.6369 41.4177C80.2457 41.2849 77.9873 41.8827 76.0611 43.2775C75.4633 43.7425 76.1275 44.141 76.5925 44.2739C77.3231 44.5396 78.1866 44.5396 78.8508 44.141C80.5778 43.2775 82.3048 42.4141 84.0318 41.617C84.6296 41.2849 83.9653 40.8199 83.6332 40.6871C82.969 40.4214 82.1719 40.4214 81.4413 40.6207C78.9173 41.3513 76.526 42.4141 74.2677 43.7425C73.6699 44.0746 74.2677 44.5396 74.6662 44.6724C75.3304 44.9381 76.1275 44.9381 76.8582 44.7388C79.2494 44.0082 81.5077 43.0783 83.7661 42.0155C84.2975 41.7498 83.8325 41.2849 83.5668 41.152C83.0354 40.8199 82.1719 40.7535 81.5741 40.8863C78.253 41.6834 75.0648 42.879 72.0758 44.5396C71.6108 44.8053 71.9429 45.2038 72.275 45.4031C72.8728 45.7352 73.6699 45.7352 74.2677 45.6687C79.5815 44.606 84.8953 44.141 90.2755 44.2075C89.6112 43.9418 88.8806 43.6761 88.2164 43.4104C88.4821 46.333 85.4931 47.5286 83.1683 48.1928C79.9136 49.1227 76.526 49.4548 73.1385 49.2555C73.1385 49.7205 73.0721 50.1855 73.0721 50.6504C76.7253 50.7833 80.3121 50.3847 83.8325 49.3884C86.2237 48.7242 90.1426 47.7278 90.5412 44.7388C90.6076 44.2739 89.6777 44.0082 89.3456 44.0082C88.8142 43.8753 87.9507 43.8753 87.4857 44.2075C80.5114 49.3884 71.8765 49.6541 63.5737 49.5877C63.1087 49.5877 61.3153 49.7205 62.046 50.584C64.7029 53.5066 69.6181 52.7759 73.0721 52.311C77.3895 51.7132 81.5077 50.3847 85.4266 48.5249C86.0244 48.2592 85.3602 47.7278 85.0281 47.595C84.3639 47.3293 83.5004 47.2629 82.8362 47.5286C80.6442 48.3921 78.4523 49.2555 76.3268 50.119C77.0574 50.5176 77.8545 50.9161 78.5851 51.2482C81.6406 49.9862 84.7624 48.7242 87.8178 47.4621C88.4156 47.1965 88.4821 46.7979 87.8843 46.4658C87.22 46.0673 86.2901 46.1337 85.5595 46.333C82.7033 47.1965 79.98 48.1928 77.2567 49.4548C77.9873 49.8533 78.7844 50.2519 79.5151 50.584C81.6406 49.5877 83.7661 48.6577 85.8916 47.6614C86.4894 47.3957 86.5558 46.9972 85.958 46.6651C85.2938 46.2665 84.3639 46.2665 83.6332 46.5322C81.3085 47.1965 78.9173 47.9271 76.526 48.5913C75.8618 48.7906 75.9282 49.322 76.4596 49.5877C77.1238 49.9862 78.0538 49.9198 78.7844 49.7205C81.9727 48.7906 84.9617 47.5286 87.8843 46.0009C88.4821 45.6687 87.8843 45.2038 87.4857 45.0709C86.8215 44.8053 85.958 44.7388 85.2938 45.0045C82.7033 45.9344 80.0464 46.8643 77.456 47.7943C78.3195 48.1264 79.1829 48.4585 79.98 48.7906C82.3048 47.595 84.5631 46.3994 86.8879 45.2702C87.4857 44.9381 86.8879 44.4731 86.4894 44.3403C85.8252 44.0746 84.9617 44.0082 84.2975 44.2739C79.98 46.0009 75.6626 47.6614 71.3451 49.3884C72.0758 49.7869 72.8728 50.1855 73.6035 50.5176C77.1238 48.9899 80.5114 47.1965 83.8325 45.2702C84.4303 44.9381 83.8325 44.4731 83.434 44.3403C82.8362 44.0746 81.9063 44.0082 81.242 44.2739C78.3194 45.4695 75.5297 46.9308 72.9392 48.6577C72.3414 49.0563 73.0721 49.5212 73.4706 49.6541C74.2013 49.9198 75.0648 49.9198 75.729 49.5212C78.5187 48.0599 81.1756 46.333 83.6332 44.4067C84.0982 44.0082 83.6997 43.6761 83.2347 43.4768C82.6369 43.2111 81.707 43.1447 81.0428 43.4104C77.8545 44.8053 74.9319 46.6651 72.3414 48.9899C71.8101 49.4548 72.4079 49.8534 72.8728 49.9862C73.6035 50.2519 74.467 50.1855 75.1312 49.8533C77.5888 48.7242 79.7143 46.9972 81.4413 45.0045C81.8398 44.5396 80.7771 44.141 80.5114 44.141C79.8472 44.0082 79.0501 43.9418 78.4523 44.2739C75.6626 45.9344 72.8064 47.6614 70.0167 49.322C69.4853 49.6541 70.0167 50.119 70.4152 50.2519C71.0794 50.5176 71.8765 50.5176 72.6071 50.3183C74.9319 49.6541 76.9246 48.1928 78.3859 46.2665C78.718 45.868 77.9209 45.5359 77.6552 45.4031C77.0574 45.2038 76.1939 45.1374 75.6626 45.4031C72.8064 46.6651 70.1495 48.3256 67.6919 50.3183C67.1605 50.7833 67.7583 51.1818 68.2233 51.3146C68.8875 51.5139 69.8838 51.6468 70.4816 51.1818C72.6071 49.6541 74.7326 48.1928 76.9246 46.6651C77.5224 46.2665 76.7917 45.8016 76.3932 45.6687C75.6626 45.4695 74.7991 45.4031 74.1348 45.8016C72.8064 46.5322 71.478 47.2629 70.1495 47.9935C71.0794 48.3256 72.0093 48.5913 72.9392 48.9234C74.7326 47.595 76.4596 46.2665 78.253 44.8717C78.8508 44.4067 78.1866 44.0082 77.7217 43.8753C77.0574 43.6761 76.0611 43.5432 75.4633 44.0082C73.4706 45.3366 71.478 46.7315 69.4853 48.0599C68.8875 48.4585 69.6181 48.9234 70.0167 49.0563C70.7473 49.322 71.6108 49.322 72.275 48.9234C73.8692 48.0599 75.3304 46.8643 76.4596 45.4695C76.7917 45.0709 75.9947 44.7388 75.729 44.606C75.1312 44.4067 74.3341 44.3403 73.7363 44.606C71.2123 45.5359 68.8211 46.9308 66.762 48.6577C66.297 49.0563 66.6955 49.3884 67.1605 49.5877C67.7583 49.8534 68.6882 49.9198 69.3524 49.6541C71.7436 48.6577 74.002 47.3293 75.9947 45.7352C76.526 45.2702 75.9282 44.8717 75.4633 44.7388C74.7991 44.5396 73.8027 44.4731 73.2049 44.8717C70.7473 46.3994 68.3561 47.9271 65.8985 49.4548C66.8284 49.7869 67.7583 50.0526 68.6882 50.3847C71.3451 48.5913 74.002 46.7315 76.5925 44.9381C77.1903 44.5396 76.4596 44.0746 76.0611 43.9418C75.3969 43.7425 74.4005 43.6761 73.8027 44.0746C71.8101 45.3366 69.8174 46.5987 67.8247 47.8607C68.7546 48.1928 69.6845 48.4585 70.6145 48.7906C72.8064 47.2629 74.9983 45.7352 77.2567 44.2075C77.7881 43.8753 77.3231 43.4104 76.8582 43.2775C76.1939 43.0119 75.3304 42.9454 74.6662 43.2111C71.2787 44.606 67.8247 46.5987 64.6365 48.9899C64.0387 49.4548 64.7029 49.8534 65.1678 49.9862C65.8321 50.1855 66.8284 50.2519 67.4262 49.8533C69.286 48.7906 71.013 47.595 72.6736 46.2001C73.7363 45.3366 70.9466 45.0045 70.4816 45.0709C67.4262 45.8016 64.6365 47.1965 62.1788 49.1891C61.6475 49.6541 62.2453 50.0526 62.7102 50.1855C63.308 50.3847 64.4372 50.5176 64.9686 50.0526C68.2897 47.5286 71.6772 45.0709 74.9983 42.5469C75.5961 42.0819 74.9319 41.6834 74.467 41.5506C73.8692 41.3513 72.74 41.2185 72.2086 41.6834C68.9539 44.0746 65.6328 46.4658 62.3781 48.857C63.3744 49.1227 64.3708 49.322 65.3671 49.5877C68.2233 46.5987 71.0794 43.6097 73.9356 40.5542C72.8728 40.355 71.8101 40.1557 70.7473 39.9564C68.2897 42.6797 65.8985 45.4695 63.4409 48.1928C63.1087 48.5913 63.9058 48.9899 64.1715 49.0563C64.7693 49.2556 65.5664 49.322 66.1642 49.0563C70.1495 47.6614 73.7363 45.4031 76.8582 42.5469C77.1903 42.2148 76.4596 41.8163 76.3268 41.7498C75.7954 41.5506 75.0648 41.4177 74.467 41.5506C71.1458 42.4141 68.024 43.6761 65.1678 45.5359C64.6365 45.868 65.1678 46.333 65.5664 46.4658C66.2306 46.7315 67.0941 46.7979 67.7583 46.5322C71.013 45.3366 74.4005 44.7388 77.8545 44.6724C77.3231 44.2739 76.8582 43.8089 76.3268 43.4104C71.2787 45.3366 66.0977 47.0636 60.8504 48.5913C61.581 48.9899 62.3781 49.3884 63.1087 49.7205C66.8284 48.3921 70.6145 46.9972 74.3341 45.6687C74.7326 45.5359 74.9983 45.2702 74.7326 44.9381C74.467 44.5396 73.6699 44.4067 73.2714 44.4067C68.4225 44.3403 63.773 45.4695 59.4555 47.7278C59.057 47.9271 59.2562 48.3256 59.5219 48.5249C59.9869 48.857 60.7175 48.9234 61.2489 48.9234C65.4335 48.7242 69.6846 48.857 73.8027 49.4548C73.8027 48.9899 73.8692 48.5249 73.8692 48.1264C68.2233 48.6577 62.5109 48.1264 57.0643 46.5987C57.0643 46.9972 56.9979 47.3957 56.9979 47.7943C60.4518 46.9972 63.8394 46.0009 67.1605 44.7388C67.7583 44.5396 67.7583 44.0746 67.2269 43.7425C66.5627 43.344 65.5664 43.344 64.9021 43.6097C62.7102 44.2739 60.8504 45.4695 59.2562 47.0636C58.7913 47.5286 59.9869 47.9271 60.1862 47.9271C60.8504 48.0599 61.6475 48.1264 62.2453 47.7943C67.6255 44.8717 72.74 41.5506 77.7217 37.9638C78.3195 37.5652 77.6552 37.1003 77.1903 36.9674C76.526 36.7682 75.5297 36.7017 74.9319 37.1003C69.4853 40.355 64.3043 44.0746 59.4555 48.1928C58.9241 48.6577 59.5219 49.0563 59.9869 49.1891C60.7175 49.3884 61.581 49.4548 62.2453 49.0563C66.2306 46.8643 69.8838 44.2075 73.2714 41.152C73.6699 40.7535 72.74 40.355 72.5407 40.2885C71.9429 40.0893 71.1458 40.0229 70.548 40.2885C66.5627 42.0155 62.8431 44.2075 59.4555 46.9308C58.9241 47.3957 59.5219 47.7943 59.9869 47.9271C60.6511 48.1264 61.6475 48.1928 62.2453 47.7943C65.8321 45.7352 68.9539 43.0783 71.6772 39.9564C72.0093 39.5579 71.2123 39.1594 70.9466 39.0929C70.3488 38.8937 69.4853 38.8272 68.9539 39.0929C65.035 40.8199 61.5146 43.1447 58.2599 45.9344C57.1972 46.8643 60.2526 47.1965 60.784 46.9308C64.1051 45.4031 67.2269 43.5432 70.0831 41.2849C70.6809 40.8199 70.0167 40.4214 69.5517 40.2885C68.8211 40.0229 67.9576 40.0229 67.2933 40.4214C63.3744 42.4141 59.5219 44.606 55.7359 46.9308C55.2045 47.2629 55.7359 47.7278 56.1344 47.8607C56.7322 48.1264 57.6621 48.2592 58.3263 47.9271C61.7139 46.3994 64.6365 44.141 67.0941 41.4177C67.4262 41.0192 66.6291 40.6207 66.3634 40.5542C65.7656 40.355 64.9686 40.2885 64.3708 40.5542C60.9832 41.8827 57.795 43.6761 54.8724 45.9344C54.4074 46.333 54.806 46.6651 55.2709 46.8643C55.8687 47.13 56.7986 47.2629 57.4628 46.9308C61.4482 45.1374 65.1678 42.8126 68.5554 40.0229C69.0203 39.6243 68.6218 39.2922 68.1568 39.0929C67.4926 38.8272 66.6291 38.7608 65.9649 39.0265C61.6475 40.6871 57.5957 42.879 53.8096 45.6023C53.2118 46.0009 53.876 46.4658 54.341 46.5987C55.0052 46.7979 56.0016 46.8643 56.5994 46.4658C58.1935 45.5359 59.7876 44.606 61.3818 43.7425C62.046 43.344 61.2489 42.879 60.8504 42.7462C60.1197 42.4805 59.2562 42.4805 58.592 42.879C56.6658 43.8753 54.8724 45.0045 53.1454 46.3994C52.614 46.8643 53.2118 47.2629 53.6768 47.3957C54.4074 47.595 55.2709 47.6614 55.9351 47.2629C60.3854 44.8717 64.6365 42.0155 68.5554 38.8272C69.0868 38.3623 68.489 37.9638 68.024 37.8309C67.2933 37.6316 66.4299 37.5652 65.7656 37.9638C63.3744 39.2922 61.1825 40.8863 59.1898 42.8126C58.7249 43.2775 59.9205 43.6761 60.1197 43.6761C60.784 43.8089 61.581 43.8753 62.1788 43.5432C64.3043 42.2812 66.297 40.7535 68.1568 39.0929C68.6218 38.6944 67.4262 38.2294 67.2269 38.2294C66.5627 38.0302 65.7656 38.0302 65.1678 38.3623C62.046 39.9564 59.057 41.7498 56.1344 43.7425C55.5366 44.141 56.2672 44.606 56.6658 44.7388C57.33 44.9381 58.3263 45.0045 58.9241 44.606C61.7139 42.9454 64.3708 41.0856 66.8948 39.0265C67.4262 38.5616 66.8284 38.163 66.3634 38.0302C65.6992 37.8309 64.7029 37.7645 64.1051 38.163C60.3854 40.355 56.6658 42.6133 52.9461 44.8053C53.876 45.1374 54.806 45.4031 55.7359 45.7352C58.9241 43.344 62.1788 40.9528 65.3671 38.5616C65.9649 38.0966 65.3007 37.6981 64.8357 37.5652C64.1715 37.366 63.1752 37.2995 62.5774 37.6981C58.0606 40.355 53.4111 42.8126 48.6287 44.9381C49.4922 45.2702 50.3557 45.6023 51.1527 45.9344C55.0052 42.7462 58.8577 39.5579 62.7102 36.3032C63.2416 35.8382 62.6438 35.4397 62.1788 35.3069C61.581 35.1076 60.4518 34.9748 59.9205 35.4397C57.9278 36.901 55.9351 38.4287 53.876 39.89C52.9461 40.6207 51.9498 41.2849 51.0199 42.0155C50.4885 42.4141 49.9571 42.8126 49.4257 43.1447C49.1601 43.344 48.9608 43.4768 48.6951 43.6761C48.6287 43.7425 48.5623 43.7425 48.4958 43.8089C47.898 44.0746 48.2966 44.141 49.7579 44.0082C49.8243 44.2075 49.8243 44.4067 49.8907 44.5396C52.614 41.6834 55.603 39.0265 58.7249 36.6353C59.3227 36.1704 58.6584 35.7718 58.1935 35.639C57.7285 35.5061 56.5994 35.3733 56.068 35.8382Z" fill="#C95D63"/>
<path d="M51.0198 46.5986C59.3226 52.0453 69.5517 54.4365 79.4486 53.4401C82.2383 53.1744 84.9616 52.5766 87.6185 51.7796C88.4156 51.5139 87.0871 48.5249 86.0908 48.7906C76.8581 51.5803 66.6291 51.1154 57.6621 47.5285C55.0716 46.4658 52.6804 45.2038 50.3556 43.6761C49.6914 43.2775 49.7578 44.2739 49.8242 44.606C49.9571 45.403 50.422 46.1337 51.0198 46.5986Z" fill="#4F4F4F"/>
</g>
<rect x="4.5" y="4.5" width="123" height="123" stroke="#0A74A6"/>
<rect x="0.5" y="0.5" width="7" height="7" fill="white" stroke="#0A74A6"/>
<rect x="0.5" y="124.5" width="7" height="7" fill="white" stroke="#0A74A6"/>
<rect x="124.5" y="0.5" width="7" height="7" fill="white" stroke="#0A74A6"/>
<rect x="124.5" y="124.5" width="7" height="7" fill="white" stroke="#0A74A6"/>
<defs>
<clipPath id="clip0_802_2336">
<rect x="4" y="4" width="124" height="124" fill="white"/>
</clipPath>
</defs>
</svg>
