<svg width="132" height="132" viewBox="0 0 132 132" fill="none" xmlns="http://www.w3.org/2000/svg">
<g clip-path="url(#clip0_804_3729)">
<rect x="4" y="4" width="124" height="124" fill="white"/>
<path d="M24 125.3C24 126.69 24.07 136.91 24.21 138.26H43.32V99.22C31.7 103.05 24 110.94 24 125.3Z" fill="#0C8CE9" stroke="black" stroke-width="0.81" stroke-linecap="round" stroke-linejoin="round"/>
<path d="M108.109 125.3C108.109 110.94 100.409 103.05 88.7891 99.22V138.26H107.899C108.039 136.91 108.109 126.69 108.109 125.3Z" fill="#0C8CE9" stroke="black" stroke-width="0.81" stroke-linecap="round" stroke-linejoin="round"/>
<path d="M108.109 125.3C108.109 110.94 100.409 103.05 88.7891 99.22V138.26H107.899C108.039 136.91 108.109 126.69 108.109 125.3V125.3Z" stroke="black" stroke-width="0.08" stroke-linecap="round" stroke-linejoin="round"/>
<path d="M24 125.3C24 126.69 24.07 136.91 24.21 138.26H43.32V99.22C31.7 103.05 24 110.94 24 125.3Z" stroke="black" stroke-width="0.08" stroke-linecap="round" stroke-linejoin="round"/>
<path d="M108.109 125.3C108.109 110.94 100.409 103.05 88.7891 99.22V138.26H107.899C108.039 136.91 108.109 126.69 108.109 125.3V125.3Z" stroke="black" stroke-width="0.81" stroke-linecap="round" stroke-linejoin="round"/>
<path d="M87.3901 98.81C87.4801 99.6 87.5301 100.4 87.5301 101.21C87.5301 113.07 77.9201 122.68 66.0601 122.68C54.2001 122.68 44.5901 113.07 44.5901 101.21C44.5901 100.4 44.6401 99.6 44.7301 98.81C44.2601 98.95 43.7901 99.08 43.3301 99.23V138.27H88.7901V99.23C88.3401 99.08 87.8601 98.95 87.3901 98.81Z" fill="#B1B1B1" stroke="black" stroke-width="0.81" stroke-linecap="round" stroke-linejoin="round"/>
<path d="M66.0598 122.68C77.9198 122.68 87.5298 113.07 87.5298 101.21C87.5298 100.4 87.4798 99.6 87.3898 98.81C81.1298 96.96 73.8498 96.19 66.0598 96.19C58.2698 96.19 50.9798 96.96 44.7298 98.81C44.6398 99.6 44.5898 100.4 44.5898 101.21C44.5898 113.07 54.1998 122.68 66.0598 122.68Z" fill="white" stroke="black" stroke-width="0.81" stroke-linecap="round" stroke-linejoin="round"/>
<path d="M50.6801 97.54C50.6201 98.11 50.5801 98.68 50.5801 99.27C50.5801 107.82 57.5101 114.74 66.0501 114.74C74.5901 114.74 81.5201 107.81 81.5201 99.27C81.5201 98.69 81.4801 98.11 81.4201 97.54" stroke="black" stroke-width="0.81" stroke-linecap="round" stroke-linejoin="round"/>
<path d="M68.0995 117.27C68.0995 118.4 67.1895 119.31 66.0595 119.31C64.9295 119.31 64.0195 118.4 64.0195 117.27C64.0195 116.14 64.9295 115.23 66.0595 115.23C67.1895 115.23 68.0995 116.14 68.0995 117.27Z" fill="black" stroke="black" stroke-width="0.81" stroke-linecap="round" stroke-linejoin="round"/>
<path d="M76.2992 99.58L76.3492 91.07L76.3792 89C70.5892 91.55 61.2592 92.5 56.6992 92.82L56.7192 99.11" fill="white"/>
<path d="M76.2992 99.58L76.3492 91.07L76.3792 89C70.5892 91.55 61.2592 92.5 56.6992 92.82L56.7192 99.11" stroke="#222221" stroke-width="1.02" stroke-miterlimit="10"/>
<path d="M42.1869 75.3769C36.7768 73.4675 32.6397 65.7661 32.2579 60.4197C32.0669 57.2373 32.6397 54.1186 33.3399 50.9998C36.8405 35.979 50.843 29.2323 66.1184 29.2323C74.2017 29.2323 82.6032 31.7146 88.3951 37.5065C92.5959 41.7072 95.1418 47.4355 95.7146 53.3548C96.0328 56.9191 95.7146 68.2483 91.2593 69.7759C90.5591 70.0305 89.859 70.2851 89.2862 70.667C84.5126 73.6584 67.0731 84.033 59.4354 81.1052C51.3522 77.9864 46.8332 77.0317 42.1869 75.3769Z" fill="#FEC14E"/>
<path d="M41.9965 74.1039C39.4506 73.1492 37.5411 70.9216 36.1409 68.6302C34.677 66.148 33.6586 63.3475 33.5313 60.547C33.4677 58.383 33.7223 56.2189 34.1678 54.1186C34.486 52.4001 34.8679 50.6816 35.5044 48.9631C36.4591 46.2263 37.8594 43.6167 39.7052 41.389C43.3967 36.9337 48.4885 34.0059 53.9622 32.3511C60.0088 30.5053 66.6918 29.9961 72.9293 31.0781C79.6123 32.2238 86.2316 35.4698 90.1778 41.1344C93.5511 46.0353 94.7604 51.7636 94.4422 57.4919C94.3149 59.9105 93.9966 62.4564 93.1692 64.7477C92.851 65.7024 92.4055 66.6572 91.769 67.4209C90.9416 68.3757 89.7959 68.5029 88.7139 69.0758C87.059 69.9668 85.4679 71.0489 83.813 72.0036C81.5853 73.2765 79.294 74.4858 77.0027 75.5678C74.4568 76.7771 71.9109 77.8592 69.2377 78.7502C66.9464 79.514 64.5914 80.1505 62.1728 80.1505C59.4359 80.1505 56.8264 78.7502 54.0895 77.8592C51.289 76.9044 48.4249 76.077 45.5607 75.186C44.3514 74.8677 43.2058 74.4858 41.9965 74.1039C41.36 73.8494 40.8508 74.3585 40.9145 75.0587C41.0418 75.8224 41.6782 76.5226 42.3784 76.7771C45.0516 77.7319 47.7884 78.4956 50.5253 79.3231C52.1801 79.8322 53.8986 80.4051 55.5534 80.9779C57.2083 81.5507 58.8631 82.3145 60.518 82.76C62.8729 83.3329 65.2915 83.0146 67.6465 82.5054C70.5106 81.869 73.2475 80.8506 75.8571 79.7049C80.5033 77.6682 85.0223 75.186 89.3504 72.5764C89.6686 72.3855 89.9868 72.1945 90.3051 72.0036C91.0688 71.558 91.8963 71.3671 92.5964 70.9852C93.5511 70.476 94.2512 69.6486 94.8241 68.6939C96.097 66.4662 96.5425 63.793 96.8608 61.2471C97.5609 55.1369 96.7971 49.0904 93.933 43.553C90.3687 36.6155 83.8767 31.7146 76.4935 29.5506C69.7469 27.5775 62.491 27.5775 55.6171 29.0414C49.6342 30.3143 43.7786 32.9239 39.3869 37.2519C34.3587 41.9619 32.0038 48.4539 31.1764 55.2642C30.7308 58.9558 31.1127 62.4564 32.513 65.8934C33.7859 69.0758 35.759 72.0036 38.3049 74.2949C39.5142 75.3133 40.9145 76.2043 42.3784 76.7135C43.0148 76.9681 43.524 76.4589 43.4604 75.7588C43.3331 74.995 42.6966 74.3585 41.9965 74.1039Z" fill="#4F4F4F"/>
<path d="M84.8309 71.2398C84.8309 71.2398 94.0598 72.64 97.3058 79.6413C102.525 91.0342 97.4331 94.4075 99.979 96.5715C100.87 97.3353 100.106 98.5446 96.9239 98.7356C92.2776 98.9902 82.7941 96.317 82.5395 83.3965C82.285 70.3487 82.4122 70.7306 84.8309 71.2398Z" fill="#FEC14E"/>
<path d="M85.4038 72.5127C86.8041 72.7037 88.268 73.2128 89.6046 73.722C92.2141 74.804 94.76 76.4589 96.0966 78.8775C97.8151 81.8689 98.8335 85.6878 98.7062 89.1248C98.6425 90.2068 98.5152 91.2251 98.3243 92.3072C98.197 93.0709 98.0697 93.8347 98.197 94.6621C98.2607 95.1713 98.4516 95.6168 98.7062 95.9987C98.8335 96.2533 98.9608 96.4443 99.1517 96.6352C99.2154 96.7625 99.7882 97.4626 99.9791 97.4626C99.6609 97.399 99.47 96.6988 99.3427 96.4443C99.2154 96.2533 99.4063 96.2533 99.279 96.317C99.1517 96.3806 98.9608 96.6352 98.7698 96.6988C98.0061 97.1444 97.0513 97.208 96.1603 97.2717C94.3145 97.399 92.3414 97.0171 90.6229 96.317C89.6046 95.8714 88.6499 95.2986 87.8224 94.6621C86.995 93.962 86.2312 93.1346 85.7221 92.2435C83.8126 89.1248 83.6853 85.4332 83.6853 81.8053C83.6217 79.0684 83.4307 76.1406 83.8126 73.4038C83.8126 73.3401 83.8126 73.3401 83.8763 73.1492C83.9399 73.0219 83.9399 72.8946 84.0036 72.7673C84.0672 72.7037 84.0672 72.5764 84.1309 72.5127C84.0036 72.7037 84.1309 72.5127 84.1945 72.4491C84.2582 72.3854 84.4491 72.3218 84.3218 72.3854C84.1945 72.4491 84.3855 72.3854 84.4491 72.3854C84.5128 72.3854 84.64 72.3854 84.7037 72.3854C84.831 72.3854 84.5128 72.3854 84.64 72.3854C84.7037 72.3854 84.7673 72.3854 84.831 72.3854C84.9583 72.4491 85.1492 72.5127 85.4038 72.5127C86.1039 72.64 86.0403 71.8762 85.8494 71.4307C85.5948 70.8579 85.0219 69.9668 84.3218 69.8395C83.3671 69.6486 82.2851 69.394 81.7759 70.476C81.4577 71.1761 81.394 72.0672 81.394 72.831C81.2667 74.3585 81.3304 75.886 81.3304 77.4136C81.394 81.7416 81.2031 86.197 82.9216 90.2704C84.2582 93.3892 86.4222 95.9987 89.2863 97.7809C91.3231 99.0538 93.7417 99.7539 96.0966 99.9449C97.4969 100.072 98.9608 100.009 100.297 99.4357C102.016 98.6719 101.507 96.9534 100.425 95.8078C100.297 95.6168 99.9155 95.1713 100.17 95.6168C100.043 95.4259 100.17 95.5532 100.234 95.6805C100.106 95.4895 100.488 96.0624 100.297 95.7441C100.234 95.6168 100.425 95.9351 100.361 95.9351C100.297 95.8078 100.361 95.7441 100.361 95.9351C100.297 96.126 100.361 95.8714 100.361 95.8714C100.425 95.6168 100.361 95.9987 100.361 95.8078C100.361 95.6168 100.361 95.4259 100.361 95.2349C100.425 94.2802 100.679 93.3892 100.807 92.4344C101.252 88.8065 100.488 85.2423 99.2154 81.8053C98.3879 79.6413 97.3696 77.6045 95.7784 75.8224C94.5691 74.4221 93.1052 73.3401 91.514 72.3854C89.4136 71.1761 87.1223 70.285 84.7037 69.7759C84.5764 69.7759 84.4491 69.7122 84.3218 69.7122C82.9852 69.7122 84.4491 72.3854 85.4038 72.5127Z" fill="#4F4F4F"/>
<path d="M64.4633 94.6622C79.1918 94.6622 91.1317 82.7223 91.1317 67.9938C91.1317 53.2652 79.1918 41.3254 64.4633 41.3254C49.7348 41.3254 37.7949 53.2652 37.7949 67.9938C37.7949 82.7223 49.7348 94.6622 64.4633 94.6622Z" fill="#E4E4E4"/>
<path d="M92.7231 63.0292C90.75 51.3817 81.0755 41.9618 69.3644 40.2433C67.9641 40.0524 66.5639 39.9251 65.1636 39.9251C53.5161 39.9888 42.505 46.7991 38.1133 57.7465C33.658 68.8212 36.9677 81.8053 46.133 89.443C55.1073 96.9535 68.1551 97.8445 78.4023 92.3072C88.7769 86.7062 94.6962 74.804 92.7231 63.0292ZM39.0044 63.2202C40.7866 52.7183 49.188 43.6803 59.8172 41.8345C61.2175 41.58 62.6177 41.5163 64.018 41.4527C74.9017 41.5799 84.8308 48.3903 88.7769 58.5102C92.7231 68.6939 89.9226 80.596 81.7757 87.9155C77.7659 91.5434 72.674 93.8347 67.3276 94.2802C61.8539 94.7258 56.3166 93.4528 51.6067 90.5887C42.2504 84.9877 37.1586 73.9766 39.0044 63.2202ZM64.018 40.6252C65.5455 40.6252 67.073 40.7525 68.5369 41.0708C67.3913 40.9435 66.2456 40.8162 65.1636 40.8162C58.3533 40.8798 51.7976 43.2984 46.7058 47.4992C50.3337 44.1895 54.789 41.8345 59.7536 41.0071C61.1538 40.7525 62.6177 40.6252 64.018 40.6252Z" fill="#4F4F4F"/>
<g opacity="0.3">
<path opacity="0.3" d="M75.03 45.3352C80.44 49.9815 83.8133 56.8554 83.8133 64.5568C83.8133 78.6229 72.4204 90.0159 58.3543 90.0159C55.0446 90.0159 51.8622 89.3794 48.998 88.2337C53.4534 92.0526 59.2453 94.4075 65.6101 94.4075C79.6762 94.4075 91.0692 83.0146 91.0692 68.9485C91.0692 58.192 84.3862 49.0267 75.03 45.3352Z" fill="#B2B2B2"/>
</g>
<path d="M59.9454 69.7123C59.8817 70.3488 60.1363 70.9852 60.4545 71.5581C61.091 72.7674 61.6639 73.9767 62.9368 74.6131C63.8279 75.0587 64.8462 75.2496 65.8646 75.2496C69.8744 75.3133 71.5929 73.2129 72.293 69.5213L59.9454 69.7123Z" fill="white"/>
<path d="M59.0548 69.8395C58.9911 70.9216 59.5639 71.8763 60.0731 72.831C60.5187 73.5948 61.0278 74.2949 61.7916 74.8041C63.3828 75.8861 65.6741 75.9497 67.5199 75.6315C69.0475 75.3769 70.4477 74.7404 71.4661 73.5948C72.4844 72.4491 72.9936 70.9216 73.2482 69.4577C73.3118 69.1394 72.93 69.0758 72.6754 69.0758C69.0475 69.1394 65.4832 69.1394 61.8553 69.2031C61.3461 69.2031 60.8369 69.2031 60.3277 69.2031C59.9458 69.2031 59.3094 69.3304 59.1184 69.7123C58.8638 70.0941 59.3094 70.2214 59.6276 70.1578C63.2555 70.0941 66.8198 70.0941 70.4477 70.0305C70.9569 70.0305 71.4661 70.0305 71.9752 70.0305C71.7843 69.9032 71.5934 69.7759 71.4024 69.6486C70.9569 71.749 70.0658 74.1676 67.7108 74.6768C66.247 74.9314 64.4012 74.8041 63.1919 73.8494C62.619 73.4038 62.1735 72.7673 61.7916 72.1309C61.3461 71.3671 60.7733 70.476 60.8369 69.585C60.9005 68.8848 59.0548 69.2667 59.0548 69.8395Z" fill="#383838"/>
<path d="M61.793 73.4039C62.1749 72.7674 62.9386 72.3855 63.6388 72.1309C65.8664 71.4308 68.476 71.8763 70.3218 73.2766C70.3218 73.2766 69.1761 75.3133 66.3756 75.4406C62.9386 75.6315 61.793 73.4039 61.793 73.4039Z" fill="#EF6461"/>
<path d="M62.6837 73.4675C63.3202 72.5127 64.8478 72.3855 65.8661 72.3855C67.2664 72.4491 68.5393 72.9583 69.6213 73.7221C69.5577 73.5311 69.5577 73.4038 69.4941 73.2129C69.4304 73.3402 69.3668 73.4675 69.2395 73.5311C69.1758 73.5948 69.1758 73.5948 69.2395 73.5311L69.1758 73.5948C69.1122 73.6584 69.0485 73.7221 68.9849 73.7857C68.8576 73.913 68.7303 74.0403 68.603 74.1676C68.6666 74.1039 68.4757 74.2949 68.412 74.2949C68.2847 74.3585 68.2211 74.4222 68.0938 74.4858C68.1575 74.4222 67.9029 74.6131 67.8392 74.6131C67.7119 74.6768 67.7119 74.6768 67.5846 74.7404C67.0754 74.9314 66.5026 74.9314 65.8661 74.9314C64.9751 74.8677 64.084 74.5495 63.4475 73.9766C63.2566 73.7857 63.0656 73.5948 62.8747 73.3402C62.811 73.2765 62.811 73.2129 62.7474 73.1492C62.6837 73.0219 62.7474 73.1492 62.7474 73.2129C62.5565 72.831 62.0473 72.831 61.6654 72.9583C61.4744 73.0219 60.7107 73.3402 60.9016 73.7221C61.4108 74.7404 62.4928 75.4405 63.5748 75.8224C65.8025 76.5862 68.412 76.1407 70.1942 74.6131C70.5761 74.2949 70.9579 73.8493 71.2125 73.4038C71.3398 73.2129 71.2762 73.0219 71.0852 72.8946C69.6213 71.8126 67.7756 71.3034 65.9934 71.3671C64.2113 71.4307 61.92 71.8763 60.9016 73.4675C60.647 73.8493 61.0926 74.0403 61.4108 74.1039C61.8563 73.9766 62.4292 73.8493 62.6837 73.4675Z" fill="#383838"/>
<path d="M49.6335 63.6657C49.9518 63.3475 50.3337 63.0929 50.7792 62.8383C50.8428 62.8383 50.9065 62.7747 50.9701 62.7747C50.9065 62.7747 50.9065 62.7747 51.0338 62.7747C51.1611 62.711 51.2884 62.711 51.4157 62.6474C51.543 62.6474 51.543 62.6474 51.4793 62.6474C51.543 62.6474 51.6066 62.6474 51.6703 62.6474C51.7976 62.6474 51.9248 62.6474 52.0521 62.6474C52.434 62.6474 52.9432 62.7747 53.3887 62.902C53.8979 63.0929 54.2798 63.4112 54.6617 63.793C54.9799 64.1113 55.6801 63.9203 55.9983 63.7294C56.3802 63.4112 56.3802 63.0293 56.0619 62.711C55.0436 61.6927 53.516 61.1835 52.1158 61.2471C50.5882 61.3108 49.1243 62.0109 48.106 63.1566C47.7877 63.4748 47.9787 63.984 48.3606 64.1113C48.8061 64.1749 49.3153 63.984 49.6335 63.6657Z" fill="#383838"/>
<path d="M46.834 59.7196C46.8976 60.4197 46.9613 61.1835 47.4068 61.8199C47.5978 62.0745 47.8523 62.3291 48.1069 62.5201C48.4888 62.711 48.9344 62.7747 49.3799 62.7747C49.6345 62.7747 49.8891 62.711 50.08 62.5837C50.2073 62.5201 50.4619 62.4564 50.5892 62.3291C50.8438 62.0109 50.3346 62.0109 50.1437 62.0109C50.0164 62.0109 50.2073 62.0109 50.2073 62.0109C50.2073 62.0109 50.1437 62.0109 50.08 62.0109C50.0164 62.0109 50.2073 62.0109 50.1437 62.0109C50.08 62.0109 50.08 62.0109 50.0164 62.0109H49.9527C49.9527 62.0109 49.8254 61.9472 49.8891 62.0109C49.9527 62.0109 49.8254 62.0109 49.8254 62.0109L49.7618 61.9472C49.5072 61.8199 49.3162 61.629 49.1889 61.4381L49.2526 61.5017C48.8071 60.8652 48.6798 60.1015 48.6798 59.3377C48.6798 59.2104 48.4252 59.2104 48.3615 59.2104C48.1706 59.2104 47.916 59.2104 47.6614 59.274C47.4705 59.3377 47.2159 59.4013 47.0249 59.5286C46.9613 59.5286 46.834 59.5923 46.834 59.7196Z" fill="#383838"/>
<path d="M50.1434 60.2288C49.8888 61.0562 50.1434 61.9472 50.8435 62.4564C50.9708 62.5201 51.2254 62.5201 51.289 62.5201C51.5436 62.5201 51.7982 62.4564 51.9891 62.3291C52.1164 62.2655 52.8166 62.0109 52.562 61.82C52.4983 61.7563 52.371 61.6927 52.3074 61.5654L52.371 61.629C51.9891 61.1835 51.7982 60.547 51.9255 59.9742V60.0378C51.9255 59.9742 51.9255 59.9105 51.9891 59.8469C52.0528 59.5286 51.4163 59.6559 51.289 59.7196C51.0344 59.7832 50.7798 59.8469 50.5889 59.9105C50.5253 59.9105 50.4616 59.9742 50.398 59.9742C50.2707 60.1015 50.207 60.1651 50.1434 60.2288Z" fill="#383838"/>
<path d="M84.0032 62.9656C82.9848 61.8836 81.5846 61.2471 80.057 61.1834C78.5931 61.1198 77.0656 61.7563 76.0472 62.7746C75.729 63.0292 75.6017 63.4748 75.9836 63.793C76.3018 64.0476 77.0019 63.9839 77.3202 63.7294C77.702 63.3475 78.0203 63.0929 78.5931 62.9019C78.4658 62.9656 78.7841 62.8383 78.8477 62.8383C78.975 62.7746 79.1023 62.7746 79.2296 62.711C79.1023 62.711 79.4205 62.711 79.4842 62.711C79.6115 62.711 79.7388 62.711 79.8661 62.711C79.9934 62.711 80.3116 62.7746 80.5025 62.7746C80.6935 62.8383 80.9481 62.9019 81.2027 63.0292C81.6482 63.2202 82.0301 63.5384 82.412 63.8566C82.7302 64.2385 83.2394 64.2385 83.6849 64.0476C83.9395 63.793 84.3851 63.2838 84.0032 62.9656Z" fill="#383838"/>
<path d="M83.3676 59.7195C83.3676 59.9104 83.3675 60.165 83.3039 60.3559V60.2923C83.2403 60.8015 83.113 61.3107 82.7947 61.7562C82.7311 61.8198 82.8584 61.6926 82.7947 61.7562L82.7311 61.8198C82.6674 61.8835 82.6674 61.8835 82.6038 61.9471L82.5401 62.0108C82.5401 62.0108 82.4765 62.0744 82.5401 62.0108C82.6038 61.9471 82.5401 62.0108 82.5401 62.0108L82.4765 62.0744C82.4765 62.0744 82.3492 62.1381 82.4765 62.0744C82.6038 62.0108 82.4765 62.0744 82.4765 62.0744C82.4128 62.1381 82.6674 62.0108 82.6038 62.0108C82.4765 62.0744 82.8584 61.9471 82.7311 61.9471C82.6038 61.9471 82.9857 61.8835 82.8584 61.9471C82.7311 61.9471 83.0493 61.9471 82.9857 61.9471C82.9857 61.9471 82.8584 61.9471 82.9857 61.9471C83.113 61.9471 82.9857 61.9471 82.9857 61.9471C82.7947 61.9471 82.5401 61.9471 82.2855 62.0108C82.0946 62.0744 81.84 62.1381 81.6491 62.2654C81.5854 62.329 81.3945 62.3927 81.4581 62.52C81.5218 62.6473 81.7127 62.6473 81.7764 62.6473C82.4128 62.7109 83.113 62.52 83.6858 62.2017C84.0677 62.0108 84.4496 61.6926 84.7042 61.3743C85.1497 60.7378 85.277 59.9104 85.277 59.1466C85.277 59.0193 84.9587 59.0193 84.9587 59.0193C84.7678 59.0193 84.5132 59.0193 84.2586 59.083C84.0677 59.1466 83.8131 59.2103 83.6221 59.3376C83.4948 59.5285 83.3676 59.5922 83.3676 59.7195Z" fill="#383838"/>
<path d="M80.0566 59.465C80.1202 59.7832 80.1839 60.1014 80.1202 60.4197V60.356C80.0566 60.7379 79.8656 61.0562 79.611 61.3108L79.6747 61.2471C79.611 61.3108 79.5474 61.3744 79.4201 61.438C79.3564 61.5017 79.2928 61.5653 79.3564 61.629C79.4837 61.6926 79.7383 61.6926 79.802 61.6926C80.0566 61.6926 80.3112 61.629 80.5021 61.5017C80.693 61.438 80.884 61.3744 81.0113 61.2471C81.6478 60.7379 82.0296 59.7832 81.7751 58.9558C81.7114 58.8285 81.5205 58.8285 81.4568 58.8285C81.2659 58.8285 81.0113 58.8921 80.7567 58.9558C80.5657 59.0194 80.3112 59.0831 80.1202 59.2104C80.1839 59.274 79.9929 59.3377 80.0566 59.465Z" fill="#383838"/>
<path d="M36.9058 61.629C38.497 62.3928 41.3611 61.3745 42.5068 60.547C43.5888 59.7833 45.9438 57.8738 45.3709 56.5372C47.2804 60.8016 57.7822 57.8738 59.628 52.1455C62.2376 57.4919 73.185 52.3365 75.7945 48.1357C76.1764 50.6816 77.1311 52.7184 79.8043 53.9913C81.8411 55.0097 85.469 55.0097 87.3148 53.6731C85.278 55.7735 86.1691 62.8384 90.7517 62.6474C90.7517 62.7111 90.6881 62.7747 90.6881 62.902H91.2609C96.3527 70.4761 89.0332 45.9081 88.0785 44.7624C86.6783 42.9803 76.6856 37.3793 53.8997 40.4344C40.7883 42.1529 39.7699 46.2263 36.7148 61.5654L36.9058 61.629Z" fill="#FEC14E"/>
<path d="M92.3414 63.1565C91.8958 63.0292 92.5323 63.2838 92.0868 63.0929C92.2141 63.1565 91.8958 62.9656 91.8322 62.9656C91.5139 62.7746 91.2593 62.5837 91.0048 62.3927C90.4956 61.9472 89.9227 61.438 89.5409 60.8015C88.5225 59.2103 88.7771 56.9827 88.8407 55.1369C88.9044 54.1185 86.9949 53.6093 86.2312 53.8003C84.3854 54.3731 82.1577 54.5004 80.3756 53.5457C78.848 52.7183 77.7024 51.1907 77.3205 49.4722C77.1932 48.7721 76.3658 48.3266 75.7293 48.1993C75.3474 48.072 74.2018 48.0083 74.3291 48.7085C74.4563 49.4722 73.1197 50.427 72.5469 50.8725C71.7195 51.509 70.8284 52.1454 69.9374 52.5273C68.2825 53.1638 66.4367 53.4184 64.7183 53.3548C63.1271 53.2911 61.7905 53.1002 60.6448 51.9545C60.1993 51.509 58.5444 50.8725 58.1625 51.6999C57.6534 52.7183 57.1442 53.673 56.1895 54.4368C55.2347 55.2005 53.9618 55.7734 52.8161 56.2189C50.3339 57.2373 47.4061 57.2373 44.8602 56.3462C44.4146 56.2189 43.269 55.837 43.078 56.5371C42.187 59.083 39.6411 61.1834 36.8406 60.9925C36.2677 60.9288 35.6313 61.1834 35.8858 61.8199C36.1404 62.4564 37.1588 62.9019 37.7953 62.9656C41.3595 63.2202 44.8602 61.1834 46.0695 57.7464C45.4966 57.8101 44.8602 57.8737 44.2873 57.9374C47.5334 59.1467 51.2886 59.5286 54.5983 58.3193C55.9985 57.8101 57.4624 57.11 58.6717 56.2826C59.8174 55.4551 60.5812 54.2458 61.2176 52.9729C60.3902 52.9092 59.5628 52.7819 58.7354 52.7183C60.3902 54.3095 62.4906 55.0096 64.7183 55.2642C67.0096 55.5188 69.3645 55.3915 71.5922 54.6914C72.9288 54.2458 74.2018 53.4821 75.2838 52.591C76.1112 51.9545 77.6387 50.8088 77.5114 49.5359C76.4931 49.2813 75.5384 49.0267 74.52 48.7721C75.0928 51.4453 76.9386 53.6093 79.3572 54.8823C82.2214 56.4098 85.5311 56.6008 88.5861 55.6461C87.6951 55.2005 86.8677 54.755 85.9766 54.3095C85.9129 56.6644 85.8493 59.2103 87.3132 61.1834C88.5861 62.9019 90.4956 64.3658 92.5323 64.9386C92.9778 65.0659 93.9325 65.1296 93.9325 64.4295C93.9325 63.793 92.9142 63.2838 92.3414 63.1565Z" fill="#4F4F4F"/>
<g filter="url(#filter0_f_804_3729)">
<path d="M46.133 70.8579C48.1718 70.8579 49.8245 69.2052 49.8245 67.1664C49.8245 65.1276 48.1718 63.4748 46.133 63.4748C44.0942 63.4748 42.4414 65.1276 42.4414 67.1664C42.4414 69.2052 44.0942 70.8579 46.133 70.8579Z" fill="#C94344" fill-opacity="0.3"/>
</g>
<g filter="url(#filter1_f_804_3729)">
<path d="M84.3205 70.8579C86.3593 70.8579 88.012 69.2052 88.012 67.1664C88.012 65.1276 86.3593 63.4748 84.3205 63.4748C82.2817 63.4748 80.6289 65.1276 80.6289 67.1664C80.6289 69.2052 82.2817 70.8579 84.3205 70.8579Z" fill="#C94344" fill-opacity="0.3"/>
</g>
</g>
<rect x="4.5" y="4.5" width="123" height="123" stroke="#0A74A6"/>
<rect x="0.5" y="0.5" width="7" height="7" fill="white" stroke="#0A74A6"/>
<rect x="0.5" y="124.5" width="7" height="7" fill="white" stroke="#0A74A6"/>
<rect x="124.5" y="0.5" width="7" height="7" fill="white" stroke="#0A74A6"/>
<rect x="124.5" y="124.5" width="7" height="7" fill="white" stroke="#0A74A6"/>
<defs>
<filter id="filter0_f_804_3729" x="38.4414" y="59.4748" width="15.3828" height="15.3831" filterUnits="userSpaceOnUse" color-interpolation-filters="sRGB">
<feFlood flood-opacity="0" result="BackgroundImageFix"/>
<feBlend mode="normal" in="SourceGraphic" in2="BackgroundImageFix" result="shape"/>
<feGaussianBlur stdDeviation="2" result="effect1_foregroundBlur_804_3729"/>
</filter>
<filter id="filter1_f_804_3729" x="76.6289" y="59.4748" width="15.3828" height="15.3831" filterUnits="userSpaceOnUse" color-interpolation-filters="sRGB">
<feFlood flood-opacity="0" result="BackgroundImageFix"/>
<feBlend mode="normal" in="SourceGraphic" in2="BackgroundImageFix" result="shape"/>
<feGaussianBlur stdDeviation="2" result="effect1_foregroundBlur_804_3729"/>
</filter>
<clipPath id="clip0_804_3729">
<rect x="4" y="4" width="124" height="124" fill="white"/>
</clipPath>
</defs>
</svg>
