<svg width="132" height="132" viewBox="0 0 132 132" fill="none" xmlns="http://www.w3.org/2000/svg">
<g clip-path="url(#clip0_802_2295)">
<rect x="4" y="4" width="124" height="124" fill="white"/>
<path d="M81.8826 102.204C81.6757 106.371 79.8744 110.3 76.8515 113.176C73.8286 116.053 69.8154 117.657 65.6426 117.657C61.4697 117.657 57.4566 116.053 54.4337 113.176C51.4108 110.3 49.6095 106.371 49.4026 102.204C34.2426 105.114 23.6426 113.054 23.6426 129.944C23.6426 131.334 23.7126 141.554 23.8526 142.944H107.533C107.673 141.584 107.743 131.364 107.743 129.944C107.693 113.054 97.0426 105.114 81.8826 102.204Z" fill="#98B3DD" stroke="#98B3DD" stroke-width="2.1" stroke-miterlimit="10"/>
<path d="M65.6423 117.724C69.8254 117.72 73.8464 116.106 76.8706 113.216C79.8947 110.326 81.6895 106.382 81.8823 102.204C81.0623 102.057 80.2323 101.917 79.3923 101.784C79.3923 105.43 77.9437 108.928 75.3651 111.506C72.7864 114.085 69.2891 115.534 65.6423 115.534C61.9956 115.534 58.4983 114.085 55.9196 111.506C53.341 108.928 51.8923 105.43 51.8923 101.784C51.0523 101.917 50.2223 102.057 49.4023 102.204C49.5952 106.382 51.39 110.326 54.4141 113.216C57.4383 116.106 61.4593 117.72 65.6423 117.724Z" fill="white" stroke="#4F4F4F" stroke-width="2" stroke-miterlimit="10"/>
<path d="M51.8926 101.784C51.8926 105.43 53.3412 108.928 55.9199 111.506C58.4985 114.085 61.9959 115.534 65.6426 115.534C69.2893 115.534 72.7867 114.085 75.3653 111.506C77.9439 108.928 79.3926 105.43 79.3926 101.784C70.2688 100.53 61.0164 100.53 51.8926 101.784Z" fill="white" stroke="#4F4F4F" stroke-width="2.1" stroke-miterlimit="10"/>
<path d="M75.9492 104L76 93.3238V91C70.126 93.8627 60.6341 96.0518 56 96.4223V103.484" fill="white"/>
<path d="M75.9492 104L76 93.3238V91C70.126 93.8627 60.6341 96.0518 56 96.4223V103.484" stroke="#4F4F4F" stroke-width="2.1" stroke-miterlimit="10"/>
<path d="M94.5578 56.5763C98.4996 55.3938 99.4851 51.7804 98.2368 48.2328C97.3828 45.802 96.1345 43.8968 92.8497 43.634C94.5578 41.2689 93.7037 39.2323 91.9956 37.4584C90.2218 35.6189 87.4625 34.8306 84.1776 35.4875C84.2433 30.6916 78.7905 29.969 76.3597 29.8376C75.1771 29.7719 73.7975 29.7719 71.8266 30.7573C71.4324 30.9544 70.9725 30.8887 70.5126 31.0201C68.2789 31.48 66.2423 29.7062 64.2057 29.312C61.9063 28.7864 59.0813 29.0492 56.8476 29.7062C54.8767 30.2975 52.9715 31.5457 52.1174 33.4509C49.4895 33.5823 45.8762 34.1079 43.5111 35.5532C41.3431 36.8672 39.0437 39.0352 39.2408 41.7945C36.0873 41.9259 32.8025 44.3566 32.6711 47.6415C32.6054 50.4008 34.5106 53.8827 37.2042 54.7368C33.9193 54.8025 33.9193 64.46 38.6495 65.5768C39.1751 64.0658 40.489 63.3431 41.2774 63.0803C41.2774 63.146 41.2774 63.146 41.2774 63.146L46.4675 57.6932C43.7739 52.0432 50.2779 50.5979 54.811 47.1159C57.8331 44.8165 63.483 48.3642 66.1109 50.0066L66.1766 50.0723V50.138C66.1766 50.138 66.7022 50.5322 67.6877 51.0578C67.7534 51.1234 67.819 51.1234 67.8847 51.1234C71.301 53.0287 79.3817 56.5106 86.7398 51.7147C88.448 50.5979 88.645 55.1967 87.3968 57.6932L91.0758 62.7518C91.0758 62.8175 91.0758 62.9489 91.0758 63.0146C91.9299 63.2117 94.952 64.2629 94.295 68.3361C94.8863 67.7448 95.2148 66.8908 94.952 65.971C97.6455 65.2483 98.9595 63.0146 98.4339 60.321C97.974 57.6932 96.3316 57.7589 94.5578 56.5763Z" fill="#FEC14E"/>
<path d="M95.2802 57.4961C97.054 56.9048 98.6964 55.985 99.6162 54.2769C100.47 52.7659 100.536 50.9921 100.207 49.3496C99.9447 47.8386 99.222 46.1962 98.2365 45.0136C96.9226 43.5026 95.0174 42.8456 93.0465 42.6485C93.5064 43.1084 94.0319 43.634 94.4918 44.0939C95.3459 42.8456 95.8058 41.3346 95.2802 39.8235C94.8203 38.4439 93.7691 37.13 92.5866 36.2102C90.0244 34.2393 86.6082 33.9765 83.5204 34.5678C84.3088 34.962 85.0971 35.2904 85.8855 35.6846C85.8198 30.8887 80.8268 29.1149 76.7536 28.8521C75.5053 28.7864 74.1914 28.7864 72.9432 29.1149C71.6292 29.4434 70.4467 30.2975 69.0013 29.9033C67.556 29.5091 66.2421 28.655 64.7967 28.3266C63.0886 27.9324 61.2491 27.9324 59.5409 28.1295C56.1247 28.5236 52.2486 29.7062 50.6718 33.0567C51.066 32.8597 51.4602 32.6626 51.8544 32.4655C48.7666 32.5969 45.3504 33.0567 42.6568 34.6335C40.0946 36.0788 37.5324 38.5096 37.5981 41.6631C38.058 41.4003 38.4522 41.0718 38.912 40.809C35.3644 41.0718 31.3569 43.4369 31.0284 47.313C30.6999 50.9264 33.2621 54.5397 36.6126 55.7223C36.6783 55.0653 36.744 54.4083 36.8097 53.817C33.8534 53.9484 33.065 57.2333 33.2621 59.6641C33.4592 62.6861 34.9045 65.7739 38.1237 66.5623C38.6493 66.6937 39.9632 66.7594 40.226 66.0367C40.6202 64.9855 41.3428 64.3286 42.394 63.9344C41.4742 63.6716 40.6202 63.4745 39.7004 63.2117V63.2774C40.0289 64.1972 41.9998 64.5257 42.6568 63.803C44.3649 61.9635 46.1387 60.124 47.8469 58.3501C48.0439 58.153 48.241 57.8903 48.1096 57.5618C47.4527 56.1821 47.1899 54.7368 48.1096 53.4229C48.9637 52.1746 50.409 51.3862 51.6573 50.5979C53.234 49.6781 54.7451 48.6927 56.2561 47.7072C56.8474 47.313 57.4386 47.313 57.9642 47.3787C58.6869 47.4444 59.4752 47.7072 60.1322 47.97C61.9717 48.6927 63.6142 49.7438 65.3223 50.7293C65.0595 50.4008 64.8624 50.0723 64.5996 49.8095C64.5996 50.6636 65.9136 51.1892 66.5048 51.5833C67.2275 51.9775 67.8845 52.3717 68.6071 52.7002C70.381 53.5542 72.2862 54.2112 74.1914 54.6054C76.6222 55.131 79.1187 55.2624 81.5495 54.8682C82.7977 54.6711 84.046 54.2769 85.2942 53.817C85.8855 53.5542 86.4111 53.2915 87.0023 52.963C87.2651 52.8316 87.6593 52.7002 87.8564 52.4374C87.8564 52.4374 86.214 52.2403 86.2797 52.1089C86.2797 52.1089 86.3454 52.1746 86.3454 52.306C86.4111 52.5031 86.4768 52.7002 86.4768 52.8973C86.5425 53.3572 86.5425 53.817 86.5425 54.2112C86.4768 55.2624 86.2797 56.2478 85.8855 57.1676C85.7541 57.4304 85.8198 57.6932 85.9512 57.956C87.1994 59.6641 88.382 61.3065 89.6302 63.0146C89.5645 62.8175 89.4988 62.6861 89.4331 62.4891C89.4331 62.5548 89.4331 62.6861 89.4331 62.7518C89.3674 63.3431 90.0244 63.7373 90.55 63.8687C90.6814 63.8687 90.8128 63.9344 90.8785 64.0001C91.207 64.0658 90.55 63.8687 90.8785 64.0001C90.9442 64.0001 91.0099 64.0658 91.0756 64.0658C91.3384 64.1972 91.6011 64.3286 91.8639 64.5914C92.7837 65.5111 92.8494 66.8908 92.6523 68.0733C92.4552 69.3216 95.0174 69.5843 95.6744 68.8617C96.5284 67.9419 96.7912 66.9565 96.5941 65.7082C96.3313 66.0367 96.0028 66.4309 95.7401 66.7594C98.3679 65.971 100.47 63.9344 100.207 60.978C100.076 59.6641 99.6819 58.3501 98.6307 57.4961C97.7767 56.7077 96.6598 56.3792 95.6744 55.788C95.0174 55.3938 94.0976 55.1967 93.375 55.5252C92.7837 55.8536 92.5866 56.5106 93.2436 56.9705C94.0319 57.4961 95.0174 57.8903 95.7401 58.3501C96.5284 58.81 96.7912 59.6641 96.9226 60.5181C97.1854 62.4891 96.1999 64.3286 94.229 64.8542C93.7034 64.9855 93.2436 65.314 93.375 65.9053C93.5064 66.4966 93.3093 67.0879 92.9151 67.5477C93.9005 67.8105 94.886 68.0733 95.9371 68.3361C96.1999 66.628 95.9371 64.9198 94.6889 63.6716C93.8348 62.8175 92.7837 62.2263 91.6011 61.9635C91.9953 62.3577 92.3238 62.6861 92.718 63.0803C92.7837 62.4234 92.4552 62.1606 92.1267 61.7007C91.7325 61.1094 91.2727 60.5181 90.8785 59.9269C90.2215 59.0071 89.5645 58.0873 88.9076 57.2333C88.9076 57.4961 88.9733 57.7589 88.9733 58.0217C89.7616 56.3792 90.0244 54.3426 89.6959 52.5688C89.3017 50.5322 87.068 49.9409 85.3599 50.9264C81.2867 53.4229 76.6222 53.4886 72.2205 51.8461C70.5781 51.2548 68.8699 50.4008 67.4246 49.4153C67.556 49.6781 67.6874 49.9409 67.8188 50.2037C67.8188 50.2037 67.8188 50.2037 67.8188 50.138C67.8188 49.6781 67.4903 49.4153 67.0961 49.2182C67.3589 49.3496 66.899 49.0868 66.8333 49.0868C66.5705 48.9554 66.3734 48.8241 66.1107 48.6927C65.7165 48.4299 65.2566 48.1671 64.8624 47.97C63.9427 47.4444 62.9572 46.9845 61.9717 46.5247C59.8694 45.6706 57.5043 45.0136 55.2049 45.6049C54.1538 45.8677 53.3654 46.5247 52.4457 47.1159C51.5916 47.7072 50.7375 48.1671 49.8835 48.6927C48.241 49.6781 46.4672 50.6636 45.219 52.1746C43.8393 53.8827 43.905 55.9193 44.7591 57.8246C44.8248 57.5618 44.8905 57.299 45.0219 57.0362C43.3138 58.8757 41.5399 60.7152 39.8318 62.4891C40.8173 62.6861 41.8027 62.8175 42.7882 63.0146V62.9489C42.394 61.9635 40.9487 61.8978 40.0946 62.2263C38.715 62.7518 37.5324 63.7373 37.0068 65.1169C37.7295 64.9198 38.3865 64.7885 39.1091 64.5914C39.1091 64.5914 38.6493 64.46 38.912 64.5914C38.7807 64.5257 38.6493 64.46 38.5179 64.3943C38.715 64.46 38.4522 64.3943 38.3865 64.3286C38.3208 64.2629 38.1894 64.1972 38.1237 64.1315C37.8609 63.9344 37.4667 63.4088 37.2696 63.0146C36.744 62.0949 36.4813 60.978 36.4156 59.9269C36.3499 58.9414 36.4156 57.8246 36.744 56.9048C36.8754 56.5763 37.1382 56.0507 37.2696 55.8536C37.2039 55.9193 37.6638 55.3938 37.401 55.7223C37.6638 55.4595 37.4667 55.9193 37.401 55.7223H37.4667C37.2039 55.7223 37.2039 55.788 37.3353 55.7223C37.7952 55.7223 38.5836 55.4595 38.6493 54.8682C38.715 54.2769 37.9923 53.9484 37.5324 53.7513C36.4813 53.3572 35.5615 52.2403 35.0359 51.2548C34.3789 50.138 33.9848 48.7584 34.1162 47.4444C34.3133 44.8165 36.8097 42.8456 39.3719 42.6485C39.7661 42.6485 40.6859 42.3857 40.6859 41.7945C40.6202 39.1666 42.6568 37.13 44.8248 35.9474C47.0585 34.6992 49.7521 34.4364 52.2486 34.305C52.6427 34.305 53.234 34.1079 53.4311 33.7137C54.6137 31.2829 57.1102 30.3632 59.6066 29.969C60.9206 29.7719 62.3659 29.7062 63.6799 30.0347C64.9938 30.3632 66.1107 31.0858 67.4246 31.48C68.8699 31.9399 70.381 31.9399 71.8263 31.6114C73.0089 31.3486 73.9943 30.6916 75.3083 30.626C75.8995 30.626 76.5565 30.626 77.2792 30.7573C77.4763 30.7573 77.6734 30.823 77.8704 30.823C77.8704 30.823 78.1332 30.8887 77.9361 30.823C77.739 30.7573 78.0675 30.823 78.0675 30.8887C78.4617 30.9544 78.9216 31.0858 79.3158 31.2172C79.9071 31.4143 80.6954 31.8085 81.221 32.3998C81.9437 33.1224 82.2721 34.1736 82.2721 35.1591C82.2721 36.2759 83.8489 36.4073 84.6372 36.2759C86.4768 35.9474 88.4477 36.0788 89.893 37.3271C90.6157 37.984 91.3384 38.8381 91.6668 39.8235C92.061 41.0061 91.6668 42.0573 90.9442 43.0427C90.3529 43.8311 91.8639 44.4223 92.3895 44.488C93.5721 44.6194 94.4918 45.0136 95.1488 45.9334C95.8715 46.9188 96.3313 48.2328 96.5941 49.4153C97.1197 51.9775 96.0028 54.6054 93.4407 55.3938C92.8494 55.5909 92.2581 56.0507 92.718 56.7077C93.4407 57.4961 94.6232 57.6932 95.2802 57.4961Z" fill="#4F4F4F"/>
<path d="M67.2283 98.6882C82.4311 98.6882 94.7554 86.3639 94.7554 71.1611C94.7554 55.9583 82.4311 43.634 67.2283 43.634C52.0255 43.634 39.7012 55.9583 39.7012 71.1611C39.7012 86.3639 52.0255 98.6882 67.2283 98.6882Z" fill="#E4E4E4"/>
<path d="M95.4774 66.1023C93.4408 54.014 83.4548 44.3565 71.3665 42.5827C69.9212 42.3856 68.4759 42.2542 67.0305 42.2542C55.0079 42.3199 43.6423 49.3495 39.1092 60.6494C34.5104 72.0807 37.9267 85.4829 47.3871 93.3666C56.6504 101.119 70.1183 102.039 80.6955 96.3229C91.4698 90.4759 97.514 78.1905 95.4774 66.1023ZM40.029 66.2337C41.8685 55.3936 50.5405 46.0646 61.512 44.1594C62.9573 43.8966 64.4026 43.8309 65.848 43.7652C77.0822 43.8309 87.3309 50.8605 91.3385 61.3721C95.4117 71.8836 92.521 84.169 84.1118 91.7241C79.9729 95.4689 74.7171 97.834 69.1985 98.2939C63.5486 98.7537 57.8329 97.4398 52.9713 94.4834C43.3795 88.7678 38.1895 77.3365 40.029 66.2337ZM65.9137 42.9112C67.4904 42.9112 69.0671 43.0426 70.5782 43.3711C69.3956 43.2397 68.2131 43.1083 67.0962 43.1083C60.0666 43.174 53.2998 45.6705 48.044 50.0065C51.7888 46.5902 56.3876 44.1594 61.512 43.3054C62.9573 43.0426 64.4026 42.9112 65.9137 42.9112Z" fill="#4F4F4F"/>
<path d="M53.0375 62.1604C52.2492 61.8976 51.3294 61.7005 50.6724 62.0947C50.1469 62.4232 49.8184 63.0145 49.687 63.6715C49.5556 64.3941 49.5556 65.1825 49.9498 65.8395C50.4753 66.7592 51.7893 67.1534 52.7747 66.6935C53.7602 66.2336 54.2858 64.9854 53.9573 63.9999C53.6945 63.1459 52.7091 62.4889 51.855 62.8831C51.2637 63.1459 51.0009 63.8685 51.0009 64.5255C51.0666 65.2482 51.7236 66.0366 52.4463 65.8395C53.0375 65.6424 53.2346 64.854 53.2346 64.197C53.2346 63.8685 53.1689 63.4744 52.9061 63.2773C52.6434 63.0802 52.1835 63.0802 52.0521 63.343" fill="#4F4F4F"/>
<path d="M53.7596 61.4381C52.4456 61.0439 50.8689 60.8468 49.6863 61.7666C48.7009 62.5549 48.3067 63.8032 48.4381 65.0514C48.5695 66.1683 49.2921 67.0223 50.3433 67.4822C51.4602 67.9421 52.9712 67.745 53.9566 66.9566C54.8764 66.2997 55.402 65.2485 55.2706 64.1317C55.2049 63.0805 54.2851 62.2264 53.2997 62.0293C51.8543 61.7666 50.2776 62.4892 49.8834 64.0003C49.6206 65.0514 50.2119 66.2997 51.3288 66.5624C52.1828 66.7595 53.2997 66.4967 53.8909 65.7741C54.2851 65.3142 54.4822 64.7886 54.4165 64.1973C54.4165 63.5404 54.2851 62.8834 53.6282 62.5549C52.7741 62.095 51.3288 62.4235 50.8689 63.2776C50.6061 63.8032 51.1317 64.1317 51.5915 64.1317C52.1171 64.1317 52.9055 63.9346 53.1683 63.409C53.234 63.2119 52.9055 63.6061 52.9055 63.6061C52.7084 63.7375 52.4456 63.8032 52.2485 63.8689C52.2485 63.8689 51.9857 63.8689 52.0514 63.8689C52.1828 63.8689 51.8543 63.8032 51.8543 63.8032C51.7229 63.7375 51.7886 63.8032 51.8543 63.8032C51.9857 63.8689 51.7886 63.8032 51.7886 63.8032C51.7886 63.8032 51.8543 63.8689 51.8543 63.9346C51.7886 63.8689 51.8543 63.8689 51.8543 63.9346C51.92 64.066 51.92 64.263 51.92 64.3944C51.92 64.5258 51.92 64.263 51.92 64.3944C51.92 64.4601 51.92 64.4601 51.92 64.5258C51.92 64.5915 51.92 64.6572 51.92 64.7886C51.92 64.8543 51.92 64.92 51.8543 64.9857C51.8543 65.0514 51.8543 65.0514 51.8543 65.1171C51.7886 65.2485 51.8543 65.1171 51.8543 65.0514C51.8543 65.1171 51.7886 65.1828 51.7886 65.2485C51.7886 65.3142 51.7229 65.3799 51.7886 65.2485C51.92 65.1171 51.7886 65.2485 51.7229 65.2485C51.6572 65.3142 51.5915 65.3799 51.7886 65.1828C51.7886 65.1828 51.6572 65.2485 51.8543 65.1828C51.92 65.1828 52.2485 65.0514 52.1171 65.0514C51.9857 65.1171 52.3142 64.9857 52.3142 64.9857C52.3799 64.9857 52.577 64.9857 52.6427 64.9857H52.5113C52.5113 64.9857 52.6427 65.1171 52.577 65.0514C52.5113 65.0514 52.5113 64.9857 52.4456 64.9857C52.3142 64.92 52.4456 64.9857 52.4456 64.9857L52.3799 64.92C52.3142 64.8543 52.3142 64.7886 52.2485 64.7229L52.1828 64.6572C52.2485 64.7886 52.1828 64.7229 52.1828 64.6572C52.1171 64.5915 52.1171 64.4601 52.1171 64.3944C52.1171 64.3287 52.1171 64.263 52.0514 64.1973C52.0514 64.3944 52.0514 64.1317 52.0514 64.066C52.0514 64.0003 52.0514 63.9346 52.1171 63.8689V63.8032C52.1828 63.6061 52.0514 63.8689 52.1171 63.8032C52.1828 63.7375 52.1828 63.6718 52.2485 63.6061L52.3142 63.4747C52.3142 63.4747 52.1828 63.6061 52.3142 63.5404L52.3799 63.4747C52.3799 63.4747 52.1828 63.6061 52.3142 63.5404C52.4456 63.4747 52.0514 63.6718 52.1828 63.6061C52.2485 63.5404 52.4456 63.5404 52.0514 63.6718C52.1171 63.6718 52.2485 63.6718 51.92 63.6718C51.9857 63.6718 52.0514 63.6718 51.8543 63.6718C51.6572 63.6718 51.7886 63.6718 51.8543 63.6718C51.9857 63.6718 51.7229 63.6061 51.7229 63.6718L51.9857 63.7375C51.9857 63.7375 51.7886 63.6061 51.92 63.7375C51.9857 63.7375 51.9857 63.8032 52.0514 63.8032L52.2485 63.9346C52.2485 63.9346 52.1171 63.8032 52.1828 63.8689L52.2485 63.9346C52.3142 64.0003 52.3142 64.066 52.3799 64.1317C52.3799 64.1973 52.4456 64.1973 52.4456 64.263C52.4456 64.263 52.5113 64.4601 52.5113 64.3287C52.4456 64.263 52.5113 64.3287 52.5113 64.3287C52.5113 64.3944 52.5113 64.3944 52.577 64.4601C52.577 64.5258 52.6427 64.5915 52.6427 64.7229C52.6427 64.7886 52.6427 64.8543 52.6427 64.92C52.6427 64.9857 52.6427 64.8543 52.6427 64.8543C52.6427 64.92 52.6427 64.9857 52.6427 64.9857C52.6427 65.1171 52.577 65.3142 52.577 65.4456L52.5113 65.577C52.5113 65.577 52.577 65.4456 52.5113 65.5113C52.4456 65.577 52.4456 65.7084 52.3799 65.7741C52.3142 65.8398 52.3142 65.9055 52.2485 65.9712C52.1171 66.1683 52.3142 65.9055 52.2485 65.9712C52.1828 66.0369 52.1171 66.1026 52.0514 66.1683C51.9857 66.234 51.92 66.234 52.1171 66.1026C52.0514 66.1026 52.0514 66.1683 51.9857 66.1683C51.9857 66.1683 51.92 66.234 51.8543 66.234C51.8543 66.234 52.1171 66.1026 51.9857 66.1683C51.92 66.1683 51.6572 66.2997 51.92 66.234C52.1171 66.1683 51.92 66.234 51.8543 66.234C52.1171 66.1026 52.1171 66.1683 51.9857 66.234C51.92 66.234 51.8543 66.234 51.8543 66.234C51.7229 66.234 51.9857 66.234 51.9857 66.234C51.92 66.234 51.92 66.234 51.8543 66.234C51.7229 66.234 51.5258 66.1683 51.7886 66.234C51.7229 66.234 51.6572 66.234 51.5915 66.1683H51.5258C51.5258 66.1683 51.3288 66.1026 51.4602 66.1683C51.5915 66.1683 51.4602 66.1683 51.4602 66.1683C51.3945 66.1683 51.3945 66.1026 51.3288 66.1026C51.2631 66.0369 51.1974 66.0369 51.1317 65.9712L51.066 65.9055C51.066 65.9055 51.1974 66.0369 51.1317 65.9712C51.066 65.9055 51.0003 65.8398 50.9346 65.7741C50.8689 65.7084 50.8689 65.6427 50.8032 65.577C50.8032 65.577 50.6718 65.3799 50.7375 65.4456C50.6718 65.2485 50.6061 65.0514 50.5404 64.8543C50.5404 64.7229 50.4747 64.6572 50.4747 64.5258C50.4747 64.4601 50.4747 64.5258 50.4747 64.5258C50.4747 64.4601 50.4747 64.3944 50.4747 64.263C50.4747 64.066 50.5404 63.8689 50.5404 63.6718C50.5404 63.5404 50.6061 63.4747 50.6061 63.3433C50.6061 63.3433 50.6718 63.1462 50.6061 63.2776C50.5404 63.409 50.6718 63.2119 50.6718 63.2119C50.7375 63.1462 50.7375 63.0148 50.8032 62.9491L50.8689 62.8177C50.8689 62.8177 50.7375 62.9491 50.8689 62.8177L50.9346 62.752C51.066 62.6206 50.8032 62.8177 50.9346 62.752C51.0003 62.752 51.1317 62.6206 50.9346 62.752C50.7375 62.8177 51.0003 62.752 51.0003 62.752C51.0003 62.752 50.6718 62.8177 50.8689 62.8177C51.066 62.752 50.8032 62.8177 50.7375 62.8177H50.8689C51.066 62.8177 50.6718 62.8177 50.8032 62.8177C50.9346 62.8177 51.0003 62.8177 51.1317 62.8177C51.1974 62.8177 51.3288 62.8177 51.1974 62.8177C51.066 62.8177 51.2631 62.8177 51.2631 62.8177C51.4602 62.8834 51.7229 62.9491 51.92 63.0148C52.4456 63.1462 53.234 63.0148 53.6282 62.5549C53.7596 62.4235 53.8909 62.1607 53.8252 61.9636C54.1537 61.6352 54.0223 61.5038 53.7596 61.4381Z" fill="#383838"/>
<path d="M82.1411 62.1603C81.3527 61.8975 80.4329 61.7004 79.776 62.0946C79.2504 62.4231 78.9219 63.0144 78.7905 63.6713C78.6591 64.394 78.6591 65.1824 79.0533 65.8393C79.5789 66.7591 80.8928 67.1533 81.8783 66.6934C82.8637 66.2335 83.3893 64.9853 83.0608 63.9998C82.798 63.1458 81.8126 62.4888 80.9585 62.883C80.3672 63.1458 80.1044 63.8684 80.1044 64.5254C80.1701 65.2481 80.8271 66.0364 81.5498 65.8393C82.1411 65.6422 82.3381 64.8539 82.3381 64.1969C82.3381 63.8684 82.2724 63.4742 82.0097 63.2772C81.7469 63.0801 81.287 63.0801 81.1556 63.3428" fill="#4F4F4F"/>
<path d="M82.8636 61.4379C81.5496 61.0438 79.9729 60.8467 78.7903 61.7664C77.8049 62.5548 77.4107 63.803 77.5421 65.0513C77.6735 66.1681 78.3961 67.0222 79.4473 67.4821C80.5642 67.942 82.0752 67.7449 83.0606 66.9565C83.9804 66.2995 84.506 65.2484 84.3746 64.1315C84.3089 63.0804 83.3891 62.2263 82.4037 62.0292C80.9583 61.7664 79.3816 62.4891 78.9874 64.0001C78.7246 65.0513 79.3159 66.2995 80.4328 66.5623C81.2868 66.7594 82.4037 66.4966 82.9949 65.774C83.3891 65.3141 83.5862 64.7885 83.5205 64.1972C83.5205 63.5403 83.3891 62.8833 82.7322 62.5548C81.8781 62.0949 80.4328 62.4234 79.9729 63.2775C79.7101 63.803 80.2357 64.1315 80.6955 64.1315C81.2211 64.1315 82.0095 63.9344 82.2723 63.4089C82.338 63.2118 82.0095 63.606 82.0095 63.606C81.8124 63.7373 81.5496 63.803 81.3525 63.8687C81.3525 63.8687 81.0897 63.8687 81.1554 63.8687C81.2868 63.8687 80.9583 63.803 80.9583 63.803C80.8269 63.7373 80.8926 63.803 80.9583 63.803C81.0897 63.8687 80.8926 63.803 80.8926 63.803C80.8926 63.803 80.9583 63.8687 80.9583 63.9344C80.8926 63.8687 80.9583 63.8687 80.9583 63.9344C81.024 64.0658 81.024 64.2629 81.024 64.3943C81.024 64.5257 81.024 64.2629 81.024 64.3943C81.024 64.46 81.024 64.46 81.024 64.5257C81.024 64.5914 81.024 64.6571 81.024 64.7885C81.024 64.8542 81.024 64.9199 80.9583 64.9856C80.9583 65.0513 80.9583 65.0513 80.9583 65.117C80.8926 65.2484 80.9583 65.117 80.9583 65.0513C80.9583 65.117 80.8926 65.1827 80.8926 65.2484C80.8926 65.3141 80.8269 65.3798 80.8926 65.2484C81.024 65.117 80.8926 65.2484 80.8269 65.2484C80.7612 65.3141 80.6955 65.3798 80.8926 65.1827C80.8926 65.1827 80.7612 65.2484 80.9583 65.1827C81.024 65.1827 81.3525 65.0513 81.2211 65.0513C81.0897 65.117 81.4182 64.9856 81.4182 64.9856C81.4839 64.9856 81.681 64.9856 81.7467 64.9856H81.6153C81.6153 64.9856 81.7467 65.117 81.681 65.0513C81.6153 65.0513 81.6153 64.9856 81.5496 64.9856C81.4182 64.9199 81.5496 64.9856 81.5496 64.9856L81.4839 64.9199C81.4182 64.8542 81.4182 64.7885 81.3525 64.7228L81.2868 64.6571C81.3525 64.7885 81.2868 64.7228 81.2868 64.6571C81.2211 64.5914 81.2211 64.46 81.2211 64.3943C81.2211 64.3286 81.2211 64.2629 81.1554 64.1972C81.1554 64.3943 81.1554 64.1315 81.1554 64.0658C81.1554 64.0001 81.1554 63.9344 81.2211 63.8687V63.803C81.2868 63.606 81.1554 63.8687 81.2211 63.803C81.2868 63.7373 81.2868 63.6716 81.3525 63.606L81.4182 63.4746C81.4182 63.4746 81.2868 63.606 81.4182 63.5403L81.4839 63.4746C81.4839 63.4746 81.2868 63.606 81.4182 63.5403C81.5496 63.4746 81.1554 63.6716 81.2868 63.606C81.3525 63.5403 81.5496 63.5403 81.1554 63.6716C81.2211 63.6716 81.3525 63.6716 81.024 63.6716C81.0897 63.6716 81.1554 63.6716 80.9583 63.6716C80.7612 63.6716 80.8926 63.6716 80.9583 63.6716C81.0897 63.6716 80.8269 63.606 80.8269 63.6716L81.0897 63.7373C81.0897 63.7373 80.8926 63.606 81.024 63.7373C81.0897 63.7373 81.0897 63.803 81.1554 63.803L81.3525 63.9344C81.3525 63.9344 81.2211 63.803 81.2868 63.8687L81.3525 63.9344C81.4182 64.0001 81.4182 64.0658 81.4839 64.1315C81.4839 64.1972 81.5496 64.1972 81.5496 64.2629C81.5496 64.2629 81.6153 64.46 81.6153 64.3286C81.5496 64.2629 81.6153 64.3286 81.6153 64.3286C81.6153 64.3943 81.6153 64.3943 81.681 64.46C81.681 64.5257 81.7467 64.5914 81.7467 64.7228C81.7467 64.7885 81.7467 64.8542 81.7467 64.9199C81.7467 64.9856 81.7467 64.8542 81.7467 64.8542C81.7467 64.9199 81.7467 64.9856 81.7467 64.9856C81.7467 65.117 81.681 65.3141 81.681 65.4455L81.6153 65.5769C81.6153 65.5769 81.681 65.4455 81.6153 65.5112C81.5496 65.5769 81.5496 65.7083 81.4839 65.774C81.4182 65.8397 81.4182 65.9054 81.3525 65.971C81.2211 66.1681 81.4182 65.9054 81.3525 65.971C81.2868 66.0367 81.2211 66.1024 81.1554 66.1681C81.0897 66.2338 81.024 66.2338 81.2211 66.1024C81.1554 66.1024 81.1554 66.1681 81.0897 66.1681C81.0897 66.1681 81.024 66.2338 80.9583 66.2338C80.9583 66.2338 81.2211 66.1024 81.0897 66.1681C81.024 66.1681 80.7612 66.2995 81.024 66.2338C81.2211 66.1681 81.024 66.2338 80.9583 66.2338C81.2211 66.1024 81.2211 66.1681 81.0897 66.2338C81.024 66.2338 80.9583 66.2338 80.9583 66.2338C80.8269 66.2338 81.0897 66.2338 81.0897 66.2338C81.024 66.2338 81.024 66.2338 80.9583 66.2338C80.8269 66.2338 80.6299 66.1681 80.8926 66.2338C80.8269 66.2338 80.7612 66.2338 80.6955 66.1681H80.6299C80.6299 66.1681 80.4328 66.1024 80.5642 66.1681C80.6955 66.1681 80.5642 66.1681 80.5642 66.1681C80.4985 66.1681 80.4985 66.1024 80.4328 66.1024C80.3671 66.0367 80.3014 66.0367 80.2357 65.971L80.17 65.9054C80.17 65.9054 80.3014 66.0367 80.2357 65.971C80.17 65.9054 80.1043 65.8397 80.0386 65.774C80.3014 65.5769 80.3014 65.5112 80.2357 65.4455C80.2357 65.4455 80.1043 65.2484 80.17 65.3141C80.1043 65.117 80.0386 64.9199 79.9729 64.7228C79.9729 64.5914 79.9072 64.5257 79.9072 64.3943C79.9072 64.3286 79.9072 64.3943 79.9072 64.3943C79.9072 64.3286 79.9072 64.2629 79.9072 64.1315C79.9072 63.9344 79.9729 63.7373 79.9729 63.5403C79.9729 63.4089 80.0386 63.3432 80.0386 63.2118C80.0386 63.2118 80.1043 63.0147 80.0386 63.1461C79.9729 63.2775 80.1043 63.0804 80.1043 63.0804C80.17 63.0147 80.17 62.8833 80.2357 62.8176L80.3014 62.6862C80.3014 62.6862 80.17 62.8176 80.3014 62.6862L80.3671 62.6205C80.4985 62.4891 80.2357 62.6862 80.3671 62.6205C80.4328 62.6205 80.5642 62.4891 80.3671 62.6205C80.17 62.6862 80.4328 62.6205 80.4328 62.6205C80.4328 62.6205 80.1043 62.6862 80.3014 62.6862C80.4985 62.6205 80.2357 62.6862 80.17 62.6862H80.3014C80.4985 62.6862 80.1043 62.6862 80.2357 62.6862C80.3671 62.6862 80.4328 62.6862 80.5642 62.6862C80.6299 62.6862 80.7612 62.6862 80.6299 62.6862C80.4985 62.6862 80.6955 62.6862 80.6955 62.6862C80.8926 62.7519 81.1554 62.8176 81.3525 62.8833C81.8781 63.0147 82.6665 62.8833 83.0606 62.4234C83.192 62.292 83.3234 62.0292 83.2577 61.8321C83.2577 61.635 83.0606 61.5036 82.8636 61.4379Z" fill="#383838"/>
<path d="M60.6579 75.1031C62.1689 76.4827 64.1398 77.4025 66.1764 77.2711C68.1473 77.1397 69.9212 76.2856 71.2351 74.7746C71.3665 74.6432 71.2351 74.1176 71.1694 73.9863C71.038 73.5921 70.8409 73.1979 70.6438 72.8037C70.4467 72.5409 69.9212 71.6212 69.527 72.081C67.2276 74.7089 62.8916 75.1031 60.2637 72.6723C60.1323 72.5409 59.8695 72.3438 59.7381 72.4095C59.541 72.4752 59.6067 72.8694 59.6067 73.0008C59.7381 73.7235 60.1323 74.6432 60.6579 75.1031Z" fill="#383838"/>
<g opacity="0.3">
<path opacity="0.3" d="M78.0676 47.7731C83.6519 52.569 87.1995 59.73 87.1995 67.6794C87.1995 82.1984 75.4397 93.9582 60.9207 93.9582C57.5044 93.9582 54.2196 93.3012 51.2632 92.1187C55.862 96.0605 61.8404 98.4913 68.4101 98.4913C82.9292 98.4913 94.689 86.7315 94.689 72.2125C94.689 61.1097 87.7908 51.5836 78.0676 47.7731Z" fill="#B2B2B2"/>
</g>
<path d="M40.095 59.1384C39.5037 60.4524 40.5549 61.8977 41.2119 63.0145C42.0002 64.4599 42.7886 65.9709 43.5113 67.4163C44.6938 69.5843 46.0735 71.6866 48.7013 72.2121C50.081 72.4749 51.592 72.5406 53.0374 72.6063C54.5484 72.672 56.0594 72.5406 57.5705 72.2121C60.264 71.5552 62.4977 70.1098 63.8117 67.679C65.3227 64.9198 65.5855 61.6349 67.425 59.007C67.5564 58.8756 67.2936 58.6785 67.1622 58.6785C65.0599 58.3501 63.089 57.7588 61.0524 57.2332C59.0158 56.6419 56.9135 56.3134 54.8112 56.2477C50.4095 56.1163 46.1392 56.9047 41.8688 57.7588C41.4747 57.8245 40.2921 58.0873 40.2264 58.5471C40.1607 59.0727 41.1462 58.8756 41.3433 58.8099C45.2851 58.0216 49.2926 57.2332 53.3001 57.4303C57.3077 57.6274 60.921 59.2041 64.8628 59.7954C64.7971 59.664 64.7314 59.5983 64.6 59.4669C63.1547 61.5035 62.6948 64 61.8408 66.2994C61.1181 68.1389 60.0012 70.3069 58.0303 71.0953C57.0449 71.4895 55.928 71.4238 54.8769 71.4238C53.6286 71.3581 52.3147 71.3581 51.0664 71.0953C48.767 70.6354 47.5188 68.7959 46.4676 66.8907C45.745 65.511 45.0223 64.0657 44.2339 62.6861C43.6427 61.5692 42.3287 59.9268 42.8543 58.6128C43.0514 58.153 41.8688 58.2844 41.7374 58.3501C41.2776 58.4157 40.2921 58.6128 40.095 59.1384Z" fill="#5DA399"/>
<path d="M88.9079 60.124C89.4991 61.2409 88.5794 62.5548 88.1195 63.606C87.5282 64.9199 86.9369 66.2995 86.3457 67.6135C85.9515 68.5332 85.5573 69.3873 84.966 70.1757C84.3091 71.0297 83.6521 71.3582 82.6009 71.4896C80.2358 71.6867 77.4766 71.8181 75.3085 70.8326C73.2719 69.9129 71.8266 68.0734 70.8411 66.1024C69.6586 63.606 68.9359 60.9124 67.2278 58.6787C66.7022 59.1386 66.2423 59.5984 65.7168 60.124C69.7243 59.6641 73.4033 58.1531 77.4766 58.1531C81.4841 58.2188 85.4916 59.1386 89.3677 59.9926C90.0247 60.124 90.8788 59.9269 91.4043 59.467C91.7985 59.0072 91.7328 58.4816 91.1416 58.3502C87.0026 57.4304 82.8637 56.445 78.5934 56.3793C76.4911 56.3793 74.3888 56.5764 72.3522 57.0362C70.2499 57.4961 68.2133 58.1531 66.111 58.3502C65.5854 58.4159 64.0086 59.0072 64.5999 59.7955C66.3737 62.0949 67.0307 64.9856 68.3447 67.4821C69.5929 69.7815 71.3667 71.6867 73.8632 72.5408C75.2428 73.0006 76.6882 73.1977 78.1992 73.2634C79.7103 73.3291 81.287 73.2634 82.798 73.0663C85.5573 72.6722 87.5282 71.0954 88.7108 68.5989C89.4334 67.0879 90.0904 65.5112 90.7474 63.9344C91.3386 62.5548 92.5869 60.7153 91.7985 59.2699C91.2073 58.3502 88.448 59.2699 88.9079 60.124Z" fill="#5DA399"/>
<path d="M38.1235 50.2037C38.1235 50.2037 41.6055 40.612 49.6862 38.2469C57.767 35.8818 70.1837 36.7358 70.1837 36.7358L84.7685 40.6777L90.6812 44.8166C90.6812 44.8166 91.4696 51.9119 87.5935 51.9776C83.7173 52.0433 82.2063 55.131 76.0965 52.6345C69.9866 50.138 62.3658 46.3933 57.5699 46.5904C52.774 46.7875 50.9345 47.7729 48.0438 50.138C45.1531 52.5031 38.1235 50.2037 38.1235 50.2037Z" fill="#FEC14E"/>
<path d="M45.7443 54.0797C47.4524 51.2547 50.0146 48.8239 53.1023 47.4443C54.3506 46.853 55.6645 46.3932 57.0442 46.3932C58.818 46.3275 60.5261 46.9187 62.1029 47.51C65.979 48.9553 69.5266 50.992 73.4685 52.3059C76.819 53.4884 80.301 53.8826 83.8486 53.4884C87.4619 53.0286 91.141 51.7146 93.309 48.6926C93.6375 48.2327 92.2578 48.2984 92.1264 48.2984C91.6009 48.3641 90.5497 48.4298 90.1555 48.8896C85.8852 54.8024 78.2643 52.503 72.6801 50.0722C69.0667 48.4955 65.3877 46.4588 61.4459 45.6705C57.9639 45.0135 54.1535 45.6705 50.9343 47.1158C47.5181 48.6269 44.5617 51.189 42.5908 54.3425C42.328 54.8024 43.642 54.7367 43.7734 54.7367C44.2332 54.6053 45.4158 54.5396 45.7443 54.0797Z" fill="#4F4F4F"/>
</g>
<rect x="4.5" y="4.5" width="123" height="123" stroke="#0A74A6"/>
<rect x="0.5" y="0.5" width="7" height="7" fill="white" stroke="#0A74A6"/>
<rect x="0.5" y="124.5" width="7" height="7" fill="white" stroke="#0A74A6"/>
<rect x="124.5" y="0.5" width="7" height="7" fill="white" stroke="#0A74A6"/>
<rect x="124.5" y="124.5" width="7" height="7" fill="white" stroke="#0A74A6"/>
<defs>
<clipPath id="clip0_802_2295">
<rect x="4" y="4" width="124" height="124" fill="white"/>
</clipPath>
</defs>
</svg>
