<svg width="132" height="132" viewBox="0 0 132 132" fill="none" xmlns="http://www.w3.org/2000/svg">
<g clip-path="url(#clip0_802_2585)">
<rect x="4" y="4" width="124" height="124" fill="#DBDBDB"/>
<g clip-path="url(#clip1_802_2585)">
<path d="M40.27 107.141L36.27 120.001L47.94 124.801L39.84 135.621L45.84 144.461H56.39L50.39 103.891C46.8736 104.567 43.4497 105.658 40.19 107.141" fill="#050504"/>
<path d="M47.9498 124.801L36.2698 120.001L40.2698 107.141C31.1298 111.431 25.3198 119.021 25.3198 131.491C25.3198 132.881 25.3898 143.101 25.5298 144.491H45.8798L39.8798 135.651L47.9498 124.801Z" fill="#050504"/>
<path d="M109.38 131.491C109.38 119.101 103.65 111.491 94.6096 107.231L98.5396 120.001L86.8696 124.801L94.9596 135.621L88.9596 144.461H109.16C109.27 143.101 109.38 132.911 109.38 131.491Z" fill="#050504"/>
<path d="M86.8699 124.801L98.5399 120.001L94.6099 107.231C91.3449 105.719 87.9103 104.604 84.3799 103.911L78.3799 144.451H88.9699L94.9699 135.611L86.8699 124.801Z" fill="#050504"/>
<path d="M40.27 107.141L36.27 120.001L47.94 124.801L39.84 135.621L45.84 144.461H56.39L50.39 103.891C46.9009 104.573 43.5042 105.664 40.27 107.141V107.141Z" stroke="#939598" stroke-width="2" stroke-miterlimit="10"/>
<path d="M40.2698 107.141C31.1298 111.431 25.3198 119.021 25.3198 131.491C25.3198 132.881 25.3898 143.101 25.5298 144.491H45.8798" stroke="#939598" stroke-width="2" stroke-miterlimit="10"/>
<path d="M109.38 131.491C109.38 119.101 103.65 111.491 94.6096 107.231L98.5396 120.001L86.8696 124.801L94.9596 135.621L88.9596 144.461H109.16C109.27 143.101 109.38 132.911 109.38 131.491Z" stroke="#939598" stroke-width="2" stroke-miterlimit="10"/>
<path d="M86.8699 124.801L98.5399 120.001L94.6099 107.231C91.3449 105.719 87.9103 104.604 84.3799 103.911L78.3799 144.451H88.9699L94.9699 135.611L86.8699 124.801Z" stroke="#939598" stroke-width="2" stroke-miterlimit="10"/>
<path d="M67.3299 115.121C70.7229 115.081 74.0068 113.917 76.667 111.81C79.3272 109.704 81.2134 106.774 82.0299 103.481C72.2838 102.027 62.376 102.027 52.6299 103.481C53.4464 106.774 55.3326 109.704 57.9928 111.81C60.653 113.917 63.9369 115.081 67.3299 115.121Z" fill="white" stroke="#4F4F4F" stroke-width="2" stroke-miterlimit="10"/>
<path d="M82.0297 103.481C81.2513 106.795 79.3756 109.749 76.7072 111.863C74.0388 113.978 70.7342 115.128 67.3297 115.128C63.9252 115.128 60.6206 113.978 57.9521 111.863C55.2837 109.749 53.4081 106.795 52.6297 103.481C51.8797 103.601 51.1497 103.741 50.4297 103.891L56.4297 144.461H78.4297L84.4297 103.921C83.6097 103.761 82.8297 103.611 82.0297 103.481Z" fill="#969696" stroke="#969696" stroke-width="2" stroke-miterlimit="10"/>
<path d="M77.5797 104.771L77.6297 96.2608V94.1908C71.8497 96.7408 62.5097 97.6908 57.9497 98.0208V104.311" fill="white"/>
<path d="M77.5797 104.771L77.6297 96.2608V94.1908C71.8497 96.7408 62.5097 97.6908 57.9497 98.0208V104.311" stroke="#4F4F4F" stroke-width="2" stroke-miterlimit="10"/>
</g>
<path d="M88.0614 38.7416C86.2363 37.7276 84.4788 34.7534 82.6537 33.4015C80.0851 31.4412 77.2461 30.0893 74.3395 29.143C63.9974 25.8308 52.033 29.6838 44.665 39.6203C53.7228 34.0099 63.9974 33.7395 66.7012 33.4691C66.7688 33.4691 66.7688 33.4691 66.8364 33.4691L66.904 33.3339C66.904 33.3339 66.904 33.4015 67.1068 33.4691C67.3095 33.4691 67.3771 33.4691 67.3771 33.4691L67.6475 33.2663C70.0134 33.4015 79.2739 33.8071 88.0614 38.7416Z" fill="#6D6E71"/>
<path d="M85.4929 37.525C71.9738 31.509 58.3195 31.6442 44.9356 38.201C36.2158 42.3919 28.7127 49.8274 31.6193 62.7382C31.6193 62.7382 32.2276 66.1855 34.999 69.2949C34.999 65.78 37.9732 64.9012 38.7168 64.6984L38.6492 64.4956C38.6492 64.4956 38.0408 61.7242 38.4464 58.0065C38.7844 55.0999 39.6631 51.5849 41.9614 48.4079C40.3391 47.2588 38.9196 45.8393 37.8381 43.9466C37.8381 43.9466 44.6652 45.2985 46.5579 40.702C48.4506 36.1055 58.4547 30.3599 65.6874 38.8093C65.6874 38.8093 68.3236 38.7417 70.6219 39.1473C95.3619 41.9187 93.5368 62.1974 93.1988 64.3605C93.1988 64.4956 93.1988 64.5632 93.1988 64.5632L93.1312 64.766C93.4692 64.8336 96.849 65.5772 96.9165 69.2273C99.5528 66.1855 100.161 62.8058 100.161 62.8058C103.271 49.1515 94.8211 41.6484 85.4929 37.525Z" fill="#B2B2B2"/>
<path d="M86.3717 37.1869C80.3557 34.5507 74.0017 32.9284 67.445 32.7256C60.9558 32.5904 54.5342 33.8071 48.5182 36.173C39.9336 39.5528 31.2813 45.366 30.1322 55.2349C29.5914 60.3722 30.673 65.7122 34.0528 69.6328C34.3231 69.9708 35.9454 69.4976 35.9454 69.0244C35.9454 67.8077 36.351 66.591 37.2973 65.7798C37.5677 65.577 37.8381 65.3743 38.1761 65.2391C38.5141 65.1039 38.3789 65.1715 38.7168 65.0363C38.9196 64.9687 39.6632 64.7659 39.5956 64.4279C39.0548 62.2649 39.1224 59.899 39.3252 57.736C39.6632 54.3562 40.8799 51.044 42.7726 48.2726C42.7726 48.205 42.7726 48.1374 42.705 48.0698C41.0151 46.8531 39.6632 45.4336 38.5817 43.6761C37.9733 43.8789 37.3649 44.0817 36.8242 44.3521C38.7168 44.7576 40.8123 44.6224 42.6374 44.1493C44.0569 43.7437 45.4764 43.0677 46.4903 41.9186C47.3015 40.9047 47.6395 39.688 48.4506 38.674C50.2757 36.511 53.0471 34.9563 55.9537 34.8887C57.6436 34.8211 59.4011 35.2267 60.8882 36.1054C61.7669 36.5786 62.5105 37.1193 63.254 37.7953C63.8624 38.336 64.3356 39.2148 65.1467 39.2148C71.8387 39.2824 79.2066 40.7695 84.6142 45.0956C88.1968 47.9346 90.495 51.9227 91.5765 56.3841C91.9821 58.1415 92.1849 60.0342 92.2525 61.8593C92.2525 62.8732 92.2525 64.0899 92.0497 64.9687C92.0497 65.1039 92.1173 65.1715 92.1849 65.1715C94.348 65.577 95.6999 67.3345 95.8351 69.4976C95.8351 69.9708 97.525 69.3624 97.7277 69.1596C101.175 65.1039 102.257 59.4259 101.513 54.1534C100.77 49.0161 97.7953 44.7576 93.7396 41.5806C91.5766 39.7556 89.0079 38.336 86.3717 37.1869C85.9661 36.9841 85.493 37.1193 85.0874 37.2545C85.0198 37.2545 84.2086 37.6601 84.479 37.8629C88.9403 39.8907 93.334 42.5946 96.2406 46.5827C99.5528 51.1116 100.364 56.6544 99.35 62.0621C98.8093 64.6983 97.7277 67.1317 95.9703 69.1596C96.5786 69.0244 97.187 68.9568 97.8629 68.8216C97.7953 66.4558 96.173 64.6983 93.8748 64.2251C93.9424 64.2927 94.01 64.3603 94.01 64.4279C94.2804 63.2788 94.2804 61.9269 94.2128 60.7778C94.1452 58.6147 93.8072 56.4516 93.1988 54.3562C91.3738 48.205 86.8449 43.5409 80.9641 41.0399C78.5982 40.0259 76.0972 39.35 73.5285 38.9444C71.0275 38.5388 68.4589 38.2009 65.9578 38.2685C66.093 38.2685 66.2958 38.336 66.431 38.336C64.4707 36.1054 62.0373 34.4831 59.0631 34.0775C56.5621 33.7396 53.9258 34.2127 51.6276 35.1591C49.6673 35.9702 47.7746 37.2545 46.4903 38.9444C45.882 39.7556 45.544 40.5667 45.0708 41.4454C44.5301 42.3242 43.6513 43.0001 42.6374 43.3381C41.3531 43.7437 39.6632 43.6761 38.4465 43.4733C38.2437 43.4057 36.4186 43.6761 36.689 44.1493C37.2297 45.028 37.8381 45.9067 38.5817 46.6503C38.9196 47.0559 39.3252 47.3938 39.7308 47.7318C40.0688 48.0022 40.7447 48.3402 40.7447 48.7458C40.7447 48.9485 40.3391 49.3541 40.2715 49.5569C40.1364 49.8273 39.9336 50.0977 39.7984 50.3681C39.528 50.9088 39.2576 51.4496 39.0548 51.9903C38.5817 53.0719 38.2437 54.1534 37.9733 55.3025C37.2297 58.3443 36.9594 61.8593 37.7029 64.9687C37.9733 64.7659 38.3113 64.5631 38.5817 64.3603C36.013 64.9687 34.0528 66.7938 34.0528 69.4976C34.6611 69.2948 35.3371 69.092 35.9454 68.8892C33.1064 65.6446 32.0249 61.4537 32.0249 57.1952C31.9573 52.8691 33.3768 48.6782 36.1482 45.2984C38.7844 42.0538 42.367 39.7556 46.0848 37.9981C51.7628 35.3618 57.8464 33.7396 64.0652 33.5368C71.0951 33.334 78.0574 35.0239 84.479 37.7953C84.8846 37.9981 85.3578 37.8629 85.7633 37.7277C85.8985 37.7277 86.7097 37.3221 86.3717 37.1869Z" fill="#939598"/>
<path d="M67.4446 98.6311C83.0867 98.6311 95.7671 85.9507 95.7671 70.3086C95.7671 54.6665 83.0867 41.9861 67.4446 41.9861C51.8025 41.9861 39.1221 54.6665 39.1221 70.3086C39.1221 85.9507 51.8025 98.6311 67.4446 98.6311Z" fill="#E4E4E4" stroke="white" stroke-miterlimit="10"/>
<path d="M97.322 65.0362C95.2266 52.5986 84.952 42.6621 72.5145 40.837C71.0274 40.6342 69.5403 40.499 68.0532 40.499C55.6832 40.5666 43.9892 47.7993 39.3251 59.4258C34.5934 71.255 38.1083 85.0445 47.8421 93.1559C57.3731 101.132 71.2302 102.079 82.113 96.1977C93.1987 90.1817 99.4175 77.5414 97.322 65.0362ZM40.339 65.239C42.2317 54.0857 51.1543 44.4872 62.4427 42.5269C63.9298 42.2565 65.4169 42.1889 66.904 42.1213C78.3953 42.1889 88.9402 49.4892 93.1311 60.2369C97.322 71.0522 94.3478 83.6926 85.6956 91.4661C81.4371 95.319 76.0294 97.7524 70.3514 98.2256C64.5382 98.6988 58.6574 97.3469 53.6553 94.3051C43.7188 88.3567 38.3787 76.6626 40.339 65.239ZM66.904 41.2426C68.5263 41.2426 70.1486 41.3778 71.7033 41.7157C70.4866 41.5806 69.2699 41.4454 68.1208 41.4454C60.888 41.513 53.9257 44.0816 48.5181 48.5429C52.3034 45.0279 57.0351 42.5269 62.3075 41.6481C63.8622 41.3778 65.3493 41.2426 66.904 41.2426Z" fill="#4F4F4F"/>
<g opacity="0.3">
<path opacity="0.3" d="M78.6654 46.177C84.411 51.1115 88.0612 58.4794 88.0612 66.6584C88.0612 81.5971 75.9616 93.6967 61.023 93.6967C57.508 93.6967 54.1282 93.0207 51.0864 91.804C55.8181 95.8597 61.9693 98.3608 68.7289 98.3608C83.6675 98.3608 95.7671 86.2612 95.7671 71.3225C95.6995 59.8989 88.6695 50.1651 78.6654 46.177Z" fill="#828282"/>
</g>
<path d="M75.3535 77.2711C75.4211 76.5952 75.1507 75.9192 74.8127 75.3108C74.1368 74.0265 73.7312 72.945 72.2441 71.9311C71.3654 71.3227 69.9459 70.9171 68.8643 70.9171C64.6058 70.8495 62.9159 73.4858 62.1724 77.4063L75.3535 77.2711Z" fill="#383838"/>
<path d="M76.3676 77.0682C76.4352 75.9191 75.8269 74.9728 75.3537 73.9588C74.8805 73.0801 74.3398 72.3366 73.5962 71.7282C71.9739 70.4439 69.6757 70.1059 67.6478 70.4439C65.9579 70.7143 64.3356 71.4578 63.1865 72.8097C62.105 74.094 61.5642 75.8515 61.2262 77.4738C61.1586 77.8118 61.5642 77.8794 61.8346 77.8794C65.6875 77.8118 69.4729 77.8118 73.3258 77.7442C73.8666 77.7442 74.4074 77.7442 74.9481 77.7442C75.3537 77.7442 76.0297 77.609 76.2324 77.2034C76.5028 76.7979 76.0297 76.6627 75.6917 76.7303C71.8387 76.7979 68.0534 76.7979 64.2004 76.8655C63.6597 76.8655 63.1189 76.8655 62.5781 76.8655C62.7809 77.0007 62.9837 77.1358 63.1865 77.271C63.6597 74.9052 64.606 71.931 67.3098 71.5254C68.9997 71.255 70.7572 71.7282 72.0415 72.8773C72.6499 73.4181 73.0555 74.0264 73.461 74.77C73.8666 75.5811 74.475 76.5275 74.4074 77.4062C74.3398 78.0822 76.3 77.6766 76.3676 77.0682Z" fill="#383838"/>
<path d="M74.1371 74.2292C74.0695 75.5136 71.1629 74.1616 68.459 74.094C65.8904 74.0264 64.2005 75.2432 63.3218 74.2968C63.3218 74.2968 65.4172 71.255 68.459 71.0522C72.2444 70.9171 74.1371 74.2292 74.1371 74.2292Z" fill="white"/>
<path d="M73.1906 74.2969C73.1906 74.5673 73.2581 74.2969 73.4609 74.2293C73.5285 74.1617 73.5961 74.1617 73.6637 74.1617H73.5961C73.6637 74.1617 73.5961 74.1617 73.5285 74.1617C73.123 74.1617 72.7174 74.0265 72.3118 73.9589C71.2303 73.7561 70.1488 73.5533 69.0672 73.4857C67.9857 73.4181 66.9042 73.6209 65.8226 73.8237C65.4171 73.8913 65.1467 74.0265 64.7411 74.0265C64.6059 74.0265 64.4707 74.0265 64.3355 73.8913C64.3355 74.0265 64.3355 74.1617 64.3355 74.3645C64.4707 74.1617 64.5383 74.0941 64.6735 73.9589C65.0115 73.5533 65.3495 73.2153 65.755 72.8774C66.7014 72.0662 67.8505 71.5255 69.1348 71.7282C70.8247 71.931 72.447 73.1477 73.3257 74.6348C73.6637 75.2432 75.5564 74.5673 75.1508 73.8237C74.4073 72.5394 73.123 71.5255 71.771 70.9847C69.0672 69.9032 66.2282 70.7143 64.1327 72.5394C63.5244 73.0126 62.9836 73.6209 62.5781 74.2293C62.5105 74.3645 62.4429 74.5673 62.5781 74.7024C63.3216 75.446 64.4707 75.2432 65.4171 75.108C66.6338 74.8376 67.8505 74.6348 69.1348 74.77C70.3515 74.9052 71.5683 75.2432 72.785 75.3784C73.6637 75.446 75.1508 75.2432 75.286 74.1617C75.2184 73.2153 73.2581 73.5533 73.1906 74.2969Z" fill="#383838"/>
<path d="M52.1014 65.7121C56.4951 67.4696 61.9703 65.6445 64.6066 61.7915C65.1473 60.9804 64.1334 60.372 63.4574 60.3044C62.4435 60.2369 61.4972 60.6424 60.8888 61.4536C60.686 61.724 60.9564 61.3184 60.8888 61.5212C60.8212 61.5888 60.7536 61.724 60.686 61.7915C60.5508 61.9267 60.4156 62.0619 60.2805 62.1971C60.2129 62.2647 60.1453 62.3323 60.0777 62.3999C59.9425 62.5351 60.0777 62.4675 60.1453 62.3323C60.0101 62.4675 59.8073 62.6027 59.6721 62.6703C59.4693 62.8055 59.3341 62.9407 59.1313 63.0083C58.9285 63.1435 59.4693 62.8731 59.1989 62.9407C59.0637 63.0759 58.9961 63.1435 58.861 63.1435C58.6582 63.2111 58.523 63.2787 58.3202 63.3462C57.9146 63.4814 58.3202 63.2787 58.3878 63.3462C58.3202 63.3462 58.1174 63.4138 58.0498 63.4138C57.847 63.4814 57.6442 63.4814 57.509 63.549C57.2387 63.6166 57.5766 63.549 57.6442 63.549C57.509 63.549 57.4414 63.6166 57.3063 63.6166C57.1035 63.6166 56.9007 63.6842 56.6979 63.6842C56.6303 63.6842 56.2923 63.7518 56.5627 63.6842C56.8331 63.6166 56.4951 63.6842 56.4275 63.6842C56.2247 63.6842 56.0219 63.6842 55.8192 63.6166C55.684 63.6166 55.6164 63.6166 55.4812 63.549C55.2108 63.4814 55.5488 63.549 55.5488 63.549C55.5488 63.549 54.3996 63.2111 54.3321 63.1435C53.5209 62.8055 52.169 63.2111 51.5606 63.887C51.0199 64.6982 51.2903 65.3741 52.1014 65.7121Z" fill="#383838"/>
<path d="M81.6403 63.4814C81.5727 63.4814 81.2347 63.6842 81.5051 63.549C81.8431 63.4138 81.4375 63.549 81.3699 63.549C81.1671 63.6166 80.9644 63.6166 80.8292 63.6842C80.5588 63.7518 81.3699 63.6166 80.8968 63.6842C80.8292 63.6842 80.694 63.6842 80.6264 63.6842C80.4912 63.6842 80.0856 63.8194 79.9504 63.7518C80.018 63.8194 80.356 63.7518 80.018 63.7518C79.9504 63.7518 79.8152 63.7518 79.7476 63.7518C79.5448 63.7518 79.3421 63.6842 79.0717 63.6842C79.0041 63.6842 79.0041 63.6842 78.9365 63.6842C78.8013 63.6842 78.8689 63.6842 79.0717 63.6842C79.0717 63.6842 78.8689 63.6166 78.8013 63.6166C78.5985 63.549 78.3957 63.4814 78.1929 63.4138C77.9902 63.3462 77.855 63.2786 77.6522 63.211C77.5846 63.211 77.3142 63.0758 77.5846 63.211C77.517 63.1434 77.4494 63.1434 77.3818 63.0758C77.0438 62.8731 76.6382 62.6703 76.3003 62.4675C76.2327 62.3999 76.0975 62.3323 76.0299 62.2647C76.0299 62.2647 75.7595 61.9943 75.8947 62.1295C76.0299 62.2647 75.7595 61.9943 75.7595 61.9943C75.6919 61.9267 75.6243 61.8591 75.5567 61.7915C75.2863 61.4536 74.9484 61.1156 74.7456 60.7776C74.2048 60.034 72.7853 60.2368 72.1093 60.5748C71.4334 60.9128 70.6222 61.6563 71.163 62.4675C73.7992 66.3204 79.1393 67.1992 83.2626 65.5769C83.9386 65.3065 84.8173 64.4278 84.2089 63.6842C83.6682 62.8731 82.3839 63.1434 81.6403 63.4814Z" fill="#383838"/>
<path d="M72.514 39.4175C70.0805 39.0119 67.3091 39.0795 67.3091 39.0795C59.7384 30.4273 49.1259 36.3081 47.1656 41.0398C45.2054 45.7715 37.9727 44.4195 37.9727 44.4195C39.1894 46.3798 40.6765 47.8669 42.3664 49.016C40.0005 52.3282 39.0542 55.9108 38.7162 58.885C38.4458 62.8055 38.919 65.5769 38.919 65.5769L39.0542 65.4418L42.9747 62.4676C43.7183 57.7359 45.2054 54.0857 47.1656 51.2467C56.291 54.0857 67.3091 50.5031 67.3091 50.5031C67.3767 50.5031 67.3767 50.5031 67.4443 50.5031C71.1621 49.692 74.2715 47.5289 75.1502 44.6899C80.6254 46.2446 87.9258 49.7596 90.6972 58.0062C91.7111 60.9804 93.6038 63.6167 96.3076 65.3742C96.578 63.0759 98.5383 42.2565 72.514 39.4175Z" fill="#9CF1F4"/>
<path d="M71.8383 38.2684C70.0132 37.998 68.1881 37.8628 66.363 37.9304C67.039 38.2684 67.715 38.6739 68.3909 39.0119C66.0927 36.4433 63.0509 34.3478 59.6035 33.7395C56.9673 33.1987 54.1959 33.6043 51.6948 34.6858C49.667 35.5645 47.7743 36.984 46.49 38.7415C45.8816 39.6203 45.6112 40.6342 44.8677 41.4454C44.1241 42.3241 43.0426 42.7973 41.9611 43.0676C40.8795 43.338 39.798 43.4056 38.7165 43.338C38.1081 43.338 37.9729 43.338 37.297 43.2028C36.6886 43.0676 36.3506 43.4732 36.6886 44.014C38.0405 46.177 39.798 48.0021 41.8935 49.4892C41.5555 48.9485 41.2175 48.4753 40.8795 47.9345C37.4998 52.7338 36.3506 58.9526 37.3646 64.6982C37.4998 65.3066 37.9053 65.7121 38.3785 66.0501C38.7165 66.2529 39.5952 66.8613 40.0008 66.5233C40.6767 66.0501 41.3527 65.5094 41.9611 65.0362C42.4342 64.6982 42.975 64.2926 43.4482 63.9547C43.6509 63.8195 43.9889 63.6167 44.1241 63.4139C44.3945 63.0759 44.3945 62.4 44.4621 61.9268C44.5973 61.3184 44.6649 60.7777 44.8677 60.1693C45.1381 59.1554 45.4084 58.0739 45.814 57.0599C46.49 55.3024 47.3687 53.6125 48.4502 52.0578C48.1123 52.0578 47.7743 52.0579 47.4363 52.1254C52.3708 53.6125 57.6432 53.6125 62.7129 52.8014C64.3352 52.531 65.9575 52.193 67.5122 51.7875C68.7289 51.4495 70.0132 51.1791 71.1623 50.6383C73.4606 49.6244 75.6912 47.9345 76.5024 45.5011C76.2996 45.5687 76.0292 45.5687 75.8264 45.6363C78.8682 46.515 81.8424 47.8669 84.2759 49.8948C85.6954 51.1115 86.9121 52.531 87.8584 54.1533C88.94 56.046 89.4807 58.209 90.5623 60.1017C91.8466 62.4 93.7392 64.3602 95.9023 65.8473C96.1727 66.0501 97.6598 66.8613 97.795 66.0501C98.2006 62.9407 97.8626 59.6286 97.0514 56.6543C95.4291 50.6383 91.3058 45.7715 85.9658 42.5945C81.6396 40.161 76.7052 38.8767 71.8383 38.2684C71.2299 38.2008 70.8919 38.5387 71.2299 39.0795C71.5679 39.6879 72.5142 40.3638 73.1902 40.4314C77.1783 40.9046 81.3017 41.7833 84.8166 43.676C87.2501 44.9603 89.3455 46.6502 90.9678 48.8133C93.5365 52.3282 94.8208 56.5192 94.956 60.8453C95.0236 62.062 94.956 63.2787 94.8208 64.4954C95.4291 64.563 96.0375 64.6306 96.7134 64.6982C94.956 63.5491 93.6041 61.7916 92.7253 59.8989C92.2521 58.8174 91.9142 57.6683 91.441 56.6543C90.9678 55.6404 90.4271 54.6265 89.8187 53.7477C87.4529 50.3004 84.0055 47.5965 80.2877 45.7715C78.3951 44.8251 76.5024 44.1492 74.4745 43.5408C74.3393 43.4732 73.8662 43.4732 73.7986 43.676C73.1226 45.7039 71.4327 47.2586 69.54 48.2049C68.2557 48.8809 66.9038 49.2188 65.5519 49.5568C62.2397 50.5032 58.7248 51.0439 55.2774 51.1115C52.4384 51.1791 49.5994 50.9763 46.8279 50.1652C46.5576 50.0976 46.0168 49.8948 45.814 50.2328C43.4482 53.6801 42.1638 57.6683 41.4879 61.724C41.5555 61.5888 41.6231 61.5212 41.6907 61.386C40.3388 62.4 38.9869 63.4139 37.6349 64.4278C38.5137 65.0362 39.3924 65.6446 40.3388 66.2529C39.3248 60.6425 40.4064 54.5589 43.7185 49.8948C44.0565 49.354 43.0426 48.5429 42.7046 48.3401C41.2851 47.3262 40.136 46.0418 39.1896 44.6223C38.9869 44.8927 38.7841 45.1631 38.5813 45.4335C40.136 45.7715 41.8935 45.7715 43.4482 45.4335C44.7325 45.2307 45.9492 44.7575 46.9631 43.9464C47.9771 43.1352 48.315 42.0537 48.9234 41.0398C51.6272 36.7137 58.1164 34.3478 62.8481 36.5109C63.5916 36.8489 64.2676 37.322 64.9435 37.8628C65.8899 38.6739 66.6334 39.9582 67.9177 40.161C68.4585 40.2286 68.9993 40.161 69.54 40.161C70.7568 40.161 71.9059 40.2962 73.1226 40.4314C73.7986 40.499 74.0013 40.161 73.731 39.6203C73.4606 39.0119 72.5818 38.4036 71.8383 38.2684Z" fill="#4F4F4F"/>
<path d="M44.5291 54.2887C41.6225 56.9249 38.8511 59.6963 36.8908 63.0761C34.9306 66.4559 34.525 70.5792 35.7417 74.2293C37.364 79.0962 41.7577 80.1102 45.3403 78.5555C49.4636 76.7304 50.3424 71.12 49.058 66.7938C47.7737 62.4677 45.6783 58.8176 44.5967 54.4915L44.5291 54.2887Z" fill="#189FFB"/>
<path d="M43.7177 54.0859C40.2027 57.3305 36.3498 60.9807 34.7951 65.5772C33.5108 69.4301 33.646 75.1081 36.9582 78.0147C39.5944 80.313 43.7177 80.1778 46.6243 78.4203C49.8689 76.46 50.8828 72.4043 50.5449 68.8217C50.2745 66.2531 49.2605 63.8197 48.3142 61.5214C47.7734 60.2371 47.2327 58.8852 46.6919 57.5333C46.4215 56.8573 46.2187 56.1138 46.016 55.4378C45.8808 54.8971 45.8132 54.2887 45.4752 53.8155C45.0696 53.2748 43.1769 53.9507 43.6501 54.5591C43.9205 54.8971 43.9881 55.6406 44.0557 56.0462C44.1909 56.5194 44.3261 56.9925 44.5289 57.4657C44.9344 58.5472 45.34 59.6963 45.8132 60.7779C46.6919 62.8057 47.5707 64.9012 48.179 66.9967C49.0578 70.1061 48.9226 74.0266 46.7595 76.6628C44.8668 78.9611 41.2843 79.2315 38.986 77.3388C35.9442 74.8377 35.6062 69.8357 36.5526 66.2531C37.8369 61.3862 41.7574 57.6009 45.34 54.3563C45.678 54.0859 45.5428 53.7479 45.1372 53.6803C44.664 53.6127 44.0557 53.8155 43.7177 54.0859Z" fill="#4F4F4F"/>
</g>
<rect x="4.5" y="4.5" width="123" height="123" stroke="#0A74A6"/>
<rect x="0.5" y="0.5" width="7" height="7" fill="white" stroke="#0A74A6"/>
<rect x="0.5" y="124.5" width="7" height="7" fill="white" stroke="#0A74A6"/>
<rect x="124.5" y="0.5" width="7" height="7" fill="white" stroke="#0A74A6"/>
<rect x="124.5" y="124.5" width="7" height="7" fill="white" stroke="#0A74A6"/>
<defs>
<clipPath id="clip0_802_2585">
<rect x="4" y="4" width="124" height="124" fill="white"/>
</clipPath>
<clipPath id="clip1_802_2585">
<rect width="88.6299" height="123.571" fill="white" transform="translate(22 28)"/>
</clipPath>
</defs>
</svg>
