<svg width="132" height="132" viewBox="0 0 132 132" fill="none" xmlns="http://www.w3.org/2000/svg">
<g clip-path="url(#clip0_804_3585)">
<rect x="4" y="4" width="124" height="124" fill="white"/>
<path d="M82.8821 103.214C81.4478 106.314 79.1569 108.94 76.2794 110.781C73.402 112.622 70.0581 113.601 66.6421 113.604C63.2262 113.601 59.8823 112.622 57.0048 110.781C54.1274 108.94 51.8364 106.314 50.4021 103.214C48.5621 103.561 46.7921 103.987 45.0921 104.494L34.1621 143.914H99.1621L88.2321 104.494C86.5054 103.994 84.7221 103.567 82.8821 103.214Z" fill="white" stroke="#222221" stroke-width="0.81" stroke-miterlimit="10"/>
<path d="M24.5918 130.954C24.5918 132.344 24.6618 142.564 24.8018 143.954H34.1618L45.0918 104.534C32.8118 108.174 24.5918 116.104 24.5918 130.954Z" fill="white" stroke="#4F4F4F" stroke-width="2" stroke-miterlimit="10"/>
<path d="M108.701 130.954C108.701 116.104 100.481 108.174 88.2012 104.494L99.1312 143.914H108.491C108.621 142.604 108.701 132.344 108.701 130.954Z" fill="white" stroke="#4F4F4F" stroke-width="2" stroke-miterlimit="10"/>
<path d="M82.8823 103.214C77.5239 102.249 72.0867 101.791 66.6423 101.844C61.198 101.791 55.7608 102.249 50.4023 103.214C51.8383 106.312 54.1301 108.934 57.0076 110.772C59.8851 112.609 63.2281 113.586 66.6423 113.586C70.0566 113.586 73.3996 112.609 76.2771 110.772C79.1546 108.934 81.4464 106.312 82.8823 103.214Z" fill="white" stroke="#4F4F4F" stroke-width="2" stroke-miterlimit="10"/>
<path d="M76.8909 105.234V96.7141V94.6541C71.1109 97.1941 61.7709 98.1441 57.2109 98.4741V104.764" fill="white"/>
<path d="M76.8909 105.234V96.7141V94.6541C71.1109 97.1941 61.7709 98.1441 57.2109 98.4741V104.764" stroke="#505050" stroke-width="2" stroke-miterlimit="10"/>
<path d="M82.8821 103.214C81.4478 106.314 79.1569 108.94 76.2794 110.781C73.402 112.622 70.0581 113.601 66.6421 113.604C63.2262 113.601 59.8823 112.622 57.0048 110.781C54.1274 108.94 51.8364 106.314 50.4021 103.214C48.5621 103.561 46.7921 103.987 45.0921 104.494L34.1621 143.914H99.1621L88.2321 104.494C86.5054 103.994 84.7221 103.567 82.8821 103.214Z" fill="#5DA399" stroke="#5DA399" stroke-width="2" stroke-linecap="round" stroke-linejoin="round"/>
<path d="M62.2457 29.3137C52.8801 30.7654 43.9796 36.2264 37.603 44.729C31.4257 52.9551 28.636 63.8081 29.8316 74.2462C30.0973 76.5274 30.5623 78.8777 31.4922 80.9515C33.5513 85.7904 37.8687 89.3159 42.5183 91.3206C47.1678 93.3253 52.3488 94.0857 57.3969 94.4313C62.9763 94.9152 68.5558 94.9843 74.1353 94.8461C78.8513 94.7078 83.6337 94.2931 88.084 92.634C92.5343 90.975 96.7189 88.0025 98.9772 83.6475C100.97 79.7764 101.368 75.2831 101.568 70.9281C101.701 67.1262 101.767 63.3242 101.169 59.5913C99.8407 50.4666 94.9919 41.8948 87.8847 36.2955C80.0469 30.0741 70.947 28.0003 62.2457 29.3137Z" fill="#EF6461"/>
<path d="M60.9168 28.4151C47.0345 30.6272 34.9456 41.3419 30.2961 55.0981C27.9049 62.1491 27.1742 70.3061 29.1005 77.5644C31.0931 84.8918 37.3368 89.869 43.9127 92.4958C47.6987 94.0166 51.7505 94.777 55.8022 95.1918C59.9869 95.6756 64.1715 95.883 68.4225 95.883C72.6071 95.9522 76.8581 95.883 81.1091 95.4683C84.9616 95.0535 88.8806 94.224 92.3345 92.3576C95.2571 90.8368 97.914 88.6938 99.7074 85.9288C101.833 82.6798 102.63 78.7395 102.896 74.8684C103.493 66.988 103.294 58.9692 100.239 51.6418C94.5264 37.7473 80.5113 27.9312 66.0313 28.0004C64.3043 28.0004 62.5773 28.1386 60.9168 28.4151C60.3854 28.4843 61.581 29.452 61.6474 29.5212C62.1124 29.8668 62.9094 30.4198 63.5737 30.2816C70.2159 29.3138 77.1238 30.2816 83.0354 33.5996C88.7477 36.7795 93.3973 41.964 96.3863 47.9781C97.8476 50.9505 98.9767 54.1995 99.5745 57.5176C100.305 61.5269 100.372 65.6054 100.239 69.6148C100.106 73.3476 99.9067 77.2188 98.5782 80.7442C97.449 83.9241 95.3235 86.62 92.733 88.6247C86.755 93.1871 78.9836 93.8783 71.81 94.0166C67.7583 94.1549 63.7065 94.0857 59.6547 93.8092C55.7358 93.6018 51.8169 93.2562 48.0308 92.4958C44.7761 91.8045 41.5215 90.6985 38.7317 88.763C36.2077 86.9657 34.1486 84.408 32.8866 81.5046C31.4917 78.1174 31.0931 74.1772 31.0931 70.5134C31.0931 66.9188 31.5581 63.2551 32.4216 59.7988C35.8756 46.3881 46.2374 35.2587 59.1234 31.4567C60.6511 31.0419 62.1788 30.6963 63.7065 30.4198C64.2379 30.3507 63.0423 29.3829 62.9759 29.3138C62.3781 28.8299 61.581 28.2769 60.9168 28.4151Z" fill="#4F4F4F"/>
<path d="M67.4266 98.7399C82.7973 98.7399 95.2576 86.2795 95.2576 70.9089C95.2576 55.5383 82.7973 43.078 67.4266 43.078C52.056 43.078 39.5957 55.5383 39.5957 70.9089C39.5957 86.2795 52.056 98.7399 67.4266 98.7399Z" fill="#E4E4E4"/>
<path d="M95.9882 65.7282C93.9291 53.5065 83.8329 43.7424 71.6112 41.949C70.1499 41.7497 68.6886 41.6169 67.2273 41.6169C55.072 41.6833 43.581 48.7905 38.9978 60.2151C34.3483 71.7726 37.8022 85.3228 47.367 93.2934C56.7326 101.131 70.3492 102.061 81.0431 96.2824C91.9364 90.4373 98.0473 78.0163 95.9882 65.7282ZM39.9277 65.9274C41.7876 54.9678 50.5553 45.5358 61.6478 43.6096C63.1091 43.3439 64.5704 43.2774 66.0317 43.211C77.3899 43.2774 87.7518 50.451 91.87 61.0122C95.9882 71.6398 93.0656 84.0607 84.5635 91.6993C80.3789 95.4854 75.0651 97.8766 69.4857 98.3415C63.7733 98.8065 57.9946 97.478 53.0794 94.489C43.3153 88.6439 38.0679 77.1528 39.9277 65.9274ZM66.0981 42.3475C67.6923 42.3475 69.2864 42.4804 70.8141 42.8125C69.6185 42.6796 68.4229 42.5468 67.2937 42.5468C60.1865 42.6132 53.345 45.1373 48.0313 49.5211C51.8173 46.0672 56.4669 43.6096 61.6478 42.7461C63.1091 42.4804 64.5704 42.3475 66.0981 42.3475Z" fill="#4F4F4F"/>
<g opacity="0.3">
<path opacity="0.3" d="M78.3874 47.1964C84.0333 52.0452 87.6201 59.2852 87.6201 67.3223C87.6201 82.0016 75.7305 93.8912 61.0512 93.8912C57.5972 93.8912 54.2761 93.227 51.2871 92.0314C55.9367 96.0167 61.9811 98.4744 68.6233 98.4744C83.3027 98.4744 95.1922 86.5848 95.1922 71.9054C95.1922 60.6801 88.2179 51.1153 78.3874 47.1964Z" fill="#828282"/>
</g>
<path d="M54.6065 50.5838C53.0788 50.3845 51.4847 50.7831 50.2891 51.7794C49.0935 52.7757 48.4293 54.1706 48.2964 55.6983C48.23 56.2297 48.6285 56.8939 48.8942 57.2925C49.0271 57.4917 49.5584 57.9567 49.6249 57.4253C49.8905 54.5027 52.6803 52.4436 55.5364 52.7757C56.0014 52.8422 55.6693 51.9123 55.6029 51.7794C55.47 51.5137 55.3372 51.1816 55.1379 50.9159C54.9386 50.8495 54.8058 50.6502 54.6065 50.5838Z" fill="#383838"/>
<path d="M77.9886 54.0378C77.7229 54.1042 78.055 54.0378 78.055 54.0378C78.1214 54.0378 78.1878 54.0378 78.3207 54.0378C78.3871 54.0378 78.4535 54.0378 78.5864 54.0378C78.7857 54.0378 78.52 54.0378 78.6528 54.0378C78.9849 54.1042 79.317 54.1042 79.6491 54.237C79.5163 54.1706 79.7156 54.237 79.7156 54.237C79.782 54.237 79.8484 54.3034 79.9148 54.3034C80.1141 54.3699 80.2469 54.4363 80.3798 54.5691C80.7119 54.7684 80.8447 54.8348 81.1104 55.1005C82.0403 55.8976 82.7046 57.0932 82.8374 58.3552C82.9038 58.953 83.5681 59.0194 84.033 58.953C84.498 58.8202 85.295 58.4216 85.2286 57.8902C85.0958 56.2961 84.3651 54.7684 83.0367 53.7721C81.5754 52.5765 79.7156 52.2443 77.9222 52.4436C77.4572 52.51 76.7266 52.975 76.7266 53.5064C76.793 54.0378 77.59 54.1042 77.9886 54.0378Z" fill="#383838"/>
<path d="M61.1826 68.4515C61.7804 64.8647 58.3264 61.8093 54.8725 62.0086C51.3521 62.2078 48.3631 65.1968 48.031 68.6508C47.9646 69.6471 49.8908 69.3814 49.9572 68.5179C50.2229 66.1267 52.0827 63.5363 54.6732 63.4034C57.3301 63.2706 59.6549 66.0603 59.1899 68.6508C59.0571 69.5807 61.0497 69.315 61.1826 68.4515Z" fill="#383838"/>
<path d="M73.2726 67.9201C73.1398 65.3961 75.3981 63.0713 77.9222 63.4698C80.5791 63.8684 82.4389 66.7245 82.4389 69.315C82.4389 70.3113 84.3651 69.9792 84.3651 69.1822C84.3651 66.5253 82.9038 63.9348 80.5791 62.7392C77.9886 61.4108 74.9332 62.1414 72.9405 64.1341C71.9442 65.1968 71.2799 66.5917 71.3464 68.053C71.3464 68.5179 71.8113 68.7172 72.2099 68.6508C72.542 68.6508 73.2726 68.3851 73.2726 67.9201Z" fill="#383838"/>
<path d="M59.7891 79.4774C59.7891 80.1416 60.1876 80.7395 60.5861 81.3373C61.4496 82.5329 62.2467 83.662 63.6416 84.127C64.6379 84.4591 65.7006 84.4591 66.7634 84.3263C70.8816 83.7949 72.3429 81.3373 72.5421 77.4183L59.7891 79.4774Z" fill="white"/>
<path d="M58.7918 79.7432C58.8582 80.806 59.6552 81.6694 60.253 82.4665C60.8508 83.1972 61.4486 83.8614 62.3121 84.3263C64.2384 85.2563 66.696 84.9906 68.6887 84.3263C70.15 83.8614 71.4784 83.0643 72.2755 81.7359C73.139 80.4074 73.4047 78.8133 73.4711 77.2856C73.4711 76.887 72.9397 76.887 72.674 76.9535C68.9544 77.5513 65.2347 78.1491 61.5151 78.7469C60.9837 78.8133 60.4523 78.9461 59.9209 79.0126C59.5888 79.079 58.8582 79.2118 58.7918 79.6104C58.7253 80.0089 59.3896 80.0089 59.5888 79.9425C63.3085 79.3447 67.0281 78.7469 70.7478 78.1491C71.2792 78.0826 71.8105 77.9498 72.3419 77.8834C72.0762 77.7505 71.8105 77.6177 71.5448 77.5513C71.412 79.876 70.8142 82.5329 68.423 83.4628C66.9617 83.9942 65.1019 84.1271 63.707 83.33C62.9764 82.9315 62.445 82.2672 61.9136 81.603C61.3822 80.8724 60.7844 80.1417 60.718 79.2118C60.6516 78.6804 58.7253 79.079 58.7918 79.7432Z" fill="#383838"/>
<path d="M62.2461 83.0642C62.5118 82.3336 63.2424 81.8022 63.9731 81.4701C66.165 80.4073 68.8883 80.4737 71.0803 81.6029C71.0803 81.6029 70.2168 83.9277 67.3606 84.4591C63.7738 85.1897 62.2461 83.0642 62.2461 83.0642Z" fill="#EF6461"/>
<path d="M63.1761 83.0642C63.641 81.8686 65.1023 81.47 66.2979 81.2708C67.6928 81.0715 69.0877 81.3372 70.3497 82.0014C70.2833 81.8686 70.2168 81.7357 70.1504 81.6029C70.1504 81.6029 70.2168 81.4036 70.1504 81.6029C70.084 81.6693 70.084 81.8021 70.0176 81.8686C69.8183 82.2007 69.6855 82.3999 69.4862 82.5992C68.7555 83.3963 67.892 83.7948 66.8293 83.9277C65.5008 84.0605 63.9731 83.662 63.2425 82.5992C62.844 82.0014 60.9841 82.6656 61.4491 83.3963C62.1133 84.3926 63.5082 84.924 64.6374 85.0568C66.9621 85.389 69.6855 84.6583 71.2132 82.8649C71.6117 82.4664 71.8774 81.935 72.0767 81.4036C72.1431 81.2708 72.0102 81.0715 71.8774 81.0051C70.1504 80.1416 68.1577 79.8095 66.2979 80.1416C64.5709 80.4073 62.1797 81.1379 61.4491 82.9313C60.9841 83.8612 62.9104 83.7284 63.1761 83.0642Z" fill="#383838"/>
<path d="M40.925 64.0676C40.46 65.4625 41.6556 66.7909 42.3199 67.9865C43.1169 69.315 43.9804 70.6434 44.7775 71.9718C46.0395 74.0309 47.5672 75.8243 50.1577 76.1564C51.5526 76.3557 53.0803 76.2893 54.4751 76.2229C55.9364 76.1564 57.3977 75.9572 58.7926 75.5586C61.3166 74.7616 63.3093 73.2339 64.4385 70.8427C65.7005 68.1193 65.7669 64.9311 67.2947 62.2742C67.4939 62.0085 66.9625 61.9421 66.8297 61.9421C64.7042 61.8092 62.6451 61.2779 60.586 60.8793C58.5933 60.4808 56.5342 60.3479 54.5416 60.4808C50.357 60.6801 46.2388 61.7428 42.2534 62.872C41.9878 62.9384 40.7922 63.2705 40.925 63.7355C41.0578 64.2004 42.2534 63.8683 42.5191 63.8019C46.1724 62.8056 49.892 61.8092 53.6781 61.6764C57.5306 61.5435 61.1838 62.872 65.0363 63.1377C64.9035 63.0048 64.7042 62.9384 64.5713 62.8056C63.0436 65.3296 62.9772 68.3186 61.848 71.0419C61.3166 72.2375 60.6524 73.3667 59.5897 74.1638C58.5269 74.9608 57.1985 75.0273 55.87 75.0937C54.4087 75.1601 52.6153 75.293 51.2205 74.7616C50.0249 74.2302 49.0949 73.2339 48.3643 72.1711C47.4344 70.8427 46.7037 69.4478 45.8402 68.1193C45.3753 67.3887 44.9103 66.6581 44.4454 65.861C44.0468 65.1968 43.5819 64.4661 43.8476 63.6691C44.0468 63.1377 42.9177 63.3369 42.7184 63.4034C42.187 63.3369 41.0578 63.5362 40.925 64.0676Z" fill="#189FFB"/>
<path d="M88.0856 62.0084C88.6834 62.9384 87.7534 64.4661 87.4213 65.396C86.9564 66.7244 86.425 68.0529 85.96 69.4477C85.3622 71.1083 84.6316 73.0345 82.6389 73.3002C80.3141 73.6323 77.5908 74.0309 75.3989 73.101C73.4726 72.3039 72.0778 70.6433 71.0814 68.8499C69.753 66.5916 68.9559 64.0675 67.1625 62.0749C66.6312 62.5398 66.1662 63.0048 65.6348 63.5362C69.4209 62.8719 72.9413 61.145 76.7938 60.8793C80.6463 60.6136 84.5652 61.2114 88.3512 61.8092C89.0155 61.942 89.879 61.8092 90.4103 61.2778C90.8089 60.8793 90.7424 60.2815 90.1446 60.1486C86.0265 59.4844 81.9083 58.8866 77.7901 59.0859C75.7974 59.1523 73.8048 59.4844 71.9449 60.0822C69.9523 60.68 68.0924 61.4106 66.0334 61.8092C65.5684 61.8756 63.8414 62.4734 64.5056 63.2705C66.299 65.3296 67.1625 67.92 68.5574 70.2448C69.8858 72.4367 71.7457 74.2301 74.2033 74.9608C76.993 75.8243 80.3141 75.4922 83.1703 74.8944C85.8936 74.363 87.5542 72.5696 88.5505 70.112C89.2147 68.5178 89.7461 66.8573 90.3439 65.2631C90.8753 63.8683 91.6724 62.3406 90.8089 60.8793C90.2111 59.9494 87.4213 60.8793 88.0856 62.0084Z" fill="#189FFB"/>
<path d="M56.069 35.8382C52.8143 38.2959 49.6924 41.0856 46.8363 44.0082C46.637 44.2075 46.8363 44.4067 46.9691 44.5396C48.0319 45.6023 49.9581 45.5359 51.2201 44.8717C52.5486 44.2075 53.7442 43.0783 55.0062 42.1484C57.5967 40.2221 60.2536 38.2959 62.844 36.3696C61.9141 36.0375 60.9842 35.7718 60.0543 35.4397C56.2018 38.628 52.3493 41.8163 48.4968 45.0709C48.0319 45.4695 48.4304 45.8016 48.8953 46.0009C49.4931 46.2665 50.4231 46.333 51.0873 46.0673C55.9361 43.9418 60.7849 41.4177 65.4345 38.628C64.5046 38.2959 63.5747 38.0302 62.6448 37.6981C59.4565 40.0893 56.2018 42.4805 53.0135 44.8717C52.4157 45.3366 53.08 45.7352 53.5449 45.868C54.2091 46.0673 55.2055 46.1337 55.8033 45.7352C59.5229 43.5432 63.2426 41.2849 66.9622 39.0929C66.0323 38.7608 65.1024 38.4951 64.1725 38.163C61.6484 40.2221 58.9915 42.0819 56.2018 43.7425C57.1317 44.0746 58.0616 44.3403 58.9915 44.6724C61.9141 42.6797 64.9031 40.8863 68.025 39.2922C67.0286 39.0265 66.0323 38.8272 65.036 38.5616C63.309 40.0893 61.3827 41.4841 59.3901 42.6797C60.3864 42.9454 61.3827 43.1447 62.3791 43.4104C64.2389 41.617 66.298 40.1557 68.5563 38.8937C67.6264 38.5616 66.6965 38.2959 65.7666 37.9638C61.8477 41.152 57.5967 44.0082 53.1464 46.3994C54.0763 46.7315 55.0062 46.9972 55.9361 47.3293C57.6631 46.0009 59.4565 44.8053 61.3827 43.8089C60.4528 43.4768 59.5229 43.2111 58.593 42.879C56.9989 43.8089 55.4047 44.7388 53.8106 45.6023C54.7405 45.9344 55.6704 46.2001 56.6003 46.5322C60.1871 43.9418 64.0396 41.8163 68.2242 40.2221C67.3607 39.89 66.4973 39.5579 65.7002 39.2258C62.5119 41.8827 58.9251 44.141 55.139 45.868C56.0025 46.2001 56.866 46.5322 57.6631 46.8643C60.3864 44.7388 63.3754 43.0119 66.6301 41.7498C65.7002 41.4841 64.8367 41.152 63.9068 40.8863C61.7149 43.4104 59.058 45.4695 56.0025 46.8643C56.866 47.1965 57.7295 47.5286 58.5266 47.8607C62.2462 45.5359 66.0987 43.344 70.0841 41.3513C69.1541 41.0192 68.2242 40.7535 67.2943 40.4214C64.571 42.5469 61.6484 44.3403 58.5266 45.8016C59.3901 46.1337 60.2536 46.4658 61.0506 46.7979C64.1061 44.141 67.4936 41.8827 71.2132 40.2221C70.2833 39.9564 69.4198 39.6243 68.4899 39.3586C65.833 42.3476 62.844 44.8717 59.3901 46.8643C60.32 47.1965 61.2499 47.4621 62.1798 47.7943C65.3681 45.2038 68.8885 43.0119 72.6745 41.4177C71.7446 41.152 70.8811 40.8199 69.9512 40.5542C66.6965 43.4768 63.1097 46.0673 59.2572 48.1264C60.1871 48.4585 61.1171 48.7242 62.047 49.0563C66.8958 44.9381 72.0767 41.2185 77.5234 37.9638C76.5934 37.6316 75.6635 37.366 74.7336 37.0338C69.752 40.6207 64.6374 43.8753 59.2572 46.8643C60.2536 47.13 61.2499 47.3293 62.2462 47.595C63.6411 46.2665 65.2352 45.2702 67.0286 44.7388C66.298 44.3403 65.5009 43.9418 64.7703 43.6097C61.7148 44.8053 58.5266 45.7352 55.3383 46.4658C55.139 46.5987 54.6077 46.6651 54.6077 47.0636C54.6077 47.3957 55.139 47.6614 55.4047 47.7278C61.7149 49.5212 68.2907 50.1855 74.8 49.5877C75.1322 49.5877 75.9956 49.5212 76.0621 48.9899C76.0621 48.5249 75.1986 48.2592 74.8665 48.2592C70.0841 47.595 65.3017 47.3957 60.5192 47.6614C61.1171 48.0599 61.7148 48.4585 62.3126 48.7906C65.6338 46.9972 69.4198 45.9344 73.2059 46.0009C72.8738 45.6023 72.4753 45.1374 72.1432 44.7388C68.4235 46.0673 64.6374 47.4621 60.9178 48.7906C60.32 48.9899 60.32 49.4548 60.8514 49.7869C61.5156 50.1855 62.4455 50.119 63.1761 49.9198C68.4235 48.3921 73.538 46.6651 78.6525 44.7388C79.0511 44.606 79.3168 44.2739 78.9846 43.8753C78.5197 43.4768 77.7226 43.4104 77.1248 43.4104C73.1395 43.4768 69.2206 44.2075 65.5009 45.5359C66.3644 45.868 67.2279 46.2001 68.025 46.5322C70.549 44.9381 73.2723 43.6761 76.1285 43.0119C75.3314 42.6797 74.5344 42.3476 73.7373 42.0819C70.8811 44.6724 67.56 46.7315 63.9732 48.0599C64.9031 48.3256 65.7666 48.6577 66.6965 48.9234C69.1541 46.2001 71.5454 43.4104 74.003 40.6871C74.4679 40.1557 73.2059 39.8236 72.8738 39.7572C72.2096 39.6243 71.2797 39.6243 70.8147 40.0893C67.9585 43.0783 65.1024 46.0673 62.2462 49.1227C61.8477 49.5877 62.9105 49.9862 63.1761 49.9862C63.7739 50.119 64.7039 50.2519 65.2352 49.8533C68.4899 47.4621 71.811 45.0709 75.0657 42.6797C74.1358 42.3476 73.2059 42.0819 72.276 41.7498C68.9549 44.2739 65.5673 46.7315 62.2462 49.2555C63.1761 49.5877 64.1061 49.8533 65.036 50.1855C67.0951 48.4585 69.4863 47.13 72.1432 46.4658C71.4125 46.0673 70.6819 45.7352 69.9512 45.3366C68.2907 46.7315 66.5637 47.9271 64.7039 48.9899C65.6338 49.322 66.5637 49.5877 67.4936 49.9198C70.4826 47.6614 73.7373 45.7352 77.2577 44.3403C76.3942 44.0082 75.5307 43.6761 74.7336 43.344C72.5417 44.8717 70.3498 46.3994 68.0914 47.9271C67.4936 48.3256 68.2242 48.7906 68.6228 48.9234C69.287 49.1227 70.2833 49.1891 70.8811 48.7906C72.8738 47.5286 74.8665 46.2665 76.8591 45.0045C75.9292 44.6724 74.9993 44.4067 74.0694 44.0746C71.4125 45.868 68.7556 47.7278 66.1651 49.5212C65.5673 49.9198 66.298 50.3847 66.6965 50.5176C67.3607 50.7168 68.3571 50.7833 68.9549 50.3847C71.4125 48.857 73.8037 47.3293 76.2613 45.8016C75.3314 45.4695 74.4015 45.2038 73.4716 44.8717C71.6118 46.3994 69.5527 47.6614 67.3607 48.5913C68.2242 48.9234 69.0877 49.2555 69.8848 49.5877C71.811 47.9935 74.003 46.6651 76.3278 45.8016C75.3978 45.5359 74.5344 45.2038 73.6044 44.9381C72.5417 46.2001 71.2797 47.2629 69.7519 48.0599C70.6819 48.3921 71.6118 48.6577 72.5417 48.9899C74.5344 47.6614 76.527 46.2665 78.5197 44.9381C77.5898 44.606 76.6599 44.3403 75.73 44.0082C73.9366 45.3366 72.2096 46.6651 70.4162 48.0599C69.8184 48.5249 70.4826 48.9234 70.9475 49.0563C71.6782 49.2556 72.5417 49.322 73.2059 48.9234C74.5344 48.1928 75.8628 47.4621 77.1912 46.7315C76.2613 46.3994 75.3314 46.1337 74.4015 45.8016C72.276 47.3293 70.1505 48.7906 67.9585 50.3183C68.8885 50.6504 69.8184 50.9161 70.7483 51.2482C73.0066 49.3884 75.5307 47.7943 78.1876 46.5987C77.2577 46.333 76.3942 46.0009 75.4643 45.7352C74.2022 47.3293 72.5417 48.5913 70.549 49.1891C71.4125 49.5212 72.276 49.8533 73.0731 50.1855C75.8628 48.5249 78.719 46.7979 81.5087 45.1374C80.5124 44.8717 79.516 44.6724 78.5197 44.4067C76.8591 46.333 74.8665 47.8607 72.5417 48.9234C73.4716 49.2555 74.4015 49.5212 75.3314 49.8533C77.789 47.7278 80.5124 45.868 83.5014 44.5396C82.6379 44.2075 81.7744 43.8753 80.9773 43.5432C78.5197 45.4695 75.8628 47.1965 73.0731 48.6577C74.003 48.9899 74.9329 49.2555 75.8628 49.5877C78.3204 47.9935 80.9109 46.5322 83.6342 45.4031C82.7707 45.0709 81.9072 44.7388 81.1102 44.4067C77.9883 46.2665 74.7336 47.9271 71.4125 49.3884C70.8147 49.6541 70.7483 50.0526 71.3461 50.3847C71.9439 50.7168 73.0066 50.7833 73.6709 50.5176C77.9883 48.7906 82.3058 47.13 86.6232 45.4031C85.7597 45.0709 84.8962 44.7388 84.0992 44.4067C81.7744 45.6023 79.516 46.7979 77.1912 47.9271C76.5934 48.2592 77.1912 48.7242 77.5898 48.857C78.254 49.1227 79.1175 49.1891 79.7817 48.9234C82.3722 47.9935 85.0291 47.0636 87.6195 46.1337C86.7561 45.8016 85.8926 45.4695 85.0955 45.1374C82.3722 46.5987 79.516 47.7278 76.527 48.5913C77.2577 48.9899 78.0547 49.3884 78.7854 49.7205C81.1766 48.9899 83.5678 48.3256 85.959 47.595C85.2283 47.1965 84.4313 46.7979 83.7006 46.4658C81.5751 47.4621 79.4496 48.3921 77.3241 49.3884C76.7263 49.6541 76.6599 50.0526 77.2577 50.3847C77.8555 50.7168 78.9846 50.8497 79.5825 50.5176C82.2393 49.2555 85.0291 48.2592 87.8852 47.3957C87.1546 46.9972 86.3575 46.5987 85.6269 46.2665C82.5715 47.5286 79.4496 48.7906 76.3942 50.0526C75.7964 50.3183 75.73 50.7168 76.3278 51.049C76.9256 51.3811 77.9883 51.4475 78.6525 51.1818C80.8445 50.3183 83.0364 49.4548 85.1619 48.5913C84.2984 48.2592 83.4349 47.9271 82.6379 47.595C79.4496 49.0563 76.1285 50.119 72.6745 50.7168C71.1468 50.9825 69.5527 51.1818 67.9585 51.1818C66.6965 51.1818 65.7666 50.8497 64.9695 49.9198C64.4382 50.2519 63.9732 50.584 63.4418 50.9161C72.6745 50.9825 82.505 50.7833 90.1436 44.9381C89.1473 44.7388 88.0845 44.5396 87.0882 44.4067C86.8225 46.8643 83.3685 47.595 81.4423 48.1264C78.719 48.9234 75.8628 49.2555 73.0066 49.1227C72.6081 49.1227 71.3461 49.0563 71.2797 49.7205C71.2132 50.3183 72.5417 50.5176 72.8738 50.5176C77.0584 50.7833 81.243 50.3847 85.2283 49.1891C87.8852 48.3921 91.6049 46.8643 91.2728 43.4768C91.2064 42.6797 89.7451 42.6797 89.2137 42.6797C83.5678 42.6133 77.9219 43.1447 72.4088 44.2739C73.1395 44.6724 73.8701 45.0045 74.6008 45.4031C77.1912 43.9418 79.981 42.879 82.9036 42.2148C82.1729 41.8163 81.4423 41.4841 80.7116 41.0856C78.6525 42.0819 76.527 42.879 74.3351 43.5432C75.1986 43.8753 76.0621 44.2075 76.8591 44.5396C78.9182 43.2775 81.1766 42.3476 83.5014 41.6834C82.6379 41.3513 81.7744 41.0192 80.9773 40.6871C79.2503 41.5506 77.5234 42.4141 75.7964 43.2111C76.7263 43.5432 77.6562 43.8089 78.5861 44.141C79.6489 43.344 80.9109 42.6797 82.2393 42.7462C81.708 42.4141 81.243 42.0819 80.7116 41.7498C78.5861 43.8753 75.9956 45.4031 73.0731 46.2001C73.9366 46.5322 74.8 46.8643 75.5971 47.1965C77.0584 45.9344 78.8518 44.9381 80.7781 45.0709C80.2467 44.7388 79.7817 44.4067 79.2503 44.0746C78.6525 45.2702 77.1912 46.5987 75.6635 46.2665C76.0621 46.5987 76.3942 46.8643 76.7927 47.1965C78.5861 45.5359 80.1802 43.6761 81.6415 41.6834C82.2393 40.8863 79.0511 40.2885 78.4533 41.0856C76.992 43.0783 75.3978 44.9381 73.6044 46.5987C73.0731 47.0636 74.5344 47.5286 74.7336 47.5286C77.7226 48.1264 80.8445 47.1965 82.7043 44.7388C83.2357 44.0746 81.4423 43.7425 81.1766 43.7425C78.1876 43.5432 75.3314 44.4067 73.0731 46.3994C72.6081 46.7979 73.0066 47.13 73.4716 47.3293C74.1358 47.595 74.9329 47.595 75.6635 47.3957C78.9182 46.5322 81.7744 44.7388 84.1656 42.4141C84.7634 41.8163 82.7707 41.4177 82.6379 41.4177C80.2467 41.2849 77.9883 41.8827 76.0621 43.2775C75.4643 43.7425 76.1285 44.141 76.5934 44.2739C77.3241 44.5396 78.1876 44.5396 78.8518 44.141C80.5788 43.2775 82.3058 42.4141 84.0327 41.617C84.6305 41.2849 83.9663 40.8199 83.6342 40.6871C82.97 40.4214 82.1729 40.4214 81.4423 40.6207C78.9182 41.3513 76.527 42.4141 74.2687 43.7425C73.6709 44.0746 74.2687 44.5396 74.6672 44.6724C75.3314 44.9381 76.1285 44.9381 76.8591 44.7388C79.2503 44.0082 81.5087 43.0783 83.7671 42.0155C84.2984 41.7498 83.8335 41.2849 83.5678 41.152C83.0364 40.8199 82.1729 40.7535 81.5751 40.8863C78.254 41.6834 75.0657 42.879 72.0767 44.5396C71.6118 44.8053 71.9439 45.2038 72.276 45.4031C72.8738 45.7352 73.6709 45.7352 74.2687 45.6687C79.5825 44.606 84.8962 44.141 90.2764 44.2075C89.6122 43.9418 88.8816 43.6761 88.2174 43.4104C88.483 46.333 85.494 47.5286 83.1693 48.1928C79.9146 49.1227 76.527 49.4548 73.1395 49.2555C73.1395 49.7205 73.0731 50.1855 73.0731 50.6504C76.7263 50.7833 80.3131 50.3847 83.8335 49.3884C86.2247 48.7242 90.1436 47.7278 90.5421 44.7388C90.6086 44.2739 89.6786 44.0082 89.3465 44.0082C88.8152 43.8753 87.9517 43.8753 87.4867 44.2075C80.5124 49.3884 71.8775 49.6541 63.5747 49.5877C63.1097 49.5877 61.3163 49.7205 62.047 50.584C64.7039 53.5066 69.6191 52.7759 73.0731 52.311C77.3905 51.7132 81.5087 50.3847 85.4276 48.5249C86.0254 48.2592 85.3612 47.7278 85.0291 47.595C84.3649 47.3293 83.5014 47.2629 82.8371 47.5286C80.6452 48.3921 78.4533 49.2555 76.3278 50.119C77.0584 50.5176 77.8555 50.9161 78.5861 51.2482C81.6415 49.9862 84.7634 48.7242 87.8188 47.4621C88.4166 47.1965 88.483 46.7979 87.8852 46.4658C87.221 46.0673 86.2911 46.1337 85.5605 46.333C82.7043 47.1965 79.981 48.1928 77.2577 49.4548C77.9883 49.8533 78.7854 50.2519 79.516 50.584C81.6415 49.5877 83.7671 48.6577 85.8926 47.6614C86.4904 47.3957 86.5568 46.9972 85.959 46.6651C85.2948 46.2665 84.3649 46.2665 83.6342 46.5322C81.3094 47.1965 78.9182 47.9271 76.527 48.5913C75.8628 48.7906 75.9292 49.322 76.4606 49.5877C77.1248 49.9862 78.0547 49.9198 78.7854 49.7205C81.9737 48.7906 84.9627 47.5286 87.8852 46.0009C88.483 45.6687 87.8852 45.2038 87.4867 45.0709C86.8225 44.8053 85.959 44.7388 85.2948 45.0045C82.7043 45.9344 80.0474 46.8643 77.4569 47.7943C78.3204 48.1264 79.1839 48.4585 79.981 48.7906C82.3058 47.595 84.5641 46.3994 86.8889 45.2702C87.4867 44.9381 86.8889 44.4731 86.4904 44.3403C85.8261 44.0746 84.9627 44.0082 84.2984 44.2739C79.981 46.0009 75.6635 47.6614 71.3461 49.3884C72.0767 49.7869 72.8738 50.1855 73.6044 50.5176C77.1248 48.9899 80.5124 47.1965 83.8335 45.2702C84.4313 44.9381 83.8335 44.4731 83.4349 44.3403C82.8371 44.0746 81.9072 44.0082 81.243 44.2739C78.3204 45.4695 75.5307 46.9308 72.9402 48.6577C72.3424 49.0563 73.0731 49.5212 73.4716 49.6541C74.2022 49.9198 75.0657 49.9198 75.73 49.5212C78.5197 48.0599 81.1766 46.333 83.6342 44.4067C84.0992 44.0082 83.7006 43.6761 83.2357 43.4768C82.6379 43.2111 81.708 43.1447 81.0437 43.4104C77.8555 44.8053 74.9329 46.6651 72.3424 48.9899C71.811 49.4548 72.4088 49.8534 72.8738 49.9862C73.6044 50.2519 74.4679 50.1855 75.1322 49.8533C77.5898 48.7242 79.7153 46.9972 81.4423 45.0045C81.8408 44.5396 80.7781 44.141 80.5124 44.141C79.8481 44.0082 79.0511 43.9418 78.4533 44.2739C75.6635 45.9344 72.8074 47.6614 70.0176 49.322C69.4863 49.6541 70.0176 50.119 70.4162 50.2519C71.0804 50.5176 71.8775 50.5176 72.6081 50.3183C74.9329 49.6541 76.9256 48.1928 78.3869 46.2665C78.719 45.868 77.9219 45.5359 77.6562 45.4031C77.0584 45.2038 76.1949 45.1374 75.6635 45.4031C72.8074 46.6651 70.1505 48.3256 67.6929 50.3183C67.1615 50.7833 67.7593 51.1818 68.2242 51.3146C68.8885 51.5139 69.8848 51.6468 70.4826 51.1818C72.6081 49.6541 74.7336 48.1928 76.9256 46.6651C77.5234 46.2665 76.7927 45.8016 76.3942 45.6687C75.6635 45.4695 74.8 45.4031 74.1358 45.8016C72.8074 46.5322 71.4789 47.2629 70.1505 47.9935C71.0804 48.3256 72.0103 48.5913 72.9402 48.9234C74.7336 47.595 76.4606 46.2665 78.254 44.8717C78.8518 44.4067 78.1876 44.0082 77.7226 43.8753C77.0584 43.6761 76.0621 43.5432 75.4643 44.0082C73.4716 45.3366 71.4789 46.7315 69.4863 48.0599C68.8885 48.4585 69.6191 48.9234 70.0176 49.0563C70.7483 49.322 71.6118 49.322 72.276 48.9234C73.8701 48.0599 75.3314 46.8643 76.4606 45.4695C76.7927 45.0709 75.9956 44.7388 75.73 44.606C75.1322 44.4067 74.3351 44.3403 73.7373 44.606C71.2132 45.5359 68.822 46.9308 66.7629 48.6577C66.298 49.0563 66.6965 49.3884 67.1615 49.5877C67.7593 49.8534 68.6892 49.9198 69.3534 49.6541C71.7446 48.6577 74.003 47.3293 75.9956 45.7352C76.527 45.2702 75.9292 44.8717 75.4643 44.7388C74.8 44.5396 73.8037 44.4731 73.2059 44.8717C70.7483 46.3994 68.3571 47.9271 65.8995 49.4548C66.8294 49.7869 67.7593 50.0526 68.6892 50.3847C71.3461 48.5913 74.003 46.7315 76.5934 44.9381C77.1912 44.5396 76.4606 44.0746 76.0621 43.9418C75.3978 43.7425 74.4015 43.6761 73.8037 44.0746C71.811 45.3366 69.8184 46.5987 67.8257 47.8607C68.7556 48.1928 69.6855 48.4585 70.6154 48.7906C72.8074 47.2629 74.9993 45.7352 77.2577 44.2075C77.789 43.8753 77.3241 43.4104 76.8591 43.2775C76.1949 43.0119 75.3314 42.9454 74.6672 43.2111C71.2797 44.606 67.8257 46.5987 64.6374 48.9899C64.0396 49.4548 64.7039 49.8534 65.1688 49.9862C65.833 50.1855 66.8294 50.2519 67.4272 49.8533C69.287 48.7906 71.014 47.595 72.6745 46.2001C73.7373 45.3366 70.9476 45.0045 70.4826 45.0709C67.4272 45.8016 64.6374 47.1965 62.1798 49.1891C61.6484 49.6541 62.2462 50.0526 62.7112 50.1855C63.309 50.3847 64.4382 50.5176 64.9695 50.0526C68.2907 47.5286 71.6782 45.0709 74.9993 42.5469C75.5971 42.0819 74.9329 41.6834 74.4679 41.5506C73.8701 41.3513 72.741 41.2185 72.2096 41.6834C68.9549 44.0746 65.6338 46.4658 62.3791 48.857C63.3754 49.1227 64.3717 49.322 65.3681 49.5877C68.2242 46.5987 71.0804 43.6097 73.9366 40.5542C72.8738 40.355 71.811 40.1557 70.7483 39.9564C68.2907 42.6797 65.8995 45.4695 63.4418 48.1928C63.1097 48.5913 63.9068 48.9899 64.1725 49.0563C64.7703 49.2556 65.5673 49.322 66.1651 49.0563C70.1505 47.6614 73.7373 45.4031 76.8591 42.5469C77.1912 42.2148 76.4606 41.8163 76.3278 41.7498C75.7964 41.5506 75.0657 41.4177 74.4679 41.5506C71.1468 42.4141 68.025 43.6761 65.1688 45.5359C64.6374 45.868 65.1688 46.333 65.5673 46.4658C66.2316 46.7315 67.0951 46.7979 67.7593 46.5322C71.014 45.3366 74.4015 44.7388 77.8555 44.6724C77.3241 44.2739 76.8591 43.8089 76.3278 43.4104C71.2797 45.3366 66.0987 47.0636 60.8514 48.5913C61.582 48.9899 62.3791 49.3884 63.1097 49.7205C66.8294 48.3921 70.6154 46.9972 74.3351 45.6687C74.7336 45.5359 74.9993 45.2702 74.7336 44.9381C74.4679 44.5396 73.6709 44.4067 73.2723 44.4067C68.4235 44.3403 63.7739 45.4695 59.4565 47.7278C59.058 47.9271 59.2572 48.3256 59.5229 48.5249C59.9879 48.857 60.7185 48.9234 61.2499 48.9234C65.4345 48.7242 69.6855 48.857 73.8037 49.4548C73.8037 48.9899 73.8701 48.5249 73.8701 48.1264C68.2242 48.6577 62.5119 48.1264 57.0653 46.5987C57.0653 46.9972 56.9989 47.3957 56.9989 47.7943C60.4528 46.9972 63.8404 46.0009 67.1615 44.7388C67.7593 44.5396 67.7593 44.0746 67.2279 43.7425C66.5637 43.344 65.5673 43.344 64.9031 43.6097C62.7112 44.2739 60.8514 45.4695 59.2572 47.0636C58.7923 47.5286 59.9879 47.9271 60.1871 47.9271C60.8514 48.0599 61.6484 48.1264 62.2462 47.7943C67.6264 44.8717 72.741 41.5506 77.7226 37.9638C78.3204 37.5652 77.6562 37.1003 77.1912 36.9674C76.527 36.7682 75.5307 36.7017 74.9329 37.1003C69.4863 40.355 64.3053 44.0746 59.4565 48.1928C58.9251 48.6577 59.5229 49.0563 59.9879 49.1891C60.7185 49.3884 61.582 49.4548 62.2462 49.0563C66.2316 46.8643 69.8848 44.2075 73.2723 41.152C73.6709 40.7535 72.741 40.355 72.5417 40.2885C71.9439 40.0893 71.1468 40.0229 70.549 40.2885C66.5637 42.0155 62.844 44.2075 59.4565 46.9308C58.9251 47.3957 59.5229 47.7943 59.9879 47.9271C60.6521 48.1264 61.6484 48.1928 62.2462 47.7943C65.833 45.7352 68.9549 43.0783 71.6782 39.9564C72.0103 39.5579 71.2132 39.1594 70.9475 39.0929C70.3498 38.8937 69.4863 38.8272 68.9549 39.0929C65.036 40.8199 61.5156 43.1447 58.2609 45.9344C57.1981 46.8643 60.2536 47.1965 60.7849 46.9308C64.1061 45.4031 67.2279 43.5432 70.0841 41.2849C70.6819 40.8199 70.0176 40.4214 69.5527 40.2885C68.822 40.0229 67.9585 40.0229 67.2943 40.4214C63.3754 42.4141 59.5229 44.606 55.7368 46.9308C55.2055 47.2629 55.7368 47.7278 56.1354 47.8607C56.7332 48.1264 57.6631 48.2592 58.3273 47.9271C61.7148 46.3994 64.6374 44.141 67.0951 41.4177C67.4272 41.0192 66.6301 40.6207 66.3644 40.5542C65.7666 40.355 64.9695 40.2885 64.3717 40.5542C60.9842 41.8827 57.7959 43.6761 54.8734 45.9344C54.4084 46.333 54.8069 46.6651 55.2719 46.8643C55.8697 47.13 56.7996 47.2629 57.4638 46.9308C61.4492 45.1374 65.1688 42.8126 68.5563 40.0229C69.0213 39.6243 68.6228 39.2922 68.1578 39.0929C67.4936 38.8272 66.6301 38.7608 65.9659 39.0265C61.6484 40.6871 57.5967 42.879 53.8106 45.6023C53.2128 46.0009 53.877 46.4658 54.342 46.5987C55.0062 46.7979 56.0025 46.8643 56.6003 46.4658C58.1945 45.5359 59.7886 44.606 61.3827 43.7425C62.047 43.344 61.2499 42.879 60.8514 42.7462C60.1207 42.4805 59.2572 42.4805 58.593 42.879C56.6668 43.8753 54.8734 45.0045 53.1464 46.3994C52.615 46.8643 53.2128 47.2629 53.6778 47.3957C54.4084 47.595 55.2719 47.6614 55.9361 47.2629C60.3864 44.8717 64.6374 42.0155 68.5563 38.8272C69.0877 38.3623 68.4899 37.9638 68.025 37.8309C67.2943 37.6316 66.4308 37.5652 65.7666 37.9638C63.3754 39.2922 61.1835 40.8863 59.1908 42.8126C58.7258 43.2775 59.9214 43.6761 60.1207 43.6761C60.7849 43.8089 61.582 43.8753 62.1798 43.5432C64.3053 42.2812 66.298 40.7535 68.1578 39.0929C68.6228 38.6944 67.4272 38.2294 67.2279 38.2294C66.5637 38.0302 65.7666 38.0302 65.1688 38.3623C62.047 39.9564 59.058 41.7498 56.1354 43.7425C55.5376 44.141 56.2682 44.606 56.6668 44.7388C57.331 44.9381 58.3273 45.0045 58.9251 44.606C61.7149 42.9454 64.3717 41.0856 66.8958 39.0265C67.4272 38.5616 66.8294 38.163 66.3644 38.0302C65.7002 37.8309 64.7039 37.7645 64.1061 38.163C60.3864 40.355 56.6668 42.6133 52.9471 44.8053C53.877 45.1374 54.8069 45.4031 55.7368 45.7352C58.9251 43.344 62.1798 40.9528 65.3681 38.5616C65.9659 38.0966 65.3017 37.6981 64.8367 37.5652C64.1725 37.366 63.1761 37.2995 62.5783 37.6981C58.0616 40.355 53.4121 42.8126 48.6297 44.9381C49.4931 45.2702 50.3566 45.6023 51.1537 45.9344C55.0062 42.7462 58.8587 39.5579 62.7112 36.3032C63.2426 35.8382 62.6448 35.4397 62.1798 35.3069C61.582 35.1076 60.4528 34.9748 59.9214 35.4397C57.9288 36.901 55.9361 38.4287 53.877 39.89C52.9471 40.6207 51.9508 41.2849 51.0209 42.0155C50.4895 42.4141 49.9581 42.8126 49.4267 43.1447C49.161 43.344 48.9618 43.4768 48.6961 43.6761C48.6297 43.7425 48.5632 43.7425 48.4968 43.8089C47.899 44.0746 48.2975 44.141 49.7588 44.0082C49.8253 44.2075 49.8253 44.4067 49.8917 44.5396C52.615 41.6834 55.604 39.0265 58.7258 36.6353C59.3236 36.1704 58.6594 35.7718 58.1945 35.639C57.7295 35.5061 56.6003 35.3733 56.069 35.8382Z" fill="#EF6461"/>
<path d="M51.0189 46.5986C59.3216 52.0453 69.5507 54.4365 79.4476 53.4401C82.2373 53.1744 84.9607 52.5766 87.6175 51.7796C88.4146 51.5139 87.0862 48.5249 86.0898 48.7906C76.8571 51.5803 66.6281 51.1154 57.6611 47.5285C55.0706 46.4658 52.6794 45.2038 50.3546 43.6761C49.6904 43.2775 49.7568 44.2739 49.8233 44.606C49.9561 45.403 50.4211 46.1337 51.0189 46.5986Z" fill="#4F4F4F"/>
</g>
<rect x="4.5" y="4.5" width="123" height="123" stroke="#0A74A6"/>
<rect x="0.5" y="0.5" width="7" height="7" fill="white" stroke="#0A74A6"/>
<rect x="0.5" y="124.5" width="7" height="7" fill="white" stroke="#0A74A6"/>
<rect x="124.5" y="0.5" width="7" height="7" fill="white" stroke="#0A74A6"/>
<rect x="124.5" y="124.5" width="7" height="7" fill="white" stroke="#0A74A6"/>
<defs>
<clipPath id="clip0_804_3585">
<rect x="4" y="4" width="124" height="124" fill="white"/>
</clipPath>
</defs>
</svg>
