<svg width="132" height="132" viewBox="0 0 132 132" fill="none" xmlns="http://www.w3.org/2000/svg">
<g clip-path="url(#clip0_802_2435)">
<rect x="3" y="4" width="124" height="124" fill="#DBDBDB"/>
<path d="M23.5918 126.954C23.5918 128.344 23.6618 138.564 23.8018 139.954H33.1618L44.0918 100.534C31.8118 104.174 23.5918 112.104 23.5918 126.954Z" fill="white" stroke="#4F4F4F" stroke-width="2" stroke-miterlimit="10"/>
<path d="M107.702 126.954C107.702 112.104 99.4817 104.174 87.2017 100.494L98.1317 139.914H107.492C107.622 138.604 107.702 128.344 107.702 126.954Z" fill="white" stroke="#4F4F4F" stroke-width="2" stroke-miterlimit="10"/>
<path d="M81.8819 99.2141C76.5234 98.2495 71.0862 97.7908 65.6419 97.8441C60.1976 97.7908 54.7603 98.2495 49.4019 99.2141C50.8378 102.312 53.1296 104.934 56.0071 106.772C58.8846 108.609 62.2276 109.586 65.6419 109.586C69.0561 109.586 72.3991 108.609 75.2766 106.772C78.1541 104.934 80.4459 102.312 81.8819 99.2141Z" fill="white" stroke="#4F4F4F" stroke-width="2" stroke-miterlimit="10"/>
<path d="M75.8919 101.234V92.7141V90.6541C70.1119 93.1941 60.7719 94.1441 56.2119 94.4741V100.764" fill="white"/>
<path d="M75.8919 101.234V92.7141V90.6541C70.1119 93.1941 60.7719 94.1441 56.2119 94.4741V100.764" stroke="#4F4F4F" stroke-width="2" stroke-miterlimit="10"/>
<path d="M81.8816 99.2141C80.4473 102.314 78.1564 104.94 75.2789 106.781C72.4015 108.622 69.0576 109.601 65.6416 109.604C62.2257 109.601 58.8818 108.622 56.0043 106.781C53.1269 104.94 50.8359 102.314 49.4016 99.2141C47.5616 99.5607 45.7916 99.9874 44.0916 100.494L33.1616 139.914H98.1616L87.2316 100.494C85.505 99.9941 83.7216 99.5674 81.8816 99.2141Z" fill="#25283D" stroke="#25283D" stroke-width="2" stroke-miterlimit="10"/>
<path d="M55.2817 79.5672C55.6522 79.1967 61.1489 75.3058 61.0253 76.6028C60.7783 79.3202 63.3105 77.2204 64.6074 77.7762C65.9662 78.3938 66.9543 80.6789 68.4366 81.5436C70.907 82.964 76.5271 85.3727 78.874 82.5317C79.8004 85.3727 83.6913 86.3608 85.6676 84.014C89.3115 86.6696 93.5111 83.2111 93.0788 79.1967C95.3639 82.0994 102.158 77.3439 99.2548 73.1442C103.146 73.2677 104.134 67.524 100.675 66.3506C103.455 64.1272 101.787 58.4453 98.0814 58.3218C99.996 56.0984 97.8961 52.084 95.1169 51.837C96.2904 49.4283 94.2523 47.699 91.9054 48.0078C93.0788 45.4139 92.3377 40.2878 85.6059 42.0171C89.6203 35.2853 78.1329 29.2328 72.8215 32.4443C71.401 26.4536 62.8781 27.7505 61.3341 31.2708C60.0989 29.418 55.714 29.0475 56.0228 32.012C52.3172 28.6152 41.0768 32.9384 44.5972 38.3115C36.5683 38.6203 32.8627 46.8344 36.136 49.1813C30.7011 48.3784 29.5895 54.4926 31.9981 57.9512C27.5514 57.6424 26.0074 65.7947 29.5895 67.7711C26.6867 72.6501 30.1453 74.997 32.3069 74.5029C30.5159 77.4674 33.6656 82.8405 37.5565 80.4319C36.4448 86.1756 42.6208 86.7932 43.7325 84.261C46.2029 89.8812 53.1818 81.5436 55.2817 79.5672Z" fill="black"/>
<path d="M56.8249 79.6907C57.9365 78.6408 59.4188 77.8379 60.7157 77.0968C61.0245 76.9115 61.3333 76.7262 61.7039 76.6027C61.8274 76.541 62.0127 76.541 62.1362 76.4792C61.2716 76.4174 60.4069 76.2939 59.4805 76.2322C59.4805 76.2322 59.5423 76.2939 59.5423 76.3557C59.357 77.7762 60.2217 77.9614 61.3951 78.085C62.6303 78.2085 63.8037 78.1467 64.9772 77.8379C65.8418 77.5909 62.5685 77.1586 63.2479 77.6526C63.3714 77.7144 63.4949 77.7762 63.6185 77.8997C63.8655 78.085 64.0508 78.2702 64.2361 78.5173C64.7301 79.0731 65.1625 79.6907 65.6566 80.2466C67.1388 81.9758 69.671 82.9023 71.8326 83.4581C73.5618 83.8904 75.3529 84.1375 77.1439 84.0139C78.4409 83.9522 79.6143 83.6434 80.5407 82.6552C79.4908 82.5934 78.5026 82.4699 77.4527 82.4082C78.1321 84.261 79.7379 85.1256 81.5907 85.3727C83.6287 85.6815 85.9139 85.805 87.3343 84.1375C86.3462 84.0757 85.2963 84.0139 84.3081 83.9522C85.4815 84.7551 86.7167 85.0021 88.1372 85.1256C89.3724 85.2491 90.6694 85.2491 91.8428 84.7551C93.8809 83.7669 94.9926 81.5435 94.8073 79.3819C93.7574 79.3202 92.7692 79.1966 91.7193 79.1349C92.584 80.1848 94.128 80.2466 95.4249 80.3083C96.7836 80.3701 98.0188 80.1848 99.1305 79.5054C101.292 78.1467 102.466 75.5528 100.922 73.3294C100.675 73.3294 100.427 73.3912 100.119 73.3912C101.601 73.3912 103.021 73.0824 103.886 71.7237C104.565 70.612 104.689 69.068 104.01 67.8945C103.639 67.2769 103.145 67.0299 102.589 66.5976C102.342 66.4123 102.342 66.5358 102.527 66.2888C102.589 66.1653 102.774 66.0417 102.898 65.8565C103.145 65.5477 103.268 65.2389 103.392 64.9301C103.948 63.5096 103.639 61.8421 102.898 60.5451C101.786 58.6923 99.8099 58.3217 97.7718 58.1982C98.3894 58.3217 99.0688 58.3835 99.6864 58.507C100.736 57.21 100.551 55.4808 99.7481 54.122C98.8217 52.578 97.3395 52.0222 95.6102 51.7752C95.9808 51.8369 96.3513 51.9604 96.7219 52.0222C97.2777 50.7252 97.0924 49.3665 95.8572 48.6254C95.2396 48.2548 94.4985 48.1313 93.8192 48.0078C92.7692 47.8843 91.7193 47.7607 90.6694 47.8843C91.5958 48.0078 92.5839 48.0695 93.5104 48.1931C94.1897 46.5873 94.128 44.4257 92.8927 43.067C92.0899 42.2023 90.9782 41.8935 89.8047 41.7083C87.9519 41.3995 86.0374 41.4612 84.1846 41.8935C85.1727 42.0171 86.2227 42.0788 87.2108 42.2023C88.7548 39.5467 87.8902 36.7057 85.7286 34.7294C83.1964 32.3207 79.7379 31.4561 76.4028 31.3326C74.6735 31.2708 72.8825 31.3326 71.4002 32.1972C72.3884 32.3207 73.4383 32.3825 74.4265 32.506C74.0559 31.0238 73.1913 29.7886 71.8943 29.0474C70.3503 28.1828 68.4358 28.0593 66.7065 27.9975C64.2978 27.9358 60.9628 28.5534 59.8511 31.0238C60.901 31.0855 61.8892 31.209 62.9391 31.2708C61.8274 29.665 59.4188 29.5415 57.6895 29.5415C56.1455 29.4798 54.4162 29.9121 54.5397 31.8266C55.5279 31.8884 56.5778 31.9502 57.566 32.0119C56.5778 31.1473 55.2809 30.9002 54.0457 30.715C52.3781 30.4679 50.6488 30.4679 49.0431 30.7767C46.758 31.209 43.9788 32.3825 42.8671 34.5441C42.2495 35.7793 42.4348 37.0763 43.1759 38.1879C43.2994 38.1879 43.4847 38.1262 43.6082 38.1262C40.0879 38.3115 36.7528 39.7319 34.7147 42.7582C33.5413 44.5492 32.6149 47.5755 34.653 49.1195C35.3941 49.1195 36.197 49.1195 36.9381 49.1195C34.3442 48.8107 31.1944 48.5636 29.8357 51.3428C28.8475 53.3809 29.2181 56.0366 30.4533 57.8894C30.8239 57.8894 31.1944 57.8276 31.565 57.8276C29.8357 57.7659 28.3535 58.0129 27.2418 59.4952C26.3154 60.7921 25.9448 62.4597 26.0066 64.0654C26.0683 64.8065 26.2536 65.6094 26.5624 66.2888C26.7477 66.5976 26.933 66.8446 27.1183 67.0917C27.2418 67.2152 27.3653 67.3387 27.4271 67.4005C27.6741 67.6475 27.7976 67.5857 27.7359 67.9563C27.5506 68.5121 27.18 69.068 26.9947 69.6856C26.8095 70.2414 26.7477 70.7973 26.7477 71.3531C26.8095 72.156 27.1183 72.9589 27.6741 73.5147C28.2299 74.0706 28.9093 74.3794 29.7122 74.5646C30.9474 74.8117 32.3679 74.997 33.6031 74.7499C32.6149 74.6264 31.565 74.5646 30.5768 74.4411C29.5269 76.2322 30.1445 78.7026 31.6885 80.0613C32.5531 80.8024 33.6031 81.0494 34.7147 81.173C36.197 81.3582 37.6175 81.42 38.9144 80.6171C37.9263 80.4936 36.8763 80.4318 35.8882 80.3083C35.4559 82.6552 36.3205 84.9403 38.7909 85.5579C40.1496 85.8667 41.8172 86.052 43.2376 85.7432C44.0405 85.5579 44.7816 85.1256 45.0904 84.3845C44.0405 84.3227 43.0524 84.1992 42.0024 84.1375C42.8053 85.805 44.0405 86.1755 45.8316 86.3608C47.4991 86.4843 48.9196 86.2991 50.34 85.3727C52.934 83.8904 54.7868 81.667 56.8249 79.6907C56.8249 79.6907 55.4661 79.4437 55.2809 79.3819C54.9721 79.3819 53.9839 79.1349 53.7369 79.4437C52.1311 81.0494 50.6488 82.717 48.796 84.1375C47.8696 84.8786 46.8197 85.5579 45.6463 85.9285C45.5228 85.9903 45.3992 85.9903 45.2757 85.9903C44.5346 86.1755 44.7199 84.9403 46.8197 86.1755C46.6344 86.052 46.4492 85.9903 46.2639 85.8667C45.7698 85.4962 45.461 85.0021 45.214 84.4463C45.0904 84.1375 42.2495 83.8904 42.126 84.1992C41.8789 84.7551 41.3848 85.1256 40.829 85.3727C40.3967 85.4962 39.532 85.4962 40.7055 85.6197C40.9525 85.6197 41.1996 85.6197 41.3848 85.6815C41.5084 85.6815 41.5084 85.6815 41.4466 85.6815C41.3848 85.6197 41.2613 85.6197 41.1996 85.6197C41.0143 85.5579 40.8908 85.4962 40.7055 85.3727C38.9762 84.4463 38.7292 82.4082 39.038 80.6171C39.0997 80.4318 36.3205 80.1848 36.0117 80.3083C35.6411 80.5554 35.2088 80.6789 34.7765 80.8024C33.9119 81.1112 36.6911 81.2965 35.8264 80.9259C35.7029 80.8642 35.5176 80.8024 35.3941 80.7406C34.7147 80.3701 34.2207 79.7525 33.8501 79.0731C33.109 77.7144 32.9855 76.0469 33.7266 74.7499C33.7883 74.6882 32.4296 74.5029 32.4296 74.5029C31.8738 74.4411 31.2562 74.3794 30.7621 74.5029C30.0827 74.6264 32.2443 74.6882 32.2443 74.6882C32.1826 74.6264 31.9973 74.6264 31.9355 74.5646C31.6885 74.4411 31.4415 74.3176 31.2562 74.1941C30.7621 73.8235 30.3915 73.3294 30.2063 72.8354C29.5887 71.2296 30.268 69.5003 31.0709 68.1416L31.0091 68.0798C29.1563 66.9681 28.8475 64.4977 29.2181 62.5832C29.4034 61.595 29.7739 60.5451 30.4533 59.7422C30.7621 59.3716 31.1327 59.0011 31.565 58.754C31.7503 58.6305 31.9355 58.5688 32.1826 58.507C32.4296 58.4452 33.109 58.3835 32.3679 58.3835C32.4296 58.3835 33.5413 58.3217 33.4795 58.3217C32.4296 56.7777 31.9973 54.7396 32.4296 52.8868C32.6149 52.084 32.9855 51.2811 33.6031 50.6635C33.9119 50.3547 34.2824 50.0459 34.7147 49.8606C34.9 49.7371 35.1471 49.6753 35.3941 49.6136C35.8882 49.49 36.6911 49.6136 35.2706 49.4283C35.8264 49.49 36.3823 49.5518 36.9999 49.5518C37.0616 49.5518 37.741 49.5518 37.5557 49.4283C35.6411 48.0078 36.5058 45.1051 37.5557 43.4375C39.285 40.6583 42.4348 38.8673 45.6463 38.682C45.5845 38.682 46.1404 38.682 46.0786 38.6203C44.4728 36.1498 46.1404 33.803 48.3637 32.5678C49.5989 31.8884 50.9576 31.3943 52.3781 31.2708C52.5634 31.2708 53.0575 31.2708 53.181 31.209C53.0575 31.2708 52.4399 31.0855 52.5634 31.1473C52.6869 31.209 52.8105 31.209 52.934 31.209C53.4898 31.3943 54.0457 31.7031 54.478 32.0737C54.725 32.3207 57.5042 32.4442 57.5042 32.259C57.4425 31.2708 57.8748 30.4679 58.8629 30.2209C58.9247 30.2209 59.0482 30.2209 59.11 30.1591C59.4805 30.1591 59.2953 30.0974 58.5541 30.0974C57.813 29.9738 57.6277 29.9738 57.9983 30.0974C58.1836 30.2209 58.4306 30.2209 58.6159 30.3444C59.0482 30.5914 59.4805 30.8385 59.7893 31.2708C59.9746 31.5796 62.7538 31.8266 62.8773 31.5178C63.742 29.7268 65.9654 28.7386 67.8799 28.6151C67.9417 28.6151 68.0652 28.6151 68.127 28.6151C68.374 28.5534 67.4476 28.6769 67.5711 28.5534C67.5094 28.6151 67.5094 28.4916 67.5711 28.5534C67.6329 28.6151 67.8799 28.6151 68.0034 28.6769C68.4975 28.8622 68.9916 29.1092 69.4239 29.3562C70.4738 30.0974 71.0914 31.209 71.4002 32.3825C71.462 32.753 74.1177 32.8766 74.4265 32.6913C75.0441 32.3207 75.7852 32.0737 76.4646 31.9502C76.7734 31.7031 77.0822 31.7031 77.391 31.7031C77.0204 31.7031 77.1439 31.7031 77.4527 31.7649C79.0585 32.1354 80.6025 32.8148 81.8995 33.803C84.4934 35.7175 85.8521 38.8673 84.1228 41.8318C84.0611 41.8935 85.4198 42.0788 85.4198 42.0788C85.9756 42.1406 86.5932 42.2023 87.0873 42.0788C87.4579 42.0171 87.8284 41.8935 88.199 41.8318C88.3843 41.8318 88.8166 41.8318 88.9401 41.77C88.8783 41.8318 88.0137 41.5847 88.1372 41.7083C88.199 41.77 88.3225 41.77 88.3843 41.77C88.5695 41.8318 88.7548 41.9553 88.9401 42.0171C89.6195 42.3876 90.1135 43.0052 90.3606 43.7463C90.8547 44.9815 90.7929 46.5255 90.2371 47.7607C90.1753 47.8843 92.831 48.1313 93.078 48.0695C94.0044 47.946 91.4723 47.6372 92.2751 48.0695C92.4604 48.1313 92.584 48.2548 92.7692 48.3166C93.1398 48.5636 93.3868 48.8724 93.5721 49.243C93.9427 50.0459 93.8192 50.8488 93.4486 51.5899C93.3868 51.7134 94.5603 51.8369 94.5603 51.8369C93.8192 51.7752 94.3132 51.8369 94.4985 51.8987C94.622 51.9604 94.7456 52.0222 94.8691 52.084C95.1779 52.2692 95.4867 52.5163 95.7337 52.7633C96.166 53.1956 96.5366 53.8132 96.7836 54.3691C97.2777 55.6043 97.216 56.963 96.3513 58.0129C96.3513 58.0129 98.2041 58.3217 98.2659 58.3217C96.7836 58.26 97.2777 58.1364 97.7718 58.3835C97.9571 58.4452 98.1424 58.5688 98.3276 58.6923C98.6364 58.9393 98.9452 59.1864 99.1923 59.4952C99.6864 60.1128 100.057 60.8539 100.18 61.6568C100.551 63.2008 100.18 64.9301 98.9452 65.98L99.007 66.0417C100.551 66.5976 101.292 68.1416 101.045 69.6856C100.86 71.0443 99.6246 72.7118 98.3276 72.7118C98.3276 72.7118 97.5248 72.7118 97.5248 72.7736C98.6364 74.5029 98.3276 76.4792 96.9689 77.8997C96.3513 78.579 95.5484 79.1349 94.6838 79.4437C94.4985 79.5054 94.2515 79.5672 94.0662 79.629C93.3251 79.8142 95.3014 79.7525 95.3632 79.8142C95.0544 79.5672 94.6838 79.4437 94.4368 79.1349C94.1897 78.8261 91.3487 78.7643 91.3487 78.8878C91.4723 80.4936 90.9782 82.0376 89.9283 83.2111C89.3724 83.7669 88.7548 84.1992 88.0137 84.4463C87.8284 84.508 87.6431 84.508 87.4579 84.5698C87.3961 84.5698 87.3343 84.5698 87.2726 84.5698C88.446 84.7551 88.7548 84.7551 88.1372 84.5698C87.7049 84.3845 87.3343 84.1992 86.9638 83.9522C86.5932 83.7051 85.7286 83.7051 85.2963 83.7051C85.0492 83.7051 84.1846 83.5199 83.9375 83.7669C83.567 84.1992 83.0729 84.5698 82.5171 84.8168C82.27 84.9403 82.023 84.9403 81.7759 85.0021C81.4671 85.0639 81.6524 85.0639 82.3318 85.0639C83.0111 85.1874 83.1964 85.1874 82.8876 85.1256C82.7641 85.0639 82.5788 85.0021 82.4553 85.0021C81.4054 84.5698 80.6025 83.7051 80.2319 82.5934C80.1084 82.2229 77.391 82.0994 77.1439 82.3464C76.7734 82.7787 76.341 83.0875 75.847 83.2728C75.5999 83.3963 75.2911 83.4581 75.0441 83.5199C74.9206 83.5199 74.797 83.5199 74.6735 83.5816C74.2412 83.6434 74.797 83.6434 74.9206 83.6434C75.1676 83.6434 74.797 83.6434 74.7353 83.5816C74.6118 83.5199 74.4265 83.5199 74.303 83.4581C74.0559 83.3963 73.8089 83.3346 73.5618 83.2111C72.9442 83.0258 72.3266 82.7787 71.709 82.4699C70.6591 81.9758 69.5474 81.4818 68.7446 80.6171C67.9417 79.7525 67.2623 78.5173 66.2124 77.8997C65.7183 77.5909 65.1007 77.5291 64.4831 77.4674C63.6802 77.4056 62.8773 77.3438 62.0745 77.4056C61.6421 77.4674 61.2098 77.5291 60.8393 77.6526C60.7775 77.6526 60.7775 77.6526 60.7157 77.6526C60.2834 77.7144 60.5922 77.7762 61.7039 77.7762C62.0745 77.8379 62.445 77.8379 62.7538 77.8997C62.6921 77.8997 62.6303 77.8379 62.5685 77.7762C62.445 77.5909 62.3833 77.4056 62.3833 77.1586C62.3215 76.8498 62.5068 76.541 62.2597 76.2939C62.1362 76.1704 61.8892 76.1704 61.7657 76.1704C61.2716 76.0469 60.7157 76.0469 60.2217 75.9851C59.2953 75.9234 58.6159 76.0469 57.813 76.4792C56.3925 77.2203 54.7868 78.1467 53.5516 79.2584C53.5516 79.2584 54.9103 79.5054 55.0956 79.5672C55.5897 79.7525 56.5161 79.9378 56.8249 79.6907Z" fill="#4F4F4F"/>
<path d="M64.3599 94.8219C78.6516 94.8219 90.2374 83.2361 90.2374 68.9444C90.2374 54.6526 78.6516 43.0669 64.3599 43.0669C50.0682 43.0669 38.4824 54.6526 38.4824 68.9444C38.4824 83.2361 50.0682 94.8219 64.3599 94.8219Z" fill="#E4E4E4" stroke="white" stroke-miterlimit="10"/>
<path d="M91.6585 64.1272C89.744 52.7633 80.3564 43.6846 68.9926 42.0171C67.6338 41.8318 66.2751 41.7083 64.9164 41.7083C53.6143 41.77 42.9298 48.3783 38.6684 59.0011C34.3451 69.7473 37.5567 82.3464 46.4501 89.7576C55.1583 97.0453 67.8191 97.9099 77.7625 92.5368C87.8294 87.1019 93.5731 75.5528 91.6585 64.1272ZM39.533 64.3124C41.2623 54.122 49.4146 45.3521 59.7285 43.5611C61.0873 43.314 62.446 43.2523 63.8047 43.1905C74.3657 43.2523 84.0003 49.8606 87.7676 59.7422C91.5968 69.6238 88.8793 81.173 80.974 88.2754C77.0831 91.7957 72.1423 94.0191 66.9545 94.4514C61.6431 94.8837 56.27 93.6485 51.6997 90.8693C42.6828 85.4344 37.742 74.7499 39.533 64.3124ZM63.8047 42.3876C65.287 42.3876 66.7692 42.5111 68.1897 42.8199C67.078 42.6964 65.9663 42.5729 64.9164 42.5729C58.3081 42.6347 51.9468 44.9815 47.006 49.0577C50.5263 45.8462 54.8495 43.5611 59.6668 42.7582C61.0255 42.5111 62.446 42.3876 63.8047 42.3876Z" fill="#4F4F4F"/>
<g opacity="0.3">
<path opacity="0.3" d="M74.5521 46.8964C79.8017 51.4667 83.1368 58.1368 83.1368 65.6097C83.1368 79.2587 72.0817 90.3138 58.4327 90.3138C55.2212 90.3138 52.1332 89.6962 49.354 88.5845C53.6772 92.2901 59.2974 94.5752 65.4734 94.5752C79.1224 94.5752 90.1774 83.5202 90.1774 69.8712C90.1774 59.4337 83.6926 50.5403 74.5521 46.8964Z" fill="#828282"/>
</g>
<path d="M81.7157 63.8185C79.6776 62.6451 77.1455 62.4598 74.9221 63.2009C75.6015 63.7568 76.2808 64.3126 76.9602 64.8685C77.269 64.3744 77.5778 63.8803 77.9484 63.448C78.0101 63.3245 78.1336 63.2009 78.2572 63.1392C78.3189 63.0774 78.3807 63.0157 78.4424 62.9539C78.3807 63.0157 78.2572 63.1392 78.3807 63.0157C78.566 62.8304 78.7512 62.7069 78.9983 62.5833L79.1218 62.5216C79.1218 62.5216 78.7512 62.7069 78.9983 62.5833C79.06 62.5216 79.1836 62.5216 79.2453 62.4598C79.3688 62.3981 79.4306 62.3981 79.5541 62.3363C79.6159 62.3363 79.6776 62.2745 79.7394 62.2745C79.9864 62.2128 79.4306 62.3363 79.6159 62.3363C79.8629 62.2745 80.11 62.2128 80.357 62.2128C80.4805 62.2128 80.604 62.151 80.7893 62.151C80.8511 62.151 80.9128 62.151 81.0364 62.151C81.3452 62.0893 80.6658 62.151 80.9746 62.151C81.3452 62.151 81.7157 62.0893 82.0863 61.8422C82.3333 61.6569 82.5804 61.3481 82.5804 61.0393C82.5804 60.2982 81.7775 59.8041 81.0981 59.8041C79.6776 59.9277 78.3189 60.1129 77.0837 60.8541C75.972 61.5334 75.1692 62.5833 74.4898 63.695C74.3663 63.9421 74.2428 64.1273 74.3045 64.4361C74.3663 64.6832 74.4898 64.9302 74.7368 65.1155C75.2927 65.5478 75.972 65.5478 76.5896 65.3625C76.6514 65.3625 76.7132 65.3008 76.7749 65.3008C76.5279 65.3625 76.5279 65.3625 76.6514 65.3625C76.7749 65.3625 76.8984 65.3008 76.9602 65.3008C77.1455 65.239 77.3308 65.239 77.5778 65.239C77.7631 65.239 77.7013 65.239 77.3925 65.239C77.4543 65.239 77.516 65.239 77.5778 65.239C77.6396 65.239 77.7631 65.239 77.8248 65.239C78.0101 65.239 78.2572 65.239 78.4424 65.3008C78.566 65.3008 78.5042 65.3008 78.2572 65.3008C78.3189 65.3008 78.3807 65.3008 78.4424 65.3008C78.566 65.3008 78.6895 65.3625 78.7512 65.3625C78.9365 65.4243 79.1218 65.4861 79.3071 65.5478C79.4306 65.6096 79.4306 65.6096 79.1836 65.4861C79.2453 65.4861 79.3071 65.5478 79.3688 65.5478C79.4306 65.6096 79.5541 65.6096 79.6159 65.6713C79.8012 65.7949 80.0482 65.8566 80.2335 65.9801C80.5423 66.1654 81.0981 66.1654 81.4069 66.1037C81.7157 66.0419 82.148 65.8566 82.3333 65.6096C82.5186 65.3625 82.6421 65.0537 82.5186 64.7449C82.2716 64.1891 82.0245 63.9421 81.7157 63.8185Z" fill="#383838"/>
<path d="M50.8342 65.6096C50.8959 65.6096 50.9577 65.5479 50.9577 65.5479C50.7724 65.6714 50.7106 65.6714 50.8342 65.6096C51.0194 65.5479 51.0812 65.4861 51.2047 65.4243C51.39 65.3626 51.5753 65.3008 51.7606 65.2391C51.8841 65.1773 51.8841 65.1773 51.637 65.3008C51.6988 65.3008 51.7606 65.3008 51.8223 65.2391C51.8841 65.2391 52.0076 65.1773 52.0694 65.1773C52.2546 65.1155 52.5017 65.1155 52.687 65.0538C53.0575 64.992 52.3782 65.0538 52.687 65.0538C52.8105 65.0538 52.934 65.0538 53.0575 65.0538C53.2428 65.0538 53.4281 65.0538 53.6751 65.1155C53.8604 65.1155 53.7986 65.1155 53.5516 65.1155C53.6134 65.1155 53.6751 65.1155 53.7369 65.1155C53.7986 65.1155 53.9222 65.1155 53.9839 65.1773C54.231 65.2391 54.4162 65.3008 54.6633 65.3626C55.6514 65.6714 57.1337 64.8067 56.4543 63.6951C56.1455 63.1392 55.775 62.6451 55.3426 62.1511C54.8486 61.5952 54.2927 61.1011 53.6134 60.7306C52.5017 60.0512 51.143 59.8659 49.846 59.8042C49.4754 59.8042 49.0431 59.9277 48.7343 60.113C48.4873 60.2982 48.2402 60.607 48.2402 60.9159C48.2402 61.7187 49.0431 62.0893 49.7225 62.1511C49.9078 62.1511 50.0313 62.1511 50.2166 62.2128C50.2783 62.2128 50.3401 62.2128 50.4636 62.2128C50.6489 62.2128 50.093 62.1511 50.3401 62.2128C50.5871 62.2746 50.8342 62.2746 51.0812 62.3363C51.2047 62.3363 51.3282 62.3981 51.39 62.4599C51.637 62.5216 51.0194 62.3363 51.2665 62.3981C51.3282 62.3981 51.3282 62.3981 51.39 62.4599C51.5753 62.5216 51.7606 62.6451 51.9458 62.7687C52.0694 62.8304 51.637 62.5216 51.8223 62.7069C51.8841 62.7069 51.8841 62.7687 51.9458 62.7687C52.0694 62.8304 52.1311 62.8922 52.2546 63.0157C52.3164 63.0775 52.3782 63.1392 52.4399 63.1392C52.5017 63.201 52.6252 63.3245 52.5017 63.201C52.3782 63.0157 52.5634 63.2627 52.5634 63.2627C52.6252 63.3245 52.687 63.3863 52.687 63.448C53.0575 63.8803 53.3663 64.3744 53.6751 64.9303C54.2927 64.3744 54.8486 63.8186 55.4662 63.2627C53.2428 62.5216 50.7724 62.8922 48.7343 64.0656C48.1167 64.4362 48.1167 65.3008 48.6726 65.7331C49.2902 66.0419 50.093 66.0419 50.8342 65.6096Z" fill="#383838"/>
<path d="M71.5881 75.2442C71.6499 74.6266 71.4029 74.009 71.0941 73.4531C70.4765 72.2797 70.1059 71.2915 68.7472 70.3651C67.9443 69.8093 66.6473 69.4387 65.6592 69.4387C61.7683 69.377 60.2243 71.7856 59.5449 75.3677L71.5881 75.2442Z" fill="#383838"/>
<path d="M72.5139 75.1209C72.5757 74.071 72.0199 73.2063 71.5875 72.2799C71.1552 71.4771 70.6611 70.7977 69.9818 70.2419C68.4995 69.0684 66.3997 68.7596 64.5469 69.0684C63.0029 69.3155 61.5207 69.9948 60.4707 71.23C59.4826 72.4035 58.9885 74.0092 58.6797 75.4915C58.6179 75.8003 58.9885 75.862 59.2355 75.862C62.7559 75.8003 66.2144 75.8003 69.7347 75.7385C70.2288 75.7385 70.7229 75.7385 71.217 75.7385C71.5875 75.7385 72.2051 75.615 72.3904 75.2444C72.6375 74.8739 72.2051 74.7503 71.8963 74.8121C68.376 74.8739 64.9175 74.8739 61.3971 74.9356C60.9031 74.9356 60.409 74.9356 59.9149 74.9356C60.1002 75.0591 60.2855 75.1827 60.4707 75.3062C60.9031 73.1446 61.7677 70.4271 64.2381 70.0566C65.7821 69.8095 67.3879 70.2419 68.5613 71.2918C69.1171 71.7859 69.4877 72.3417 69.8583 73.0211C70.2288 73.7622 70.7847 74.6268 70.7229 75.4297C70.6611 76.0473 72.4522 75.6767 72.5139 75.1209Z" fill="#383838"/>
<path d="M70.4749 72.4645C70.4131 73.6379 67.7574 72.4027 65.287 72.3409C62.9401 72.2792 61.3961 73.3909 60.5933 72.5262C60.5933 72.5262 62.5078 69.747 65.287 69.5617C68.6838 69.5 70.4749 72.4645 70.4749 72.4645Z" fill="white"/>
<path d="M69.5506 72.5882C69.5506 72.8352 69.6124 72.5882 69.7977 72.5264C69.9212 72.4647 69.9829 72.4647 70.0447 72.4647H69.9829C70.0447 72.4647 69.9829 72.4647 69.9212 72.4647C69.5506 72.4647 69.1801 72.3412 68.8095 72.2794C67.8213 72.0941 66.8332 71.9088 65.845 71.8471C64.8569 71.7853 63.8687 71.9706 62.8805 72.1559C62.51 72.2176 62.2629 72.3412 61.8924 72.3412C61.7688 72.3412 61.6453 72.3412 61.5218 72.2176C61.5218 72.3412 61.5218 72.4647 61.5218 72.65C61.6453 72.4647 61.7071 72.4029 61.8306 72.2794C62.1394 71.9088 62.4482 71.6 62.8188 71.2912C63.6834 70.5501 64.7333 70.056 65.9068 70.2413C67.4508 70.4266 68.933 71.5383 69.7359 72.897C70.0447 73.4528 71.774 72.8352 71.4034 72.1559C70.7241 70.9824 69.5506 70.056 68.3154 69.562C65.845 68.5738 63.2511 69.3149 61.3365 70.9824C60.7807 71.4148 60.2866 71.9706 59.916 72.5264C59.8543 72.65 59.7925 72.8353 59.916 72.9588C60.5954 73.6381 61.6453 73.4529 62.51 73.3293C63.6216 73.0823 64.7333 72.897 65.9068 73.0205C67.0185 73.1441 68.1301 73.4529 69.2418 73.5764C70.0447 73.6381 71.4034 73.4528 71.5269 72.4647C71.4652 71.6 69.6741 71.9088 69.5506 72.5882Z" fill="#383838"/>
<path d="M39.1616 47.6987C37.9264 51.7749 36.6912 55.851 35.456 59.9272C35.2707 60.6683 37.5558 62.3359 37.9264 61.6565C40.0262 58.0744 41.879 54.3688 43.4848 50.5397C43.8554 49.675 41.3849 47.9458 41.0761 48.6251C40.0262 50.7867 39.0381 52.8866 37.9881 55.0482C37.6176 55.851 39.9645 57.6421 40.3968 56.9627C41.879 54.7394 43.1142 52.3925 44.1024 49.9221C43.2995 49.3662 42.4349 48.7486 41.632 48.1928C41.0144 50.5397 40.2115 52.763 39.0998 54.9246C39.9027 55.5422 40.7056 56.1598 41.5085 56.8392C42.6201 54.4923 43.6701 52.2072 44.7818 49.8603C43.9789 49.3045 43.1142 48.6869 42.3113 48.131C41.3849 50.8485 40.5203 53.5042 39.5939 56.2216C39.3469 56.901 41.632 58.6303 42.0643 57.9509C43.423 55.7893 44.473 53.5042 45.2141 51.0955C45.4611 50.2926 42.9907 48.7486 42.7437 49.3662C41.9408 51.4043 41.1997 53.3806 40.3968 55.4187C40.0262 56.3451 42.4966 58.0127 42.8054 57.3333C43.6083 55.604 44.4112 53.8747 45.2141 52.2072C44.4112 51.6514 43.5466 51.0338 42.7437 50.4779C42.6819 52.269 42.1261 53.8747 41.1379 55.357C40.6438 56.0981 43.0525 57.9509 43.5465 57.2715C44.5347 55.851 45.3376 54.3688 45.9552 52.763C45.1523 52.2072 44.2877 51.5896 43.4848 51.0338C43.176 52.0219 42.8672 53.0718 42.5584 54.06C42.3113 54.8011 44.7818 56.4687 45.0288 55.7893C45.9552 53.5659 46.8816 51.3426 47.8698 49.0574C48.2403 48.1928 45.7699 46.4635 45.4611 47.1429C44.2877 49.675 43.2995 52.269 42.5584 54.9864C42.3731 55.7275 44.72 57.3951 45.0288 56.7157C46.6346 53.1954 47.9315 49.5515 49.0432 45.9077C49.2902 45.1048 46.7581 43.3755 46.511 44.3637C45.5229 47.5752 44.5347 50.7867 43.5465 53.9982C44.4112 54.4923 45.2758 55.0482 46.0787 55.5422C46.6346 52.8248 47.3757 50.1074 48.2403 47.4517C47.3757 46.9576 46.511 46.4018 45.7082 45.9077C44.6582 49.675 43.0525 53.3189 40.9526 56.6539C40.5203 57.3333 42.0025 58.3215 42.4349 58.5067C45.1523 59.6184 46.6963 57.148 47.7462 55.0482C49.0432 52.4542 50.0931 49.7986 50.896 47.0194C50.0314 46.5253 49.1667 45.9694 48.3638 45.4754C47.4374 48.8104 46.511 52.2072 45.5229 55.5422C46.3875 56.0363 47.2522 56.5922 48.055 57.0863C49.105 52.5778 50.7107 48.1928 52.8106 44.0549C52.0077 43.499 51.143 42.8814 50.3402 42.3256C49.7226 46.34 48.7344 50.2926 47.2522 54.1218C48.055 54.6776 48.9197 55.2952 49.7226 55.851C50.8342 52.3925 52.0077 48.9957 53.1194 45.5371C53.3664 44.7342 50.896 43.1902 50.649 43.8078C49.6608 46.2782 48.9197 48.8722 48.4256 51.4661C48.3021 52.2072 50.649 53.8747 50.896 53.1954C52.1312 49.8603 53.4282 46.4635 54.6634 43.1285C54.9722 42.2021 52.5635 40.5345 52.2547 41.2139C51.0195 43.9931 50.0314 46.8958 49.4138 49.8603C49.2285 50.6014 51.5754 52.269 51.8842 51.5896C52.8106 49.428 53.737 47.3282 54.6634 45.1666C53.8605 44.6107 52.9958 43.9931 52.193 43.4373C51.7606 45.2901 51.143 47.0811 50.3402 48.7486C51.143 49.3662 51.9459 49.9838 52.7488 50.6632C53.6134 48.3163 54.4781 45.9694 55.281 43.6843C55.5898 42.8197 53.1811 41.0904 52.8723 41.7697C51.5136 44.4254 50.5254 47.2664 49.7843 50.1691C49.599 50.972 52.0694 52.7013 52.3165 51.7131C53.1194 49.0574 54.231 46.5253 55.6515 44.1166C54.8486 43.5608 53.984 42.9432 53.1811 42.3873C52.6253 44.4872 52.0694 46.5253 51.5136 48.6251C51.3283 49.3662 53.737 51.0338 53.984 50.3544C54.9104 48.0693 55.775 45.8459 56.7015 43.5608C55.8986 43.0049 55.0339 42.3873 54.231 41.8315C53.4282 44.2401 52.6253 46.7106 51.8224 49.1192C51.5754 49.9221 54.0458 51.4661 54.2928 50.8485C55.0339 48.8722 55.8368 46.8958 56.5779 44.9195C55.7751 44.3637 54.9104 43.7461 54.1075 43.1902C53.6134 45.1048 53.1811 47.0194 52.687 48.9339C52.5018 49.7368 54.9104 51.4661 55.2192 50.4779C56.0221 48.0693 56.8867 45.5989 57.6896 43.1902C56.825 42.6961 55.9603 42.1403 55.1574 41.6462C54.4163 44.2401 53.6752 46.8341 52.9341 49.3662C52.7488 50.1074 55.0957 51.7749 55.4045 51.0955C56.5779 48.6251 57.5661 46.0312 58.369 43.4373C58.616 42.6961 56.1456 41.0286 55.8986 41.708C54.9104 44.1166 54.1075 46.5253 53.5517 49.0574C53.3664 49.8603 55.8368 51.5896 56.0838 50.6014C56.7015 48.3781 57.4426 46.2165 58.369 44.0549C57.5661 43.499 56.7015 42.8814 55.8986 42.3256C55.281 44.1784 54.6634 46.0312 54.1075 47.8222C53.8605 48.5634 56.2691 50.2309 56.5779 49.5515C57.3808 47.884 58.1837 46.2165 58.9866 44.4872C58.1837 43.9313 57.3191 43.3137 56.5162 42.7579C56.0839 44.6107 55.6515 46.4018 55.2192 48.2546C55.0339 49.0574 57.4426 50.6632 57.6896 49.9838C58.4307 48.0075 59.2336 46.0312 59.9747 44.0549C59.1719 43.4373 58.369 42.8197 57.5661 42.1403C57.0103 43.6225 56.5162 45.1048 55.9603 46.587C55.6515 47.4517 58.0602 49.181 58.369 48.5016C58.9248 47.2664 59.5424 45.9694 60.0983 44.7342C59.2954 44.1784 58.4307 43.5608 57.6279 43.0049C57.3191 44.3019 56.9485 45.5989 56.6397 46.9576C56.4544 47.6987 58.8631 49.3662 59.1101 48.6869C60.0365 46.4635 61.0247 44.3019 61.9511 42.0785C61.1482 41.4609 60.3453 40.8433 59.5424 40.164C58.616 42.5726 57.6896 44.9813 56.7632 47.3899C56.3927 48.2546 58.8631 49.9838 59.1719 49.3045C60.3453 46.8958 61.5187 44.4254 62.6922 42.0168C61.8893 41.3992 61.0864 40.7816 60.2835 40.1022C59.0483 43.0049 57.7514 45.8459 56.5162 48.7486C56.1456 49.6133 58.5543 51.3426 58.9248 50.6632C60.5923 47.6987 62.1981 44.7342 63.8656 41.7697C63.0627 41.1521 62.2599 40.5345 61.457 39.8552C60.5306 42.0785 59.6042 44.3637 58.7395 46.587C58.4307 47.3899 60.7159 49.2427 61.1482 48.5016C62.3216 46.7723 63.4951 44.9813 64.6685 43.252C63.8656 42.6344 63.0627 42.0168 62.2599 41.3374C61.457 42.8197 60.5923 44.3637 59.7895 45.8459C59.3571 46.7106 61.8275 48.4398 62.1981 47.7605C63.4333 45.4754 64.7303 43.252 65.9655 40.9669C65.1626 40.3493 64.3597 39.7317 63.5568 39.0523C63.0627 40.164 62.5687 41.2139 62.1363 42.3256C61.7658 43.1285 64.0509 44.9195 64.545 44.2401C65.6567 42.7579 66.7683 41.3374 67.88 39.8552C67.0771 39.3611 66.2125 38.867 65.4096 38.3112C65.5949 38.7435 65.5949 39.1141 65.4714 39.5464C65.2861 40.2257 67.5095 41.955 67.9418 41.2757C68.2506 40.7816 68.6212 40.2875 68.93 39.7934C68.1271 39.2376 67.2624 38.62 66.4595 38.0641C66.5831 39.2993 66.6448 40.5345 66.7683 41.8315C66.8301 42.4491 67.3859 42.9432 67.8183 43.252C68.0035 43.3755 69.0535 44.0549 69.2388 43.5608C69.424 43.1285 69.6093 42.6344 69.7946 42.2021C68.9917 41.6462 68.1271 41.0286 67.3242 40.4728C67.2624 41.3374 67.1389 42.2638 67.0771 43.1285C67.0154 43.9313 69.424 45.6606 69.6093 44.6725C69.7328 44.1784 69.8563 43.6225 69.9799 43.1285C69.1152 42.6961 68.3123 42.2021 67.4477 41.7697C67.4477 41.8315 67.386 41.8933 67.3242 41.955C68.3741 42.8814 68.7447 43.0049 68.3741 42.4491C68.0653 41.8933 67.3859 41.3992 66.8301 41.1521C66.5213 41.0286 65.7802 40.9669 66.0272 41.5227C66.6448 42.8814 67.2007 44.3019 67.8183 45.6606C68.1271 46.34 68.6829 46.8341 69.3623 47.1429C69.7946 47.3282 70.4739 47.4517 70.3504 46.8341C70.1651 45.7224 69.9181 44.6725 69.7328 43.5608C68.9299 43.252 68.1271 42.9432 67.3242 42.6961C67.88 43.8078 68.8682 44.6725 69.9181 45.3518C70.1034 45.4754 71.2151 46.0312 71.2151 45.4136C71.2151 44.549 71.2151 43.7461 71.2768 42.8814C70.4122 42.3873 69.5476 41.8315 68.7447 41.3374C68.8064 42.5726 69.2388 43.6843 70.1034 44.6107C70.474 45.043 70.968 45.4136 71.4621 45.5989C71.6474 45.6606 72.3268 45.8459 72.3268 45.4136C72.265 44.6107 72.018 43.9313 71.6474 43.1902C71.3386 42.6961 70.7828 42.2021 70.2269 41.955C70.0416 41.8315 69.2388 41.5845 69.2388 42.0785C69.3005 43.0667 69.3005 44.0549 69.3623 45.043C69.3623 45.6606 70.1034 46.2782 70.5975 46.5253C70.7828 46.6488 71.8944 47.2046 71.8944 46.587C71.8944 45.7224 71.8944 44.8577 71.8944 43.9931C71.1533 43.7461 70.4122 43.4373 69.6711 43.1902C70.3504 44.1166 70.968 45.043 71.6474 45.9694C71.9562 46.4018 72.6356 46.8958 73.1914 47.0194C73.562 47.0811 73.9943 47.0194 73.8708 46.587C73.562 45.5371 73.1914 44.4254 72.8826 43.3755C72.6973 42.7579 72.018 42.2638 71.5239 42.0168C71.2151 41.8933 70.4739 41.5227 70.3504 42.0785C70.0416 43.6843 70.5357 45.1048 71.4621 46.4018C71.7709 46.8341 72.3268 47.2664 72.8208 47.3899C73.0061 47.5752 73.6237 47.7605 73.6237 47.3282C73.562 45.9077 73.562 44.4872 73.5002 43.0049C72.6356 42.5726 71.8327 42.0785 70.968 41.6462C71.2768 42.8197 71.5239 43.9931 71.8327 45.1666C72.6356 45.5371 73.5002 45.9077 74.3031 46.2782C73.9325 45.1048 73.5002 43.8696 73.1296 42.6961C72.9444 42.2021 70.9063 40.2875 70.5975 41.3374C70.0416 43.1902 70.0416 45.1048 70.5975 46.9576C71.1533 46.9576 71.7092 47.0194 72.2032 47.0194C71.6474 46.587 71.1533 46.1547 70.5975 45.7224C70.7828 46.2165 70.9063 46.7723 71.0916 47.2664C71.7709 47.2046 72.3885 47.2664 73.0061 47.637C73.1914 47.7605 74.056 48.0075 73.9943 47.5134C73.8708 45.8459 73.809 44.1166 73.6855 42.4491C72.8208 41.955 71.9562 41.3992 71.1533 40.9051C71.3386 43.4373 71.9562 45.8459 73.0679 48.1928C73.3149 48.6869 73.8708 49.1192 74.3031 49.3045C74.4884 49.3662 75.2912 49.7986 75.4148 49.428C76.0941 47.6987 76.3412 45.9077 76.0941 44.0549C76.0324 43.4373 75.5383 43.0049 75.0442 42.6344C74.7972 42.4491 73.8708 41.8933 73.6237 42.3256C72.6356 44.1784 74.7972 46.093 76.4029 46.5253C76.65 46.587 77.0823 46.6488 77.0823 46.2782C77.144 45.4136 76.897 44.5489 76.4029 43.8078C76.0324 43.252 75.4765 42.7579 74.8589 42.5109C74.4884 42.3873 73.9325 42.3256 74.056 42.8814C74.3031 43.9931 75.0442 44.8577 75.9088 45.5371C76.0941 45.7224 77.2676 46.4635 77.5146 45.9694C77.9469 45.1048 78.1322 44.2401 78.1322 43.3137C77.2676 42.8197 76.4029 42.2638 75.6 41.7697C75.7236 42.8197 75.7853 43.9313 75.9088 44.9813C76.0324 44.8577 76.2176 44.796 76.3412 44.6725C75.5383 44.7342 74.7354 44.796 73.9325 44.8577C73.6237 44.8577 73.4384 45.043 73.562 45.3518C74.2413 47.0194 75.7853 48.8104 77.6999 48.9957C79.2439 49.181 80.3556 47.637 79.4909 46.2782C79.1821 45.7842 78.6263 45.2901 78.0704 45.043C77.8234 44.9195 77.144 44.6725 77.0823 45.1666C76.9588 46.5253 77.5146 47.7605 78.3792 48.7486C78.6263 49.0574 80.4173 50.5397 80.6026 49.5515C80.7261 48.9339 80.8497 48.3163 80.9114 47.7605C80.2321 47.5752 79.6144 47.3899 78.9351 47.2046C79.6144 47.884 80.1703 48.6251 80.6026 49.4898C80.8497 49.9838 81.4055 50.4162 81.8378 50.6014C82.0231 50.6632 82.826 51.0955 82.9495 50.725C83.3201 49.675 83.2583 48.7486 82.7642 47.7605C82.5172 47.2664 81.9613 46.8341 81.529 46.6488C81.3437 46.5253 80.6026 46.1547 80.4173 46.5253C79.8615 47.7605 80.6644 48.8722 81.6525 49.6133C81.9613 49.8603 82.4554 50.2309 82.8877 50.1691C83.1348 50.1691 83.4436 49.9838 83.2583 49.675C83.073 49.3045 82.9495 48.9339 82.7642 48.5634C82.4554 47.9458 81.282 46.6488 80.4173 46.9576C79.1821 47.4517 80.2938 48.9339 80.8496 49.4898C81.3437 49.9838 82.0231 50.4162 82.7024 50.6632C83.0112 50.725 83.3201 50.7867 83.6289 50.8485C83.7524 50.8485 83.8141 50.9102 83.9377 50.9102C84.4935 50.972 83.4436 51.4661 83.1348 50.1691C83.4436 50.0456 83.7524 49.9221 84.1229 49.8603C82.7024 49.2427 81.282 48.6251 79.8615 48.0075C79.6144 47.884 78.8733 47.637 78.8733 48.131C78.8116 49.6133 80.1703 50.9102 81.4672 51.4661C81.7143 51.5896 82.2084 51.7749 82.3937 51.5278C82.6407 51.1573 82.9495 50.8485 83.1965 50.4779C83.7524 49.7986 81.282 47.884 80.7879 48.5634C80.5408 48.9339 80.2321 49.2427 79.985 49.6133C80.2938 49.6133 80.6026 49.6133 80.9114 49.675C81.7143 49.9838 81.4055 50.3544 81.4055 49.7368C81.0967 49.7986 80.7261 49.7986 80.4173 49.8603C81.8378 50.4779 83.2583 51.0955 84.6788 51.7131C85.0493 51.8984 85.7905 52.0219 85.6669 51.4043C85.4199 50.2926 84.2465 49.428 83.1965 49.0574C82.7642 48.9339 82.2701 48.7486 81.8378 48.7486C81.0967 48.6869 82.5789 49.3662 82.5172 49.3662C82.5172 49.3662 82.5172 49.181 82.6407 49.1192C81.8378 48.5634 81.0967 48.0693 80.2938 47.5134C80.4791 47.884 80.6026 48.2546 80.7879 48.6251C81.3437 48.6251 81.8996 48.6869 82.3937 48.6869C82.5172 48.8104 82.6407 48.9339 82.7642 49.0574C82.7642 48.9957 82.7642 48.9339 82.7642 48.8722C82.826 48.8104 82.826 48.5016 82.8877 48.4398C82.0849 48.0075 81.3437 47.5752 80.5408 47.1429C80.7879 47.637 80.7879 48.3163 80.6026 48.8722C81.4055 49.3045 82.1466 49.7368 82.9495 50.1691C82.3319 48.8722 81.4055 47.7605 80.4173 46.8341C80.1703 46.587 78.6263 45.4136 78.441 46.2782C78.3175 46.8958 78.194 47.5134 78.1322 48.0693C78.8733 48.3163 79.6144 48.6251 80.3556 48.8722C79.7997 48.2546 79.6762 47.5752 79.738 46.7723C78.9351 46.4018 78.1322 46.0312 77.3293 45.6606C77.5764 46.093 76.9588 46.6488 76.65 46.8341C76.3412 46.9576 76.0941 46.8341 76.4029 47.0811C76.65 47.2664 76.4029 47.0811 76.4029 47.0194C76.3412 46.8341 76.2176 46.7106 76.1559 46.587C76.0324 46.7723 75.9088 46.8958 75.7853 47.0811C76.5882 47.0194 77.3911 46.9576 78.194 46.8958C78.3175 46.8958 78.6263 46.8341 78.6263 46.587C78.5028 45.5371 78.441 44.4254 78.3175 43.3755C78.2557 42.6961 77.6381 42.2021 77.0823 41.8933C76.897 41.7697 75.7853 41.2139 75.7853 41.8315C75.7853 42.6344 75.6 43.4373 75.2912 44.1784C75.8471 44.3019 76.3412 44.4872 76.897 44.6107C76.9588 44.6725 76.7735 44.2401 76.7735 44.0549C75.9706 43.7461 75.1677 43.4373 74.3648 43.1902C74.6736 43.6843 74.7972 44.1166 74.7354 44.7342C74.9824 44.6725 75.1677 44.5489 75.4148 44.4872C76.5264 44.796 76.1559 45.4754 76.0941 44.796C76.0941 44.549 76.1559 44.3637 76.2176 44.1784C75.4148 43.6225 74.5501 43.0049 73.7472 42.4491C73.9943 44.1784 73.809 45.8459 73.1914 47.4517C73.9943 47.884 74.7354 48.3163 75.5383 48.7486C74.6119 46.7723 74.056 44.6107 73.8708 42.3873C73.809 41.708 73.1296 41.2139 72.6356 40.9051C72.4503 40.7816 71.2768 40.2257 71.3386 40.8433C71.4621 42.5109 71.5239 44.2401 71.6474 45.9077C71.9562 45.8459 72.3268 45.8459 72.6356 45.7842C71.7092 45.2901 70.6592 45.043 69.5476 45.1048C68.4976 45.1666 69.7328 46.4018 70.0416 46.6488C70.5975 47.0811 71.0916 47.5134 71.6474 47.9458C71.8944 48.131 73.562 49.0574 73.2532 48.0075C72.7591 46.2782 72.8208 44.5489 73.3149 42.8197C72.4503 42.3873 71.6474 41.8933 70.7828 41.4609C71.1533 42.6344 71.5856 43.8696 71.9562 45.043C72.2032 45.7224 72.8826 46.2165 73.5002 46.5253C73.8708 46.7106 74.6119 46.8341 74.4884 46.2165C74.1796 45.043 73.9325 43.8696 73.6237 42.6961C73.5002 42.0785 72.7591 41.5845 72.265 41.3374C72.0797 41.2139 71.0916 40.7816 71.0916 41.3992C71.1533 42.8197 71.1533 44.2401 71.2151 45.7224C71.9562 45.9694 72.6973 46.2782 73.4384 46.5253C72.8826 45.7224 72.8208 44.6107 73.0061 43.6225C72.1415 43.1902 71.3386 42.6961 70.474 42.2638C70.7828 43.3137 71.1533 44.4254 71.4621 45.4754C72.2032 45.6606 72.9444 45.9077 73.6855 46.093C73.0061 45.1666 72.3885 44.2401 71.7092 43.3137C71.5239 43.0667 69.4858 41.5227 69.4858 42.5109C69.4858 43.3755 69.4858 44.2401 69.4858 45.1048C70.3504 45.5989 71.2151 46.1547 72.018 46.6488C71.9562 45.6606 71.9562 44.6725 71.8944 43.6843C71.0916 43.3137 70.2887 42.9432 69.4858 42.5726C69.7328 43.0049 69.8564 43.3755 69.9181 43.8696C70.6592 44.1166 71.4004 44.4254 72.1415 44.6725C71.7092 44.1784 71.4621 43.5608 71.4621 42.8814C71.4621 42.2638 70.721 41.6462 70.2269 41.3992C70.0416 41.2757 68.93 40.7198 68.93 41.3374C68.93 42.2021 68.93 43.0049 68.8682 43.8696C69.3005 43.8696 69.7328 43.9313 70.1652 43.9313C69.9799 43.8078 69.8563 43.5608 69.7328 43.3755C69.3005 42.8814 68.6212 42.3873 68.0653 42.2021C67.6947 42.0785 67.1389 42.0168 67.2624 42.5726C67.4477 43.6843 67.6947 44.7342 67.88 45.8459C68.6829 46.2165 69.5476 46.587 70.3504 46.9576C69.7328 45.5989 69.177 44.1784 68.5594 42.8197C67.7565 42.5109 66.9536 42.2021 66.1507 41.955C66.6448 42.9432 67.5712 43.8696 68.6829 44.1784C69.424 44.3637 70.3504 43.9313 69.9799 43.0667C69.7328 42.4491 69.177 41.955 68.6212 41.708C68.3124 41.5227 67.5712 41.2139 67.4477 41.7697C67.3242 42.2638 67.2007 42.8197 67.0771 43.3137C67.9418 43.8078 68.8064 44.3637 69.6093 44.8577C69.6711 43.9931 69.7946 43.0667 69.8564 42.2021C69.9181 41.5227 67.633 39.7317 67.3859 40.4728C67.2007 40.9051 67.0154 41.3992 66.8301 41.8315C67.633 42.3873 68.4976 43.0049 69.3005 43.5608C69.177 42.3256 69.1152 41.0904 68.9917 39.7934C68.93 39.1758 68.3741 38.6817 67.9418 38.3729C67.6948 38.1877 66.7683 37.6318 66.5213 38.0641C66.2125 38.5582 65.8419 39.0523 65.5331 39.5464C66.336 40.1022 67.2007 40.7198 68.0036 41.2757C68.1271 40.7198 68.0653 40.164 67.88 39.6081C67.6947 39.0523 67.2007 38.62 66.7066 38.3112C66.4595 38.1259 65.7184 37.7553 65.4714 38.0641C64.3597 39.5464 63.248 40.9669 62.1363 42.4491C62.9392 43.0667 63.7421 43.6843 64.545 44.3637C65.0391 43.252 65.5331 42.2021 65.9655 41.0904C66.336 40.2257 63.9274 38.4965 63.5568 39.1758C62.3216 41.4609 61.0247 43.6843 59.7895 45.9694C60.5923 46.587 61.3952 47.2046 62.1981 47.884C63.001 46.4018 63.8656 44.8577 64.6685 43.3755C65.1008 42.5726 62.6922 40.7816 62.2599 41.4609C61.0864 43.1902 59.913 44.9813 58.7395 46.7106C59.5424 47.3282 60.3453 47.9458 61.1482 48.6251C62.0746 46.4018 63.001 44.1166 63.8656 41.8933C64.2362 41.0286 61.8275 39.2993 61.457 39.9787C59.7895 42.9432 58.1837 45.9077 56.5162 48.8722C57.3191 49.4898 58.1219 50.1074 58.9248 50.7867C60.16 47.884 61.457 45.043 62.6922 42.1403C63.0627 41.2757 60.5923 39.5464 60.2835 40.2257C59.1101 42.6344 57.9367 45.1048 56.7632 47.5134C57.5661 48.131 58.369 48.7486 59.1719 49.428C60.0983 47.0194 61.0247 44.6107 61.9511 42.2021C62.3216 41.2757 59.7895 39.6081 59.5424 40.2875C58.616 42.5109 57.6279 44.6725 56.7015 46.8958C57.5043 47.4517 58.369 48.0693 59.1719 48.6251C59.4807 47.3282 59.8512 46.0312 60.16 44.6725C60.3453 43.9313 57.9984 42.2638 57.6896 42.9432C57.1338 44.1784 56.5162 45.4754 55.9603 46.7106C56.7632 47.3282 57.5661 47.9458 58.369 48.6251C58.9248 47.1429 59.4189 45.6606 59.9747 44.1784C60.3453 43.252 57.8131 41.6462 57.5661 42.2638C56.825 44.2401 56.0221 46.2165 55.281 48.1928C56.0838 48.7486 56.9485 49.3662 57.7514 49.9221C58.1837 48.0693 58.616 46.2782 59.0483 44.4254C59.2336 43.6843 56.8867 42.0168 56.5779 42.6961C55.7751 44.3637 54.9722 46.0312 54.1693 47.7605C54.9722 48.3163 55.8368 48.9339 56.6397 49.4898C57.2573 47.637 57.8749 45.7842 58.4307 43.9931C58.6778 43.252 56.2074 41.5845 55.9603 42.2638C55.0339 44.4872 54.231 46.7723 53.5517 49.1192C54.4163 49.6133 55.281 50.1691 56.0838 50.6632C56.5779 48.2546 57.3191 45.9077 58.3072 43.6225C57.5043 43.0667 56.6397 42.4491 55.8368 41.8933C55.0339 44.4254 54.1075 46.8341 52.9958 49.2427C53.7987 49.7986 54.6634 50.4162 55.4662 50.972C56.2074 48.3781 56.9485 45.7842 57.6896 43.252C57.9367 42.4491 55.4662 40.7198 55.1574 41.708C54.3546 44.1166 53.4899 46.587 52.687 48.9957C53.5517 49.4898 54.4163 50.0456 55.2192 50.5397C55.7133 48.6251 56.1456 46.7106 56.6397 44.796C56.825 43.9931 54.4163 42.3873 54.1693 43.0667C53.4282 45.043 52.6253 47.0194 51.8842 48.9957C52.687 49.5515 53.5517 50.1691 54.3546 50.725C55.3427 48.3163 56.1456 45.9077 56.9485 43.4373C57.1955 42.6344 54.7251 41.0904 54.4781 41.708C53.5517 43.9931 52.687 46.2165 51.7606 48.5016C52.5635 49.0574 53.4282 49.675 54.231 50.2309C54.7869 48.131 55.3427 46.093 55.8986 43.9931C56.0839 43.252 53.7987 41.5845 53.4282 42.2638C52.0077 44.796 50.8342 47.4517 49.9696 50.1691C50.8342 50.6632 51.6989 51.219 52.5018 51.7131C53.1811 48.9339 54.1693 46.2165 55.4662 43.6225C54.6634 43.0049 53.8605 42.3873 53.0576 41.708C52.193 44.0549 51.3283 46.4018 50.5254 48.6869C50.2166 49.5515 52.6253 51.2808 52.9341 50.6014C53.7987 48.8104 54.4163 46.8958 54.8486 44.9195C55.0339 44.1784 52.6253 42.5109 52.3782 43.1902C51.4518 45.3518 50.5254 47.4517 49.599 49.6133C50.4019 50.1691 51.2666 50.7867 52.0694 51.3426C52.687 48.5016 53.6134 45.7224 54.7869 43.0667C53.984 42.4491 53.1811 41.8315 52.3782 41.1521C51.143 44.4872 49.8461 47.884 48.6109 51.219C49.4138 51.7749 50.2784 52.3925 51.0813 52.9483C51.5754 50.4162 52.2547 48.0075 53.2429 45.5989C52.44 45.043 51.5754 44.4254 50.7725 43.8696C49.6608 47.3282 48.4874 50.725 47.3757 54.1835C47.1286 54.9864 49.599 56.5304 49.8461 55.9128C51.3283 52.0219 52.44 47.9458 53.0576 43.8078C53.1811 43.1285 50.9578 41.3374 50.5872 42.0785C48.4256 46.2782 46.7581 50.7867 45.7082 55.4187C45.5229 56.2216 47.9933 57.9509 48.2403 56.9627C49.1667 53.6277 50.0931 50.2309 51.0813 46.8958C51.3283 46.093 48.7962 44.3637 48.5491 45.3518C47.808 47.6987 46.9434 50.0456 45.8934 52.269C45.3994 53.2571 44.967 54.307 44.2877 55.1717C43.9171 55.6658 42.8672 56.901 42.0643 56.5922C42.5584 57.2098 43.0525 57.8274 43.5465 58.445C45.7082 54.9864 47.3139 51.2808 48.4256 47.3899C48.6726 46.587 46.2022 44.8577 45.8934 45.8459C45.0288 48.5016 44.2877 51.219 43.7318 53.9365C43.5466 54.7394 46.017 56.4686 46.264 55.4805C47.2522 52.269 48.2403 49.0574 49.2285 45.8459C48.3638 45.3518 47.4992 44.796 46.6963 44.3019C45.5846 47.884 44.2877 51.4043 42.7437 54.8011C43.5466 55.357 44.4112 55.9746 45.2141 56.5304C45.8934 53.9365 46.8198 51.4043 47.9933 48.9957C47.1904 48.3781 46.3875 47.7605 45.5846 47.0811C44.6582 49.3045 43.7318 51.5278 42.7437 53.813C43.5466 54.3688 44.4112 54.9864 45.2141 55.5422C45.5229 54.5541 45.8317 53.5042 46.1405 52.516C46.3875 51.7131 43.8554 50.1691 43.6701 50.7867C43.0525 52.3925 42.2496 53.9365 41.2614 55.2952C42.0643 55.9128 42.8672 56.5304 43.6701 57.2098C44.72 55.6658 45.2758 53.8747 45.3994 51.9602C45.4611 51.2808 43.2378 49.428 42.9289 50.2309C42.1261 51.9602 41.3232 53.6894 40.5203 55.357C41.3232 55.9746 42.1261 56.5922 42.9289 57.2715C43.7318 55.2334 44.473 53.2571 45.2758 51.219C44.473 50.6632 43.6083 50.0456 42.8054 49.4898C42.0643 51.7749 41.0144 53.9365 39.7174 55.9746C40.5203 56.5304 41.3849 57.148 42.1878 57.7038C43.1142 54.9864 43.9789 52.3307 44.9053 49.6133C45.1523 48.8722 42.7437 47.2046 42.4349 47.884C41.3232 50.2309 40.2733 52.516 39.1616 54.8629C38.7293 55.7275 41.2614 57.4568 41.5702 56.7774C42.7437 54.5541 43.6083 52.1454 44.2259 49.7368C44.4112 48.9957 42.0025 47.3282 41.7555 48.0075C40.7673 50.4779 39.4704 52.8248 38.0499 55.0482C38.8528 55.6658 39.6557 56.2834 40.4585 56.9627C41.5085 54.8011 42.4966 52.7013 43.5465 50.5397C42.7437 49.9221 41.9408 49.3045 41.1379 48.6251C39.5321 52.4542 37.6793 56.1598 35.5795 59.7419C36.3824 60.2978 37.247 60.9154 38.0499 61.4712C39.2851 57.3951 40.5203 53.3189 41.7555 49.2427C41.9408 48.5016 39.4086 46.7723 39.1616 47.6987Z" fill="black"/>
<path d="M78.2583 42.1403C77.9495 43.6226 77.8877 45.1666 78.073 46.7106C78.1347 47.0811 78.1965 47.2664 78.4435 47.5134C78.6906 47.7605 79.1229 47.884 79.4935 47.9458C80.1728 48.0075 80.9757 47.7605 81.0992 47.0194C81.3463 45.5989 81.408 44.1784 81.2845 42.7579C81.2845 42.3874 81.161 42.2021 80.9139 41.955C80.6669 41.708 80.2346 41.5845 79.864 41.5227C79.4935 41.5227 79.0611 41.5227 78.7523 41.7698C78.5053 41.8933 78.1965 42.2021 78.2583 42.5109C78.3818 43.9314 78.5671 45.2901 78.9376 46.6488C79.9258 46.5253 80.9757 46.4635 81.9639 46.34C81.6551 45.5371 81.408 44.6725 81.0992 43.8696C80.2346 44.1166 79.3082 44.4254 78.4435 44.6725C78.8759 44.9195 79.2464 45.2283 79.5552 45.5989C79.617 45.6606 79.864 45.9077 79.6787 45.7224C79.7405 45.7842 79.8023 45.9077 79.864 45.9694C80.0493 46.1547 80.1728 46.34 80.2963 46.587C80.6669 47.0811 81.408 47.3282 81.9639 47.2664C82.4579 47.2046 83.1373 46.8958 83.1991 46.34C83.2608 46.0312 83.2608 45.7224 83.3226 45.4136C82.5197 45.6606 81.7168 45.9077 80.9139 46.1547C81.0992 46.2165 81.2227 46.34 81.408 46.4018C81.6551 46.5253 81.2845 46.34 81.408 46.4018C81.4698 46.4635 81.5315 46.5253 81.6551 46.587C81.7786 46.7106 81.9021 46.7723 82.0256 46.8958C82.0874 46.9576 82.1491 47.0194 82.2109 47.0811C82.2727 47.1429 82.4579 47.3282 82.2727 47.1429C82.2727 46.8341 82.2109 46.587 82.2109 46.2782C81.7786 47.0811 81.7168 48.0075 81.9021 48.9339C81.9639 49.2427 82.2727 49.4898 82.5815 49.6133C82.8903 49.7986 83.3843 49.8603 83.7549 49.7986C84.4343 49.675 85.0519 49.3045 84.9283 48.5634C84.8666 48.0693 84.8048 47.637 84.7431 47.1429C84.3725 47.5752 83.9402 47.9458 83.5696 48.3781H83.6314C83.3843 48.3781 83.0755 48.3163 82.8285 48.3163C81.5315 47.4517 81.8403 46.9576 83.6931 46.7723C83.9402 46.8958 84.1255 47.0194 84.3725 47.0811C84.4343 47.1429 84.4343 47.2046 84.496 47.2046C83.6314 47.5752 82.8285 47.9458 81.9639 48.3163C83.3843 49.3045 85.3607 49.3662 86.6576 48.131C87.2135 47.637 86.7811 46.8958 86.2253 46.587C85.5459 46.2782 84.6813 46.2782 84.0637 46.7723C83.8784 46.9576 84.3107 46.6488 84.0637 46.7723C84.0019 46.7723 83.9402 46.8341 83.9402 46.8341C84.1255 46.7723 84.1872 46.7723 84.0637 46.7723C84.0019 46.7723 84.0019 46.7723 83.9402 46.8341C84.0019 46.7723 84.249 46.7723 84.0019 46.8341C83.8784 46.8958 84.3725 46.8958 84.1255 46.8341C83.8784 46.7723 84.4343 46.8958 84.249 46.8341C84.0019 46.7723 84.3107 46.8341 84.3107 46.8958C84.3107 46.8958 84.249 46.8958 84.249 46.8341C84.1255 46.7723 84.1255 46.7723 84.3107 46.8958C83.6931 46.4635 82.952 46.34 82.2727 46.6488C81.7786 46.8958 81.3463 47.4517 81.7786 48.0075C82.2109 48.5016 82.8285 48.7486 83.5079 48.7486C84.0637 48.7486 84.8048 48.5634 85.0519 48.0075C85.2371 47.637 85.1754 47.2046 84.9283 46.8341C84.496 46.2165 83.6931 46.0312 82.952 46.093C82.6432 46.093 82.2109 46.2782 81.9639 46.5253C81.7168 46.7723 81.7168 47.0194 81.7168 47.3282C81.7786 47.8222 81.8403 48.2546 81.9021 48.7486C82.8903 48.6251 83.9402 48.5634 84.9283 48.4398C84.9283 48.3781 84.9283 48.3163 84.8666 48.2546C84.9283 48.4398 84.8666 48.2546 84.8666 48.1928C84.8666 48.0075 84.8666 47.884 84.8666 47.6987C84.8666 47.637 84.8666 47.5752 84.9283 47.5134C84.9283 47.4517 84.9901 47.3899 84.9283 47.5134C84.9901 47.3282 85.0519 47.2046 85.1136 47.0194C85.2371 46.7723 85.2371 46.4018 85.0519 46.1547C84.3725 45.4136 83.5696 44.7342 82.6432 44.2402C81.9639 43.8696 80.3581 43.8696 80.2346 44.9813C80.1728 45.2901 80.1728 45.5989 80.1111 45.9077C81.0992 45.7842 82.0256 45.7224 83.0138 45.5989C82.3962 44.6725 81.5933 43.8696 80.6669 43.1902C80.1728 42.8197 79.4317 42.6344 78.8141 42.8814C78.3818 43.0667 77.8259 43.499 78.0112 44.0549C78.32 44.8578 78.5671 45.7224 78.8759 46.5253C79.1229 47.2046 79.9875 47.5134 80.7287 47.4517C81.3463 47.3899 82.0874 46.9576 81.9021 46.2165C81.7168 45.5989 81.5933 44.9813 81.5315 44.3637C81.408 43.7461 81.3463 43.1285 81.2845 42.6344C80.2346 42.5726 79.2464 42.4491 78.1965 42.3874C78.32 43.8078 78.2583 45.2283 78.0112 46.6488C79.0611 46.7106 80.0493 46.8341 81.0992 46.8958C80.9757 45.3518 81.0375 43.8696 81.2845 42.3256C81.3463 42.0168 81.0992 41.708 80.9139 41.5227C80.6669 41.2757 80.2346 41.1522 79.864 41.0904C79.2464 41.2139 78.4435 41.3992 78.2583 42.1403Z" fill="black"/>
<path d="M53.4893 42.5731C52.8099 43.2525 52.2541 44.0554 51.76 44.92C51.2659 45.7229 50.8336 46.6493 50.5866 47.5757C50.4013 48.4403 51.3277 49.1815 51.9453 49.6755C52.5011 50.1079 53.1805 50.2931 53.8598 50.3549C54.9098 50.4784 56.0214 50.4167 57.0096 50.1079C57.5037 49.9226 56.7626 49.1197 56.5773 48.9344C56.2685 48.6256 55.9597 48.3786 55.6509 48.1933C55.4656 48.0698 55.1568 47.9463 54.9098 47.9463C53.9216 48.0698 52.9334 48.6256 52.3158 49.4285C52.0688 49.7373 52.6864 50.3549 52.8717 50.5402C53.057 50.7255 53.304 50.9107 53.4893 51.096C53.6746 51.2196 54.0451 51.5283 54.3539 51.5283C55.7744 51.6519 57.1331 51.2813 58.2448 50.3549C58.4918 50.1079 57.8125 49.3667 57.689 49.2432C57.3184 48.8727 56.7626 48.3786 56.2067 48.2551C55.6509 48.1315 55.095 48.008 54.601 47.8845C53.9216 47.761 54.4157 48.5639 54.601 48.7491C55.0333 49.2432 55.6509 49.8608 56.3302 49.9843C56.8861 50.1079 57.4419 50.2314 57.936 50.3549C57.2566 49.6755 56.5773 48.9962 55.8979 48.3168C55.0333 49.0579 53.7981 49.4903 52.6864 49.3667C53.3658 50.0461 54.0451 50.7255 54.7245 51.4048C55.2803 50.6637 56.0832 50.1696 57.0714 50.1079C56.392 49.3667 55.6509 48.6874 54.9715 47.9463C54.3539 48.1315 53.7363 48.2551 53.057 48.2551C52.7482 48.2551 52.5011 48.2551 52.1923 48.1933C52.007 48.1933 51.8835 48.1315 51.6982 48.1315C51.6365 48.1315 51.513 48.0698 51.4512 48.0698C51.2659 48.008 51.3277 48.0698 51.6365 48.1315C51.8218 48.2551 52.0688 48.4403 52.2541 48.5639L52.1923 48.5021C52.3776 48.6874 52.5629 48.8727 52.7482 49.0579L52.6864 48.9962C52.8099 49.1815 52.8717 49.305 52.9952 49.4903C52.9334 49.305 53.057 48.9962 53.1187 48.8727C53.1805 48.6256 53.304 48.3786 53.3658 48.1933C53.551 47.761 53.7981 47.3287 53.9834 46.8963C54.4774 46.0317 55.095 45.2288 55.7126 44.5495C55.8362 44.4259 55.6509 44.1171 55.5891 43.9936C55.4038 43.6848 55.095 43.376 54.848 43.1907C54.5392 42.9437 54.2922 42.6967 53.9216 42.5731C53.9216 42.5114 53.6128 42.3879 53.4893 42.5731Z" fill="black"/>
<path d="M40.7065 53.0724C40.2742 55.234 39.5331 57.3956 38.4214 59.3102C39.3478 58.8778 40.2742 58.4455 41.1388 58.0132L41.2006 57.8897C40.9535 58.075 40.6447 58.1985 40.3977 58.3838C40.3977 58.3838 40.4595 58.3838 40.4595 58.322C40.0271 58.5073 39.5331 58.7543 39.1007 58.9396H39.1625C39.039 59.0014 38.9155 59.0014 38.7919 59.0631C38.9155 59.0631 38.9772 59.0631 39.1007 59.1249C39.1625 59.0631 39.2243 59.0014 39.2243 58.9396C39.2243 58.9396 39.1625 58.9396 39.1625 59.0014C39.5331 58.7543 39.9036 58.569 40.3359 58.322H40.2742C40.7065 58.1367 41.0771 57.9514 41.5094 57.8279C41.5711 57.8279 41.4476 57.8279 41.3859 57.7662C41.3241 57.7662 41.2623 57.7044 41.2006 57.6426C41.0771 57.5191 41.0153 57.3956 41.0153 57.2103C41.0153 57.1486 40.4595 57.3338 40.583 57.3338C40.2742 57.4574 39.9036 57.6426 39.5948 57.7662C39.286 57.9514 38.9155 58.075 38.6684 58.322C38.6067 58.3838 38.2979 58.5073 38.2979 58.6308C38.2979 59.0014 38.5449 59.2484 38.9155 59.2484C39.286 59.2484 39.7801 59.0014 40.0889 58.8161C40.6447 58.569 41.2623 58.2602 41.7564 57.8897C41.8182 57.8279 41.8799 57.8279 41.8799 57.7044C41.7564 57.6426 41.6329 57.6426 41.4476 57.6426C40.9535 57.7044 40.4595 58.0132 39.9654 58.1985C39.5331 58.4455 39.039 58.6308 38.6684 58.9396C38.4831 59.0631 38.4214 59.1866 38.3596 59.3719C38.3596 59.4337 38.9155 59.2484 38.7919 59.2484C39.039 59.1249 39.3478 59.0014 39.5948 58.8778C39.9036 58.7543 40.2124 58.569 40.4595 58.4455C40.6447 58.322 40.9535 58.1985 41.0771 58.0132C42.2505 56.0369 42.9916 53.8753 43.4239 51.6519C43.4239 51.5902 42.8681 51.7754 42.9916 51.7754C42.6828 51.899 42.3123 52.0842 42.0035 52.2078C41.6947 52.393 41.3241 52.5166 41.0771 52.7636C41.0153 52.8254 40.7683 52.8871 40.7065 53.0724Z" fill="black"/>
<path d="M38.5427 59.7418C44.2246 62.027 51.2035 58.7537 53.0563 52.9482C52.9945 53.01 52.9328 53.0717 52.871 53.1335C58.9853 54.0599 65.2848 50.1073 67.1376 44.24C66.52 43.8077 65.8406 43.3754 65.223 42.9431C66.6435 45.1047 68.4345 46.9575 70.5961 48.3162C72.696 49.6132 74.9194 50.169 77.328 50.3543C77.9456 50.4161 78.5632 50.4778 79.119 50.8484C79.6749 51.2189 80.1072 51.5895 80.663 51.9601C81.713 52.5777 82.8246 53.0717 83.9981 53.3188C86.4067 53.8746 88.8154 53.6276 91.0387 52.5777C91.5328 52.3306 89.8035 49.8602 89.0007 50.2308C87.0861 51.1572 84.8627 51.4042 82.7629 50.9719C81.7747 50.7866 80.7866 50.4161 79.8602 49.8602C78.9338 49.3044 78.1309 48.4397 77.0192 48.1309C76.031 47.8221 74.9194 47.8839 73.8694 47.7604C72.8813 47.5751 71.8931 47.2663 70.9667 46.8957C69.3609 46.1546 67.8169 45.0429 66.8288 43.5607C66.6435 43.3136 65.1613 41.4608 64.9142 42.2637C63.1232 47.8839 57.0089 51.6513 51.08 50.7249C50.9564 50.7249 50.8947 50.7866 50.8947 50.9101C49.1654 56.345 42.4953 59.5566 37.1839 57.3949C36.5663 57.1479 36.8751 58.0743 36.9987 58.2596C37.3075 58.8772 37.8633 59.4948 38.5427 59.7418Z" fill="#4F4F4F"/>
</g>
<rect x="3.5" y="4.5" width="123" height="123" stroke="#0A74A6"/>
<rect x="0.5" y="0.5" width="7" height="7" fill="white" stroke="#0A74A6"/>
<rect x="0.5" y="124.5" width="7" height="7" fill="white" stroke="#0A74A6"/>
<rect x="124.5" y="0.5" width="7" height="7" fill="white" stroke="#0A74A6"/>
<rect x="124.5" y="124.5" width="7" height="7" fill="white" stroke="#0A74A6"/>
<defs>
<clipPath id="clip0_802_2435">
<rect x="3" y="4" width="124" height="124" fill="white"/>
</clipPath>
</defs>
</svg>
