<svg width="132" height="132" viewBox="0 0 132 132" fill="none" xmlns="http://www.w3.org/2000/svg">
<g clip-path="url(#clip0_802_2483)">
<rect x="4" y="4" width="124" height="124" fill="#DBDBDB"/>
<path d="M108.313 130.668C108.313 108.208 89.4827 101.558 66.2627 101.558C43.0427 101.558 24.2627 108.208 24.2627 130.668C24.2627 132.058 24.3327 142.278 24.4727 143.668H108.153C108.263 142.278 108.313 132.058 108.313 130.668Z" fill="white" stroke="#222221" stroke-width="0.81" stroke-miterlimit="10"/>
<path d="M108.313 130.668C108.313 108.208 89.4827 101.558 66.2627 101.558C43.0427 101.558 24.2627 108.208 24.2627 130.668C24.2627 132.058 24.3327 142.278 24.4727 143.668H108.153C108.263 142.278 108.313 132.058 108.313 130.668Z" stroke="#4F4F4F" stroke-width="2" stroke-linecap="round" stroke-linejoin="round"/>
<path d="M76.5428 101.238V96.4376V94.3676C70.7628 96.9076 61.4228 97.8576 56.8628 98.1876V101.648C63.6628 103.488 70.1728 102.918 76.5428 101.238Z" fill="white" stroke="#545454" stroke-width="2" stroke-miterlimit="10"/>
<path d="M76.5128 109.948V101.238C70.1428 102.918 63.6328 103.488 56.8828 101.648V109.478" fill="white"/>
<path d="M76.5128 109.948V101.238C70.1428 102.918 63.6328 103.488 56.8828 101.648V109.478" stroke="#4F4F4F" stroke-width="2" stroke-miterlimit="10"/>
<path d="M32.8537 65.2594C32.8611 65.1959 32.8611 65.1959 32.8685 65.1323C32.9333 61.2769 33.8313 57.4545 35.3421 53.897C38.2853 46.9016 43.6164 40.9582 50.1556 37.3452C52.5009 36.01 55.0631 35.0221 57.6442 34.4227C69.3768 31.5462 82.5487 36.1779 90.1834 45.7631C93.1558 49.5232 95.3404 53.9638 96.0046 58.7416C96.4175 61.816 96.2439 64.9505 96.3953 68.0586C96.5467 71.1668 97.1353 74.3905 98.9711 76.8587C100.736 79.3831 104.025 80.9912 106.897 80.104C106.021 83.7358 103.109 86.6143 99.7666 88.2191C94.7881 90.5982 88.2954 91.0618 82.9041 90.3666C80.5615 90.0281 78.1926 89.3646 76.1594 88.0322C74.1823 86.7707 72.6377 84.0146 70.3322 83.3585C68.52 82.8889 66.6409 82.991 64.8254 83.1005C61.2503 83.3904 56.3151 83.1992 53.4401 85.7601C52.1482 86.8967 51.3198 88.4737 49.9718 89.5393C46.2265 92.3847 39.4345 92.105 35.0182 91.3307C29.9032 90.4747 25.0227 88.1653 21.1801 84.6896C21.9949 85.4288 25.7369 83.1625 26.4389 82.6652C28.0484 81.5658 29.4558 79.9921 30.37 78.2319C32.5119 74.2332 32.778 69.7574 32.8537 65.2594Z" fill="#0A74A6"/>
<path d="M34.4317 64.993C34.6571 49.3096 48.343 33.5916 64.5757 34.0745C71.7637 34.2717 78.8375 37.0953 84.2835 41.7244C87.2775 44.1994 89.7526 47.2575 91.604 50.6934C93.5602 54.3346 94.5191 58.2455 94.6786 62.3848C94.8496 66.976 94.3969 71.945 96.6747 76.139C97.6322 77.8606 99.0714 79.3167 100.839 80.1674C102.853 81.1113 105.184 80.9978 107.313 80.4099C106.6 80.4552 105.957 80.4444 105.244 80.4896C103.682 86.681 97.3519 89.6102 91.4944 90.1481C88.3079 90.4191 84.968 90.3502 81.9003 89.605C80.2152 89.1502 78.4327 88.4266 77.0759 87.3665C75.9583 86.4631 75.061 85.3279 73.9508 84.3611C71.3865 82.0651 67.7743 82.6726 64.6027 82.8165C61.6215 82.9828 58.5769 83.1416 55.7045 84.0288C54.4309 84.4593 53.1424 85.0167 52.0707 85.9215C50.8572 86.9384 50.0511 88.3249 48.8937 89.4128C47.0903 91.0689 44.5315 91.4778 42.1517 91.4568C34.9975 91.5211 28.0062 89.0935 22.6459 84.2813C21.6486 84.5509 20.6513 84.8205 19.6614 85.0266C20.3155 85.4894 21.5107 85.1786 22.2317 85.0698C23.2216 84.8637 24.2338 84.4671 25.1824 84.063C26.8182 83.2886 28.4129 82.3163 29.6561 81.0453C33.875 76.9033 34.3642 70.5221 34.4317 64.993C34.4688 64.6754 31.2823 64.9464 31.2715 65.589C31.2296 70.3485 30.9378 75.5939 28.0824 79.6379C27.0784 81.0656 25.8425 82.2731 24.3189 83.1894C23.7662 83.511 23.2135 83.8326 22.6682 84.0907C22.3993 84.188 22.1303 84.2853 21.854 84.4462C21.5067 84.6631 22.306 84.4347 22.504 84.3935C22.8364 84.3036 22.8216 84.4306 22.6459 84.2813C22.231 83.9752 21.0992 84.2935 20.6959 84.4394C20.4979 84.4806 19.3661 84.7989 19.654 85.0901C24.7825 89.682 31.3367 91.9941 38.1212 92.3373C41.3193 92.5184 44.5693 92.2548 47.6471 91.2628C48.9843 90.8399 50.2728 90.2824 51.4005 89.4486C52.741 88.4465 53.5545 86.9965 54.7829 85.8525C56.7431 83.9572 59.5823 83.9031 62.1749 83.7558C63.927 83.6389 65.6939 83.3949 67.4723 83.603C69.1872 83.8037 70.3906 84.5239 71.6055 85.6962C72.7643 86.7976 73.7177 88.0037 75.1043 88.8098C76.6665 89.7652 78.4638 90.3618 80.2273 90.6969C83.6274 91.3523 87.2288 91.3874 90.6843 91.0191C97.6587 90.2899 106.474 87.587 108.404 79.8937C108.505 79.5835 106.405 79.9173 106.334 79.9734C105.67 80.1531 106.461 79.9883 106.2 80.0221C106.009 79.9998 105.819 79.9775 105.628 79.9552C105.184 79.9032 104.683 79.7802 104.253 79.6011C103.394 79.243 102.549 78.7579 101.846 78.1606C100.321 76.8876 99.3714 75.1025 98.8173 73.2349C97.5071 69.0254 98.0199 64.6429 97.7556 60.2982C97.1454 52.3075 92.654 45.0216 86.3971 40.1689C73.8272 30.3926 55.335 31.0617 43.2558 41.3019C36.1801 47.2987 31.3964 56.2679 31.2715 65.589C31.2978 65.914 34.4209 65.6356 34.4317 64.993Z" fill="#4F4F4F"/>
<path d="M66.1194 98.2152C80.9174 98.2152 92.9136 86.219 92.9136 71.421C92.9136 56.6229 80.9174 44.6268 66.1194 44.6268C51.3214 44.6268 39.3252 56.6229 39.3252 71.421C39.3252 86.219 51.3214 98.2152 66.1194 98.2152Z" fill="#E4E4E4"/>
<path d="M93.6169 66.4331C91.6345 54.6667 81.9145 45.2664 70.148 43.5398C68.7412 43.3479 67.3343 43.22 65.9275 43.22C54.225 43.284 43.162 50.1264 38.7496 61.1255C34.2732 72.2524 37.5985 85.2978 46.807 92.9716C55.8237 100.517 68.933 101.413 79.2286 95.8492C89.7161 90.2218 95.6633 78.2635 93.6169 66.4331ZM39.7088 66.625C41.4993 56.0736 49.9405 46.993 60.6198 45.1385C62.0266 44.8827 63.4335 44.8187 64.8403 44.7548C75.7754 44.8187 85.7513 51.6612 89.6522 61.8928C93.6169 72.1245 90.8032 84.0828 82.6179 91.4368C78.5892 95.0818 73.4733 97.384 68.1017 97.8316C62.6022 98.2792 57.0387 97.0003 52.3065 94.1226C42.9062 88.4952 37.8543 77.4322 39.7088 66.625ZM64.8403 43.9235C66.3751 43.9235 67.9098 44.0514 69.3806 44.3711C68.2296 44.1793 67.0785 44.1153 65.9275 44.1153C59.085 44.1793 52.4984 46.6093 47.3825 50.8298C51.0276 47.5045 55.5039 45.1385 60.4919 44.3071C61.9627 44.0514 63.3695 43.9235 64.8403 43.9235Z" fill="#4F4F4F"/>
<g opacity="0.3">
<path opacity="0.3" d="M76.6689 48.592C82.1045 53.2602 85.5577 60.2306 85.5577 67.9683C85.5577 82.1008 74.111 93.5475 59.9785 93.5475C56.6532 93.5475 53.4558 92.908 50.5781 91.7569C55.0545 95.5938 60.8738 97.9599 67.2685 97.9599C81.4011 97.9599 92.8477 86.5132 92.8477 72.3807C92.8477 61.5735 86.1332 52.365 76.6689 48.592Z" fill="#828282"/>
</g>
<path d="M50.8343 67.137C49.5553 67.2009 48.2124 68.0322 48.2764 69.4391C48.3403 70.9099 50.1309 71.1657 51.2819 70.9099C52.6888 70.5902 53.712 69.503 53.712 68.0322C53.648 66.6893 52.6888 65.6022 51.5377 65.1546C48.9159 64.1954 45.7185 65.9219 45.4627 68.7996C45.2069 71.7412 48.0845 73.8515 50.7704 73.8515C53.8399 73.8515 56.9094 71.2296 56.5896 67.9683C56.5257 67.3928 54.6712 67.7764 54.7351 68.4799C54.927 70.1425 53.8399 72.1249 52.2412 72.7004C50.5146 73.276 48.5322 71.997 47.7648 70.4623C47.3172 69.6309 47.1893 68.7357 47.4451 67.9043C47.6369 67.137 48.0845 66.3056 48.8519 65.9859C49.4274 65.7301 50.2588 66.0498 50.7704 66.3696C51.5377 66.8812 51.9854 67.8404 51.9214 68.7357C51.8575 69.1833 51.7296 69.6949 51.3459 69.9507C51.2819 70.0146 51.154 70.0146 51.2819 70.0146C51.0901 70.0146 50.8982 69.9507 50.7704 69.8867C50.3867 69.6309 50.2588 69.2472 50.2588 68.8636C50.2588 68.6717 50.3227 68.4799 50.4506 68.288C50.6425 67.9683 50.6425 68.1601 50.1948 68.1601C50.5785 68.1601 51.218 68.0322 51.4098 67.6485C51.5377 67.2649 51.154 67.073 50.8343 67.137Z" fill="#383838"/>
<path d="M78.5247 63.2998C77.2458 63.3637 75.9029 64.195 75.9668 65.6019C76.0308 67.0727 77.8213 67.3285 78.9724 67.0727C80.3792 66.753 81.4024 65.6658 81.4024 64.195C81.3384 62.8521 80.3792 61.765 79.2282 61.3174C76.6063 60.3582 73.4089 62.0848 73.1531 64.9624C72.8973 67.904 75.775 70.0143 78.4608 70.0143C81.5303 70.0143 84.5998 67.3924 84.2801 64.1311C84.2161 63.5556 82.3616 63.9392 82.4256 64.6427C82.6174 66.3053 81.5303 68.2877 79.9316 68.8632C78.205 69.4388 76.2226 68.1598 75.4552 66.6251C75.0076 65.7937 74.8797 64.8985 75.1355 64.0671C75.3273 63.2998 75.775 62.4684 76.5423 62.1487C77.1179 61.8929 77.9492 62.2127 78.4608 62.5324C79.2282 63.044 79.6758 64.0032 79.6118 64.8985C79.5479 65.3461 79.42 65.8577 79.0363 66.1135C78.9724 66.1774 78.8445 66.1774 78.9724 66.1774C78.7805 66.1774 78.5887 66.1135 78.4608 66.0495C78.0771 65.7937 77.9492 65.4101 77.9492 65.0264C77.9492 64.8345 78.0132 64.6427 78.141 64.4508C78.3329 64.1311 78.3329 64.3229 77.8853 64.3229C78.2689 64.3229 78.9084 64.195 79.1003 63.8114C79.2282 63.4916 78.7805 63.2998 78.5247 63.2998Z" fill="#383838"/>
<path d="M75.4555 56.2656C76.2229 55.5621 77.1181 55.2424 78.1413 55.3063C79.3563 55.4342 80.3795 56.0098 81.1469 56.905C81.7863 57.6085 83.8966 56.5214 83.1292 55.69C80.7632 52.8763 76.4147 53.1321 73.7928 55.4982C73.4731 55.8179 73.2813 56.3935 73.7928 56.6492C74.3684 56.905 75.0718 56.6492 75.4555 56.2656Z" fill="#383838"/>
<path d="M53.1994 59.0159C49.8741 57.4172 45.6536 59.0159 44.1828 62.3411C43.927 62.8527 44.5665 63.1725 44.9501 63.1725C45.5257 63.1725 46.1012 62.8527 46.357 62.2772C46.4849 62.0214 46.5488 61.8935 46.7407 61.6377C46.8046 61.5098 46.9325 61.3819 46.9965 61.318C46.9965 61.318 47.1244 61.1901 47.0604 61.1901C46.9965 61.254 47.1244 61.1261 47.1244 61.1261C47.2523 60.9982 47.3802 60.9343 47.4441 60.8064C47.5081 60.7424 47.572 60.7424 47.4441 60.8064C47.5081 60.7424 47.572 60.7424 47.636 60.6785C47.7638 60.6146 47.8917 60.5506 48.0196 60.4867C48.1475 60.4227 48.1475 60.4227 48.0196 60.4867C48.0836 60.4227 48.1475 60.4227 48.2754 60.3588C48.3394 60.3588 48.4033 60.2948 48.4673 60.2948C48.4673 60.2948 48.7231 60.2309 48.5952 60.2309C48.4673 60.2948 48.7231 60.2309 48.7231 60.1669C48.787 60.1669 48.851 60.103 48.9789 60.103C48.9789 60.103 49.1707 60.039 49.1068 60.103C49.0428 60.103 49.2347 60.103 49.2347 60.103C49.4265 60.103 49.6183 60.103 49.7462 60.103C49.9381 60.103 50.2578 60.1669 50.5776 60.2309C50.8973 60.2948 51.1531 60.4227 51.4728 60.5506C51.9844 60.8064 52.6878 60.5506 53.0715 60.1669C53.5192 59.8472 53.711 59.2716 53.1994 59.0159Z" fill="#383838"/>
<path d="M68.2952 83.5721C68.8707 83.4442 69.4462 83.1884 69.9578 82.8687C70.6612 82.485 71.3007 82.0373 71.6844 81.3979C72.7076 79.6713 72.0041 76.7297 71.1089 75.131C69.8299 72.7009 66.3767 72.8928 64.3943 74.3636C62.1562 76.0262 62.6677 79.2876 63.7549 81.5258C64.2025 82.421 64.9059 83.2523 65.8651 83.5721C66.6965 83.8918 67.5278 83.8279 68.2952 83.5721Z" fill="white"/>
<path d="M68.4219 83.8917C69.7648 83.508 71.2356 82.8685 72.1948 81.8453C72.9622 81.014 73.218 79.8629 73.154 78.7119C73.0901 76.7295 72.3227 74.1076 70.2764 73.2124C68.294 72.381 65.6721 72.9566 63.9455 74.1076C62.0271 75.3866 61.6434 77.6887 62.155 79.799C62.4747 80.9501 62.9223 82.229 63.8176 83.0603C65.0966 84.3393 66.8232 84.3393 68.4219 83.8917C68.6137 83.8277 69.3171 83.6359 69.2532 83.3161C69.1892 82.9964 68.4219 83.1882 68.23 83.2522C65.9919 83.8277 64.7129 81.5895 64.1374 79.799C63.6258 78.2003 63.4979 76.09 64.7129 74.7471C65.6721 73.66 67.079 73.3403 68.4858 73.8518C70.1485 74.4913 70.7879 76.4098 71.1077 78.0724C71.2995 79.0956 71.3635 80.2466 70.9158 81.2698C70.4682 82.3569 69.3171 82.9964 68.23 83.3161C68.0382 83.3801 67.3348 83.5719 67.3987 83.8917C67.4627 84.1475 68.23 83.9556 68.4219 83.8917Z" fill="#383838"/>
<path d="M63.1787 79.479C65.0972 77.6245 67.5911 76.4734 70.213 76.1537C70.6606 76.0897 71.1722 76.0897 71.4919 76.4095C71.6838 76.6013 71.8117 76.985 71.8117 77.2408C72.0675 78.7756 72.2593 80.4382 71.428 81.7172C70.6606 82.8682 69.3817 83.3798 68.1027 83.6356C67.2714 83.8274 66.3761 83.8274 65.6087 83.5077C64.1379 82.8682 63.6263 81.2695 63.3066 79.7987" fill="#EF6461"/>
<path d="M63.8168 79.9264C64.9039 78.8393 66.2468 78.008 67.6537 77.4964C68.3571 77.2406 69.0605 77.0487 69.764 76.9208C69.9558 76.9208 70.4035 76.7929 70.5953 76.8569C70.8511 76.9848 70.8511 77.4964 70.8511 77.6882C71.1069 79.0951 71.2987 80.8217 70.1477 81.9088C69.7 82.3564 69.1245 82.6122 68.549 82.7401C67.8455 82.932 67.1421 83.1238 66.4387 82.932C64.9039 82.5483 64.3923 80.8217 64.1366 79.4788C63.9447 78.5835 62.0902 79.0311 62.2821 79.9903C62.6018 81.7169 63.3692 83.5075 65.0958 84.147C66.9503 84.8504 69.3803 84.2109 70.979 83.1238C72.7695 81.9088 73.0253 79.7985 72.7695 77.8161C72.6416 76.8569 72.5137 75.8337 71.4906 75.514C70.5314 75.1942 69.3803 75.514 68.4211 75.7058C66.1829 76.2814 64.1366 77.3685 62.4739 78.9672C62.1542 79.223 62.0263 79.6706 62.41 79.9903C62.7936 80.3101 63.4971 80.2461 63.8168 79.9264Z" fill="#383838"/>
<path d="M68.8651 64.1309C72.1264 61.8288 75.6436 59.8464 79.3526 58.3116C81.2071 57.5442 83.1255 56.8408 85.1079 56.2653C86.0032 56.0095 86.8984 55.7537 87.7937 55.5619C88.0495 55.4979 88.3692 55.37 88.625 55.37C88.1134 55.434 88.5611 55.1782 88.4971 55.434C88.4971 55.6258 88.689 55.9455 88.689 56.2013C88.7529 57.2884 88.5611 58.3756 88.4332 59.4627C88.3692 60.5498 88.3053 61.6369 88.1774 62.6601C87.9855 64.5146 87.6658 66.3691 86.4508 67.9038C84.0847 70.9094 79.6723 71.4209 76.1552 71.7407C74.2367 71.9325 72.8299 71.293 71.6788 69.7583C70.5917 68.2235 70.1441 66.3691 69.6964 64.5785C69.4406 63.5553 66.3072 63.8751 66.499 64.6425C66.9467 66.497 67.4582 68.4154 68.4814 70.0141C69.6325 71.8046 71.423 72.7639 73.5333 73.0836C75.9633 73.4033 78.6491 72.9557 81.0792 72.4441C83.4452 71.9965 85.7474 71.293 87.6658 69.8862C89.4563 68.6072 90.5435 66.8167 90.9911 64.7064C91.5027 62.2764 91.5027 59.6545 91.6945 57.1606C91.7585 56.1374 91.8864 55.0503 90.8632 54.4108C89.84 53.8353 88.4971 53.8992 87.41 54.091C85.0439 54.5387 82.7418 55.2421 80.5036 56.0095C75.3238 57.8 70.4638 60.294 65.9874 63.4914C65.4119 63.939 66.2432 64.3227 66.563 64.3867C67.3943 64.5785 68.2896 64.5146 68.8651 64.1309Z" fill="#EF6461"/>
<path d="M62.3453 63.8757C57.4213 62.5967 52.3694 62.0212 47.3175 62.0851C44.7596 62.0851 42.2017 62.277 39.7077 62.6606C38.8125 62.7885 37.9172 62.9804 37.1498 63.492C36.0627 64.2593 36.0627 65.3465 36.5743 66.4975C37.5335 68.6718 38.5567 70.9739 39.7077 73.0202C40.7949 75.0026 42.2657 76.5374 44.3759 77.4326C46.4862 78.3279 48.7884 78.4558 51.0905 78.264C53.4566 78.0721 55.8866 77.4966 58.1248 76.7292C60.3629 76.0258 62.2814 74.6189 63.0488 72.3168C63.7522 70.2065 63.5603 67.9683 63.2406 65.7941C63.1127 65.0267 62.3453 64.7709 61.7058 64.707C61.2582 64.707 59.9792 64.8988 60.0432 65.6662C60.4269 68.6078 60.8745 72.6365 57.869 74.3631C56.3342 75.1944 54.4158 75.5142 52.6892 75.8979C50.8347 76.2816 48.9802 76.5374 47.1257 76.0897C43.3528 75.1944 42.0738 71.1018 40.603 67.9683C40.3472 67.4567 40.1554 66.9452 39.8996 66.4336C39.7077 66.0499 39.3241 65.4744 39.4519 65.0907C39.5798 64.5151 40.8588 64.5791 41.3064 64.5151C43.3528 64.2593 45.3991 64.0675 47.5094 64.0675C52.2415 64.0036 56.9737 64.5791 61.5779 65.7941C62.2174 65.922 63.2406 65.858 63.5603 65.1546C63.7522 64.4512 62.8569 64.0036 62.3453 63.8757Z" fill="#EF6461"/>
<path d="M60.8725 65.9855C63.8141 66.3692 66.8836 65.7297 69.3776 64.195C69.6334 64.0031 69.8892 63.6834 69.5055 63.4276C69.1218 63.2358 68.5462 63.3637 68.1626 63.6194C66.3081 64.7705 64.1338 65.2821 61.9596 64.9624C61.512 64.8984 61.0004 64.9624 60.6806 65.2821C60.4249 65.5379 60.4249 65.9216 60.8725 65.9855Z" fill="#EF6461"/>
<path d="M45.8463 43.7954C44.5034 45.5859 43.3523 47.5043 42.3931 49.5507C42.0734 50.2541 42.1373 51.0215 42.7128 51.597C43.1605 52.0446 44.0557 52.3004 44.5673 51.7249C46.3579 49.8704 47.8926 47.7601 49.2355 45.5859C48.4042 44.9464 47.6368 44.3069 46.8055 43.6675C45.7823 45.9056 44.6952 48.1438 43.6721 50.382C43.3523 51.0854 43.4163 51.8528 43.9918 52.4283C44.5034 52.876 45.3347 53.1318 45.8463 52.5562C47.5089 50.7657 48.9797 48.7833 50.1308 46.6091C49.2355 46.2254 48.3403 45.8417 47.5089 45.458C47.5089 46.6091 47.3171 47.6322 46.7416 48.6554C45.9102 50.1902 48.0205 52.1725 49.1716 50.5738C50.3226 48.9751 51.154 47.1207 51.6656 45.2022C52.1132 43.4756 49.5553 42.0688 48.9158 43.9872C48.4042 45.6498 47.8926 47.3125 47.3171 48.9751C46.8055 50.7017 49.4274 52.1086 50.0669 50.1902C50.3866 49.167 50.7063 48.2078 51.09 47.1846C51.6656 45.458 49.0437 44.0511 48.3403 45.9696C47.9566 47.1207 47.5729 48.2078 47.1892 49.3588C46.9334 50.0623 47.381 50.9575 48.0205 51.2773C48.596 51.597 49.4913 51.597 49.8111 50.8936C50.1947 49.9344 50.6424 49.0391 51.0261 48.0799C50.1947 47.5683 49.2995 47.0567 48.4682 46.5451C48.1484 48.1438 47.6368 49.6786 46.9334 51.2133C47.7647 51.7249 48.66 52.2365 49.4913 52.7481C49.939 49.9983 50.7063 47.3125 51.8574 44.8185C51.0261 44.3069 50.1308 43.7954 49.2995 43.2838C48.4682 46.0335 47.9566 48.7833 47.7008 51.597C47.5089 53.2597 49.875 54.091 50.5145 52.4283C51.5377 49.7425 52.369 46.9928 53.0085 44.243C52.1132 43.8593 51.2179 43.4117 50.2587 43.028C49.8111 45.7777 49.2995 48.4636 48.66 51.1494C48.2763 52.876 50.7703 54.3468 51.4098 52.3644C52.369 49.2309 53.4561 46.0975 54.5432 43.028C53.6479 42.6443 52.7527 42.1967 51.7934 41.813C51.2179 44.8185 50.5784 47.7601 50.0029 50.7657C49.8111 51.597 50.1947 52.4923 50.9621 52.812C51.7295 53.1318 52.4969 52.7481 52.7527 51.9807C53.6479 48.7193 54.6072 45.458 55.5024 42.1967C54.6072 41.813 53.7119 41.3653 52.7527 40.9816C52.1771 44.3069 51.6016 47.6322 51.0261 50.9575C50.8982 51.7889 51.2179 52.6202 51.9853 53.0039C52.7527 53.3236 53.52 52.9399 53.7758 52.1725C54.6072 49.2309 55.4385 46.2893 56.3338 43.3477C55.3745 43.0919 54.4793 42.7722 53.52 42.5164C53.0085 45.9056 52.5608 49.2309 52.1132 52.5562C51.9213 54.2189 54.2874 54.9863 54.9269 53.3876C56.3977 49.6786 57.4848 45.9056 58.1882 42.0048C57.293 41.6211 56.3977 41.1735 55.4385 40.7898C54.9269 44.179 54.3514 47.5683 53.8398 50.9575C53.7119 51.7889 53.9677 52.6202 54.799 53.0039C55.5664 53.3236 56.3338 52.9399 56.5895 52.1725C57.6767 48.8472 58.3801 45.3301 58.6359 41.813C58.7638 39.9585 56.014 39.319 55.8222 41.3653C55.5664 44.3069 55.2466 47.2485 54.9908 50.1902C54.8629 51.7249 57.4209 52.812 57.8046 51.0215C58.444 47.8241 59.4672 44.6906 60.8101 41.749C59.9148 41.3653 59.0196 40.9816 58.1882 40.598C57.9964 43.2838 57.6127 45.9056 56.9732 48.5275C57.8685 48.9112 58.7638 49.3588 59.723 49.7425C60.1706 47.5043 60.6822 45.3301 61.1299 43.0919C61.3217 42.2606 60.938 41.3653 60.1706 41.0456C59.4672 40.7259 58.5719 41.1095 58.3801 41.8769C57.6767 44.8825 56.7174 47.8241 55.4385 50.7017C56.2698 51.2133 57.1651 51.7249 57.9964 52.2365C59.3393 48.5275 60.6822 44.7546 61.9612 41.0456C61.0659 40.9177 60.1067 40.7898 59.2114 40.598C59.4033 42.5164 59.2114 44.4348 58.6998 46.2254C59.5951 46.6091 60.4904 47.0567 61.4496 47.4404C61.8333 45.9056 62.217 44.3709 62.5367 42.8361C61.5775 42.5803 60.6822 42.2606 59.723 42.0048C59.723 42.964 59.5951 43.9233 59.2754 44.8825C59.0835 45.5859 59.4672 46.4812 60.1067 46.8009C60.6822 47.1207 61.5775 47.1207 61.8972 46.4172C62.3449 45.3301 62.7925 44.3069 63.2401 43.2198C62.3449 42.964 61.5135 42.7082 60.6183 42.4524C60.8741 43.2838 61.002 44.1151 60.938 44.9464C60.8741 46.4812 63.1762 47.5683 63.7517 45.7777C64.1994 44.243 64.647 42.7082 65.0946 41.2374C64.1354 40.9816 63.2401 40.6619 62.2809 40.4061C62.217 42.0048 62.0891 43.6035 62.0251 45.2022C61.8972 47.0567 64.7109 47.6962 64.8388 45.6498C64.9028 44.5627 65.0946 43.5396 65.3504 42.5164C64.3912 42.2606 63.4959 41.9409 62.5367 41.6851C62.5367 42.6443 62.4728 43.6035 62.3449 44.4988C62.217 45.3301 62.5367 46.1614 63.3041 46.5451C64.0075 46.8649 64.9028 46.4812 65.0946 45.7138C65.2865 44.8185 65.4783 43.9872 65.6702 43.0919C64.7109 42.8361 63.8157 42.5164 62.8564 42.2606C62.7925 43.6035 62.7285 44.8825 62.6646 46.2254C62.6007 47.7601 64.9028 48.8472 65.4783 47.0567C65.862 45.8417 66.1817 44.5627 66.5654 43.3477C65.6702 42.964 64.7749 42.5164 63.8157 42.1327C63.432 43.7314 63.0483 45.3941 62.6007 46.9928C63.4959 47.1207 64.4551 47.2485 65.3504 47.4404C65.0946 46.0335 64.5191 44.7546 63.7517 43.6035C63.0483 42.5803 61.1938 43.028 61.3217 44.3709C61.4496 45.9696 61.8972 47.3764 62.8564 48.7194C63.6878 49.8704 65.4783 51.4691 66.8852 50.1902C67.9723 49.167 67.7804 47.0567 67.7804 45.7138C67.7804 43.8593 67.7165 42.0048 67.5246 40.1503C67.3968 38.7435 65.1586 38.1679 64.7749 39.7027C63.8796 43.5396 64.1994 47.4404 65.4783 51.2133C65.926 52.4283 67.7165 52.4923 68.1002 51.2133C68.9955 48.2717 69.3152 45.1383 69.0594 42.0688C68.9955 41.2374 68.5478 40.4061 67.6525 40.2782C66.7573 40.1503 66.3096 40.8537 66.1817 41.6211C65.862 44.1151 65.862 46.6091 66.0538 49.103C66.1178 49.8704 66.4375 50.5738 67.2689 50.8296C67.9083 51.0215 68.6757 50.7017 68.8676 49.9344C69.3791 47.5683 69.8907 45.1383 70.4023 42.7722C69.4431 42.5164 68.5478 42.1967 67.5886 41.9409C67.5247 44.3709 67.4607 46.737 67.3968 49.167C67.3968 49.9344 67.8444 50.7017 68.6118 50.8936C69.2512 51.0854 70.0826 50.7657 70.2105 49.9983C70.722 47.3125 71.4255 44.6906 72.4486 42.1327C71.4894 41.8769 70.5942 41.5572 69.6349 41.3014C69.507 43.3477 69.2512 45.3941 68.9315 47.4404C68.8036 48.2717 69.1234 49.103 69.8907 49.4867C70.5942 49.8065 71.4894 49.4228 71.6813 48.6554C72.1929 46.1614 72.8963 43.7314 73.8555 41.4293C72.9602 41.0456 72.065 40.598 71.1057 40.2143C70.6581 42.2606 70.2105 44.3069 69.8268 46.3533C69.6349 47.1846 70.0186 48.0799 70.786 48.3996C71.4894 48.7194 72.3207 48.3357 72.5765 47.5683C72.9602 46.1614 73.3439 44.7546 73.7276 43.2838C72.7684 43.028 71.8731 42.7082 70.9139 42.4524C70.6581 45.0104 69.6989 47.3764 68.2281 49.4867C67.4607 50.5738 68.8676 52.5562 70.1465 51.8528C73.7276 49.9344 76.2216 46.5451 77.2447 42.6443C77.6284 41.2374 75.5821 39.5108 74.6868 41.1095C73.4079 43.2198 72.1289 45.3301 70.9139 47.5043C70.2744 48.5915 71.4894 50.6378 72.8323 49.8704C75.646 48.3357 78.0121 46.2893 79.9306 43.7314C79.0992 43.0919 78.3319 42.4524 77.5005 41.813C76.6692 43.7314 75.5821 45.522 74.1752 47.0567C72.9602 48.3357 74.6229 50.6378 76.1576 49.5507C78.3319 47.888 80.1863 45.9056 81.7211 43.6035C82.6803 42.1327 80.3782 40.0864 79.2911 41.6851C77.9482 43.7954 76.2216 45.5859 74.1752 47.0567C74.8147 47.888 75.5181 48.7193 76.1576 49.5507C77.7563 47.8241 79.0353 45.9056 79.9306 43.7314C80.2503 42.964 80.1224 42.0688 79.419 41.5572C78.7155 41.0456 77.9482 41.1735 77.4366 41.8769C75.8379 44.0511 73.7916 45.7777 71.4255 47.0567C72.065 47.8241 72.7044 48.6554 73.3439 49.4228C74.6229 47.3125 75.9018 45.2022 77.1168 43.028C76.2855 42.5164 75.3902 42.0048 74.5589 41.4932C73.7276 44.6906 71.6813 47.4404 68.8036 49.0391C69.4431 49.8065 70.0826 50.6378 70.722 51.4052C72.4486 48.8472 73.4718 45.9696 73.7916 42.9001C73.9834 41.3653 71.4894 40.3422 70.9778 42.0688C70.5942 43.4756 70.2105 44.8825 69.8268 46.3533C70.722 46.737 71.6173 47.1846 72.5765 47.5683C73.0242 45.522 73.4718 43.4756 73.8555 41.4293C74.2392 39.7027 71.8731 38.2958 71.1057 40.2143C70.2105 42.5803 69.4431 45.0104 68.9315 47.4404C69.8268 47.8241 70.722 48.2717 71.6813 48.6554C72.065 46.3533 72.3847 44.0511 72.5126 41.749C72.6405 40.1503 70.4023 39.255 69.6989 40.9177C68.7397 43.4756 67.9723 46.0975 67.4607 48.7833C68.4199 49.0391 69.3152 49.3588 70.2744 49.6146C70.3384 47.1846 70.4023 44.8185 70.4663 42.3885C70.4663 41.6211 70.0186 40.8537 69.2512 40.6619C68.6118 40.4701 67.8444 40.7898 67.6525 41.5572C67.141 43.9233 66.6294 46.3533 66.1178 48.7194C67.077 48.9751 67.9723 49.2949 68.9315 49.5507C68.6757 47.0567 68.7397 44.5627 69.0594 42.0688C68.1002 41.9409 67.141 41.749 66.2457 41.6211C66.5015 44.4348 66.2457 47.2485 65.4144 49.9983C66.3096 49.9983 67.141 49.9983 68.0362 49.9983C67.0131 47.1207 66.8852 43.8593 67.5886 40.9177C66.6933 40.7898 65.7341 40.6619 64.8388 40.4701C65.0946 42.6443 65.0946 44.8825 64.9667 47.0567C64.9667 47.1846 64.9028 47.4404 64.9667 47.5043C65.0307 47.7601 64.5191 47.8241 65.2865 47.5683C65.9259 47.3764 65.6062 47.5683 65.4783 47.2485C65.3504 47.0567 65.1586 46.8649 65.0307 46.673C64.647 46.0975 64.3272 45.3941 64.2633 44.6906C63.432 44.9464 62.6646 45.2022 61.8333 45.458C62.2809 46.1614 62.5367 46.9288 62.7286 47.7601C62.9843 49.103 65.0946 49.8065 65.4783 48.2078C65.862 46.6091 66.2457 44.9464 66.6933 43.3477C67.141 41.6211 64.5191 40.1503 63.9436 42.1327C63.5599 43.3477 63.2401 44.6267 62.8564 45.8417C63.8157 46.0975 64.7109 46.4172 65.6702 46.673C65.7341 45.3301 65.7981 44.0511 65.862 42.7082C65.9259 41.1735 63.4959 40.0224 63.0483 41.8769C62.8564 42.7722 62.6646 43.6035 62.4728 44.4988C63.368 44.8825 64.2633 45.3301 65.2225 45.7138C65.4144 44.4988 65.5423 43.3477 65.5423 42.1327C65.5423 41.3653 65.0946 40.598 64.3272 40.4061C63.6238 40.2143 62.9204 40.598 62.7286 41.3014C62.4088 42.5803 62.217 43.8593 62.0891 45.2022C63.0483 45.3301 64.0075 45.522 64.9028 45.6498C64.9667 44.0511 65.0946 42.4524 65.1586 40.8537C65.2225 39.319 62.9204 38.2319 62.3449 40.0224C61.8972 41.5572 61.4496 43.0919 61.002 44.5627C61.9612 44.8185 62.8564 45.1383 63.8157 45.3941C63.8796 44.243 63.7517 43.1559 63.432 42.0688C63.2401 41.4932 62.9204 40.9177 62.2809 40.7898C61.7693 40.6619 61.0659 40.7898 60.8741 41.3653C60.4264 42.4524 59.9788 43.4756 59.5312 44.5627C60.3625 45.0743 61.2577 45.5859 62.0891 46.0975C62.4728 44.9464 62.6646 43.7314 62.6646 42.4524C62.6646 41.6851 62.217 40.9177 61.4496 40.7259C60.7462 40.534 60.0427 40.9177 59.8509 41.6211C59.4672 43.1559 59.0835 44.6906 58.7638 46.2254C58.5719 46.9928 58.9556 47.952 59.723 48.2717C60.4264 48.5915 61.2577 48.2078 61.5135 47.4404C62.153 45.0743 62.2809 42.6443 62.0251 40.2143C61.8333 38.7435 59.7869 38.3598 59.2754 39.7666C57.9325 43.4756 56.5895 47.2485 55.3106 50.9575C55.0548 51.661 55.5024 52.5562 56.1419 52.876C56.7174 53.1957 57.6127 53.1957 57.9325 52.4923C59.3393 49.4228 60.4264 46.2893 61.1938 43.028C60.2985 42.6443 59.4033 42.1967 58.444 41.813C57.9964 44.0511 57.4848 46.2254 57.0372 48.4636C56.8453 49.2949 57.229 50.1902 57.9964 50.5099C58.6998 50.8296 59.5951 50.4459 59.7869 49.6786C60.4904 46.8009 60.938 43.9233 61.1299 40.9816C61.1938 39.7666 59.2114 38.2958 58.508 39.8306C57.0372 43.028 55.8861 46.3533 55.1827 49.8065C56.1419 50.0623 57.0372 50.382 57.9964 50.6378C58.2522 47.6962 58.5719 44.7546 58.8277 41.813C57.8685 41.6851 56.9093 41.4932 56.014 41.3653C55.7582 44.6267 55.1187 47.8241 54.0956 50.9575C54.9908 51.3412 55.8861 51.7889 56.8453 52.1725C57.3569 48.7833 57.9325 45.3941 58.444 42.0048C58.5719 41.1735 58.3161 40.3422 57.4848 39.9585C56.7814 39.6387 55.8861 40.0224 55.6943 40.7898C54.9269 44.6906 53.8398 48.5275 52.4329 52.1725C53.3921 52.4283 54.2874 52.7481 55.2466 53.0039C55.6943 49.6786 56.1419 46.3533 56.5895 43.028C56.7814 41.4293 54.2874 40.4701 53.7758 42.1967C52.9445 45.1383 52.1132 48.0799 51.2179 51.0215C52.1132 51.4052 53.0085 51.8528 53.9677 52.2365C54.5432 48.9112 55.1187 45.5859 55.6943 42.2606C55.8222 41.4293 55.5024 40.598 54.7351 40.2143C53.9677 39.8945 53.2003 40.2782 52.9445 41.0456C52.0492 44.3069 51.09 47.5683 50.1947 50.8296C51.09 51.2133 51.9853 51.661 52.9445 52.0446C53.52 49.0391 54.1595 46.0975 54.7351 43.0919C55.0548 41.3653 52.6887 39.9585 51.9853 41.8769C50.8342 44.9464 49.8111 48.0799 48.8518 51.2133C49.7471 51.597 50.6424 52.0446 51.6016 52.4283C52.2411 49.7425 52.8166 47.0567 53.2003 44.3069C53.3282 43.4756 53.0085 42.6443 52.2411 42.2606C51.5377 41.9409 50.6424 42.3246 50.4505 43.0919C49.8111 45.9056 48.9797 48.5915 47.9566 51.2773C48.9158 51.5331 49.8111 51.8528 50.7703 52.1086C51.0261 49.5507 51.5377 46.9928 52.305 44.5627C52.4969 43.8593 52.1132 42.964 51.4737 42.6443C50.8982 42.3246 50.0029 42.3246 49.6832 43.028C48.4042 45.7777 47.5089 48.6554 47.0613 51.661C46.9334 52.4283 47.1892 53.1957 47.8926 53.5794C48.4682 53.8991 49.3634 53.8991 49.6832 53.1957C50.5145 51.4691 51.09 49.7425 51.4737 47.888C51.6016 47.1207 51.3458 46.3533 50.6424 45.9696C50.0669 45.6498 49.1716 45.6498 48.8518 46.3533C48.4682 47.3125 48.0205 48.2078 47.6368 49.167C48.4682 49.6786 49.3634 50.1902 50.1947 50.7017C50.5784 49.5507 50.9621 48.4636 51.3458 47.3125C50.4505 46.9288 49.5553 46.4812 48.596 46.0975C48.2763 47.1207 47.9566 48.0799 47.5729 49.103C48.4682 49.4867 49.3634 49.9344 50.3226 50.3181C50.8342 48.6554 51.3458 46.9928 51.9213 45.3301C51.0261 44.9464 50.1308 44.4988 49.1716 44.1151C48.7239 45.8417 47.9566 47.3764 46.9334 48.8472C47.7647 49.4867 48.5321 50.1262 49.3634 50.7657C50.1308 49.3588 50.5784 47.7601 50.5145 46.0975C50.5145 45.3941 50.1308 44.7546 49.4913 44.4348C48.9158 44.179 48.1484 44.3709 47.8926 44.9464C46.8695 46.9288 45.5905 48.7194 44.1197 50.3181C44.8871 51.0215 45.5905 51.7889 46.3579 52.4923C47.381 50.2541 48.4682 48.0159 49.4913 45.7777C49.8111 45.0104 49.6832 44.1151 48.9797 43.6035C48.3403 43.1559 47.445 43.2198 46.9973 43.9233C45.7823 45.9056 44.3755 47.7601 42.7768 49.4867C43.5442 50.1902 44.2476 50.9575 45.015 51.661C45.9102 49.6146 47.0613 47.6962 48.4682 45.9056C49.3634 44.3069 46.9973 42.2606 45.8463 43.7954Z" fill="#0A74A6"/>
<path d="M42.1373 53.8355C46.166 55.8179 50.7703 55.4982 55.1187 55.0505C56.9732 54.8587 59.0196 54.6029 60.4264 53.26C61.1299 52.6205 61.5135 51.7892 61.8333 50.9579C62.153 50.1905 62.3449 49.4871 63.0483 49.0394C62.3449 48.9115 61.7054 48.8476 61.002 48.7197C62.0251 49.7429 63.0483 50.83 64.0715 51.8531C65.0307 52.8124 65.862 53.8995 67.3328 53.9634C68.4199 54.0274 69.6989 53.4518 70.722 53.1321C71.7452 52.8124 72.7684 52.4926 73.7276 52.1089C77.6284 50.6381 81.4014 48.4 83.3838 44.5631C84.1511 43.0923 81.5932 41.1738 80.8258 42.7725C79.1632 45.9699 76.0297 47.8244 72.8323 49.1034C71.1697 49.8068 69.4431 50.3184 67.7165 50.83C67.5247 50.8939 67.2049 50.8939 67.077 51.0218C66.8852 51.0218 66.8212 51.0218 66.9491 51.0858C67.077 51.2137 67.077 51.1497 66.8852 50.9579C66.5015 50.5102 65.9899 50.0626 65.5423 49.615C64.647 48.7197 63.7517 47.8244 62.9204 46.9291C62.3449 46.3536 61.5775 46.1618 60.8741 46.6094C59.4672 47.5686 59.5312 49.3592 58.508 50.6381C57.5488 51.8531 55.6303 51.981 54.2235 52.1089C50.3866 52.4926 46.2939 52.8763 42.7128 51.1497C42.0734 50.83 41.1781 51.1497 41.0502 51.9171C40.7944 52.7484 41.4339 53.5158 42.1373 53.8355Z" fill="#4F4F4F"/>
</g>
<rect x="4.5" y="4.5" width="123" height="123" stroke="#0A74A6"/>
<rect x="0.5" y="0.5" width="7" height="7" fill="white" stroke="#0A74A6"/>
<rect x="0.5" y="124.5" width="7" height="7" fill="white" stroke="#0A74A6"/>
<rect x="124.5" y="0.5" width="7" height="7" fill="white" stroke="#0A74A6"/>
<rect x="124.5" y="124.5" width="7" height="7" fill="white" stroke="#0A74A6"/>
<defs>
<clipPath id="clip0_802_2483">
<rect x="4" y="4" width="124" height="124" fill="white"/>
</clipPath>
</defs>
</svg>
