<svg width="132" height="132" viewBox="0 0 132 132" fill="none" xmlns="http://www.w3.org/2000/svg">
<g clip-path="url(#clip0_802_2637)">
<rect x="4" y="4" width="124" height="124" fill="#C95D63"/>
<path d="M109.313 127.668C109.313 105.208 90.4827 98.5576 67.2627 98.5576C44.0427 98.5576 25.2627 105.208 25.2627 127.668C25.2627 129.058 25.3327 139.278 25.4727 140.668H109.153C109.263 139.278 109.313 129.058 109.313 127.668Z" fill="white" stroke="#222221" stroke-width="0.81" stroke-miterlimit="10"/>
<path d="M109.313 127.668C109.313 105.208 90.4827 98.5576 67.2627 98.5576C44.0427 98.5576 25.2627 105.208 25.2627 127.668C25.2627 129.058 25.3327 139.278 25.4727 140.668H109.153C109.263 139.278 109.313 129.058 109.313 127.668Z" fill="#FEC14E" stroke="#4C4C4C" stroke-width="2" stroke-linecap="round" stroke-linejoin="round"/>
<path d="M67.6423 115.723C71.8254 115.72 75.8464 114.106 78.8706 111.216C81.8947 108.326 83.6895 104.382 83.8823 100.203C83.0623 100.057 82.2323 99.9168 81.3923 99.7834C81.3923 103.43 79.9437 106.928 77.3651 109.506C74.7864 112.085 71.2891 113.533 67.6423 113.533C63.9956 113.533 60.4983 112.085 57.9196 109.506C55.341 106.928 53.8923 103.43 53.8923 99.7834C53.0523 99.9168 52.2223 100.057 51.4023 100.203C51.5952 104.382 53.39 108.326 56.4141 111.216C59.4383 114.106 63.4593 115.72 67.6423 115.723Z" fill="white" stroke="#4F4F4F" stroke-width="2" stroke-miterlimit="10"/>
<path d="M53.8926 99.7836C53.8926 103.43 55.3412 106.928 57.9199 109.506C60.4985 112.085 63.9959 113.534 67.6426 113.534C71.2893 113.534 74.7867 112.085 77.3653 109.506C79.9439 106.928 81.3926 103.43 81.3926 99.7836C72.2688 98.5298 63.0164 98.5298 53.8926 99.7836Z" fill="white" stroke="#4F4F4F" stroke-width="2.1" stroke-miterlimit="10"/>
<path d="M77.5428 96.2375V93.4376V91.3676C71.7628 93.9076 62.4228 94.8576 57.8628 95.1876V96.6476C64.6628 98.4876 71.1728 97.9175 77.5428 96.2375Z" fill="white" stroke="#222221" stroke-width="1.02" stroke-miterlimit="10"/>
<path d="M77.5128 104.948V96.2375C71.1428 97.9175 64.6328 98.4876 57.8828 96.6476V104.478" fill="white"/>
<path d="M77.5128 104.948V96.2375C71.1428 97.9175 64.6328 98.4876 57.8828 96.6476V104.478" stroke="#222221" stroke-width="1.02" stroke-miterlimit="10"/>
<path d="M77.5128 104.948V96.2375C71.1428 97.9175 64.6328 98.4876 57.8828 96.6476V104.478" stroke="#4C4C4C" stroke-width="2" stroke-linecap="round" stroke-linejoin="round"/>
<path d="M31.071 65.7892C31.071 65.7185 31.071 65.7185 31.071 65.6478C31.2733 60.9084 32.4872 56.3812 34.443 52.1369C38.2195 43.7899 44.6263 36.7869 52.3817 32.6842C55.1467 31.1987 58.1815 30.1376 61.2163 29.4302C74.9738 26.53 90.0802 32.6842 98.5101 44.7802C101.815 49.4489 104.107 55.0372 104.714 60.9084C105.052 64.6574 104.714 68.4772 104.782 72.2971C104.849 76.1169 105.389 80.0074 107.345 83.1906C109.3 86.3738 113.009 88.4959 116.381 87.5056C115.167 91.8913 111.661 95.2867 107.749 97.0551C101.882 99.6724 94.2614 99.9554 88.057 98.8943C85.3594 98.3991 82.5944 97.4088 80.3689 95.7111C78.1435 94.0134 76.5249 90.618 73.8274 89.6985C71.8042 88.9911 69.5787 89.0618 67.4881 89.1326C63.3069 89.274 57.5746 88.8496 54.2026 91.8206C52.6515 93.1646 51.6399 95.0038 49.9539 96.2063C45.503 99.531 37.6126 98.8236 32.5547 97.6918C26.62 96.3478 21.09 93.3061 16.7739 88.8496C17.6506 89.7692 22.1691 87.1519 22.9783 86.6568C24.9341 85.3835 26.62 83.5443 27.7665 81.4222C30.3292 76.612 30.8012 71.1653 31.071 65.7892Z" fill="#FFB6C7"/>
<path d="M32.6897 65.2233C33.1617 55.3201 37.8825 45.7706 44.7613 38.9798C47.9309 35.8673 51.64 33.1793 55.7538 31.4816C59.8002 29.7839 64.1837 29.1473 68.4998 29.3595C85.9665 30.2791 102.759 45.0632 103.163 64.0915C103.298 69.892 102.287 75.9754 104.58 81.4929C105.524 83.8273 107.075 85.8079 109.166 87.0812C111.324 88.3545 113.617 88.4959 115.977 87.8593C115.572 87.8593 115.168 87.7886 114.696 87.7886C113.751 91.2547 111.391 94.1549 108.424 95.9941C105.456 97.8333 101.815 98.4699 98.4427 98.6821C94.5987 98.8943 90.5524 98.6821 86.8432 97.4796C85.0224 96.9137 83.1341 96.0648 81.6504 94.8623C80.3691 93.8012 79.3575 92.3865 78.211 91.1839C76.9971 89.9107 75.7832 89.0618 74.0972 88.7081C72.1415 88.2837 70.1183 88.4252 68.1626 88.4959C64.6558 88.5667 61.1489 88.4959 57.777 89.557C56.0236 90.0522 54.2702 90.8303 52.8539 91.9621C51.3703 93.1646 50.4261 94.8623 49.0099 96.0648C46.6495 98.0455 43.345 98.0455 40.58 97.904C32.3525 97.5503 24.2598 94.3671 18.2577 88.2837C17.2461 88.6374 16.1671 89.0618 15.1555 89.4155C15.6276 89.8399 16.4369 89.6277 16.9764 89.557C17.988 89.4155 18.9321 89.0618 19.8762 88.6374C21.2925 88.0715 22.7087 87.3641 23.99 86.5153C28.2387 83.7565 30.5991 79.3001 31.6781 74.2777C32.285 71.3775 32.5548 68.265 32.6897 65.2233C32.6897 65.0819 29.52 65.4355 29.4526 66.2844C29.1828 72.0141 28.5759 78.0975 25.3388 82.9077C24.1249 84.7468 22.5064 86.2323 20.6855 87.2227C20.0786 87.5763 19.3367 87.93 18.7972 88.213C18.7298 88.2837 18.5949 88.2837 18.5275 88.2837C18.6623 88.213 18.6623 88.213 18.46 88.2837C18.0554 88.4252 18.46 88.213 18.5275 88.2837C18.5949 88.2837 18.2577 88.213 18.1228 88.1422C17.7856 87.8593 16.5717 88.3545 16.302 88.4959C16.1671 88.5667 14.8183 89.1326 15.0206 89.3448C20.6181 95.0038 27.8341 98.1869 35.5221 99.0358C39.1638 99.4602 42.9404 99.248 46.4472 98.1869C48.2006 97.621 49.8866 96.9137 51.3028 95.7819C52.8539 94.5793 53.933 92.7402 55.4166 91.4669C56.6305 90.4058 57.9119 90.1229 59.3955 89.9814C61.0815 89.7692 62.8349 89.7692 64.5883 89.7692C66.6789 89.6985 68.837 89.4863 70.9276 89.9107C72.7485 90.2644 74.0298 91.2547 75.3111 92.6694C76.4576 93.9427 77.4692 95.3575 78.8854 96.3478C80.6388 97.621 82.5946 98.4699 84.6852 98.9651C88.5292 99.9554 92.5755 100.168 96.5544 99.8846C104.647 99.3187 115.235 96.1356 117.798 86.9397C117.933 86.4445 116.651 86.869 116.516 86.869C114.628 87.3641 112.403 86.2323 110.919 85.0298C109.098 83.5443 107.884 81.3515 107.142 79.0171C105.524 73.7118 106.401 68.1236 106.198 62.6768C105.928 52.7028 100.871 43.5777 93.6546 37.2821C87.113 31.6231 78.818 28.2984 70.3207 28.0155C61.0141 27.7325 51.3703 31.3401 43.952 37.6358C36.736 43.7899 31.4083 52.7736 29.8572 62.4646C29.6549 63.7379 29.52 65.0111 29.4526 66.2844C29.4526 66.4966 32.6222 66.0722 32.6897 65.2233Z" fill="#4F4F4F"/>
<path d="M67.6906 97.2598C83.2964 97.2598 95.9475 84.6088 95.9475 69.0029C95.9475 53.397 83.2964 40.7459 67.6906 40.7459C52.0847 40.7459 39.4336 53.397 39.4336 69.0029C39.4336 84.6088 52.0847 97.2598 67.6906 97.2598Z" fill="#E4E4E4"/>
<path d="M87.3117 65.9543C84.7965 64.5061 81.6714 64.2775 78.9275 65.1921C79.7659 65.8781 80.6043 66.5641 81.4428 67.2501C81.8239 66.6403 82.205 66.0305 82.6623 65.497C82.7385 65.3446 82.8909 65.1921 83.0434 65.1159C83.1196 65.0397 83.1958 64.9635 83.2721 64.8872C83.1958 64.9635 83.0434 65.1159 83.1958 64.9635C83.4245 64.7348 83.6532 64.5824 83.958 64.4299L84.1105 64.3537C84.1105 64.3537 83.6532 64.5824 83.958 64.4299C84.0343 64.3537 84.1867 64.3537 84.2629 64.2775C84.4154 64.2013 84.4916 64.2013 84.644 64.125C84.7202 64.125 84.7965 64.0488 84.8727 64.0488C85.1776 63.9726 84.4916 64.125 84.7202 64.125C85.0251 64.0488 85.33 63.9726 85.6349 63.9726C85.7873 63.9726 85.9398 63.8964 86.1684 63.8964C86.2446 63.8964 86.3209 63.8964 86.4733 63.8964C86.8544 63.8202 86.016 63.8964 86.3971 63.8964C86.8544 63.8964 87.3117 63.8202 87.769 63.5153C88.0739 63.2866 88.3788 62.9055 88.3788 62.5244C88.3788 61.6098 87.3879 61 86.5495 61C84.7965 61.1524 83.1196 61.3811 81.5952 62.2957C80.2232 63.1342 79.2324 64.4299 78.394 65.8019C78.2415 66.1068 78.0891 66.3354 78.1653 66.7165C78.2415 67.0214 78.394 67.3263 78.6988 67.5549C79.3848 68.0885 80.2232 68.0885 80.9854 67.8598C81.0617 67.8598 81.1379 67.7836 81.2141 67.7836C80.9092 67.8598 80.9092 67.8598 81.0617 67.8598C81.2141 67.8598 81.3665 67.7836 81.4428 67.7836C81.6714 67.7074 81.9001 67.7074 82.205 67.7074C82.4336 67.7074 82.3574 67.7074 81.9763 67.7074C82.0525 67.7074 82.1287 67.7074 82.205 67.7074C82.2812 67.7074 82.4336 67.7074 82.5098 67.7074C82.7385 67.7074 83.0434 67.7074 83.2721 67.7836C83.4245 67.7836 83.3483 67.7836 83.0434 67.7836C83.1196 67.7836 83.1958 67.7836 83.2721 67.7836C83.4245 67.7836 83.5769 67.8598 83.6532 67.8598C83.8818 67.936 84.1105 68.0123 84.3391 68.0885C84.4916 68.1647 84.4916 68.1647 84.1867 68.0123C84.2629 68.0123 84.3391 68.0885 84.4154 68.0885C84.4916 68.1647 84.644 68.1647 84.7202 68.2409C84.9489 68.3934 85.2538 68.4696 85.4824 68.622C85.8635 68.8507 86.5495 68.8507 86.9306 68.7745C87.3117 68.6982 87.8453 68.4696 88.0739 68.1647C88.3026 67.8598 88.455 67.4787 88.3026 67.0976C88.0739 66.4116 87.6928 66.183 87.3117 65.9543Z" fill="#383838"/>
<path d="M49.2012 68.2409C49.2775 68.2409 49.3537 68.1647 49.3537 68.1647C49.125 68.2409 49.125 68.2409 49.2012 68.2409C49.4299 68.1647 49.5061 68.0884 49.6586 68.0122C49.8872 67.936 50.1159 67.8598 50.3446 67.7836C50.497 67.7073 50.497 67.7073 50.1921 67.8598C50.2683 67.8598 50.3446 67.8598 50.4208 67.7836C50.497 67.7836 50.6494 67.7073 50.7257 67.7073C50.9543 67.6311 51.2592 67.6311 51.4879 67.5549C51.9452 67.4787 51.1068 67.5549 51.4879 67.5549C51.6403 67.5549 51.7927 67.5549 51.9452 67.5549C52.1738 67.5549 52.4025 67.5549 52.7074 67.6311C52.936 67.6311 52.8598 67.6311 52.5549 67.6311C52.6312 67.6311 52.7074 67.6311 52.7836 67.6311C52.8598 67.6311 53.0123 67.6311 53.0885 67.7073C53.3934 67.7836 53.622 67.8598 53.9269 67.936C55.1464 68.3171 56.9757 67.25 56.1373 65.878C55.7562 65.1921 55.2989 64.5823 54.7653 63.9725C54.1556 63.2866 53.4696 62.6768 52.6312 62.2195C51.2592 61.3811 49.5824 61.1524 47.9817 61.0762C47.5244 61.0762 46.9909 61.2286 46.6098 61.4573C46.3049 61.6859 46 62.067 46 62.4481C46 63.439 46.9909 63.8963 47.8293 63.9725C48.0579 63.9725 48.2104 63.9725 48.439 64.0488C48.5153 64.0488 48.5915 64.0488 48.7439 64.0488C48.9726 64.0488 48.2866 63.9725 48.5915 64.0488C48.8964 64.125 49.2013 64.125 49.5061 64.2012C49.6586 64.2012 49.811 64.2774 49.8872 64.3536C50.1921 64.4299 49.4299 64.2012 49.7348 64.2774C49.811 64.2774 49.811 64.2774 49.8872 64.3536C50.1159 64.4299 50.3446 64.5823 50.5732 64.7347C50.7257 64.811 50.1921 64.4299 50.4208 64.6585C50.497 64.6585 50.497 64.7347 50.5732 64.7347C50.7257 64.811 50.8019 64.8872 50.9543 65.0396C51.0305 65.1158 51.1068 65.1921 51.183 65.1921C51.2592 65.2683 51.4116 65.4207 51.2592 65.2683C51.1068 65.0396 51.3354 65.3445 51.3354 65.3445C51.4116 65.4207 51.4879 65.4969 51.4879 65.5732C51.9452 66.1067 52.3263 66.7165 52.7074 67.4025C53.4696 66.7165 54.1556 66.0305 54.9178 65.3445C52.1738 64.4299 49.125 64.8872 46.6098 66.3354C45.8476 66.7927 45.8476 67.8598 46.5335 68.3933C47.2957 68.6982 48.3628 68.6982 49.2012 68.2409Z" fill="#383838"/>
<path d="M96.6893 63.8101C94.5987 51.4014 84.4154 41.4878 71.9392 39.667C70.4555 39.4647 68.9718 39.3298 67.4882 39.3298C55.1468 39.3972 43.4799 46.6132 38.8266 58.2127C34.1059 69.9471 37.6127 83.7047 47.3239 91.7974C56.8328 99.7552 70.6578 100.699 81.5155 94.8321C92.5755 88.83 98.8473 76.2864 96.6893 63.8101ZM39.8382 63.945C41.7265 52.8176 50.6284 43.2412 61.8907 41.2855C63.3744 41.0157 64.8581 40.9483 66.3417 40.8809C77.8738 40.9483 88.3943 48.1643 92.5081 58.9545C96.6893 69.7448 93.722 82.3559 85.0898 90.1114C80.8411 93.9554 75.446 96.3832 69.7811 96.8553C63.9813 97.3274 58.1142 95.9786 53.1237 92.9438C43.2101 87.0766 37.8824 75.3422 39.8382 63.945ZM66.3417 40.0716C67.9603 40.0716 69.5788 40.2065 71.1299 40.5437C69.916 40.4088 68.7021 40.2739 67.5556 40.2739C60.3396 40.3414 53.3934 42.904 47.9983 47.355C51.8423 43.8482 56.5631 41.3529 61.8233 40.4762C63.307 40.139 64.7906 40.0716 66.3417 40.0716Z" fill="#4F4F4F"/>
<path d="M61.8232 73.0493C63.3743 74.4655 65.3975 75.4097 67.4881 75.2748C69.5113 75.1399 71.3321 74.2632 72.6809 72.7121C72.8158 72.5772 72.6809 72.0377 72.6135 71.9029C72.4786 71.4982 72.2763 71.0936 72.0739 70.689C71.8716 70.4192 71.3321 69.4751 70.9275 69.9471C68.5671 72.6447 64.1161 73.0493 61.4186 70.5541C61.2837 70.4192 61.0139 70.2169 60.8791 70.2843C60.6767 70.3518 60.7442 70.7564 60.7442 70.8913C60.8791 71.7005 61.2837 72.5772 61.8232 73.0493Z" fill="#383838"/>
<g style="mix-blend-mode:multiply" opacity="0.3">
<path opacity="0.3" d="M80.9761 45.5342C86.7084 50.4572 90.3501 57.8081 90.3501 65.9682C90.3501 80.8722 78.2785 92.9438 63.3745 92.9438C59.8676 92.9438 56.4957 92.2694 53.4609 91.0555C58.1817 95.1019 64.3186 97.5971 71.0625 97.5971C85.9666 97.5971 98.0382 85.5255 98.0382 70.6215C98.0382 59.2243 90.9571 49.5131 80.9761 45.5342Z" fill="#828282"/>
</g>
<path d="M98.3752 55.1779C93.3173 46.5457 84.8874 39.8018 75.1762 37.374C65.465 34.9462 54.6073 37.1042 46.7843 43.3761C41.1869 47.9619 37.3429 54.3012 33.7012 60.5056L34.0384 61.2474C43.4798 60.7753 52.5167 55.2453 57.3048 47.0178C58.8559 50.9967 63.3069 52.885 67.4207 54.1663C77.4691 57.3359 88.3268 59.6289 98.5101 55.9197L98.3752 55.1779Z" fill="#FFB6C7"/>
<path d="M97.0938 55.5152C95.6776 54.2338 93.7218 54.9757 92.2382 55.3803C90.4848 55.8524 88.6639 55.9198 86.8431 56.0547C81.6502 56.3244 76.5249 55.5826 71.5344 54.1664C67.6229 53.0874 61.0139 51.6037 59.3279 47.355C59.0582 46.6132 57.5745 45.5342 56.9676 46.6132C54.8095 50.3224 51.7073 53.4246 48.0656 55.5826C46.2447 56.7291 44.2216 57.6058 42.1984 58.2127C39.7706 58.9546 37.4777 59.6289 34.9824 59.8987C35.0499 60.3033 35.2522 60.6405 35.3871 61.0452C35.6568 61.5847 36.1289 62.2591 36.8707 62.1916C45.3006 61.7196 53.3258 57.2686 58.114 50.3224C57.6419 50.9967 62.6999 53.8966 63.2394 54.1664C70.1182 57.4035 78.6829 59.2243 86.3035 59.0894C89.7429 59.022 93.1823 58.4825 96.4868 57.2686C97.1612 57.0663 97.7007 56.1221 97.0938 55.5152Z" fill="#4F4F4F"/>
<g filter="url(#filter0_f_802_2637)">
<path d="M46.8871 79.612C49.0473 79.612 50.7985 77.8608 50.7985 75.7005C50.7985 73.5403 49.0473 71.7891 46.8871 71.7891C44.7268 71.7891 42.9756 73.5403 42.9756 75.7005C42.9756 77.8608 44.7268 79.612 46.8871 79.612Z" fill="#C94344" fill-opacity="0.3"/>
</g>
<g filter="url(#filter1_f_802_2637)">
<path d="M87.3504 79.612C89.5107 79.612 91.2619 77.8608 91.2619 75.7005C91.2619 73.5403 89.5107 71.7891 87.3504 71.7891C85.1902 71.7891 83.439 73.5403 83.439 75.7005C83.439 77.8608 85.1902 79.612 87.3504 79.612Z" fill="#C94344" fill-opacity="0.3"/>
</g>
</g>
<rect x="4.5" y="4.5" width="123" height="123" stroke="#0A74A6"/>
<rect x="0.5" y="0.5" width="7" height="7" fill="white" stroke="#0A74A6"/>
<rect x="0.5" y="124.5" width="7" height="7" fill="white" stroke="#0A74A6"/>
<rect x="124.5" y="0.5" width="7" height="7" fill="white" stroke="#0A74A6"/>
<rect x="124.5" y="124.5" width="7" height="7" fill="white" stroke="#0A74A6"/>
<defs>
<filter id="filter0_f_802_2637" x="38.9756" y="67.7891" width="15.8228" height="15.8229" filterUnits="userSpaceOnUse" color-interpolation-filters="sRGB">
<feFlood flood-opacity="0" result="BackgroundImageFix"/>
<feBlend mode="normal" in="SourceGraphic" in2="BackgroundImageFix" result="shape"/>
<feGaussianBlur stdDeviation="2" result="effect1_foregroundBlur_802_2637"/>
</filter>
<filter id="filter1_f_802_2637" x="79.439" y="67.7891" width="15.8228" height="15.8229" filterUnits="userSpaceOnUse" color-interpolation-filters="sRGB">
<feFlood flood-opacity="0" result="BackgroundImageFix"/>
<feBlend mode="normal" in="SourceGraphic" in2="BackgroundImageFix" result="shape"/>
<feGaussianBlur stdDeviation="2" result="effect1_foregroundBlur_802_2637"/>
</filter>
<clipPath id="clip0_802_2637">
<rect x="4" y="4" width="124" height="124" fill="white"/>
</clipPath>
</defs>
</svg>
