<svg width="132" height="132" viewBox="0 0 132 132" fill="none" xmlns="http://www.w3.org/2000/svg">
<g clip-path="url(#clip0_804_3546)">
<rect x="4" y="4" width="124" height="124" fill="white"/>
<path d="M24.582 129.79C24.582 131.18 24.652 141.4 24.792 142.79H43.902V103.79C32.292 107.54 24.582 115.44 24.582 129.79Z" fill="white" stroke="#4F4F4F" stroke-width="2" stroke-linecap="round" stroke-linejoin="round"/>
<path d="M108.691 129.79C108.691 115.43 100.991 107.54 89.3711 103.71V142.71H108.481C108.581 141.44 108.691 131.18 108.691 129.79Z" fill="white" stroke="black" stroke-width="0.81" stroke-linecap="round" stroke-linejoin="round"/>
<path d="M108.691 129.79C108.691 115.43 100.991 107.54 89.3711 103.71V142.71H108.481C108.581 141.44 108.691 131.18 108.691 129.79Z" stroke="black" stroke-width="0.08" stroke-linecap="round" stroke-linejoin="round"/>
<path d="M108.691 129.79C108.691 115.43 99.9911 107.54 88.3711 103.71V142.71H108.481C108.581 141.44 108.691 131.18 108.691 129.79Z" stroke="#4F4F4F" stroke-width="2" stroke-linecap="round" stroke-linejoin="round"/>
<path d="M66.9949 129C72.831 129 78.4281 126.608 82.5548 122.35C86.6816 118.092 89 112.317 89 106.296C88.9954 105.448 88.9441 104.601 88.8463 103.759C74.4968 100.08 59.4929 100.08 45.1434 103.759C45.0491 104.601 45.0012 105.448 45 106.296C45 112.315 47.317 118.089 51.4415 122.346C55.5661 126.604 61.1605 128.997 66.9949 129Z" fill="white" stroke="#4F4F4F" stroke-width="2" stroke-linecap="round" stroke-linejoin="round"/>
<path d="M76.9492 104L77 93.5312V91C71.126 94.121 61.6341 95.2883 57 95.6938V103.422" fill="white"/>
<path d="M76.9492 104L77 93.5312V91C71.126 94.121 61.6341 95.2883 57 95.6938V103.422" stroke="#4F4F4F" stroke-width="2" stroke-miterlimit="10"/>
<path d="M82.5058 104.204C82.2967 108.371 80.4761 112.3 77.4209 115.176C74.3656 118.053 70.3095 119.657 66.092 119.657C61.8745 119.657 57.8185 118.053 54.7632 115.176C51.7079 112.3 49.8874 108.371 49.6782 104.204C34.356 107.114 23.6426 115.054 23.6426 131.944C23.6426 133.334 23.7133 143.554 23.8548 144.944H108.43C108.572 143.584 108.643 133.364 108.643 131.944C108.592 115.054 97.828 107.114 82.5058 104.204Z" fill="#263238" stroke="#263238" stroke-width="2.1" stroke-miterlimit="10"/>
<path d="M66.0915 119.724C70.3193 119.72 74.3834 118.106 77.4399 115.216C80.4964 112.326 82.3104 108.382 82.5053 104.204C81.6765 104.057 80.8377 103.917 79.9887 103.784C79.9887 107.43 78.5245 110.928 75.9183 113.506C73.3121 116.085 69.7773 117.534 66.0915 117.534C62.4058 117.534 58.871 116.085 56.2648 113.506C53.6585 110.928 52.1944 107.43 52.1944 103.784C51.3454 103.917 50.5065 104.057 49.6777 104.204C49.8726 108.382 51.6867 112.326 54.7431 115.216C57.7996 118.106 61.8637 119.72 66.0915 119.724Z" fill="white" stroke="#4F4F4F" stroke-width="2" stroke-miterlimit="10"/>
<path d="M52.1953 103.784C52.1953 107.43 53.6595 110.928 56.2657 113.506C58.8719 116.085 62.4067 117.534 66.0925 117.534C69.7782 117.534 73.313 116.085 75.9192 113.506C78.5254 110.928 79.9896 107.43 79.9896 103.784C70.7682 102.53 61.4167 102.53 52.1953 103.784Z" fill="white" stroke="#4F4F4F" stroke-width="2.1" stroke-miterlimit="10"/>
<path d="M76.5084 106L76.5597 95.3238V93C70.6229 95.8627 61.0294 98.0518 56.3457 98.4223V105.484" fill="white"/>
<path d="M76.5084 106L76.5597 95.3238V93C70.6229 95.8627 61.0294 98.0518 56.3457 98.4223V105.484" stroke="#4F4F4F" stroke-width="2.1" stroke-miterlimit="10"/>
<path d="M67.0398 98.7088C82.3844 98.7088 94.8237 86.573 94.8237 71.6028C94.8237 56.6326 82.3844 44.4969 67.0398 44.4969C51.6951 44.4969 39.2559 56.6326 39.2559 71.6028C39.2559 86.573 51.6951 98.7088 67.0398 98.7088Z" fill="#E4E4E4"/>
<g style="mix-blend-mode:multiply">
<path d="M78.0467 48.5722C83.6831 53.2947 87.2638 60.3461 87.2638 68.1739C87.2638 82.4708 75.3943 94.0507 60.7398 94.0507C57.2916 94.0507 53.9761 93.4037 50.9922 92.2393C55.6339 96.1208 61.6681 98.5144 68.2991 98.5144C82.9536 98.5144 94.8231 86.9345 94.8231 72.6376C94.8231 61.7047 87.8606 52.389 78.0467 48.5722Z" fill="#E4E4E4"/>
</g>
<path d="M61.7537 77.214C63.2788 78.5725 65.2681 79.4782 67.3237 79.3488C69.313 79.2194 71.1034 78.3784 72.4296 76.8905C72.5622 76.7611 72.4296 76.2436 72.3633 76.1142C72.2307 75.7261 72.0317 75.3379 71.8328 74.9498C71.6339 74.691 71.1034 73.7853 70.7055 74.2381C68.3847 76.8258 64.0082 77.214 61.3558 74.8204C61.2232 74.691 60.9579 74.4969 60.8253 74.5616C60.6264 74.6263 60.6927 75.0144 60.6927 75.1438C60.759 75.8554 61.2232 76.6964 61.7537 77.214Z" fill="#383838"/>
<path d="M50.9262 65.0687C51.1914 65.004 51.5229 64.9393 51.7882 64.8746C51.9208 64.8746 51.9208 64.8746 51.7882 64.8746C51.8545 64.8746 51.9208 64.8746 51.9208 64.8746C52.0534 64.8746 52.186 64.8099 52.3187 64.8099C52.4513 64.8099 52.5839 64.7452 52.7828 64.7452C52.8491 64.7452 52.9155 64.7452 52.9818 64.7452C53.1144 64.7452 53.1144 64.7452 52.9155 64.7452C53.0481 64.8099 53.3133 64.7452 53.3796 64.8099C53.4459 64.8099 53.7112 64.8746 53.5122 64.8099C53.5786 64.8099 53.6449 64.8746 53.7112 64.8746C53.9101 64.9393 54.109 65.004 54.2417 65.1334C54.5732 65.3275 54.9048 65.5215 55.17 65.7803C55.1037 65.7156 55.1037 65.7156 55.0374 65.6509C55.5016 66.1038 55.8994 66.686 56.032 67.3329C56.032 67.2682 56.032 67.2035 56.032 67.1388C56.032 67.3329 56.0983 67.527 56.032 67.7211C56.032 67.7858 56.032 67.8504 56.032 67.9151C56.032 67.9798 55.9657 68.2386 56.032 68.0445C55.9657 68.1092 55.9657 68.2386 55.8994 68.3033C55.8994 68.3033 55.8994 68.368 55.8331 68.368C55.7668 68.4974 55.7668 68.4327 55.8994 68.3033C55.8994 68.368 55.8331 68.368 55.8331 68.4327C56.032 68.3033 56.032 68.2386 55.8994 68.3033C55.7668 68.4327 55.8331 68.368 56.032 68.1739C56.2973 68.0445 56.3636 67.9798 56.231 68.0445C56.0983 68.1092 56.1647 68.0445 56.4962 67.9151C56.3636 67.9798 56.4299 67.9798 56.6951 67.8504C56.3636 67.9151 56.9604 67.8504 56.6951 67.8504C56.6288 67.8504 56.6288 67.8504 56.5625 67.8504C56.4962 67.8504 56.4962 67.8504 56.6951 67.8504H56.4299C56.3636 67.8504 56.3636 67.8504 56.2973 67.8504C56.4299 67.8504 56.4299 67.9151 56.2973 67.8504C56.231 67.8504 56.1647 67.7858 56.0983 67.7858C55.8994 67.7211 55.7668 67.5917 55.6342 67.4623C55.7005 67.527 55.7005 67.527 55.7668 67.5917C55.5016 67.3329 55.3026 67.0095 55.2363 66.6213C55.2363 66.686 55.2363 66.7507 55.2363 66.8154C55.2363 66.6213 55.17 66.4272 55.2363 66.2331C55.2363 66.1685 55.2363 66.0391 55.3026 65.9744C55.3026 65.9097 55.3026 65.9097 55.3026 65.9744C55.3026 65.9097 55.3689 65.9097 55.3689 65.845L55.5016 65.5862C55.3689 65.7156 55.3689 65.7156 55.4352 65.6509C55.4352 65.5862 55.5016 65.5862 55.5016 65.5215C55.3689 65.6509 55.3026 65.7156 55.4352 65.6509C55.3026 65.7803 55.17 65.845 54.9711 65.9744C54.6395 66.1685 54.308 66.2331 53.9101 66.2331C53.7775 66.1685 53.7775 66.1685 53.8438 66.2331C53.7775 66.1685 53.7775 66.1685 53.7112 66.1038V66.1685C53.7112 66.1038 53.7112 66.0391 53.7112 65.9744C53.7775 66.2331 53.5786 66.4919 53.5122 66.7507C53.4459 67.0741 53.4459 67.3329 53.5122 67.6564C53.6449 68.1739 54.0427 68.5621 54.6395 68.6268C54.9711 68.6914 55.3689 68.5621 55.6342 68.4327C56.032 68.3033 56.4299 68.0445 56.6951 67.7858C57.0267 67.4623 57.4909 66.8801 56.7614 66.7507C56.8941 66.7507 56.8278 66.7507 56.6951 66.7507C56.6288 66.686 56.5625 66.686 56.5625 66.6213C56.6288 66.686 56.6288 66.686 56.6951 66.7507C56.4962 66.5566 56.4299 66.3625 56.3636 66.1685C56.3636 66.2331 56.3636 66.2978 56.3636 66.3625C56.2973 65.9097 56.4299 65.5215 56.5625 65.0687C56.6951 64.4865 56.0983 64.2924 55.5679 64.3571C54.7058 64.4865 53.9101 64.9393 53.3133 65.4568C52.9818 65.7803 52.6502 66.1038 52.385 66.5566C52.0534 67.1388 51.9871 67.9151 52.2524 68.5621C52.5176 69.209 53.1807 69.6618 53.8438 69.7912C54.7721 70.05 55.8994 69.7265 56.6951 69.2737C57.6898 68.7561 58.4855 67.9798 58.7507 66.9448C59.0823 65.5862 58.2203 64.3571 57.1593 63.5808C55.5016 62.481 53.4459 62.8045 51.6556 63.322C51.2577 63.4514 50.8598 63.6455 50.5283 63.8395C50.2631 64.0336 49.9315 64.2924 49.7989 64.5512C49.6663 65.1981 50.5283 65.1981 50.9262 65.0687Z" fill="#383838"/>
<path d="M83.2183 63.3223C82.29 63.0635 81.3617 62.8047 80.367 62.8047C79.306 62.8047 78.3777 63.1282 77.4494 63.5811C75.9905 64.2927 74.3991 65.5865 74.2665 67.2685C74.2002 67.9154 74.3991 68.627 74.797 69.0799C75.3274 69.6621 76.1232 69.8562 76.8526 69.7915C77.9798 69.7268 79.1734 69.1446 79.9691 68.4329C80.5659 67.8507 81.0301 67.1391 80.9638 66.2334C80.8975 65.5218 80.4996 64.7455 79.7702 64.4867C78.8419 64.0986 77.6483 64.6808 76.9852 65.263C76.6536 65.5865 76.3884 65.91 76.521 66.3628C76.5873 66.6216 76.6536 66.8803 76.7199 67.0744C76.7199 67.0097 76.7199 66.945 76.7199 66.8803C76.7199 67.0744 76.7863 67.2685 76.7199 67.5273C76.7199 67.592 76.7199 67.592 76.7199 67.5273C76.7199 67.592 76.7199 67.592 76.6536 67.6566C76.5873 67.7213 76.6536 67.7213 76.7199 67.592C77.1178 67.2038 77.6483 66.945 78.2451 66.8157C77.5157 66.945 76.6536 67.2685 76.1895 67.9154C76.0568 68.1095 75.8579 68.3036 75.9905 68.5623C76.1232 68.7564 76.4547 68.7564 76.6536 68.7564C77.383 68.627 78.0461 68.3683 78.6429 67.9154C78.9745 67.6566 79.3723 67.3332 79.5713 66.8803C79.8365 66.2334 79.6376 65.5865 79.4387 64.8749C79.4387 64.9396 79.4387 65.0043 79.4387 65.069C79.4387 64.9396 79.4387 64.9396 79.3723 65.069C79.2397 65.1984 79.1071 65.3924 78.9745 65.5218C78.9745 65.5218 78.9745 65.5218 79.0408 65.4571C78.8419 65.5865 78.5766 65.7806 78.3777 65.91H78.444C78.1788 66.0393 77.9135 66.104 77.6483 66.2334C77.582 66.2334 77.1841 66.3628 77.1178 66.2981C77.1178 66.3628 77.2504 66.3628 77.2504 66.3628C77.3167 66.4275 77.4494 66.4922 77.5157 66.5569C77.4494 66.4922 77.4494 66.4922 77.383 66.4275C77.7146 66.751 77.9135 67.0744 77.9798 67.5273C77.9798 67.4626 77.9798 67.3979 77.9798 67.3332C77.9798 67.4626 78.0461 67.6566 77.9798 67.786C77.9798 67.8507 77.9798 67.9801 77.9135 68.0448C77.9135 68.1095 77.8472 68.2389 77.9135 68.1095C77.8472 68.1742 77.8472 68.3036 77.7809 68.3683C77.6483 68.5623 77.9135 68.1742 77.7809 68.3683C77.7146 68.4976 77.7146 68.4329 77.8472 68.3036C77.7146 68.4329 77.7809 68.3683 77.9798 68.1742C77.8472 68.2389 77.9135 68.2389 78.1788 68.0448C78.0461 68.1095 78.1125 68.1095 78.2451 68.0448C78.3777 67.9801 78.444 67.9801 78.3114 67.9801C78.5766 67.9154 78.6429 67.8507 78.5103 67.9154C78.2451 67.9801 78.8419 67.8507 78.5766 67.9154C78.3114 67.9154 78.7756 67.9154 78.5766 67.9154C78.5103 67.9154 78.444 67.9154 78.3114 67.9154C78.2451 67.9154 78.2451 67.9154 78.1788 67.9154C78.3114 67.9154 78.3114 67.9801 78.1788 67.9154C78.1125 67.9154 78.0461 67.8507 77.9798 67.8507C77.8472 67.786 77.7146 67.6566 77.582 67.592C77.6483 67.6566 77.6483 67.6566 77.7146 67.7213C77.383 67.3979 77.2504 67.0097 77.1178 66.6216C77.1178 66.6863 77.1178 66.751 77.1178 66.8157C77.0515 66.5569 77.0515 66.2981 77.1178 66.0393C77.1178 65.9747 77.1178 65.91 77.1841 65.8453C77.1841 65.7806 77.2504 65.7159 77.1841 65.8453C77.2504 65.7159 77.3167 65.5865 77.383 65.4571L77.5157 65.263C77.5157 65.263 77.3167 65.4571 77.5157 65.263C77.582 65.1984 77.582 65.1984 77.6483 65.1337C77.7146 65.069 77.8472 64.8749 77.7146 65.069C77.5157 65.1984 77.7146 65.069 77.7809 65.0043C77.8472 64.9396 77.9135 64.9396 77.9798 64.8749C77.582 65.3277 77.9798 64.8102 78.1125 64.8102C78.0461 64.8102 77.7146 65.069 77.9798 64.8749C78.0461 64.8102 78.2451 64.7455 77.9798 64.8749C77.7146 65.0043 77.9798 64.8749 78.0461 64.8749C78.3114 64.7455 77.9135 64.8749 77.9135 64.9396C77.9798 64.8749 78.0461 64.8749 78.1125 64.8749C78.3777 64.8102 77.7809 64.9396 78.0461 64.8749C78.1125 64.8749 78.1788 64.8749 78.2451 64.8749H78.3114C78.444 64.8749 78.3777 64.8749 78.2451 64.8749C78.3114 64.8102 78.7092 64.8749 78.7756 64.9396C78.9745 64.9396 79.1734 65.0043 79.3723 65.0043C79.7702 65.069 80.1681 65.1337 80.5659 65.263C81.229 65.4571 82.0247 65.069 82.5552 64.7455C82.8205 64.5514 83.152 64.3574 83.2846 64.0339C83.351 63.6457 83.4173 63.387 83.2183 63.3223Z" fill="#383838"/>
<path d="M95.6189 66.621C93.5633 54.7177 83.4841 45.208 71.2831 43.4613C69.8243 43.2672 68.3654 43.1378 66.9066 43.1378C54.7719 43.2025 43.3002 50.1246 38.7248 61.2516C34.0831 72.508 37.5313 85.7051 47.0799 93.4682C56.4296 101.102 70.0232 102.008 80.6991 96.3793C91.574 90.6217 97.6745 78.589 95.6189 66.621ZM39.6532 66.8151C41.5099 56.1409 50.2628 46.9546 61.3366 45.0786C62.7954 44.8198 64.2542 44.7551 65.713 44.6904C77.0521 44.7551 87.3964 51.7418 91.5077 62.0279C95.6189 72.3786 92.7012 84.476 84.2136 91.9156C80.036 95.603 74.7312 97.9319 69.1612 98.3848C63.4585 98.8376 57.6895 97.5438 52.7826 94.6326C43.035 88.9397 37.7965 77.6833 39.6532 66.8151ZM65.7793 43.8494C67.3708 43.8494 68.9622 43.9788 70.4874 44.3023C69.2938 44.1729 68.1002 44.0435 66.9729 44.0435C59.8778 44.1082 53.0478 46.5665 47.743 50.8362C51.4564 47.4075 56.0981 45.0139 61.2703 44.1729C62.7291 43.9141 64.2542 43.8494 65.7793 43.8494Z" fill="#4F4F4F"/>
<path d="M65.2496 32.3344C66.9737 32.205 69.3609 32.6578 71.8143 33.3694C71.8806 33.1107 71.947 32.8519 71.947 32.5284C71.947 30.0055 69.1619 28 65.7801 28C62.3983 28 59.6133 30.0055 59.6133 32.5284C59.6133 32.7872 59.6796 32.9813 59.6796 33.24C61.8678 32.5931 63.9897 32.205 65.2496 32.3344Z" fill="#CFCFD6"/>
<path d="M95.4864 51.5479C94.2928 49.9306 92.635 48.5721 90.7783 47.7311C89.85 45.7256 88.8553 43.7849 87.5291 42.0382C85.6725 39.6446 83.2853 37.6391 80.6329 36.1512C75.6596 33.3048 69.4265 31.8815 63.6575 31.8815C58.1538 31.8168 52.5174 33.1754 47.942 36.3453C43.8971 39.127 40.7142 43.2026 39.388 47.8605C39.2554 48.378 39.3217 49.2837 38.8576 49.6718C38.3934 50.06 37.7303 50.3187 37.2661 50.7069C36.0062 51.742 35.0116 53.0358 34.2822 54.459C32.8233 57.3055 32.5581 60.7342 33.7517 63.7747C33.9506 64.3569 34.68 64.8098 35.2105 65.1979C35.3431 65.1979 36.4704 65.8448 36.3378 65.5214C36.2052 65.2626 36.1388 64.9391 36.0725 64.6804C36.2052 65.0685 36.603 65.392 37.0009 65.5214C37.7303 65.8448 38.6586 65.7154 39.1891 65.0038C41.3773 62.028 44.8918 60.2813 48.2736 58.9875C52.2522 57.4996 56.4297 56.3998 60.6073 55.8176C68.5645 54.7178 76.8532 55.5588 84.2136 58.8581C88.0596 60.5401 91.5078 62.9337 94.4254 65.8448C95.2874 66.6858 96.9452 66.6858 97.343 65.4567C99.0671 61.0576 98.2714 55.4294 95.4864 51.5479Z" fill="#383838"/>
<path d="M75.0623 53.5537C65.8452 52.0011 56.2965 53.2949 47.6099 56.4002C43.2335 57.9528 38.9233 60.0229 36.1383 63.8397C36.0057 63.9691 36.0057 64.1632 36.0057 64.2926C34.8121 59.6994 36.8014 54.2653 41.1115 51.8717C41.642 51.613 41.7083 51.3542 41.7746 50.772C41.841 50.1897 42.0399 49.6075 42.2388 49.0253C42.5704 47.9255 43.0345 46.8904 43.6313 45.8554C44.6923 43.8499 46.1511 42.1032 47.7425 40.5506C54.5725 34.1461 64.3201 33.3698 73.2719 35.3106C76.4548 36.0222 79.6377 37.1866 82.2238 39.1274C85.0751 41.2622 87.3297 43.8499 88.7222 47.0198C86.9318 46.567 85.0088 46.567 83.1521 47.1492C81.0965 47.7961 82.688 50.125 84.412 49.5428C87.7938 48.443 91.3083 50.3191 93.0986 53.1656C94.7564 55.8826 95.2869 59.2466 94.8227 62.4165C89.2526 57.8234 82.2901 54.7829 75.0623 53.5537Z" fill="#58595B"/>
<path d="M56.5622 48.1188C57.6232 46.0486 60.0104 44.6254 62.3975 44.6901C64.7847 44.7548 67.0392 46.3074 67.9676 48.5069C68.2991 46.4368 70.3547 44.8195 72.4767 44.8195C74.5986 44.8195 76.6542 46.2427 77.3173 48.1835C77.9804 50.1242 77.3836 52.4531 75.8585 53.8764C77.8478 54.9114 80.5665 54.2645 81.8264 52.4531C80.9643 55.0408 79.1077 57.2404 76.7868 58.6636C74.8638 59.828 72.1451 60.2809 70.4874 58.793C70.1558 58.4695 69.8906 58.146 69.4927 57.952C68.8296 57.6932 68.1002 58.0813 67.5034 58.4048C64.851 59.7633 61.6681 59.9574 58.8831 59.0517C57.6895 58.6636 56.4296 57.952 55.8991 56.7875C55.3687 55.6231 55.8328 54.0058 57.0927 53.6823C55.5676 53.8764 53.9098 53.9411 52.7826 53.0354C51.5227 52.0003 51.4564 49.9302 52.5836 48.7657C53.7109 47.6012 55.7002 47.4719 57.0264 48.4422" fill="#6D6E71"/>
<path d="M57.6228 49.219C58.5511 47.4724 60.4741 46.1785 62.5297 45.9844C63.9886 45.8551 66.3094 46.3079 66.9725 47.7958C67.2378 48.378 67.6356 48.9603 68.0998 49.4131C68.2324 49.5425 68.8955 50.1247 69.0281 49.6719C69.5586 47.0195 72.6752 45.3375 75.2613 46.5667C76.3222 47.0842 76.5212 47.7958 76.4549 48.9603C76.3886 50.3835 75.7918 51.6773 74.7971 52.6477C74.5319 52.9065 74.996 53.6828 75.1287 53.8769C75.4602 54.3944 75.9244 54.9119 76.4549 55.1707C78.5768 56.2058 81.2955 55.6882 82.7543 53.7475C82.0912 52.9065 81.3618 52.1302 80.6987 51.2892C79.5051 54.7826 75.7918 58.9875 71.5479 58.4053C70.3543 58.2112 70.0891 57.4996 69.1608 56.9174C68.0998 56.2705 67.1051 56.8527 66.1105 57.3055C63.9886 58.2759 61.5351 58.5347 59.2142 58.0818C58.6175 57.9525 58.0207 57.7584 57.4239 57.4996C57.1586 57.3702 56.9597 57.1762 56.6945 57.1115C56.5618 57.0468 56.6282 57.0468 56.6282 57.1115C56.6282 57.1115 56.7608 57.3702 56.8271 57.3055C56.8934 57.2408 56.8271 56.7233 56.8271 56.6586C56.8934 56.3998 56.9597 56.2058 57.026 55.947C57.2913 55.4942 57.6228 55.1707 58.1533 55.0413C58.6175 54.9119 56.9597 52.3889 56.2966 52.4536C55.3019 52.583 54.241 52.7124 53.2463 52.4536C53.1137 52.4536 52.6495 52.1302 52.5832 52.1949C52.9811 52.8418 53.1137 52.9712 52.9811 52.7124C52.9811 52.6477 52.9811 52.6477 52.9811 52.583C52.9811 52.1302 52.9148 51.742 53.0474 51.2245C53.5779 49.4778 55.9651 48.7015 57.5565 49.6719C58.087 49.9953 58.2859 49.8013 58.1533 49.219C57.9544 48.5721 57.3576 47.7958 56.7608 47.4077C55.5672 46.6314 54.1747 46.3726 52.7822 46.8901C51.456 47.4077 50.7266 48.7662 50.8592 50.1247C50.9255 51.742 52.1191 53.424 53.4453 54.3297C54.8378 55.3001 56.4955 55.3001 58.087 55.106C57.4902 54.265 56.8271 53.3593 56.2303 52.5183C55.2356 52.8418 54.7715 53.8122 54.7052 54.7826C54.7052 56.1411 55.5009 57.3702 56.4292 58.3406C58.2859 60.3461 61.1372 61.1224 63.856 61.0577C65.1822 60.993 66.5084 60.7342 67.7682 60.2167C68.365 59.9579 68.9618 59.5698 69.6249 59.3757C70.4206 59.1816 70.6859 59.8285 71.2827 60.2167C73.272 61.7046 75.8581 61.2517 77.8474 60.0873C80.3008 58.6641 82.0912 56.3352 82.9533 53.7475C83.1522 53.1653 81.2292 50.8363 80.8976 51.2892C79.6377 52.9712 77.2506 53.6828 75.2613 52.7124C75.7918 53.5534 76.3886 54.3944 76.919 55.2354C80.1019 52.1302 78.6431 47.5371 75.4602 45.0141C74.0677 43.9143 72.2773 43.2674 70.487 43.7202C68.6966 44.1731 67.3041 45.661 66.9725 47.4077C67.6356 48.0546 68.365 48.6368 69.0281 49.2837C67.8346 46.5667 65.4474 43.979 62.3308 43.5261C59.5458 43.0733 56.8271 44.6259 55.5672 47.0195C55.103 47.6017 57.2913 49.866 57.6228 49.219Z" fill="#383838"/>
</g>
<rect x="4.5" y="4.5" width="123" height="123" stroke="#0A74A6"/>
<rect x="0.5" y="0.5" width="7" height="7" fill="white" stroke="#0A74A6"/>
<rect x="0.5" y="124.5" width="7" height="7" fill="white" stroke="#0A74A6"/>
<rect x="124.5" y="0.5" width="7" height="7" fill="white" stroke="#0A74A6"/>
<rect x="124.5" y="124.5" width="7" height="7" fill="white" stroke="#0A74A6"/>
<defs>
<clipPath id="clip0_804_3546">
<rect x="4" y="4" width="124" height="124" fill="white"/>
</clipPath>
</defs>
</svg>
