<svg width="132" height="132" viewBox="0 0 132 132" fill="none" xmlns="http://www.w3.org/2000/svg">
<g clip-path="url(#clip0_802_2388)">
<rect x="4" y="4" width="124" height="124" fill="white"/>
<path d="M24.583 129.79C24.583 131.18 24.653 141.4 24.793 142.79H43.903V103.79C32.293 107.54 24.583 115.44 24.583 129.79Z" fill="white" stroke="#4F4F4F" stroke-width="2" stroke-linecap="round" stroke-linejoin="round"/>
<path d="M108.693 129.79C108.693 115.43 100.993 107.54 89.373 103.71V142.71H108.483C108.583 141.44 108.693 131.18 108.693 129.79Z" fill="white" stroke="black" stroke-width="0.81" stroke-linecap="round" stroke-linejoin="round"/>
<path d="M108.693 129.79C108.693 115.43 100.993 107.54 89.373 103.71V142.71H108.483C108.583 141.44 108.693 131.18 108.693 129.79Z" stroke="black" stroke-width="0.08" stroke-linecap="round" stroke-linejoin="round"/>
<path d="M108.693 129.79C108.693 115.43 99.993 107.54 88.373 103.71V142.71H108.483C108.583 141.44 108.693 131.18 108.693 129.79Z" stroke="#4F4F4F" stroke-width="2" stroke-linecap="round" stroke-linejoin="round"/>
<path d="M66.9949 129C72.831 129 78.4281 126.608 82.5548 122.35C86.6816 118.092 89 112.317 89 106.296C88.9954 105.448 88.9441 104.601 88.8463 103.759C74.4968 100.08 59.4929 100.08 45.1434 103.759C45.0491 104.601 45.0012 105.448 45 106.296C45 112.315 47.317 118.089 51.4415 122.346C55.5661 126.604 61.1605 128.997 66.9949 129Z" fill="white" stroke="#4F4F4F" stroke-width="2" stroke-linecap="round" stroke-linejoin="round"/>
<path d="M51.1003 102C51.0314 102.567 50.9979 103.138 51.0001 103.71C51.0001 105.718 51.401 107.706 52.18 109.561C52.9589 111.416 54.1006 113.102 55.5399 114.522C56.9792 115.941 58.6879 117.068 60.5685 117.836C62.449 118.605 64.4645 119 66.5 119C68.5355 119 70.551 118.605 72.4315 117.836C74.3121 117.068 76.0208 115.941 77.4601 114.522C78.8994 113.102 80.0411 111.416 80.82 109.561C81.599 107.706 81.9999 105.718 81.9999 103.71C82.0021 103.138 81.9686 102.567 81.8997 102" stroke="#F2E9B4" stroke-width="2" stroke-linecap="round" stroke-linejoin="round"/>
<path d="M68.683 121.76C68.6731 122.153 68.5475 122.535 68.3219 122.857C68.0962 123.179 67.7805 123.428 67.4143 123.572C67.0481 123.715 66.6477 123.748 66.2631 123.665C65.8784 123.582 65.5268 123.388 65.252 123.106C64.9773 122.825 64.7917 122.468 64.7185 122.082C64.6453 121.695 64.6877 121.296 64.8405 120.933C64.9932 120.571 65.2495 120.261 65.5772 120.044C65.9049 119.826 66.2896 119.71 66.683 119.71C66.9499 119.71 67.2141 119.763 67.4601 119.867C67.706 119.97 67.9288 120.122 68.1152 120.313C68.3015 120.504 68.4478 120.731 68.5453 120.979C68.6428 121.228 68.6896 121.493 68.683 121.76Z" fill="#E28D26" stroke="#E28D26" stroke-width="0.81" stroke-linecap="round" stroke-linejoin="round"/>
<path d="M76.9492 104L77 93.5312V91C71.126 94.121 61.6341 95.2883 57 95.6938V103.422" fill="white"/>
<path d="M76.9492 104L77 93.5312V91C71.126 94.121 61.6341 95.2883 57 95.6938V103.422" stroke="#4F4F4F" stroke-width="2" stroke-miterlimit="10"/>
<path d="M88.11 103.29C88.2054 104.086 88.2555 104.888 88.26 105.69C88.26 111.392 85.9948 116.861 81.9628 120.893C77.9308 124.925 72.4622 127.19 66.76 127.19C61.0579 127.19 55.5893 124.925 51.5572 120.893C47.5252 116.861 45.26 111.392 45.26 105.69C45.2612 104.888 45.3079 104.086 45.4 103.29C44.93 103.43 44.46 103.56 44 103.71V142.71H89.46V103.71C89.05 103.56 88.58 103.44 88.11 103.29Z" fill="#BA0B54" stroke="#BA0B54" stroke-width="2" stroke-linecap="round" stroke-linejoin="round"/>
<path d="M98.861 76.2665C98.861 87.6956 93.4092 96.6944 81.4546 98.7306C78.3674 99.2561 75.2802 97.7453 73.7038 94.9866L64.4423 78.5655L56.4944 95.5778C55.4435 97.811 53.0788 99.1247 50.6485 98.862C37.9057 97.2199 32.2568 88.024 32.2568 76.2008L33.1107 56.1013C33.1107 43.0958 46.7731 29.1707 65.5589 29.1707C85.8555 29.1707 98.0071 43.1615 98.0071 56.167L98.861 76.2665Z" fill="#FFB6C7"/>
<path d="M97.613 75.2812C97.613 80.0105 96.6935 84.8055 94.1318 88.8779C91.6357 92.819 87.7603 95.5778 83.2938 96.8915C80.9948 97.5483 77.7106 98.4022 75.6087 96.6287C75.0175 96.1689 74.6891 95.315 74.3607 94.6582C72.7843 91.8338 71.2078 89.075 69.6314 86.2506C68.3177 83.9516 67.004 81.6526 65.756 79.3537C65.6246 79.0909 63.5884 76.9234 63.3257 77.4488C61.4208 81.5213 59.516 85.5937 57.6111 89.6662C56.8886 91.2426 56.1661 92.819 55.3778 94.3955C54.5239 96.1033 52.9475 97.4169 51.0427 97.6797C49.0064 97.9424 46.6418 97.2199 44.7369 96.563C43.0948 95.9719 41.4527 95.1837 40.0733 94.1327C39.4822 93.6729 39.0881 93.3445 38.6283 92.819C38.0371 92.2279 37.5773 91.571 37.1175 90.8485C35.0156 87.827 34.0304 84.1487 33.6363 80.4703C33.4392 78.4998 33.5049 76.5949 33.5706 74.6244C33.7019 71.8656 33.7676 69.1069 33.899 66.2825C34.0304 63.7208 34.096 61.1591 34.2274 58.5974C34.2931 56.4955 34.3588 54.4592 34.8843 52.423C36.7234 44.8693 42.438 38.6292 49.0721 34.8195C57.1513 30.2216 67.004 29.105 76.0028 31.3383C83.2938 33.1117 89.8623 37.1185 93.6063 43.6213C95.2484 46.5114 96.365 49.7956 96.6935 53.1455C96.8248 54.7877 96.8248 56.4298 96.8905 58.0719C97.0876 63.3923 97.3503 68.7128 97.5474 74.0332C97.613 74.4273 97.613 74.8214 97.613 75.2812C97.613 75.8724 98.5326 76.5293 98.9267 76.8577C99.0581 76.9234 100.109 77.7116 100.109 77.2518C99.912 72.5882 99.7149 67.9246 99.5179 63.261C99.4522 61.2904 99.3208 59.2542 99.2551 57.2837C99.1895 54.3279 98.664 51.5034 97.613 48.679C94.6572 41.1253 88.2201 35.0166 80.9948 31.601C72.4558 27.5286 62.1434 26.8717 53.1446 29.8275C45.1967 32.4549 37.9714 37.9067 34.2274 45.5261C32.7167 48.5476 31.9285 51.8318 31.8628 55.1818C31.7971 57.0209 31.7314 58.7944 31.6657 60.6336C31.403 65.4942 31.1402 70.3549 31.0089 75.2156C30.8118 83.032 33.899 90.6514 40.2047 95.3807C43.5546 97.9424 47.7584 99.6502 51.9622 99.9786C54.1955 100.176 56.3631 98.9934 57.4798 97.0885C57.7425 96.563 58.0052 96.0376 58.2023 95.5121C60.5012 90.6514 62.7345 85.7251 65.0335 80.8644C65.2305 80.4703 65.4276 80.0105 65.6246 79.6164C64.8364 78.9596 64.0482 78.3684 63.1943 77.7116C66.0844 82.835 68.9746 87.9584 71.8647 93.0161C72.5215 94.1327 73.1784 95.2494 74.0323 96.1689C76.1342 98.4022 79.09 100.11 82.2428 99.7159C87.1692 99.0591 92.0298 96.6287 95.1827 92.6877C98.7297 88.2868 99.9777 82.5722 100.043 77.0547C100.043 76.4636 99.1238 75.8067 98.7297 75.4783C98.664 75.544 97.613 74.8214 97.613 75.2812Z" fill="#4F4F4F"/>
<path d="M65.8216 95.8406C81.0215 95.8406 93.3435 83.5187 93.3435 68.3188C93.3435 53.1189 81.0215 40.7969 65.8216 40.7969C50.6218 40.7969 38.2998 53.1189 38.2998 68.3188C38.2998 83.5187 50.6218 95.8406 65.8216 95.8406Z" fill="#E4E4E4" stroke="white" stroke-miterlimit="10"/>
<path d="M94.9198 63.261C92.8836 51.175 82.8996 41.5194 70.8136 39.7459C69.3685 39.5488 67.9235 39.4175 66.4784 39.4175C54.4581 39.4832 43.0947 46.5114 38.5625 57.8092C33.9645 69.2383 37.3801 82.6379 46.8387 90.5201C56.1002 98.2709 69.5656 99.1904 80.1408 93.4759C90.9131 87.63 97.0217 75.3469 94.9198 63.261ZM39.5477 63.3924C41.3869 52.5544 50.0573 43.2272 61.0266 41.3223C62.4716 41.0596 63.9167 40.9939 65.3618 40.9282C76.5281 41.0596 86.8406 48.0878 90.8474 58.5974C94.9198 69.1069 92.0297 81.3899 83.6221 88.9437C79.484 92.6877 74.2292 95.0523 68.7117 95.5121C63.0628 95.9719 57.3483 94.6582 52.4876 91.7024C42.832 85.9222 37.6429 74.493 39.5477 63.3924ZM65.3618 40.0743C66.9382 40.0743 68.5146 40.2057 70.0254 40.5341C68.8431 40.4027 67.6607 40.2714 66.5441 40.2714C59.5158 40.3371 52.7503 42.8331 47.4956 47.1683C51.1739 43.7527 55.8375 41.3223 60.9609 40.4684C62.406 40.2057 63.851 40.0743 65.3618 40.0743Z" fill="#4F4F4F"/>
<g opacity="0.3">
<path opacity="0.3" d="M76.6597 44.9349C82.2429 49.7299 85.7898 56.8895 85.7898 64.8374C85.7898 79.3537 74.0323 91.1112 59.516 91.1112C56.1004 91.1112 52.8162 90.4543 49.8604 89.272C54.4583 93.2131 60.4356 95.6434 67.004 95.6434C81.5203 95.6434 93.2779 83.8859 93.2779 69.3696C93.2779 58.2689 86.381 48.7446 76.6597 44.9349Z" fill="#828282"/>
</g>
<path d="M71.9961 35.0822C78.039 36.2645 82.4399 38.3007 86.1183 42.6359C87.9574 44.8035 89.7078 45.3726 88 48C86.5549 50.2333 76.5 52.5 76.0028 49.1025C75 50.5 60.5 57 58.2023 51.6347C56.3631 56.364 48.4493 59.9497 45.5 56C45.3029 58.7588 44.3429 60.5021 42.2409 62.0786C39.4165 64.1805 37.9058 62.7354 37.5117 59.6482C36.8548 53.5396 40.0734 47.7593 44.2115 43.0957C51.1084 35.4763 60.6326 32.8489 71.9961 35.0822Z" fill="#FFB6C7"/>
<path d="M36.0008 61.4218C37.5772 63.1953 39.6134 64.1149 41.9124 63.1296C44.2113 62.1444 45.2623 59.6484 46.1819 57.4808C46.1162 57.4808 45.9848 57.4808 45.9191 57.4151C48.6779 58.7945 51.9621 59.6484 54.9179 58.5317C57.2826 57.7435 59.2531 55.5759 59.3845 52.9485C59.1217 52.8828 58.859 52.7515 58.5963 52.6858C60.9609 54.8534 64.1138 55.6416 67.2666 54.9847C70.6166 54.2622 73.3753 52.0289 75.6086 49.5329C75.3458 49.4016 75.0831 49.2702 74.8204 49.1388C77.2507 51.3064 80.4035 52.2917 83.6221 51.8976C86.7093 51.5035 89.5994 49.9927 91.3072 47.3653C91.7013 46.7085 89.271 44.6723 89.1396 44.8693C87.6289 47.2997 84.9358 48.8761 82.1114 49.3359C79.4183 49.73 76.3311 49.2702 74.2292 47.431C74.1635 47.3653 73.638 46.8399 73.441 47.0369C71.4048 49.2702 68.9744 51.3064 66.0186 52.226C63.4569 53.0142 60.0413 52.8828 57.9394 50.978C57.8737 50.9123 57.1512 50.3211 57.1512 50.7153C57.0198 53.2113 55.1807 55.1818 52.9474 56.0357C50.123 57.1523 46.9044 56.3641 44.277 55.0504C44.2113 54.9847 44.08 54.9847 44.0143 54.9847C43.2918 56.8239 42.4379 58.7288 40.8614 59.9768C40.2046 60.5023 39.3507 60.8964 38.4968 60.962C38.1027 61.0277 37.6429 61.0277 37.2488 60.962C37.0517 60.962 36.9204 60.8964 36.7233 60.8307C36.3949 60.6993 36.0665 60.3052 36.5263 60.8964C36.3949 60.6993 35.4753 59.6484 35.1469 59.9111C34.8841 60.1738 35.8694 61.2905 36.0008 61.4218Z" fill="#4F4F4F"/>
<path d="M49.2471 63.5365C49.537 63.464 49.8993 63.3916 50.1892 63.3191C50.3342 63.3191 50.3342 63.3191 50.1892 63.3191C50.2617 63.3191 50.3342 63.3191 50.3342 63.3191C50.4791 63.3191 50.6241 63.2466 50.769 63.2466C50.914 63.2466 51.0589 63.1741 51.2764 63.1741C51.3488 63.1741 51.4213 63.1741 51.4938 63.1741C51.6387 63.1741 51.6387 63.1741 51.4213 63.1741C51.5663 63.2466 51.8562 63.1741 51.9286 63.2466C52.0011 63.2466 52.291 63.3191 52.0736 63.2466C52.1461 63.2466 52.2185 63.3191 52.291 63.3191C52.5084 63.3916 52.7258 63.464 52.8708 63.609C53.2332 63.8264 53.5955 64.0438 53.8854 64.3337C53.813 64.2612 53.813 64.2612 53.7405 64.1888C54.2478 64.6961 54.6827 65.3484 54.8276 66.0731C54.8276 66.0006 54.8276 65.9282 54.8276 65.8557C54.8276 66.0731 54.9001 66.2905 54.8276 66.508C54.8276 66.5804 54.8276 66.6529 54.8276 66.7254C54.8276 66.7979 54.7551 67.0878 54.8276 66.8703C54.7551 66.9428 54.7551 67.0878 54.6827 67.1602C54.6827 67.1602 54.6827 67.2327 54.6102 67.2327C54.5377 67.3776 54.5377 67.3052 54.6827 67.1602C54.6827 67.2327 54.6102 67.2327 54.6102 67.3052C54.8276 67.1602 54.8276 67.0878 54.6827 67.1602C54.5377 67.3052 54.6102 67.2327 54.8276 67.0153C55.1175 66.8703 55.19 66.7979 55.045 66.8703C54.9001 66.9428 54.9726 66.8703 55.3349 66.7254C55.19 66.7979 55.2625 66.7979 55.5524 66.6529C55.19 66.7254 55.8422 66.6529 55.5524 66.6529C55.4799 66.6529 55.4799 66.6529 55.4074 66.6529C55.3349 66.6529 55.3349 66.6529 55.5524 66.6529H55.2625C55.19 66.6529 55.19 66.6529 55.1175 66.6529C55.2625 66.6529 55.2625 66.7254 55.1175 66.6529C55.045 66.6529 54.9726 66.5804 54.9001 66.5804C54.6827 66.508 54.5377 66.363 54.3928 66.2181C54.4652 66.2905 54.4652 66.2905 54.5377 66.363C54.2478 66.0731 54.0304 65.7107 53.9579 65.2759C53.9579 65.3484 53.9579 65.4208 53.9579 65.4933C53.9579 65.2759 53.8854 65.0585 53.9579 64.841C53.9579 64.7686 53.9579 64.6236 54.0304 64.5511C54.0304 64.4787 54.0304 64.4787 54.0304 64.5511C54.0304 64.4787 54.1029 64.4787 54.1029 64.4062L54.2478 64.1163C54.1029 64.2612 54.1029 64.2612 54.1753 64.1888C54.1753 64.1163 54.2478 64.1163 54.2478 64.0438C54.1029 64.1888 54.0304 64.2612 54.1753 64.1888C54.0304 64.3337 53.8854 64.4062 53.668 64.5511C53.3056 64.7686 52.9433 64.841 52.5084 64.841C52.3635 64.7686 52.3635 64.7686 52.4359 64.841C52.3635 64.7686 52.3635 64.7686 52.291 64.6961V64.7686C52.291 64.6961 52.291 64.6236 52.291 64.5511C52.3635 64.841 52.1461 65.1309 52.0736 65.4208C52.0011 65.7832 52.0011 66.0731 52.0736 66.4355C52.2185 67.0153 52.6534 67.4501 53.3056 67.5226C53.668 67.5951 54.1029 67.4501 54.3928 67.3052C54.8276 67.1602 55.2625 66.8703 55.5524 66.5804C55.9147 66.2181 56.422 65.5658 55.6248 65.4208C55.7698 65.4208 55.6973 65.4208 55.5524 65.4208C55.4799 65.3484 55.4074 65.3484 55.4074 65.2759C55.4799 65.3484 55.4799 65.3484 55.5524 65.4208C55.3349 65.2034 55.2625 64.986 55.19 64.7686C55.19 64.841 55.19 64.9135 55.19 64.986C55.1175 64.4787 55.2625 64.0438 55.4074 63.5365C55.5524 62.8842 54.9001 62.6668 54.3203 62.7393C53.3781 62.8842 52.5084 63.3916 51.8562 63.9714C51.4938 64.3337 51.1314 64.6961 50.8415 65.2034C50.4791 65.8557 50.4067 66.7254 50.6966 67.4501C50.9865 68.1749 51.7112 68.6822 52.4359 68.8271C53.4506 69.117 54.6827 68.7547 55.5524 68.2473C56.6395 67.6675 57.5092 66.7979 57.7991 65.6383C58.1614 64.1163 57.2193 62.7393 56.0597 61.8696C54.2478 60.6375 52.0011 60.9999 50.0443 61.5797C49.6094 61.7246 49.1746 61.9421 48.8122 62.1595C48.5223 62.3769 48.16 62.6668 48.015 62.9567C47.8701 63.6815 48.8122 63.6815 49.2471 63.5365Z" fill="#383838"/>
<path d="M84.5424 61.5798C83.5278 61.2899 82.5131 61 81.426 61C80.2664 61 79.2518 61.3624 78.2371 61.8697C76.6427 62.6669 74.9033 64.1164 74.7584 66.0007C74.6859 66.7255 74.9033 67.5227 75.3382 68.03C75.918 68.6823 76.7876 68.8997 77.5849 68.8272C78.8169 68.7548 80.1215 68.1025 80.9912 67.3053C81.6434 66.653 82.1508 65.8558 82.0783 64.8411C82.0058 64.0439 81.571 63.1742 80.7737 62.8843C79.7591 62.4495 78.4546 63.1018 77.7298 63.754C77.3674 64.1164 77.0775 64.4788 77.2225 64.9861C77.295 65.276 77.3674 65.5659 77.4399 65.7833C77.4399 65.7108 77.4399 65.6384 77.4399 65.5659C77.4399 65.7833 77.5124 66.0007 77.4399 66.2906C77.4399 66.3631 77.4399 66.3631 77.4399 66.2906C77.4399 66.3631 77.4399 66.3631 77.3674 66.4356C77.295 66.5081 77.3674 66.5081 77.4399 66.3631C77.8748 65.9283 78.4546 65.6384 79.1068 65.4934C78.3096 65.6384 77.3674 66.0007 76.8601 66.7255C76.7152 66.9429 76.4978 67.1603 76.6427 67.4502C76.7876 67.6677 77.15 67.6677 77.3674 67.6677C78.1647 67.5227 78.8894 67.2328 79.5417 66.7255C79.9041 66.4356 80.3389 66.0732 80.5563 65.5659C80.8462 64.8411 80.6288 64.1164 80.4114 63.3192C80.4114 63.3917 80.4114 63.4641 80.4114 63.5366C80.4114 63.3917 80.4114 63.3917 80.3389 63.5366C80.1939 63.6816 80.049 63.899 79.9041 64.0439C79.9041 64.0439 79.9041 64.0439 79.9765 63.9715C79.7591 64.1164 79.4692 64.3338 79.2518 64.4788H79.3243C79.0344 64.6237 78.7445 64.6962 78.4546 64.8411C78.3821 64.8411 77.9472 64.9861 77.8748 64.9136C77.8748 64.9861 78.0197 64.9861 78.0197 64.9861C78.0922 65.0586 78.2371 65.131 78.3096 65.2035C78.2371 65.131 78.2371 65.131 78.1647 65.0586C78.527 65.4209 78.7445 65.7833 78.8169 66.2906C78.8169 66.2182 78.8169 66.1457 78.8169 66.0732C78.8169 66.2182 78.8894 66.4356 78.8169 66.5805C78.8169 66.653 78.8169 66.798 78.7445 66.8704C78.7445 66.9429 78.672 67.0879 78.7445 66.9429C78.672 67.0154 78.672 67.1603 78.5995 67.2328C78.4546 67.4502 78.7445 67.0154 78.5995 67.2328C78.527 67.3778 78.527 67.3053 78.672 67.1603C78.527 67.3053 78.5995 67.2328 78.8169 67.0154C78.672 67.0879 78.7445 67.0879 79.0344 66.8704C78.8894 66.9429 78.9619 66.9429 79.1068 66.8704C79.2518 66.798 79.3243 66.798 79.1793 66.798C79.4692 66.7255 79.5417 66.653 79.3967 66.7255C79.1068 66.798 79.7591 66.653 79.4692 66.7255C79.1793 66.7255 79.6866 66.7255 79.4692 66.7255C79.3967 66.7255 79.3243 66.7255 79.1793 66.7255C79.1068 66.7255 79.1068 66.7255 79.0344 66.7255C79.1793 66.7255 79.1793 66.798 79.0344 66.7255C78.9619 66.7255 78.8894 66.653 78.8169 66.653C78.672 66.5805 78.527 66.4356 78.3821 66.3631C78.4546 66.4356 78.4546 66.4356 78.527 66.5081C78.1647 66.1457 78.0197 65.7108 77.8748 65.276C77.8748 65.3485 77.8748 65.4209 77.8748 65.4934C77.8023 65.2035 77.8023 64.9136 77.8748 64.6237C77.8748 64.5512 77.8748 64.4788 77.9472 64.4063C77.9472 64.3338 78.0197 64.2614 77.9472 64.4063C78.0197 64.2614 78.0922 64.1164 78.1647 63.9715L78.3096 63.754C78.3096 63.754 78.0922 63.9715 78.3096 63.754C78.3821 63.6816 78.3821 63.6816 78.4546 63.6091C78.527 63.5366 78.672 63.3192 78.527 63.5366C78.3096 63.6816 78.527 63.5366 78.5995 63.4641C78.672 63.3917 78.7445 63.3917 78.8169 63.3192C78.3821 63.8265 78.8169 63.2467 78.9619 63.2467C78.8894 63.2467 78.527 63.5366 78.8169 63.3192C78.8894 63.2467 79.1068 63.1742 78.8169 63.3192C78.527 63.4641 78.8169 63.3192 78.8894 63.3192C79.1793 63.1742 78.7445 63.3192 78.7445 63.3917C78.8169 63.3192 78.8894 63.3192 78.9619 63.3192C79.2518 63.2467 78.5995 63.3917 78.8894 63.3192C78.9619 63.3192 79.0344 63.3192 79.1068 63.3192H79.1793C79.3243 63.3192 79.2518 63.3192 79.1068 63.3192C79.1793 63.2467 79.6142 63.3192 79.6866 63.3917C79.904 63.3917 80.1215 63.4641 80.3389 63.4641C80.7737 63.5366 81.2086 63.6091 81.6434 63.754C82.3682 63.9715 83.2379 63.5366 83.8177 63.1742C84.1076 62.9568 84.4699 62.7394 84.6149 62.377C84.6874 61.9422 84.7598 61.6523 84.5424 61.5798Z" fill="#383838"/>
<path d="M66.2256 81.6326C66.7942 81.6326 67.3059 81.5758 67.8176 81.4621C68.4999 81.3484 69.1253 81.1209 69.637 80.6092C70.9447 79.4152 71.0584 76.743 70.7741 75.0942C70.3193 72.7062 67.3627 71.9671 65.2591 72.7062C62.9279 73.559 62.5299 76.4587 62.8711 78.6761C63.0417 79.5858 63.4396 80.4387 64.1788 80.9504C64.7473 81.4621 65.4865 81.6326 66.2256 81.6326Z" fill="white"/>
<path d="M65.9408 82.2013C67.3054 82.2013 68.7837 81.9739 69.9208 81.2347C70.8305 80.6093 71.2853 79.6428 71.5696 78.6193C71.797 77.6528 71.8539 76.5725 71.7402 75.606C71.6265 74.6963 71.3422 73.8434 70.6599 73.218C69.2385 71.9103 66.9643 71.7397 65.2017 72.3083C63.2117 72.9906 62.1315 74.81 62.0178 76.8568C61.9609 77.9939 62.0178 79.1879 62.5295 80.2113C63.1549 81.5759 64.4626 82.1444 65.9408 82.2013C66.282 82.2013 66.8505 82.0876 67.0211 81.7464C67.1917 81.4053 66.8505 81.1779 66.5663 81.1779C65.5428 81.121 64.69 80.7799 64.1783 79.8702C63.7803 79.1311 63.6666 78.2782 63.6666 77.4254C63.6666 76.0608 63.894 74.2983 65.1449 73.5023C66.1683 72.82 67.7602 72.9906 68.7837 73.6729C70.0913 74.5257 70.2051 76.2314 70.0913 77.6528C70.0345 78.5056 69.8071 79.4722 69.2954 80.1545C68.6699 81.0073 67.476 81.1779 66.5094 81.121C66.1114 81.121 65.5997 81.2347 65.4291 81.5759C65.2586 81.917 65.5997 82.2013 65.9408 82.2013Z" fill="#383838"/>
<path d="M62.9279 76.8001C65.0316 75.7198 67.4764 75.3787 69.7507 75.7767C70.1487 75.8336 70.5467 75.9473 70.7741 76.3453C70.8878 76.5727 70.8878 76.9138 70.8309 77.1412C70.6604 78.5058 70.3761 79.9841 69.3527 80.8369C68.443 81.6329 67.1921 81.6897 65.9982 81.6329C65.259 81.576 64.463 81.3486 63.8945 80.8369C62.8142 79.8703 62.7573 78.3921 62.9279 77.0844" fill="#EF6461"/>
<path d="M63.2686 77.3117C64.5763 76.6862 65.9408 76.2882 67.4191 76.2314C68.1014 76.2314 68.8974 76.2314 69.5796 76.402C69.8071 76.4588 69.9776 76.5157 69.9776 76.7431C70.0345 77.0274 69.9208 77.3685 69.9208 77.6528C69.7502 78.7331 69.4659 80.1545 68.3856 80.6662C67.8739 80.9505 67.2485 81.0073 66.6231 81.0073C66.0545 81.0073 65.4291 80.9505 64.9174 80.6662C63.6097 79.9271 63.6097 78.3351 63.7234 77.0842C63.8371 76.1745 62.1315 76.402 62.0746 77.198C61.904 78.7331 62.0746 80.4956 63.4392 81.519C64.1783 82.0876 65.088 82.2582 65.9977 82.315C66.8505 82.3719 67.7602 82.315 68.6131 82.0307C70.3756 81.4053 71.2285 79.9271 71.5696 78.1645C71.6833 77.4254 71.9676 76.402 71.4559 75.7765C70.8873 75.1511 69.8071 75.0374 69.0111 74.9806C66.7937 74.81 64.5763 75.2648 62.6432 76.2314C62.3589 76.402 62.0177 76.8 62.2452 77.1411C62.4157 77.5391 62.9843 77.4822 63.2686 77.3117Z" fill="#383838"/>
</g>
<rect x="4.5" y="4.5" width="123" height="123" stroke="#0A74A6"/>
<rect x="0.5" y="0.5" width="7" height="7" fill="white" stroke="#0A74A6"/>
<rect x="0.5" y="124.5" width="7" height="7" fill="white" stroke="#0A74A6"/>
<rect x="124.5" y="0.5" width="7" height="7" fill="white" stroke="#0A74A6"/>
<rect x="124.5" y="124.5" width="7" height="7" fill="white" stroke="#0A74A6"/>
<defs>
<clipPath id="clip0_802_2388">
<rect x="4" y="4" width="124" height="124" fill="white"/>
</clipPath>
</defs>
</svg>
