<svg width="100" height="100" viewBox="0 0 100 100" fill="none" xmlns="http://www.w3.org/2000/svg">
<path d="M84.2131 58.7619H43.2136C42.6763 58.7619 42.2383 58.3239 42.2383 57.7866V16.7871C42.2383 16.2498 42.6763 15.8118 43.2136 15.8118H84.2131C84.7504 15.8118 85.1884 16.2498 85.1884 16.7871V57.7866C85.1884 58.328 84.7504 58.7619 84.2131 58.7619ZM44.189 56.8113H83.2377V17.7626H44.189V56.8113Z" fill="#0A74A6"/>
<path d="M15.8818 86.098C15.7578 86.098 15.6297 86.0732 15.5098 86.0236C15.1462 85.8748 14.9065 85.5153 14.9065 85.1227L14.9023 44.1189C14.9023 43.8586 15.0057 43.6106 15.1875 43.4288L42.5248 16.0957C42.8058 15.8147 43.2232 15.7321 43.5868 15.885C43.9505 16.0379 44.1902 16.3933 44.1902 16.7859V57.7854C44.1902 58.0458 44.0869 58.2937 43.905 58.4756L16.572 85.8086C16.3819 85.9987 16.134 86.0979 15.8819 86.0979L15.8818 86.098ZM16.8571 44.524V82.7634L42.235 57.3812V19.1418L16.8571 44.524Z" fill="#0A74A6"/>
<path d="M56.8796 86.0982H15.8801C15.4833 86.0982 15.1279 85.8585 14.9791 85.4948C14.8262 85.1311 14.913 84.7096 15.1899 84.4327L42.5229 57.0997C42.7048 56.9179 42.9527 56.8146 43.2131 56.8146L84.2126 56.8104C84.6094 56.8104 84.9648 57.046 85.1135 57.4138C85.2664 57.7774 85.1797 58.199 84.9028 58.4758L57.5697 85.8089C57.3879 85.9949 57.1358 86.0982 56.8796 86.0982ZM18.2361 84.1434H56.4755L81.8577 58.7612H43.6183L18.2361 84.1434Z" fill="#0A74A6"/>
<path d="M43.2139 17.7623C42.6767 17.7623 42.2386 17.3242 42.2386 16.787V10.5551L39.7466 11.8031C39.2631 12.0428 38.6763 11.8486 38.4366 11.3651C38.1969 10.8816 38.3911 10.2948 38.8746 10.055L42.7799 8.10439C43.0816 7.95148 43.4411 7.96801 43.7304 8.14571C44.0197 8.32342 44.1933 8.63749 44.1933 8.97637L44.1891 16.787C44.1891 17.3242 43.7511 17.7623 43.2138 17.7623L43.2139 17.7623Z" fill="#0A74A6"/>
<path d="M47.1162 11.9066C46.9674 11.9066 46.8186 11.8735 46.6823 11.8033L42.777 9.85264C42.2934 9.61295 42.0992 9.02612 42.3389 8.54258C42.5786 8.05907 43.1654 7.86484 43.649 8.10453L47.5543 10.0552C48.0378 10.2949 48.232 10.8817 47.9923 11.3652C47.8229 11.7082 47.4757 11.9066 47.1162 11.9066L47.1162 11.9066Z" fill="#0A74A6"/>
<path d="M92.0242 58.7619H84.2136C83.6763 58.7619 83.2383 58.3239 83.2383 57.7867C83.2383 57.2494 83.6763 56.8114 84.2136 56.8114H90.4455L89.1974 54.3194C88.9578 53.8359 89.152 53.249 89.6355 53.0093C90.119 52.7696 90.7058 52.9639 90.9456 53.4474L92.8962 57.3527C93.0491 57.6543 93.0326 58.0139 92.8549 58.3032C92.6772 58.5883 92.3631 58.7619 92.0242 58.7619L92.0242 58.7619Z" fill="#0A74A6"/>
<path d="M90.0683 62.6667C89.9195 62.6667 89.7708 62.6336 89.6344 62.5634C89.1509 62.3237 88.9566 61.7368 89.1963 61.2533L91.147 57.348C91.3867 56.8645 91.9735 56.6703 92.457 56.91C92.9405 57.1496 93.1348 57.7365 92.8951 58.22L90.9444 62.1253C90.7709 62.4724 90.4279 62.6667 90.0683 62.6667L90.0683 62.6667Z" fill="#0A74A6"/>
<path d="M14.5006 93.0001C14.3973 93.0001 14.294 92.9836 14.1907 92.9506L10.0498 91.5703C9.72746 91.4628 9.48777 91.1983 9.40925 90.8677C9.33073 90.5371 9.42991 90.1941 9.6696 89.9544L15.1908 84.4332C15.571 84.053 16.1909 84.053 16.5711 84.4332C16.9513 84.8134 16.9513 85.4333 16.5711 85.8135L12.1657 90.2189L14.8106 91.0991C15.323 91.2686 15.5999 91.8223 15.4263 92.3348C15.2899 92.744 14.9056 93.0002 14.5006 93.0002L14.5006 93.0001Z" fill="#0A74A6"/>
<path d="M10.3558 91.6196C9.9467 91.6196 9.5665 91.3592 9.43012 90.9501L8.04982 86.8092C7.88038 86.2967 8.15727 85.743 8.66558 85.5735C9.17803 85.4041 9.73178 85.681 9.90126 86.1893L11.2816 90.3302C11.451 90.8426 11.1741 91.3964 10.6658 91.5658C10.5625 91.603 10.4592 91.6196 10.3559 91.6196L10.3558 91.6196Z" fill="#0A74A6"/>
<path d="M76.4017 49.0002C75.8645 49.0002 75.4264 48.5622 75.4264 48.0249V25.5722H54.9245C54.3873 25.5722 53.9492 25.1341 53.9492 24.5969C53.9492 24.0596 54.3873 23.6216 54.9245 23.6216H76.4018C76.9391 23.6216 77.3771 24.0596 77.3771 24.5969V48.025C77.3771 48.5664 76.9432 49.0003 76.4018 49.0003L76.4017 49.0002Z" fill="#0A74A6"/>
</svg>
