<svg width="24" height="24" viewBox="0 0 24 24" fill="none" xmlns="http://www.w3.org/2000/svg">
<path d="M12 4C7.58214 4 4 7.58214 4 12C4 16.4179 7.58214 20 12 20C16.4179 20 20 16.4179 20 12C20 7.58214 16.4179 4 12 4ZM12 18.6429C8.33214 18.6429 5.35714 15.6679 5.35714 12C5.35714 8.33214 8.33214 5.35714 12 5.35714C15.6679 5.35714 18.6429 8.33214 18.6429 12C18.6429 15.6679 15.6679 18.6429 12 18.6429ZM12.1 9.13036C13.0464 9.13036 13.6893 9.73393 13.7607 10.6196C13.7661 10.6946 13.8286 10.7518 13.9036 10.7518H14.9161C14.9625 10.7518 15 10.7143 15 10.6679C15 9.11964 13.7786 8.03571 12.0946 8.03571C10.1321 8.03571 9 9.36071 9 11.55V12.4839C9 14.6571 10.1321 15.9643 12.0946 15.9643C13.7732 15.9643 15 14.9143 15 13.4393C15 13.3929 14.9625 13.3554 14.9161 13.3554H13.9018C13.8268 13.3554 13.7661 13.4125 13.7589 13.4857C13.6839 14.3089 13.0429 14.875 12.0982 14.875C10.9321 14.875 10.275 14.0196 10.275 12.4893V11.55C10.2768 9.99643 10.9357 9.13036 12.1 9.13036Z" fill="white"/>
</svg>
