<svg width="118" height="115" viewBox="0 0 118 115" fill="none" xmlns="http://www.w3.org/2000/svg">
<g clip-path="url(#clip0_674_485)">
<path d="M65.555 27.1898C58.609 34.2388 51.663 41.2879 44.717 48.337C45.7093 48.1692 46.8669 48.1692 47.8592 48.0013C45.3785 45.1481 42.8978 42.2949 40.4171 39.4417C38.5979 37.4277 36.7787 36.085 33.9672 37.092C29.3365 38.7704 27.8481 45.1481 31.3211 48.8405C31.3211 48.5048 31.4865 48.0013 31.4865 47.6657C29.8327 49.0083 28.3442 50.5189 26.8558 52.0294C27.8481 52.0294 29.0058 51.8615 29.9981 51.8615C28.5096 50.1832 27.1866 48.6727 25.6981 46.9943C25.0366 46.1551 23.5482 46.4908 22.8867 46.9943C20.2406 48.8405 19.4136 52.0294 20.4059 55.0504C21.729 58.5749 25.202 60.589 28.3442 62.4351C28.3442 61.9316 28.3442 61.4281 28.3442 60.9246C25.0366 63.7778 25.5328 68.9807 28.5096 71.6661C29.9981 73.0088 32.3134 73.8479 33.9672 72.3374C36.9441 69.9877 39.4248 66.7989 42.0709 64.1135C52.8207 53.3721 64.0666 42.7984 75.3125 32.7283C74.3202 32.8962 73.1626 32.8962 72.1703 33.064C76.3048 40.6166 83.2508 48.337 92.6776 45.316C96.316 44.1411 99.6236 41.2879 99.9543 37.2599C100.45 32.2248 96.8121 27.6933 93.5045 24.5044C93.3391 25.0079 93.1737 25.5114 93.0083 26.0149C99.1274 21.4834 99.6236 11.5811 94.0006 6.21038C87.8815 0.33615 77.4625 2.0145 71.3434 7.55306C72.501 7.55306 73.4933 7.55306 74.651 7.55306C72.3357 -0.670861 62.082 -2.34921 56.4591 3.35718C53.4822 6.21038 52.986 10.7419 53.9783 14.6021C55.3014 19.3015 58.7744 22.8261 62.2474 26.0149C63.4051 27.0219 66.7127 25.5114 65.555 24.5044C60.9244 20.3085 55.3014 14.2665 57.4513 7.38523C58.4436 4.36419 61.4205 2.0145 64.5627 2.51801C67.705 3.02151 70.0203 5.53904 70.8472 8.56007C71.178 9.90275 73.4933 9.06358 74.1549 8.56007C79.1163 4.19636 87.5507 3.69285 91.8507 9.23141C95.3237 13.5951 95.489 21.4834 90.693 25.0079C90.3622 25.3436 89.7007 26.0149 90.1968 26.5184C93.0083 29.2038 95.8198 32.5605 96.3159 36.4207C96.6467 39.9452 94.4968 42.9663 91.0238 43.6376C83.5816 45.1481 78.4548 37.4277 75.3125 31.7213C74.651 30.7143 72.8318 31.5535 72.1703 32.057C57.9475 44.8125 44.0555 58.0714 30.6596 71.6661C31.3211 71.3304 32.148 71.1626 32.8095 70.8269C29.0058 70.1556 28.1789 64.2813 30.6596 61.9316C31.6519 61.4281 31.6519 60.7568 31.1557 60.4211C28.8404 59.0784 26.1943 57.7358 24.7058 55.2182C23.5482 53.2042 23.052 49.8475 25.202 48.337C24.2097 48.337 23.3828 48.337 22.3905 48.337C23.8789 50.0153 25.202 51.5259 26.6904 53.2042C27.5173 54.0434 29.1711 53.5399 29.8327 52.8685C31.3211 51.358 32.8095 49.8475 34.298 48.1692C34.6287 47.8335 34.7941 47.33 34.4633 46.9943C33.3057 45.8195 32.8095 44.309 32.8095 42.6306C32.8095 41.7914 32.9749 41.1201 33.4711 40.2809C33.6364 39.9452 33.9672 39.6096 34.1326 39.2739C34.9595 38.7704 35.621 38.7704 35.9518 39.6096C37.4402 40.7844 38.7633 42.7984 40.0863 44.309C41.5747 45.9873 42.8978 47.4978 44.3862 49.1762C45.2131 50.0153 46.8669 49.5118 47.5285 48.8405C54.4745 41.7914 61.4205 34.7424 68.3665 27.6933C70.1857 26.5184 66.5473 26.0149 65.555 27.1898Z" fill="#C95D63"/>
<path d="M88.543 9.73477C86.7238 8.05642 83.9124 8.22426 81.9278 9.23127C79.9432 10.2383 78.2894 11.9166 78.4548 14.4342C78.6202 16.616 80.6047 18.2944 82.5893 18.7979C85.07 19.637 88.2123 18.63 89.8661 16.616C91.5199 14.7698 92.1814 12.0845 91.1891 9.73477C90.8584 9.06343 89.7007 9.06343 89.2046 9.23127C88.7084 9.3991 87.3854 9.90261 87.7161 10.574C88.0469 11.2453 88.2123 12.0845 88.0469 12.9236C88.0469 13.2593 87.8815 13.7628 87.8815 14.0985C87.8815 14.7698 87.7161 15.1055 87.5507 15.4412C87.3854 15.7768 87.22 16.1125 86.8892 16.4482C87.0546 16.2803 86.8892 16.4482 86.8892 16.4482L86.7238 16.616L86.5585 16.7838C86.3931 16.7838 86.5585 16.7838 86.7238 16.7838L86.5585 16.9517L86.3931 17.1195C86.3931 17.1195 86.5585 17.1195 86.5585 16.9517C86.5585 16.9517 86.3931 16.9517 86.3931 17.1195C86.3931 17.1195 86.2277 17.1195 86.2277 17.2874C86.2277 17.2874 86.3931 17.2874 86.3931 17.1195H86.2277C86.2277 16.9517 86.5585 17.1195 86.3931 17.1195C86.3931 17.1195 86.3931 17.1195 86.2277 17.1195C86.0623 17.1195 86.0623 17.1195 86.3931 17.1195H86.2277H86.0623C86.2277 17.1195 86.2277 17.1195 86.0623 17.1195C85.8969 17.1195 85.7316 17.1195 85.5662 16.9517C85.5662 16.9517 85.4008 16.9517 85.5662 16.9517C85.4008 16.9517 85.4008 16.9517 85.2354 16.7838C85.07 16.7838 84.9046 16.616 84.7393 16.4482C84.5739 16.2803 84.4085 16.2803 84.4085 16.1125C83.747 15.609 83.2508 15.1055 83.0855 14.4342C82.7547 13.7628 82.7547 12.9236 82.9201 12.2523V12.0845C82.9201 12.0845 83.0855 11.7488 82.9201 12.0845C82.9201 11.9166 83.0855 11.7488 83.2508 11.581C83.2508 11.581 83.5816 11.0775 83.4162 11.4131C83.5816 11.2453 83.747 11.0775 83.9124 10.9096C84.0777 10.7418 83.9124 10.9096 83.9124 10.9096L84.2431 10.7418C84.2431 10.7418 84.4085 10.7418 84.4085 10.574C84.0777 10.7418 84.0777 10.7418 84.2431 10.574H84.4085C84.5739 10.574 84.7393 10.574 84.2431 10.574C84.4085 10.574 84.4085 10.5739 84.5739 10.4061C84.9046 10.2383 84.0777 10.4061 84.5739 10.4061C84.5739 10.4061 84.7393 10.4061 84.9047 10.4061C84.5739 10.5739 84.5739 10.4061 84.9047 10.4061C84.9047 10.4061 84.9046 10.4061 85.07 10.4061C85.2354 10.4061 85.2354 10.4061 84.9047 10.4061C84.9047 10.4061 85.7316 10.5739 85.2354 10.4061C85.4008 10.4061 85.5662 10.5739 85.7316 10.7418C85.7316 10.7418 85.8969 10.7418 85.8969 10.9096C85.7316 10.7418 86.0623 11.0775 86.0623 11.0775C86.7238 11.581 87.7161 11.4131 88.3777 11.0775C88.0469 11.0775 89.2046 10.2383 88.543 9.73477Z" fill="#C95D63"/>
<path d="M27.8431 109H33.1981C37.6291 109 41.5561 106.417 41.5561 101.608C41.5561 96.169 37.5451 94.132 32.7571 94.132H27.8431V109ZM31.1191 97.156H33.0511C35.8231 97.156 38.1541 98.521 38.1541 101.44C38.1541 104.821 35.8651 105.976 32.8201 105.976H31.1191V97.156ZM50.8336 105.619C50.3086 106.333 49.6156 106.858 48.5866 106.858C47.3686 106.858 46.4656 106.081 46.2136 104.884H53.5216V103.897C53.5216 100.642 51.6736 98.542 48.7336 98.542C45.5836 98.542 43.0636 100.642 43.0636 103.897C43.0636 107.152 45.5836 109.252 48.7336 109.252C50.3716 109.252 52.0306 108.517 53.0386 107.236L50.8336 105.619ZM46.2136 102.742C46.2976 101.755 47.0536 100.81 48.4396 100.81C49.5736 100.81 50.3926 101.692 50.3716 102.742H46.2136ZM63.2492 109H66.3992V98.794H63.2492V109ZM62.9972 95.581C62.9972 96.589 63.8162 97.408 64.8242 97.408C65.8322 97.408 66.6512 96.589 66.6512 95.581C66.6512 94.573 65.8322 93.754 64.8242 93.754C63.8162 93.754 62.9972 94.573 62.9972 95.581ZM56.5292 109H59.6792V101.314H62.0102V98.794H59.6792V97.177C59.6792 95.833 60.1832 95.518 61.1912 95.518C61.5692 95.518 61.8632 95.602 62.2202 95.728L62.3672 93.061C61.7792 92.914 61.1492 92.872 60.5192 92.872C57.0962 92.872 56.5292 94.762 56.5292 96.988V98.794H54.4502V101.314H56.5292V109ZM68.6648 109H71.8148V103.918C71.8148 102.595 72.0668 101.314 73.7048 101.314C75.3218 101.314 75.3428 102.826 75.3428 104.002V109H78.4928V103.372C78.4928 100.642 77.9048 98.542 74.7128 98.542C73.1798 98.542 72.1508 99.382 71.7308 100.18H71.6888V98.794H68.6648V109ZM88.1784 105.619C87.6534 106.333 86.9604 106.858 85.9314 106.858C84.7134 106.858 83.8104 106.081 83.5584 104.884H90.8664V103.897C90.8664 100.642 89.0184 98.542 86.0784 98.542C82.9284 98.542 80.4084 100.642 80.4084 103.897C80.4084 107.152 82.9284 109.252 86.0784 109.252C87.7164 109.252 89.3754 108.517 90.3834 107.236L88.1784 105.619ZM83.5584 102.742C83.6424 101.755 84.3984 100.81 85.7844 100.81C86.9184 100.81 87.7374 101.692 87.7164 102.742H83.5584Z" fill="#C95D63"/>
</g>
<defs>
<clipPath id="clip0_674_485">
<rect width="118" height="115" fill="white"/>
</clipPath>
</defs>
</svg>
