<svg width="118" height="118" viewBox="0 0 118 118" fill="none" xmlns="http://www.w3.org/2000/svg">
<g clip-path="url(#clip0_674_662)">
<path d="M20.3906 1.31998C20.3906 26.2272 20.3906 51.2994 20.3906 76.2067C20.3906 77.8562 23.6513 77.0314 23.6513 75.8768C23.6513 50.9695 23.6513 25.8973 23.6513 0.990086C23.6513 -0.659401 20.3906 0.000393348 20.3906 1.31998Z" fill="#C95D63"/>
<path d="M32.6928 74.3919C37.1391 63.0105 41.7337 51.629 46.18 40.2475C45.1425 40.5774 44.105 40.9073 43.0675 41.2372C48.6995 45.196 53.7386 50.1445 57.7403 56.2476C58.1849 56.9074 60.7045 56.4125 61.0009 55.4228C63.3723 45.5259 67.5222 36.2888 73.3023 28.3712C72.2649 28.5362 71.2274 28.7011 70.19 29.031C79.2308 45.031 87.5305 61.361 95.3857 78.1857C95.8303 79.1754 98.9426 77.8558 98.6462 77.1961C90.7911 60.5362 82.4913 44.0414 73.4505 28.0413C73.0059 27.2166 70.7828 28.0413 70.3381 28.7011C64.4098 36.7836 60.1117 46.0207 57.7403 56.0826C58.7778 55.7527 59.8153 55.5878 61.0009 55.2579C56.8511 49.1548 51.9601 44.0414 46.18 40.0826C45.4389 39.5877 43.3639 40.0826 43.0675 41.0723C38.6212 52.4537 34.0267 63.8352 29.5804 75.2167C29.284 75.5466 32.3964 75.2167 32.6928 74.3919Z" fill="#C95D63"/>
<path d="M45.7353 18.9689C42.1783 17.1545 37.8801 18.804 35.657 22.1029C34.6195 23.7524 33.8785 25.5669 34.0267 27.5462C34.1749 29.3607 34.916 31.0102 36.1017 32.1648C38.6212 34.639 42.6229 34.9689 45.7353 33.6493C48.9959 32.1648 50.9226 28.7009 50.6262 24.7421C50.1816 20.4535 47.0691 16.8246 43.0675 16.1648C42.3264 15.9998 41.289 16.4947 40.9926 17.1545C40.6962 17.9792 41.289 18.4741 41.8818 18.639C42.03 18.639 42.03 18.639 42.1782 18.639C42.1782 18.639 42.03 18.639 42.1782 18.639C42.3265 18.639 42.4746 18.804 42.6229 18.804C42.9193 18.9689 43.2157 18.9689 43.3639 19.1339C43.9567 19.4638 44.4014 19.9586 44.846 20.2885C45.7353 21.2782 46.4763 22.5978 46.921 23.9174C47.3656 25.237 47.3656 26.7215 47.0692 28.206C47.0692 28.371 46.9209 28.7009 46.7727 29.0308C46.7727 29.1957 46.6246 29.3607 46.4764 29.5256C46.4764 29.6906 46.1799 30.0205 46.3281 29.8555C46.1799 30.1854 46.0317 30.3504 45.7353 30.5153C45.4389 30.8452 45.7353 30.5153 45.5871 30.6803C45.4388 30.8452 45.2907 30.8452 45.1424 31.0102C45.1424 31.0102 44.9943 31.0102 44.9943 31.1751C44.8461 31.3401 45.2907 31.0102 44.9943 31.1751C44.8461 31.1751 44.6978 31.3401 44.6978 31.3401C44.5496 31.3401 44.4014 31.505 44.2532 31.505C44.5496 31.3401 44.2532 31.505 44.105 31.505C43.9567 31.505 43.8086 31.67 43.6603 31.67H43.5122C43.5122 31.67 43.8086 31.67 43.6603 31.67C43.3639 31.67 43.0675 31.67 42.6229 31.8349C42.9193 31.8349 42.4747 31.8349 42.4747 31.8349C42.3265 31.8349 42.1783 31.8349 42.0301 31.8349C41.8819 31.8349 41.7336 31.8349 41.5854 31.8349C41.5854 31.8349 41.289 31.8349 41.4372 31.8349C41.5854 31.8349 41.289 31.8349 41.289 31.8349C40.9926 31.8349 40.6961 31.67 40.3997 31.505C39.9551 31.3401 40.1033 31.3401 39.6587 31.1751C37.5837 29.8555 36.5462 27.2163 37.4355 24.5772C37.7319 23.7524 38.0284 23.2576 38.473 22.5978C38.6212 22.4328 38.7694 22.2679 38.9176 22.1029C39.0658 21.938 38.9176 22.1029 39.214 21.773C39.3623 21.6081 39.5104 21.6081 39.6587 21.4431C39.6587 21.4431 40.2515 21.1132 39.9551 21.2782C40.1033 21.1132 40.2515 21.1132 40.3997 20.9483C40.5479 20.9483 40.5479 20.7833 40.6961 20.7833C40.5479 20.7833 40.5479 20.7833 40.6961 20.7833C40.8444 20.7833 40.9926 20.6184 41.289 20.6184C41.289 20.6184 41.5854 20.6184 41.289 20.6184C40.9926 20.6184 41.4372 20.6184 41.4372 20.6184C41.5854 20.6184 42.0301 20.6184 41.7336 20.6184C41.8818 20.6184 42.03 20.6184 42.1782 20.6184C42.4747 20.6184 42.03 20.6184 42.1782 20.6184C42.3265 20.6184 42.3265 20.6184 42.4747 20.6184C42.6229 20.6184 42.9193 20.7833 42.9193 20.7833C43.6603 21.1132 44.5496 21.1132 45.2906 20.6184C45.8835 20.4535 46.4764 19.4638 45.7353 18.9689Z" fill="#C95D63"/>
<path d="M26.6146 2.14433C48.6978 2.14433 70.6329 2.14433 92.7161 2.14433C93.309 2.14433 94.4947 1.97938 94.7911 1.15464C95.0875 0.494846 94.4947 0 93.9019 0C71.8186 0 49.8835 0 27.8002 0C27.2074 0 26.0218 0.164949 25.7253 0.989693C25.4289 1.81444 26.0217 2.14433 26.6146 2.14433Z" fill="#C95D63"/>
<path d="M94.1992 1.64993C94.1992 26.2273 94.1992 50.6397 94.1992 75.2171C94.1992 76.2067 97.4599 75.547 97.4599 74.2274C97.4599 49.65 97.4599 25.2376 97.4599 0.660235C97.4599 -0.329458 94.1992 0.330336 94.1992 1.64993Z" fill="#C95D63"/>
<path d="M20.8354 79.9999C32.3958 78.5154 44.2526 79.835 55.9612 79.835C69.7447 79.835 83.6764 79.67 97.4599 79.67C98.201 79.67 99.2385 79.5051 99.6831 79.0102C99.9795 78.6803 100.276 78.1855 99.5349 78.1855C85.455 78.1855 71.375 78.3504 57.2951 78.3504C45.5865 78.3504 33.8779 77.0309 22.3175 78.5154C21.8729 78.5154 20.3908 78.6803 20.0944 79.3401C19.7979 79.835 20.2426 79.9999 20.8354 79.9999Z" fill="#C95D63"/>
<path d="M39.5016 98.938C38.2416 97.321 36.1416 96.754 34.4826 96.754C29.8416 96.754 26.4606 99.799 26.4606 104.566C26.4606 109.333 29.8416 112.378 34.4826 112.378C36.5196 112.378 38.6196 111.559 39.8586 109.795L37.1286 107.758C36.4566 108.766 35.3856 109.354 34.0626 109.354C31.6896 109.354 29.8626 107.338 29.8626 104.566C29.8626 101.794 31.6896 99.778 34.1676 99.778C35.3856 99.778 36.3306 100.219 36.9816 100.996L39.5016 98.938ZM41.2356 112H44.3856V107.737C44.3856 105.7 44.6796 104.314 47.0736 104.314C47.5356 104.314 47.9766 104.398 48.4176 104.524V101.647C48.1236 101.563 47.7246 101.542 47.3676 101.542C45.9816 101.542 45.0996 102.193 44.4276 103.432H44.3856V101.794H41.2356V112ZM56.8732 108.619C56.3482 109.333 55.6552 109.858 54.6262 109.858C53.4082 109.858 52.5052 109.081 52.2532 107.884H59.5612V106.897C59.5612 103.642 57.7132 101.542 54.7732 101.542C51.6232 101.542 49.1032 103.642 49.1032 106.897C49.1032 110.152 51.6232 112.252 54.7732 112.252C56.4112 112.252 58.0702 111.517 59.0782 110.236L56.8732 108.619ZM52.2532 105.742C52.3372 104.755 53.0932 103.81 54.4792 103.81C55.6132 103.81 56.4322 104.692 56.4112 105.742H52.2532ZM67.8818 112H70.7798V106.813C70.7798 103.411 69.7928 101.542 66.1178 101.542C64.4588 101.542 62.7788 102.088 61.6238 103.18L63.3038 104.902C63.9758 104.146 64.8368 103.684 65.8658 103.684C66.9578 103.684 67.8818 104.398 67.8818 105.511C65.2568 105.511 60.9728 105.574 60.9728 109.102C60.9728 111.16 62.6948 112.252 64.6058 112.252C65.8868 112.252 67.1468 111.811 67.8398 110.719H67.8818V112ZM67.8818 107.527V108.199C67.8818 109.459 66.7268 110.11 65.4878 110.11C64.7948 110.11 63.9968 109.753 63.9968 108.997C63.9968 107.611 66.1388 107.527 67.1048 107.527H67.8818ZM79.7071 101.794H76.9351V98.77H73.7851V101.794H71.7691V104.314H73.7851V109.165C73.7851 111.391 75.4021 112.252 77.5021 112.252C78.2371 112.252 79.0141 112.189 79.7071 111.937V109.312C79.4341 109.564 78.7621 109.606 78.4261 109.606C77.0611 109.606 76.9351 108.808 76.9351 107.716V104.314H79.7071V101.794ZM88.7628 108.619C88.2378 109.333 87.5448 109.858 86.5158 109.858C85.2978 109.858 84.3948 109.081 84.1428 107.884H91.4508V106.897C91.4508 103.642 89.6028 101.542 86.6628 101.542C83.5128 101.542 80.9928 103.642 80.9928 106.897C80.9928 110.152 83.5128 112.252 86.6628 112.252C88.3008 112.252 89.9598 111.517 90.9678 110.236L88.7628 108.619ZM84.1428 105.742C84.2268 104.755 84.9828 103.81 86.3688 103.81C87.5028 103.81 88.3218 104.692 88.3008 105.742H84.1428Z" fill="#C95D63"/>
</g>
<defs>
<clipPath id="clip0_674_662">
<rect width="118" height="118" fill="white"/>
</clipPath>
</defs>
</svg>
