<svg width="118" height="118" viewBox="0 0 118 118" fill="none" xmlns="http://www.w3.org/2000/svg">
<g clip-path="url(#clip0_674_280)">
<path d="M52.104 71.6698C57.0108 71.9099 61.9176 72.1499 66.8244 72.39C67.4228 72.39 68.2606 72.1499 68.4999 71.6698C68.7393 71.0696 68.2606 70.8296 67.7819 70.7095C62.875 70.4695 57.9682 70.2294 53.0614 69.9893C52.463 69.9893 51.6253 70.2294 51.3859 70.7095C51.1466 71.3097 51.6253 71.6698 52.104 71.6698Z" fill="#C95D63"/>
<path d="M53.1817 76.8317C57.4901 75.7514 62.0379 75.1512 66.466 75.0312C66.9447 75.0312 67.9021 74.7911 68.1415 74.431C68.5005 73.9509 67.9021 73.8309 67.5431 73.8309C62.6363 74.0709 57.7295 74.7911 52.9424 75.8714C52.703 75.9915 51.6259 76.2316 51.7456 76.7117C51.8653 77.0718 52.9424 76.8317 53.1817 76.8317Z" fill="#C95D63"/>
<path d="M55.4546 79.9525C58.3269 79.4723 61.1992 79.1122 64.0714 78.6321C64.4305 78.5121 65.3879 78.392 65.6272 77.9119C65.7469 77.4318 64.7895 77.5518 64.5502 77.5518C61.6779 78.0319 58.8056 78.392 55.9333 78.8722C55.5743 78.9922 54.6168 79.1122 54.3775 79.5924C54.2578 80.1925 55.2152 79.9525 55.4546 79.9525Z" fill="#C95D63"/>
<path d="M52.5827 67.709C57.2502 66.7487 61.9176 66.3886 66.5851 66.3886C67.1835 66.3886 68.0213 66.2686 68.2606 65.6684C68.5 65.1883 68.0212 64.8282 67.5425 64.8282C62.3964 64.7082 57.2502 65.1883 52.104 66.2686C51.6253 66.3886 50.9072 66.7487 51.0269 67.3489C51.2663 67.9491 52.104 67.709 52.5827 67.709Z" fill="#C95D63"/>
<path d="M80.4665 57.3861C84.4159 59.5467 87.8866 62.1874 90.9982 65.3083C91.4769 65.7884 92.195 65.6684 92.7934 65.4283C93.1524 65.3083 93.8705 64.7081 93.3918 64.228C90.1605 60.9871 86.4504 58.1063 82.5011 55.9456C81.9027 55.5855 81.1846 55.8256 80.5862 56.1857C80.2272 56.4258 79.8681 57.146 80.4665 57.3861Z" fill="#C95D63"/>
<path d="M91.1185 37.4602C94.4695 37.1001 97.7008 36.74 101.052 36.3799C101.531 36.3799 102.368 36.0198 102.488 35.4196C102.608 34.8194 101.77 34.6994 101.291 34.6994C97.9402 35.0595 94.7088 35.4196 91.3578 35.7797C90.8791 35.7797 90.0414 36.1398 89.9217 36.74C89.802 37.4602 90.6398 37.5802 91.1185 37.4602Z" fill="#C95D63"/>
<path d="M77.7154 19.9356C80.827 17.1749 83.6993 14.294 86.3322 11.1732C86.6913 10.693 86.5716 10.0929 85.9732 9.85279C85.3748 9.61272 84.537 9.85279 84.178 10.3329C81.6648 13.3338 78.9122 16.0946 75.9202 18.7353C75.5612 19.0954 75.2021 19.6956 75.8005 20.0557C76.3989 20.4158 77.3563 20.2957 77.7154 19.9356Z" fill="#C95D63"/>
<path d="M54.9755 0.970071C54.6163 4.57109 54.736 8.17211 55.3346 11.6531C55.4543 12.3733 58.0881 11.7731 57.9684 10.9329C57.3698 7.45191 57.2501 3.97092 57.6093 0.489934C57.6093 -0.110236 56.891 0.00979878 56.5318 0.00979878C56.0529 0.249867 54.9755 0.489935 54.9755 0.970071Z" fill="#C95D63"/>
<path d="M29.0068 15.1336C31.0413 17.6543 33.4349 19.9349 36.1875 21.7355C36.6662 22.0956 37.6236 21.8555 37.9827 21.4954C38.3417 21.2553 38.7007 20.7752 38.222 20.4151C35.5891 18.6146 33.3152 16.454 31.4004 14.0533C30.802 13.3331 28.2887 14.2933 29.0068 15.1336Z" fill="#C95D63"/>
<path d="M17.8756 37.8203C21.3463 38.0604 24.9366 38.3005 28.4073 38.4205C29.0057 38.4205 29.7238 38.3005 30.2025 37.9404C30.6812 37.7003 30.5615 37.4602 30.0828 37.4602C26.6121 37.2202 23.0218 36.9801 19.5511 36.8601C18.9527 36.8601 18.2346 36.9801 17.7559 37.3402C17.3969 37.5803 17.3969 37.8203 17.8756 37.8203Z" fill="#C95D63"/>
<path d="M28.5265 65.4282C31.0397 63.3876 34.0317 61.5871 37.0236 60.6269C37.3827 60.5068 38.3401 60.1467 38.1007 59.6666C37.9811 59.1864 36.904 59.3065 36.6646 59.4265C32.9546 60.6269 29.4839 62.5474 26.3723 65.0681C25.8936 65.4282 26.1329 65.9084 26.6116 65.9084C27.3297 66.0284 28.0478 65.7883 28.5265 65.4282Z" fill="#C95D63"/>
<path d="M53.4192 63.5079C54.0176 59.7869 54.4963 55.7057 52.8208 52.2248C51.0257 48.7438 47.3156 47.5434 44.563 45.0227C41.4514 42.2619 40.853 37.8207 40.9727 33.8596C40.9727 29.7784 41.4514 25.5772 44.6827 22.6964C50.1879 17.775 59.2835 17.895 65.8658 20.1757C73.2859 22.6964 78.1926 29.5383 77.5943 37.5806C77.2352 42.382 74.722 45.8629 71.8497 49.464C68.8578 53.185 65.9855 57.2662 66.5839 62.3076C66.7035 63.5079 69.3365 62.9078 69.2168 61.5874C68.6184 56.3059 72.5678 52.2248 75.5597 48.5037C78.073 45.2628 79.9878 41.7818 80.3469 37.7006C81.0649 29.6584 76.5172 22.3363 69.3365 19.2154C62.2754 16.0945 52.9405 15.8544 46.1189 19.5755C42.8876 21.256 40.3743 24.0168 39.2972 27.4977C38.1004 31.4589 38.1004 36.5003 39.0578 40.4614C39.5366 42.622 40.494 44.6626 42.1695 46.2231C43.845 47.9035 45.8795 48.8638 47.7944 50.3042C52.3421 53.6652 51.9831 58.9467 51.1454 63.9881C50.6666 65.0684 53.2996 64.7083 53.4192 63.5079Z" fill="#C95D63"/>
<path d="M56.8903 40.3411C59.7626 36.2599 63.1136 32.4188 66.704 28.9378C66.2252 28.8178 65.6268 28.6978 65.1481 28.5777C63.5923 31.6986 62.6349 34.9395 62.1562 38.4205C62.1562 38.6606 62.2759 38.9007 62.5152 38.9007C63.8317 39.2608 65.0284 39.7409 66.2252 40.4611C66.2252 40.221 66.2252 39.981 66.2252 39.7409C62.7546 43.9421 59.5233 48.3833 56.8903 53.1847C57.4887 53.1847 58.0871 53.1847 58.5658 53.1847C59.0445 49.9438 59.5232 46.8229 60.002 43.582C60.1216 42.7417 60.72 41.1813 59.8823 40.5811C59.5233 40.221 58.9249 40.221 58.4461 40.221C57.6084 40.101 56.7707 39.8609 55.9329 39.7409C55.0952 39.6209 54.1377 40.8212 55.3345 40.9412C55.9329 41.0613 56.5313 41.1813 57.1297 41.3013C57.4887 41.3013 57.7281 41.4214 58.0871 41.4214C58.5658 41.5414 58.6855 41.9015 58.4461 42.2616C58.5658 43.3419 58.0871 44.7823 57.8477 45.8626C57.4887 48.3833 57.1297 50.784 56.651 53.3047C56.5313 54.265 58.0871 53.7849 58.3265 53.3047C60.9594 48.6234 64.071 44.3022 67.422 40.221C67.6614 39.981 67.6614 39.6209 67.422 39.5008C66.1056 38.7806 64.7891 38.1805 63.353 37.7003C63.4726 37.8204 63.5923 38.0604 63.712 38.1805C64.1907 34.8195 65.1481 31.6986 66.5843 28.6978C67.063 27.7375 65.3875 27.9776 65.0284 28.3377C61.4381 31.8187 58.0871 35.6597 55.2148 39.7409C54.7361 40.8212 56.4116 41.0613 56.8903 40.3411Z" fill="#C95D63"/>
<path d="M11.5086 112H16.8636C21.2946 112 25.2216 109.417 25.2216 104.608C25.2216 99.169 21.2106 97.132 16.4226 97.132H11.5086V112ZM14.7846 100.156H16.7166C19.4886 100.156 21.8196 101.521 21.8196 104.44C21.8196 107.821 19.5306 108.976 16.4856 108.976H14.7846V100.156ZM27.0862 112H30.2362V101.794H27.0862V112ZM26.8342 98.581C26.8342 99.589 27.6532 100.408 28.6612 100.408C29.6692 100.408 30.4882 99.589 30.4882 98.581C30.4882 97.573 29.6692 96.754 28.6612 96.754C27.6532 96.754 26.8342 97.573 26.8342 98.581ZM40.2062 102.886C39.2612 101.878 37.7702 101.542 36.4262 101.542C34.2842 101.542 32.1422 102.592 32.1422 104.986C32.1422 108.871 37.4552 107.485 37.4552 109.123C37.4552 109.669 36.7412 109.858 36.0272 109.858C35.0822 109.858 34.3892 109.459 33.8012 108.745L31.8902 110.866C32.8982 111.895 34.4732 112.252 35.9012 112.252C38.0852 112.252 40.6052 111.496 40.6052 108.892C40.6052 105.007 35.2922 106.288 35.2922 104.776C35.2922 104.167 35.9222 103.936 36.4472 103.936C37.2032 103.936 37.8122 104.23 38.2742 104.797L40.2062 102.886ZM51.2079 102.907C50.2209 101.899 48.7719 101.542 47.5749 101.542C44.4249 101.542 41.9049 103.642 41.9049 106.897C41.9049 110.152 44.4249 112.252 47.5749 112.252C48.7719 112.252 50.2209 111.895 51.2079 110.887L49.1289 108.703C48.7719 109.123 48.2679 109.48 47.5749 109.48C45.9999 109.48 45.0549 108.43 45.0549 106.897C45.0549 105.364 45.9999 104.314 47.5749 104.314C48.2259 104.314 48.8139 104.65 49.1289 105.091L51.2079 102.907ZM51.9728 106.897C51.9728 110.152 54.4928 112.252 57.6428 112.252C60.7928 112.252 63.3128 110.152 63.3128 106.897C63.3128 103.642 60.7928 101.542 57.6428 101.542C54.4928 101.542 51.9728 103.642 51.9728 106.897ZM55.1228 106.897C55.1228 105.364 56.0678 104.314 57.6428 104.314C59.2178 104.314 60.1628 105.364 60.1628 106.897C60.1628 108.43 59.2178 109.48 57.6428 109.48C56.0678 109.48 55.1228 108.43 55.1228 106.897ZM68.3182 112H71.6572L75.6892 101.794H72.5182L70.1242 108.724H70.0822L67.4992 101.794H64.0972L68.3182 112ZM84.2921 108.619C83.7671 109.333 83.0741 109.858 82.0451 109.858C80.8271 109.858 79.9241 109.081 79.6721 107.884H86.9801V106.897C86.9801 103.642 85.1321 101.542 82.1921 101.542C79.0421 101.542 76.5221 103.642 76.5221 106.897C76.5221 110.152 79.0421 112.252 82.1921 112.252C83.8301 112.252 85.4891 111.517 86.4971 110.236L84.2921 108.619ZM79.6721 105.742C79.7561 104.755 80.5121 103.81 81.8981 103.81C83.0321 103.81 83.8511 104.692 83.8301 105.742H79.6721ZM88.8957 112H92.0457V107.737C92.0457 105.7 92.3397 104.314 94.7337 104.314C95.1957 104.314 95.6367 104.398 96.0777 104.524V101.647C95.7837 101.563 95.3847 101.542 95.0277 101.542C93.6417 101.542 92.7597 102.193 92.0877 103.432H92.0457V101.794H88.8957V112ZM107.947 101.794H104.713L102.466 108.535H102.424L99.7995 101.794H96.3975L100.87 112.084L100.639 112.672C100.198 113.785 99.9675 114.394 98.5395 114.394C98.0145 114.394 97.5525 114.289 97.0695 114.079L96.6495 116.662C97.4055 116.914 98.2035 117.04 99.0015 117.04C102.004 117.04 102.487 115.822 103.327 113.659L107.947 101.794Z" fill="#C95D63"/>
</g>
<defs>
<clipPath id="clip0_674_280">
<rect width="118" height="118" fill="white"/>
</clipPath>
</defs>
</svg>
