<svg width="118" height="118" viewBox="0 0 118 118" fill="none" xmlns="http://www.w3.org/2000/svg">
<g clip-path="url(#clip0_674_373)">
<path d="M61.2692 30.7219C61.3817 27.7608 58.3446 26.1568 56.2073 25.2931C53.6201 24.3061 50.8079 24.5528 48.3331 26.0334C45.6334 27.7608 44.0586 30.9687 44.0586 34.3C44.0586 38.6184 46.3084 42.5666 48.7831 45.8979C51.7078 49.8461 55.0824 53.4242 58.7945 56.3853C59.2445 56.7555 60.4818 56.2619 60.9318 55.8918C64.7564 53.4242 67.5686 49.7227 69.9308 45.6511C71.1682 43.5536 72.1806 41.4561 73.193 39.2353C74.2054 37.0144 75.3302 34.6701 75.5552 32.2025C76.1176 27.3906 73.3054 23.4424 68.8059 23.319C64.9813 23.4424 61.0443 25.5399 59.3569 29.3647C59.2445 29.7349 61.4942 29.4881 61.7192 28.8712C62.5066 27.1439 63.8565 25.4165 65.6563 24.7996C67.4561 24.1827 69.7058 24.923 71.0557 26.1568C74.0929 28.9946 73.3054 33.9299 71.8431 37.5079C69.0309 44.4173 65.2063 52.067 59.0195 56.0152C59.6944 55.8918 60.3693 55.7684 61.1568 55.5217C57.5571 52.5605 54.295 49.2292 51.4828 45.4044C49.0081 42.073 46.6458 38.1248 46.6458 33.6831C46.6458 29.9816 49.0081 25.0464 52.8327 25.91C55.1949 26.4036 59.132 28.2543 58.907 31.4622C58.7945 31.709 61.2692 31.4622 61.2692 30.7219Z" fill="#C95D63"/>
<path d="M60.3695 2.83757C49.2332 7.03255 41.584 18.7538 38.6593 30.8452C35.7346 42.8132 36.8595 56.3852 42.4839 67.2428C45.5211 73.0417 50.0206 77.977 56.095 79.9511C56.6574 80.0745 57.3323 79.9511 57.7823 79.581C58.0073 79.4576 58.5697 78.9641 58.0073 78.8407C47.5459 75.5094 42.034 63.0478 40.2342 52.0669C38.3219 40.2222 40.2342 27.3905 46.196 17.2732C49.7956 11.2275 54.8576 5.92211 61.1569 3.70124C61.3819 3.57786 62.1693 3.3311 61.8318 2.83757C61.7194 2.34404 60.5945 2.83757 60.3695 2.83757Z" fill="#C95D63"/>
<path d="M60.2577 3.82502C70.944 7.77324 78.1433 19.3711 80.9555 30.969C83.6552 42.4435 82.7553 55.2752 77.6933 65.886C74.9936 71.5616 70.6066 76.9904 64.8697 78.8411C64.6447 78.9645 63.6323 79.2112 63.7448 79.7048C63.8573 80.1983 64.8697 79.9515 65.0947 79.8281C76.1185 76.2501 82.0803 64.4054 84.1051 52.6842C86.2424 40.2226 84.2176 26.6506 77.5808 16.1632C73.7562 10.1175 68.5818 5.05884 62.2825 2.71459C61.6075 2.46782 59.4703 3.45488 60.2577 3.82502Z" fill="#C95D63"/>
<path d="M34.4977 69.5871C40.0096 59.2231 51.7083 57.4957 61.6073 58.236C72.1811 58.9763 83.5424 60.5803 92.8789 66.626C93.6663 67.1195 95.9161 65.8857 94.7912 65.2688C86.917 60.0868 77.8055 58.3594 68.919 57.249C59.9199 56.1385 50.246 55.3983 41.8094 59.9634C37.8723 62.0609 34.3852 65.2688 32.1354 69.4638C31.573 70.5742 34.0477 70.4508 34.4977 69.5871Z" fill="#C95D63"/>
<path d="M30.4474 16.1632C38.0966 23.5661 48.5579 24.5531 58.2319 24.183C63.6313 23.9362 69.0307 23.5661 74.3177 22.8258C79.1546 22.0855 83.9916 20.8517 88.3787 18.384C92.6532 15.9164 96.4778 12.4617 98.84 7.89659C99.515 6.66277 97.0402 6.66277 96.4778 7.64983C91.9783 16.1632 83.2042 19.6178 74.7676 20.8517C69.9306 21.592 64.9812 21.9621 60.0317 22.2089C55.1947 22.4556 50.2453 22.579 45.4083 21.4686C40.5713 20.4815 35.9593 18.2607 32.2472 14.6826C31.5723 13.9423 29.435 15.1761 30.4474 16.1632Z" fill="#C95D63"/>
<path d="M20.9987 41.9496C28.7603 41.9496 36.6345 41.9496 44.3961 41.9496C45.746 41.9496 46.3084 39.9755 44.6211 39.9755C36.8595 39.9755 28.9853 39.9755 21.2236 39.9755C19.8738 39.9755 19.4238 41.9496 20.9987 41.9496Z" fill="#C95D63"/>
<path d="M75.3301 41.9496C83.0917 41.9496 90.9659 41.9496 98.7276 41.9496C100.077 41.9496 100.64 39.9755 98.9525 39.9755C91.1909 39.9755 83.3167 39.9755 75.555 39.9755C74.0927 39.9755 73.6428 41.9496 75.3301 41.9496Z" fill="#C95D63"/>
<path d="M55.6457 3.08454C40.6848 4.93527 26.9613 15.7929 23.3616 32.2026C21.4494 40.4692 22.4617 49.2293 26.2863 56.7556C30.2234 64.5286 36.7477 71.1912 43.9469 75.1394C56.7706 82.1722 73.1938 80.3215 84.6676 70.9445C96.5913 61.1973 103.003 44.294 98.6161 28.2544C94.5665 13.6954 82.8677 2.96116 69.2567 0.493527C67.5694 0.246763 65.8821 0 64.1948 0C63.7448 0 62.8449 0.123382 62.6199 0.74029C62.395 1.3572 62.8449 1.60396 63.2949 1.60396C76.231 2.09749 88.4921 10.4874 94.1165 23.4425C97.0412 30.1051 98.2786 37.7548 97.1537 45.0343C96.0288 52.5606 92.6542 59.5934 87.9297 65.1455C78.4807 76.2499 63.7448 80.3215 50.5837 75.633C43.497 73.1653 37.3101 67.9833 32.5857 61.6908C27.7487 55.275 24.7115 47.3786 24.9365 38.9886C25.1615 30.2285 28.5361 21.7152 34.1605 15.5461C39.7849 9.37701 47.4341 5.55218 55.3082 4.6885C56.5456 4.56512 57.333 2.83778 55.6457 3.08454Z" fill="#C95D63"/>
<path d="M58.6816 4.68847C58.6816 11.5978 58.6816 18.5072 58.6816 25.4166C58.6816 25.7867 60.2565 25.54 60.2565 24.9231C60.2565 18.0137 60.2565 11.1043 60.2565 4.19495C60.2565 3.70142 58.6816 4.07156 58.6816 4.68847Z" fill="#C95D63"/>
<path d="M59.1328 58.9764C59.1328 65.8858 59.1328 72.7951 59.1328 79.7045C59.1328 80.0747 60.7076 79.8279 60.7076 79.211C60.7076 72.3016 60.7076 65.3922 60.7076 58.4829C60.8201 58.1127 59.1328 58.3595 59.1328 58.9764Z" fill="#C95D63"/>
<path d="M22.3192 112H32.7982V108.976H25.5952V105.952H32.0422V102.928H25.5952V100.156H32.4202V97.132H22.3192V112ZM33.7407 112H37.4157L39.8097 108.598L42.0357 112H45.7527L41.8257 106.54L45.1437 101.794H41.6367L39.8937 104.566L38.0877 101.794H34.3707L37.7727 106.54L33.7407 112ZM46.9846 116.788H50.1346V110.908H50.1766C50.8906 111.895 52.1086 112.252 53.4106 112.252C56.3086 112.252 58.0726 109.648 58.0726 106.813C58.0726 103.726 56.0776 101.542 53.0536 101.542C51.6256 101.542 50.4076 102.403 49.9246 103.138H49.8826V101.794H46.9846V116.788ZM49.8826 106.897C49.8826 105.364 50.8276 104.314 52.4026 104.314C53.9776 104.314 54.9226 105.364 54.9226 106.897C54.9226 108.43 53.9776 109.48 52.4026 109.48C50.8276 109.48 49.8826 108.43 49.8826 106.897ZM59.9602 112H63.1102V96.124H59.9602V112ZM64.9953 106.897C64.9953 110.152 67.5153 112.252 70.6653 112.252C73.8153 112.252 76.3353 110.152 76.3353 106.897C76.3353 103.642 73.8153 101.542 70.6653 101.542C67.5153 101.542 64.9953 103.642 64.9953 106.897ZM68.1453 106.897C68.1453 105.364 69.0903 104.314 70.6653 104.314C72.2403 104.314 73.1853 105.364 73.1853 106.897C73.1853 108.43 72.2403 109.48 70.6653 109.48C69.0903 109.48 68.1453 108.43 68.1453 106.897ZM78.1906 112H81.3406V107.737C81.3406 105.7 81.6346 104.314 84.0286 104.314C84.4906 104.314 84.9316 104.398 85.3726 104.524V101.647C85.0786 101.563 84.6796 101.542 84.3226 101.542C82.9366 101.542 82.0546 102.193 81.3826 103.432H81.3406V101.794H78.1906V112ZM93.8283 108.619C93.3033 109.333 92.6103 109.858 91.5813 109.858C90.3633 109.858 89.4603 109.081 89.2083 107.884H96.5163V106.897C96.5163 103.642 94.6683 101.542 91.7283 101.542C88.5783 101.542 86.0583 103.642 86.0583 106.897C86.0583 110.152 88.5783 112.252 91.7283 112.252C93.3663 112.252 95.0253 111.517 96.0333 110.236L93.8283 108.619ZM89.2083 105.742C89.2923 104.755 90.0483 103.81 91.4343 103.81C92.5683 103.81 93.3873 104.692 93.3663 105.742H89.2083Z" fill="#C95D63"/>
</g>
<defs>
<clipPath id="clip0_674_373">
<rect width="118" height="118" fill="white"/>
</clipPath>
</defs>
</svg>
