<svg width="24" height="24" viewBox="0 0 24 24" fill="none" xmlns="http://www.w3.org/2000/svg">
<path d="M3.19645 5.59435C3.15531 4.4489 3.11417 3.34294 3.07303 2.19749C2.86733 2.31599 2.66164 2.43448 2.45594 2.55298C3.5667 2.67147 4.67746 2.63197 5.74707 2.47398C5.91163 2.43448 6.19961 2.35548 6.24074 2.15799C6.28188 2 5.99391 2 5.87049 2C4.84201 2.15799 3.81353 2.15799 2.78506 2.0395C2.57936 2.0395 2.16797 2.15799 2.16797 2.43448C2.20911 3.57993 2.25025 4.68589 2.29139 5.83134C2.29139 6.02883 2.70278 5.98933 2.78506 5.94983C2.99075 5.87084 3.19645 5.79184 3.19645 5.59435Z" fill="#0A74A6"/>
<path d="M17.7191 2.82948C18.9121 2.78998 20.064 2.75049 21.257 2.71099C21.1747 2.63199 21.0925 2.59249 20.969 2.5135C20.8456 3.54045 20.8868 4.60691 21.0102 5.63386C21.0513 5.94985 21.9564 5.75236 21.9152 5.39687C21.7507 4.40942 21.7507 3.42196 21.8741 2.395C21.8741 2.23701 21.7095 2.19751 21.5861 2.19751C20.3931 2.23701 19.2412 2.27651 18.0482 2.316C17.8425 2.316 17.5956 2.3555 17.4722 2.55299C17.3488 2.71099 17.5545 2.82948 17.7191 2.82948Z" fill="#0A74A6"/>
<path d="M20.9252 18.3524C20.9664 19.4979 21.0075 20.6038 21.0486 21.7493C21.2543 21.6308 21.46 21.5123 21.6657 21.3938C20.555 21.2753 19.4442 21.3148 18.3746 21.4728C18.21 21.5123 17.9221 21.5913 17.8809 21.7888C17.8398 21.9863 18.1278 22.0258 18.2923 21.9863C19.3208 21.8283 20.3493 21.8283 21.3778 21.9468C21.5835 21.9863 21.9948 21.8283 21.9948 21.5913C21.9537 20.4458 21.9126 19.3399 21.8714 18.1944C21.8714 17.997 21.46 18.0365 21.3778 18.076C21.1309 18.076 20.9252 18.1549 20.9252 18.3524Z" fill="#0A74A6"/>
<path d="M6.36357 21.1171C5.17053 21.1566 4.01864 21.1961 2.8256 21.2356C2.90788 21.3146 2.99016 21.3541 3.11358 21.4331C3.23699 20.4062 3.23699 19.3397 3.07244 18.3127C3.0313 17.9968 2.12624 18.1942 2.16738 18.5497C2.33193 19.5372 2.33193 20.5246 2.20852 21.5516C2.20852 21.7096 2.37307 21.7491 2.49649 21.7491C3.68952 21.7096 4.84142 21.6701 6.03446 21.6306C6.24015 21.6306 6.48699 21.5911 6.6104 21.3936C6.73382 21.2356 6.52813 21.1171 6.36357 21.1171Z" fill="#0A74A6"/>
<path d="M2.86814 11.9141C4.55484 9.78124 7.02319 8.2803 9.73838 7.76682C12.4536 7.25335 15.3333 7.80632 17.7194 9.18876C19.077 9.97873 20.2289 11.0057 21.1339 12.1906C21.3396 12.4276 22.2035 12.1511 21.9567 11.8352C20.1466 9.50475 17.4725 7.84582 14.5105 7.29284C11.5485 6.70037 8.46306 7.25335 5.83016 8.67529C4.34915 9.46525 3.03269 10.5712 2.04536 11.8747C1.92194 12.0326 2.16877 12.1511 2.29219 12.1511C2.49789 12.1511 2.74472 12.0721 2.86814 11.9141Z" fill="#0A74A6"/>
<path d="M21.1325 12.3486C19.4458 14.4815 16.9775 15.9824 14.2623 16.4959C11.5471 17.0094 8.66736 16.4564 6.28129 15.074C4.9237 14.284 3.7718 13.257 2.86674 12.0721C2.66105 11.8351 1.79713 12.1116 2.04396 12.4276C3.85408 14.7975 6.52813 16.4169 9.49015 17.0094C12.4522 17.6019 15.5376 17.0489 18.1705 15.6269C19.6515 14.837 20.968 13.731 21.9553 12.4276C22.0787 12.2696 21.8319 12.1511 21.7085 12.1511C21.5028 12.1116 21.2559 12.1906 21.1325 12.3486Z" fill="#0A74A6"/>
<path d="M8.83163 7.6878C7.84429 8.75425 7.26834 10.1367 7.18607 11.5586C7.14493 12.2696 7.2272 12.9806 7.4329 13.652C7.51518 13.9285 7.59746 14.3235 7.84429 14.521C8.13227 14.758 8.5848 14.679 8.83163 14.442C8.99619 14.284 8.91391 14.126 8.70821 14.047C8.50252 13.968 8.21454 14.047 8.09113 14.205L8.04999 14.2445C8.17341 14.1655 8.33796 14.126 8.46138 14.047C8.62594 14.047 8.50252 13.8495 8.42024 13.731C8.3791 13.6125 8.29682 13.4546 8.25568 13.2966C8.17341 13.0201 8.13227 12.7436 8.04999 12.5066C7.96771 11.9536 7.96771 11.4006 8.04999 10.8477C8.21454 9.74171 8.70821 8.67525 9.44872 7.84579C9.57214 7.6878 9.531 7.5298 9.3253 7.45081C9.24302 7.45081 8.95505 7.5693 8.83163 7.6878Z" fill="#0A74A6"/>
<path d="M15.7044 9.50456C15.6633 9.82054 15.8278 10.1365 15.869 10.4525C15.9512 10.7685 15.9924 11.0845 16.0335 11.4005C16.0746 12.0719 16.0335 12.7434 15.869 13.4149C15.5398 14.7183 14.8405 15.9033 13.812 16.8117C13.6886 16.9302 13.7297 17.0487 13.8943 17.0882C14.0588 17.1277 14.3879 17.0487 14.5114 16.9302C15.581 16.0218 16.3215 14.8368 16.6917 13.5334C16.8563 12.9014 16.9386 12.2299 16.9386 11.598C16.9386 11.2425 16.8974 10.9265 16.8563 10.571C16.774 10.2155 16.5683 9.78105 16.6095 9.38606C16.6095 9.07008 15.7044 9.22807 15.7044 9.50456Z" fill="#0A74A6"/>
<path d="M11.8765 13.4151C10.3955 13.3361 9.81957 11.3217 11.0126 10.4922C11.8765 9.89973 13.3987 10.4132 13.6455 11.4007C13.8101 12.0721 13.4398 12.8226 12.8227 13.1781C12.4936 13.3361 12.2056 13.4151 11.8765 13.4151Z" fill="#0A74A6"/>
</svg>
