<svg width="333" height="556" viewBox="0 0 333 556" fill="none" xmlns="http://www.w3.org/2000/svg">
<g clip-path="url(#clip0_794_212)">
<path d="M8 8H325V548H8V8Z" fill="#F9F9F9"/>
<g clip-path="url(#clip1_794_212)">
<path d="M213.931 556.624C220.953 531.64 227.487 499.572 224.931 472.412C219.931 418.98 184.928 342.585 184.928 342.585L102.832 336.545V347.182C102.832 347.182 50.8504 388.556 47.8946 471.169C47.0056 496.197 61.3846 531.751 74.9413 559.378C121.19 557.557 167.549 556.868 213.931 556.624Z" fill="#765E69"/>
<g opacity="0.2">
<path opacity="0.2" d="M190.64 356.066C187.106 347.649 184.795 342.585 184.795 342.585L102.699 336.545V347.182C99.9322 349.505 97.3052 351.989 94.8318 354.622C137.08 366.881 171.327 361.573 190.64 356.066Z" fill="#001627"/>
<path opacity="0.2" d="M213.931 556.624C220.953 531.64 227.487 499.572 224.931 472.412C223.769 461.233 221.801 450.152 219.042 439.256C206.997 462.019 181.639 492.555 157.926 507.589C161.482 523.912 164.726 540.435 167.349 557.068C182.876 556.846 198.403 556.698 213.931 556.624Z" fill="#001627"/>
</g>
<path d="M111.989 330.06C111.989 330.06 116.433 342.275 109.211 351.158C101.988 360.041 59.7621 429.44 67.5406 489.956C75.319 550.473 93.6538 569.905 93.6538 569.905" stroke="#FDEDEE" stroke-miterlimit="10"/>
<path d="M131.435 329.505C131.435 329.505 131.99 356.154 124.212 370.59C116.433 385.025 93.6094 439.989 99.2099 502.171C103.277 547.319 119.589 575.456 119.589 575.456" stroke="#FDEDEE" stroke-miterlimit="10"/>
<path d="M148.658 331.726C148.658 331.726 152.548 374.476 141.436 403.901C130.324 433.327 111.433 492.533 147.725 562.865" stroke="#FDEDEE" stroke-miterlimit="10"/>
<path d="M159.77 331.726C159.77 331.726 174.883 362.217 176.994 420.002C179.216 481.073 174.394 566.573 174.394 566.573" stroke="#FDEDEE" stroke-miterlimit="10"/>
<path d="M173.66 336.723C173.66 336.723 208.663 412.784 205.885 471.08C203.107 529.375 191.44 570.46 191.44 570.46" stroke="#FDEDEE" stroke-miterlimit="10"/>
<path d="M154.17 128.547C154.17 128.547 183.439 114.689 194.751 135.209C206.063 155.729 208.619 238.897 180.861 248.136C180.861 248.136 192.173 190.64 184.973 170.631C177.772 150.621 154.17 128.547 154.17 128.547Z" fill="#352C38"/>
<path d="M95.6763 182.356C95.6763 192.727 101.366 201.144 108.366 201.144C115.367 201.144 121.056 192.727 121.056 182.356C121.056 171.985 115.389 163.568 108.366 163.568C101.343 163.568 95.6763 171.985 95.6763 182.356Z" fill="#CB8985"/>
<path d="M121.101 214.424C121.101 214.424 124.056 243.85 120.767 246.048C117.478 248.247 86.5422 247.692 86.5422 247.692C86.5422 247.692 114.856 280.781 149.992 281.425C185.128 282.069 194.44 260.75 194.44 260.75L160.193 250.645L163.46 214.646L121.101 214.424Z" fill="#CB8985"/>
<path opacity="0.2" d="M122.301 237.476C123.323 237.809 124.368 238.142 125.412 238.431C132.346 240.385 144.947 243.294 152.081 244.405C154.926 244.716 157.815 244.96 160.682 245.204L163.46 214.646L121.101 214.424C121.101 214.424 122.456 228.082 122.301 237.476Z" fill="#001627"/>
<path d="M138.769 133.988C138.769 133.988 157.081 128.769 175.75 142.738C203.307 163.413 202.063 241.673 161.659 238.853C136.013 237.076 106.966 223.818 105.877 193.149C104.633 157.461 138.769 133.988 138.769 133.988Z" fill="#CB8985"/>
<path d="M166.482 138.296C166.482 138.296 169.527 170.497 124.368 182.023C124.368 182.023 113.567 226.594 134.635 247.136C134.635 247.136 107.411 233.279 108.944 189.13C108.944 189.13 113.567 172.696 104.833 172.185C96.0986 171.674 94.054 196.813 111.5 200.411L114.078 212.736C114.078 212.736 73.4745 199.412 90.4314 149.089C107.388 98.766 168.038 112.113 166.482 138.296Z" fill="#352C38"/>
<path d="M101.988 139.229C101.988 139.229 105.722 115.489 82.2085 116.022L90.4981 121.352C90.4981 121.352 68.6074 110.248 53.6506 132.033L66.4739 127.592C66.4739 127.592 36.5603 140.406 63.2514 167.1C63.2514 167.1 58.3399 152.22 73.2967 150.888C85.0533 149.733 97.6987 161.903 101.988 139.229Z" fill="#352C38"/>
<path d="M148.97 213.025L181.261 213.891C181.261 213.891 170.638 228.505 148.97 213.025Z" fill="white"/>
<path d="M172.171 177.182C173.216 178.736 174.172 180.335 175.083 181.934C175.994 183.533 176.861 185.177 177.683 186.82C179.328 190.107 180.854 193.46 182.261 196.88L182.55 197.524L182.061 197.99C180.394 199.612 178.683 201.188 176.95 202.721C175.216 204.253 173.416 205.785 171.571 207.162C172.994 205.297 174.461 203.498 176.016 201.721C177.572 199.945 179.083 198.213 180.661 196.525L180.461 197.635C178.817 194.348 177.29 190.995 175.883 187.575C175.172 185.887 174.505 184.155 173.883 182.423C173.26 180.691 172.683 178.981 172.171 177.182Z" fill="#975D5C"/>
<path d="M137.102 170.92C137.948 169.483 139.056 168.217 140.369 167.189C141.722 166.096 143.218 165.192 144.814 164.501C145.736 164.129 146.688 163.832 147.658 163.613C148.681 163.386 149.723 163.26 150.77 163.235C151.82 163.194 152.872 163.276 153.903 163.48C154.892 163.663 155.86 163.946 156.792 164.324C157.655 164.686 158.488 165.116 159.282 165.612C159.986 166.043 160.642 166.549 161.237 167.122C161.771 167.539 162.256 168.016 162.682 168.543C163.06 169.01 163.371 169.454 163.637 169.809C163.904 170.165 164.393 170.92 164.393 170.92L163.149 170.365L161.815 169.698C161.245 169.405 160.659 169.146 160.059 168.921C159.4 168.624 158.725 168.365 158.037 168.144C157.308 167.891 156.566 167.676 155.815 167.5C155.016 167.32 154.207 167.186 153.392 167.1C152.567 166.996 151.734 166.959 150.903 166.989C150.055 166.989 149.208 167.056 148.37 167.189C147.547 167.189 146.725 167.5 145.925 167.655C145.125 167.811 144.347 168.033 143.703 168.321C143.058 168.61 142.28 168.81 141.636 169.032C138.902 170.054 137.102 170.92 137.102 170.92Z" fill="#352C38"/>
<path d="M175.327 172.807C175.492 171.546 175.907 170.33 176.55 169.232C176.848 168.68 177.19 168.153 177.572 167.655C178.017 167.083 178.524 166.562 179.083 166.1C179.701 165.566 180.389 165.117 181.128 164.768C181.975 164.417 182.878 164.221 183.795 164.19C184.726 164.157 185.655 164.308 186.528 164.634C187.324 164.971 188.071 165.412 188.751 165.945C189.283 166.451 189.781 166.993 190.24 167.566C190.617 168.144 190.929 168.699 191.195 169.187C191.619 170.007 191.926 170.881 192.106 171.786C192.191 172.123 192.258 172.464 192.306 172.807L191.484 172.186C190.951 171.786 190.329 171.142 189.506 170.52C189.084 170.231 188.662 169.898 188.24 169.543C187.817 169.187 187.284 169.01 186.839 168.677C186.37 168.449 185.888 168.248 185.395 168.077C184.937 167.967 184.465 167.922 183.995 167.944C183.498 167.955 183.005 168.03 182.528 168.166C182.017 168.355 181.52 168.577 181.039 168.832C180.068 169.352 179.139 169.946 178.261 170.609L175.327 172.807Z" fill="#352C38"/>
<path d="M159.17 186.954C159.17 186.954 159.037 186.621 158.837 186.043C158.738 185.696 158.619 185.355 158.481 185.022L157.881 183.867C157.606 183.466 157.31 183.08 156.992 182.712C156.638 182.334 156.234 182.005 155.792 181.735C155.582 181.582 155.35 181.462 155.103 181.379C154.859 181.271 154.606 181.182 154.348 181.113C153.298 180.786 152.175 180.786 151.125 181.113C150.605 181.269 150.111 181.501 149.659 181.801C149.436 181.957 149.236 182.134 149.014 182.268L148.481 182.823C148.152 183.182 147.854 183.568 147.592 183.978C147.347 184.378 147.192 184.8 146.992 185.155C146.841 185.474 146.729 185.809 146.658 186.154C146.458 186.71 146.347 187.065 146.347 187.065C146.347 187.065 146.347 186.732 146.147 186.11C146.097 185.727 146.097 185.338 146.147 184.955C146.159 184.447 146.218 183.942 146.325 183.445C146.483 182.838 146.722 182.255 147.036 181.712L147.614 180.846C147.836 180.58 148.125 180.335 148.392 180.069C148.67 179.798 148.984 179.566 149.325 179.38C149.642 179.147 149.995 178.966 150.37 178.847C151.891 178.214 153.593 178.167 155.148 178.714C155.538 178.821 155.906 178.993 156.237 179.225C156.593 179.387 156.917 179.613 157.193 179.891C157.765 180.34 158.241 180.899 158.593 181.535C158.897 182.075 159.136 182.649 159.304 183.245C159.406 183.758 159.473 184.277 159.504 184.8C159.541 185.169 159.541 185.541 159.504 185.91C159.259 186.687 159.17 186.954 159.17 186.954Z" fill="#352C38"/>
<path d="M192.062 185.422C192.062 185.422 191.929 185.088 191.729 184.511C191.632 184.153 191.506 183.804 191.351 183.467C191.173 183.134 190.973 182.756 190.773 182.334C190.49 181.934 190.186 181.548 189.862 181.18C189.517 180.801 189.12 180.472 188.684 180.202C188.469 180.045 188.228 179.925 187.973 179.847C187.735 179.722 187.481 179.632 187.217 179.581C186.699 179.425 186.158 179.358 185.617 179.381C185.065 179.397 184.518 179.494 183.995 179.669C183.476 179.83 182.983 180.062 182.528 180.358L181.883 180.824L181.35 181.357C181.015 181.719 180.718 182.114 180.461 182.534C180.217 182.934 180.083 183.334 179.883 183.689C179.743 184.014 179.624 184.348 179.528 184.689C179.35 185.266 179.216 185.621 179.216 185.621C179.139 185.299 179.08 184.973 179.039 184.644C178.977 184.269 178.977 183.887 179.039 183.512C179.056 183.003 179.123 182.497 179.239 182.001C179.381 181.393 179.613 180.809 179.928 180.269L180.505 179.381L181.283 178.603C181.566 178.344 181.88 178.12 182.217 177.937C182.536 177.694 182.898 177.513 183.284 177.404C184.036 177.104 184.831 176.924 185.639 176.871C186.462 176.881 187.279 177.016 188.062 177.271C188.447 177.378 188.814 177.543 189.151 177.759C189.495 177.943 189.815 178.166 190.106 178.426C190.667 178.88 191.135 179.438 191.484 180.069C191.805 180.611 192.051 181.194 192.218 181.801C192.31 182.309 192.377 182.82 192.418 183.334C192.457 183.703 192.457 184.075 192.418 184.444C192.129 185.066 192.062 185.422 192.062 185.422Z" fill="#352C38"/>
<path d="M105.899 194.548C104.895 193.525 104.135 192.287 103.677 190.928C103.533 190.553 103.457 190.154 103.455 189.751C103.4 189.271 103.485 188.785 103.699 188.352C103.802 188.092 103.97 187.862 104.188 187.686C104.381 187.488 104.617 187.336 104.877 187.242C105.311 187.047 105.779 186.941 106.255 186.931L105.255 187.62C105.544 186.576 105.81 185.399 106.01 184.377C106.212 183.307 106.338 182.223 106.388 181.135C106.388 180.602 106.388 180.091 106.388 179.58C106.342 179.34 106.283 179.103 106.21 178.87C106.163 178.633 106.072 178.408 105.944 178.203C105.842 177.979 105.699 177.775 105.522 177.604C105.371 177.389 105.163 177.22 104.921 177.115C104.709 176.947 104.468 176.819 104.21 176.738L103.366 176.427C103.972 176.282 104.604 176.282 105.21 176.427C105.546 176.468 105.866 176.59 106.144 176.782C106.455 176.925 106.729 177.138 106.944 177.404C107.196 177.641 107.406 177.919 107.566 178.226C107.743 178.511 107.885 178.817 107.988 179.136C108.21 179.753 108.359 180.394 108.433 181.046C108.531 182.285 108.471 183.531 108.255 184.755C108.051 185.965 107.739 187.154 107.322 188.308L107.099 188.908H106.188C105.966 188.908 105.677 188.908 105.566 188.908C105.502 188.882 105.43 188.882 105.366 188.908C105.366 188.908 105.366 188.908 105.233 189.019C105.008 189.448 104.93 189.94 105.01 190.418C105.162 191.822 105.46 193.206 105.899 194.548Z" fill="#975D5C"/>
<path d="M109.522 198.679C109.522 199.431 109.298 200.166 108.88 200.791C108.461 201.416 107.866 201.903 107.171 202.19C106.475 202.477 105.71 202.551 104.972 202.402C104.234 202.254 103.557 201.89 103.026 201.357C102.496 200.823 102.136 200.145 101.992 199.406C101.847 198.668 101.926 197.904 102.217 197.21C102.508 196.517 102.999 195.925 103.626 195.511C104.254 195.096 104.991 194.877 105.744 194.881C106.242 194.881 106.735 194.98 107.195 195.171C107.655 195.362 108.072 195.642 108.423 195.995C108.774 196.348 109.052 196.767 109.241 197.228C109.429 197.688 109.525 198.182 109.522 198.679Z" fill="white"/>
<path opacity="0.2" d="M217.464 320.267C211.634 324.236 205.461 327.677 199.018 330.549L195.218 332.037C184.528 312.361 177.439 295.216 177.439 295.216L206.774 269.055L232.221 311.561C227.091 314.09 222.158 317 217.464 320.267Z" fill="#231D26"/>
<path d="M46.7389 399.748C46.7389 399.748 53.8506 409.164 58.5843 408.809C63.318 408.454 71.4743 395.307 71.4743 395.307C71.4743 395.307 99.7433 420.668 73.2967 391.531C73.2967 391.531 116.834 423.066 73.6078 386.335C73.6078 386.335 113.811 410.297 75.5413 381.893C75.5413 381.893 119.234 395.951 75.2079 377.163C75.2079 377.163 72.1854 374.32 61.8735 389.444L56.0285 386.091L46.7389 399.748Z" fill="#CB8985"/>
<path d="M91.7204 261.039C75.2079 252.289 -24.0002 308.03 -20.9333 335.101C-18.7109 354.8 28.693 388.644 52.1616 405.189C57.9399 400.748 57.9843 393.264 63.2737 388.289C47.7168 368.769 22.6481 342.186 22.6481 342.186C22.6481 342.186 55.7841 322.51 84.8754 305.898C113.967 289.287 91.7204 261.039 91.7204 261.039Z" fill="#CB8985"/>
<path opacity="0.15" d="M193.484 332.969C183.195 336.656 172.572 336.412 162.037 335.19C144.636 333.613 122.59 330.06 106.077 323.864C96.0541 320.111 89.0091 316.336 85.1865 312.383L89.8981 324.375H89.7869L97.0987 346.583C97.0987 346.583 128.857 353.045 150.57 354.311C172.283 355.577 185.261 353.889 191.106 348.448C194.884 344.939 204.441 339.165 206.774 326.907C202.552 329.354 198.101 331.385 193.484 332.969Z" fill="#001627"/>
</g>
<path d="M206.878 269.247L244.65 334.699C251.937 317.176 265.49 288.059 275.044 268.403C272.312 263.117 269.023 256.41 270.223 256.41C272.445 256.41 275.467 259.364 277.955 262.451C281.91 254.477 284.776 248.947 285.576 247.948C288.087 244.816 285.265 260.474 285.265 260.474C285.265 260.474 291.93 242.706 293.73 242.95C295.53 243.195 289.642 263.606 289.642 263.606C289.642 263.606 297.485 245.838 299.662 246.393C301.84 246.948 295.908 269.869 295.908 269.869C295.908 269.869 299.618 254.833 304.373 252.967C309.927 250.746 270.734 366.881 270.49 366.814C265.024 378.608 259.047 387.159 253.315 388.846C220.12 398.552 177.105 295.232 177.105 295.232L206.878 269.247Z" fill="#CB8985"/>
<path d="M235.162 303.783C227.475 289.924 208.3 268.603 202.234 264.094C196.169 259.586 175.017 254.522 175.017 254.522C175.017 254.522 173.773 275.821 142.022 275.399C122.292 275.133 106.251 245.682 106.251 245.682C106.251 245.682 84.4544 243.328 66.0131 254.189C55.554 260.786 45.6423 268.214 36.3737 276.399C36.3737 276.399 54.1484 305.76 72.412 319.241L84.521 312.156L89.5424 324.349L96.8523 346.559C96.8523 346.559 128.602 353.022 150.31 354.288C172.017 355.554 184.993 353.866 190.836 348.425C195.28 344.272 208.011 336.92 206.9 319.308C217.179 315.876 226.754 310.617 235.162 303.783Z" fill="white"/>
<path opacity="0.15" d="M206.967 319.33C217.219 315.874 226.769 310.609 235.162 303.783C231.267 297.333 226.932 291.158 222.186 285.305C217.265 294.106 211.655 302.505 205.411 310.424C206.242 313.33 206.763 316.315 206.967 319.33Z" fill="#001627"/>
</g>
<path d="M8.5 8.5H324.5V547.5H8.5V8.5Z" stroke="#0A74A6"/>
<rect x="0.5" y="0.5" width="15" height="15" fill="white" stroke="#0A74A6"/>
<rect x="0.5" y="540.5" width="15" height="15" fill="white" stroke="#0A74A6"/>
<rect x="317.5" y="0.5" width="15" height="15" fill="white" stroke="#0A74A6"/>
<rect x="317.5" y="540.5" width="15" height="15" fill="white" stroke="#0A74A6"/>
<defs>
<clipPath id="clip0_794_212">
<path d="M8 8H325V548H8V8Z" fill="white"/>
</clipPath>
<clipPath id="clip1_794_212">
<rect width="326.138" height="460.989" fill="white" transform="translate(-21 115)"/>
</clipPath>
</defs>
</svg>
