<svg width="100" height="100" viewBox="0 0 100 100" fill="none" xmlns="http://www.w3.org/2000/svg">
<path d="M66.4376 34.445C68.297 42.3044 63.4298 50.179 55.5666 52.039C47.7072 53.8945 39.8286 49.0273 37.9726 41.164C36.1171 33.3046 40.9843 25.426 48.8436 23.57C56.7069 21.7145 64.5816 26.5817 66.4376 34.445Z" fill="#0A74A6"/>
<path d="M9.12109 15.391C8.74609 15.391 8.4375 15.6957 8.4375 16.0746V96.9106C8.4375 97.2856 8.74219 97.5941 9.12109 97.5941C9.49609 97.5941 9.80468 97.2895 9.80468 96.9106V16.0706C9.80468 15.6916 9.49999 15.3909 9.12109 15.3909V15.391Z" fill="#0A74A6"/>
<path d="M90.527 18.6479C89.8785 18.2807 89.1051 18.2846 88.4645 18.6675L86.3629 19.9175C78.8785 24.3628 69.7769 24.6753 62.0079 20.7456L44.2659 11.769C36.5393 7.85878 27.3599 7.95258 19.7109 12.0151L14.2148 14.937V12.9878C15.871 11.9995 16.9804 10.1909 16.9804 8.12837C16.9804 5.01117 14.4413 2.47217 11.3242 2.47217C8.20307 2.47217 5.67188 5.01127 5.67188 8.13237C5.67188 11.2535 8.21098 13.7886 11.3281 13.7886C11.8554 13.7886 12.3672 13.7143 12.8515 13.5776V96.9096C12.8515 97.2846 13.1562 97.5932 13.5351 97.5932C13.914 97.5932 14.2187 97.2885 14.2187 96.9096L14.2147 16.4836L20.3475 13.2258C27.6054 9.37423 36.3125 9.28443 43.6445 12.9915L61.3866 21.9681C69.5741 26.1087 79.1675 25.7806 87.0585 21.0931L89.1601 19.8431C89.4687 19.6595 89.7461 19.7767 89.8476 19.8352C89.9492 19.8938 90.1914 20.0696 90.1914 20.429V59.941C90.1914 60.6597 89.8086 61.3394 89.1875 61.7027L86.3555 63.3863C78.8711 67.8316 69.7695 68.1441 62.0005 64.2144L44.2585 55.2378C36.5319 51.3276 27.3525 51.4214 19.7035 55.4839L17.3519 56.7339C17.016 56.9136 16.891 57.3277 17.0707 57.6597C17.2503 57.9956 17.6605 58.1206 17.9964 57.9409L20.348 56.6909C27.6058 52.8393 36.313 52.7495 43.645 56.4566L61.387 65.4332C65.2034 67.3629 69.3245 68.3238 73.434 68.3238C78.1449 68.3238 82.8442 67.066 87.055 64.5621L89.887 62.8785C90.9182 62.2652 91.5589 61.1363 91.5589 59.941V20.429C91.5628 19.6868 91.18 19.0188 90.5277 18.6478L90.527 18.6479ZM11.328 12.4174C8.96078 12.4174 7.03888 10.4955 7.03888 8.12833C7.03888 5.76113 8.96078 3.83923 11.328 3.83923C13.6952 3.83923 15.6171 5.76113 15.6171 8.12833C15.6171 10.4916 13.6913 12.4174 11.328 12.4174Z" fill="#0A74A6"/>
<path d="M54.9178 12.859C54.9529 13.2105 55.2498 13.4722 55.5975 13.4722C55.6209 13.4722 55.6443 13.4722 55.6678 13.4683C56.0428 13.4293 56.3162 13.0933 56.2772 12.7183L55.7615 7.65973C55.7225 7.28473 55.3865 7.01129 55.0115 7.05035C54.6365 7.08941 54.3631 7.42535 54.4022 7.80035L54.9178 12.859Z" fill="#0A74A6"/>
<path d="M69.9998 19.16C70.1678 19.16 70.3358 19.0975 70.4686 18.9725L74.1639 15.4803C74.4373 15.2225 74.453 14.7889 74.1912 14.5116C73.9334 14.2381 73.4998 14.2225 73.2225 14.4842L69.5311 17.9803C69.2576 18.2381 69.242 18.6717 69.5037 18.9491C69.6366 19.0858 69.8202 19.16 69.9998 19.16L69.9998 19.16Z" fill="#0A74A6"/>
<path d="M52.4102 65.7029H52.4063C52.0313 65.7029 51.7266 66.0154 51.7266 66.3904L51.7578 71.4763C51.7578 71.8513 52.0664 72.156 52.4414 72.156H52.4453C52.8203 72.156 53.125 71.8435 53.125 71.4685L53.0938 66.3826C53.0938 66.0076 52.7852 65.7029 52.4102 65.7029Z" fill="#0A74A6"/>
<path d="M38.2024 58.805L34.1868 61.93C33.89 62.1643 33.8353 62.594 34.0696 62.8909C34.2024 63.0628 34.4056 63.1565 34.6087 63.1565C34.7571 63.1565 34.9056 63.1096 35.0306 63.012L39.0462 59.887C39.3431 59.6526 39.3977 59.2229 39.1634 58.926C38.929 58.6253 38.4993 58.5706 38.2024 58.805Z" fill="#0A74A6"/>
</svg>
