<svg width="118" height="118" viewBox="0 0 118 118" fill="none" xmlns="http://www.w3.org/2000/svg">
<g clip-path="url(#clip0_674_474)">
<path d="M59.4127 0C40.7946 0 25 16.8179 25 36.5942C25 55.4679 37.3285 77.6825 37.8401 78.711L40.0219 77.4269C40.0219 77.4269 39.7661 76.9153 39.3799 76.1429L40.2777 75.6313L41.1755 77.5574C41.9479 79.0971 43.1015 79.7391 43.8739 79.8696C44.1297 80 44.3855 80 44.7717 80C45.9253 80 46.9535 79.4884 47.3398 79.2276C47.9818 79.0972 49.9078 78.4552 52.0896 77.432C54.9133 76.0176 55.0438 73.0685 54.788 71.654L54.6576 71.3982C54.2714 70.6258 46.442 53.5531 44.7718 50.5986C43.9994 49.3146 43.1016 48.5421 41.948 48.2863C40.664 48.0305 39.5104 48.5421 39.1242 48.6725C38.4822 48.9283 35.6584 50.087 33.0904 51.4963C30.2666 53.1665 31.2948 56.8881 32.0622 58.8141L31.8064 58.9445C29.4942 52.0029 27.5681 43.9127 27.5681 36.5951C27.5681 18.2325 42.2033 2.56889 59.4128 2.56889C76.3604 2.56889 91.7685 18.8745 91.7685 36.5951C91.7685 43.2709 90.0983 50.9747 88.047 57.9122L87.6608 57.7818L88.4332 55.7253C89.0752 54.0551 88.689 52.9015 88.3028 52.2595C87.5304 50.9755 85.9905 50.464 85.479 50.3335C84.9674 49.9473 83.1667 49.0495 80.8545 48.1517C77.9003 46.9981 75.588 49.0495 74.8207 50.2082L74.6903 50.464C74.4345 51.2364 67.4978 68.6956 66.4747 72.0366C66.0885 73.4461 66.0885 74.7301 66.7305 75.7582C67.3725 76.9118 68.526 77.298 68.9123 77.4284C69.5543 77.6842 72.3781 78.9682 75.0765 79.7407C75.4627 79.8711 75.7185 79.8711 76.1047 79.8711C78.6728 79.8711 80.343 77.0473 81.1103 75.377L81.6219 75.5074C81.1103 76.661 80.7241 77.4335 80.7241 77.4335L83.0364 78.5871C83.548 77.5588 94.3367 54.4464 94.3367 36.6013C94.3367 17.4619 77.7755 0.00192495 59.4129 0.00192495L59.4127 0ZM34.5004 53.6728C37.0684 52.133 40.2784 50.9743 40.2784 50.9743L40.5342 50.8439C40.5342 50.8439 41.0458 50.5881 41.432 50.7135C41.9436 50.8439 42.3298 51.3555 42.5856 51.8671C44.1254 54.5656 51.5737 70.6162 52.3461 72.4113C52.4765 72.9229 52.6019 74.4677 51.0621 75.235C48.4941 76.3887 46.5681 77.0306 46.4376 77.0306L46.1818 77.161L46.0565 77.2964C45.8007 77.4268 45.0282 77.808 44.5167 77.6826C44.1305 77.5522 43.8747 77.2964 43.6189 76.7848L42.4653 74.4726L35.5337 60.093L35.0221 58.9394C34.375 57.3946 33.3468 54.3149 34.5004 53.6729L34.5004 53.6728ZM33.3468 61.1161L39.2553 73.4446L38.2271 73.9562C36.8126 71.002 34.7613 66.6384 32.8352 61.3719L33.3468 61.1161ZM79.8266 72.0301L79.0592 73.4446C78.673 74.7286 77.1332 77.6829 75.8491 77.2966C73.0254 76.5242 69.9407 74.9844 69.9407 74.9844L69.6849 74.854C69.6849 74.854 69.1733 74.7236 68.9125 74.3424C68.6567 73.8308 68.782 73.1888 68.9125 72.6721C69.8103 69.5926 76.2303 53.1565 77.0027 51.486C77.2585 51.0998 78.4172 49.8158 79.957 50.4578C82.525 51.486 84.3205 52.5143 84.3205 52.5143L84.5763 52.6447H84.8321C85.0879 52.6447 85.8604 52.9005 86.2466 53.4171C86.377 53.6729 86.377 54.1895 86.2466 54.7011L85.093 57.9111L79.8266 72.0301ZM82.525 73.1887L82.0134 73.0583L86.7632 60.2183L87.2748 60.3487C85.6046 65.4847 83.809 70.1042 82.525 73.1887Z" fill="#C95D63"/>
<path d="M31.076 112H40.421V108.976H34.352V97.132H31.076V112ZM41.8723 112H45.0223V101.794H41.8723V112ZM41.6203 98.581C41.6203 99.589 42.4393 100.408 43.4473 100.408C44.4553 100.408 45.2743 99.589 45.2743 98.581C45.2743 97.573 44.4553 96.754 43.4473 96.754C42.4393 96.754 41.6203 97.573 41.6203 98.581ZM54.9924 102.886C54.0474 101.878 52.5564 101.542 51.2124 101.542C49.0704 101.542 46.9284 102.592 46.9284 104.986C46.9284 108.871 52.2414 107.485 52.2414 109.123C52.2414 109.669 51.5274 109.858 50.8134 109.858C49.8684 109.858 49.1754 109.459 48.5874 108.745L46.6764 110.866C47.6844 111.895 49.2594 112.252 50.6874 112.252C52.8714 112.252 55.3914 111.496 55.3914 108.892C55.3914 105.007 50.0784 106.288 50.0784 104.776C50.0784 104.167 50.7084 103.936 51.2334 103.936C51.9894 103.936 52.5984 104.23 53.0604 104.797L54.9924 102.886ZM63.9571 101.794H61.1851V98.77H58.0351V101.794H56.0191V104.314H58.0351V109.165C58.0351 111.391 59.6521 112.252 61.7521 112.252C62.4871 112.252 63.2641 112.189 63.9571 111.937V109.312C63.6841 109.564 63.0121 109.606 62.6761 109.606C61.3111 109.606 61.1851 108.808 61.1851 107.716V104.314H63.9571V101.794ZM73.0128 108.619C72.4878 109.333 71.7948 109.858 70.7658 109.858C69.5478 109.858 68.6448 109.081 68.3928 107.884H75.7008V106.897C75.7008 103.642 73.8528 101.542 70.9128 101.542C67.7628 101.542 65.2428 103.642 65.2428 106.897C65.2428 110.152 67.7628 112.252 70.9128 112.252C72.5508 112.252 74.2098 111.517 75.2178 110.236L73.0128 108.619ZM68.3928 105.742C68.4768 104.755 69.2328 103.81 70.6188 103.81C71.7528 103.81 72.5718 104.692 72.5508 105.742H68.3928ZM77.6164 112H80.7664V106.918C80.7664 105.595 81.0184 104.314 82.6564 104.314C84.2734 104.314 84.2944 105.826 84.2944 107.002V112H87.4444V106.372C87.4444 103.642 86.8564 101.542 83.6644 101.542C82.1314 101.542 81.1024 102.382 80.6824 103.18H80.6404V101.794H77.6164V112Z" fill="#C95D63"/>
</g>
<defs>
<clipPath id="clip0_674_474">
<rect width="118" height="118" fill="white"/>
</clipPath>
</defs>
</svg>
