<svg width="1440" height="1024" viewBox="0 0 1440 1024" fill="none" xmlns="http://www.w3.org/2000/svg">
<g opacity="0.15">
<path d="M0 40H1440" stroke="#EF6461" stroke-width="0.5" stroke-miterlimit="10"/>
<path d="M0 80H1440" stroke="#EF6461" stroke-width="0.5" stroke-miterlimit="10"/>
<path d="M0 120H1440" stroke="#EF6461" stroke-width="0.5" stroke-miterlimit="10"/>
<path d="M0 160H1440" stroke="#EF6461" stroke-width="0.5" stroke-miterlimit="10"/>
<path d="M0 200H1440" stroke="#EF6461" stroke-width="0.5" stroke-miterlimit="10"/>
<path d="M0 240H1440" stroke="#EF6461" stroke-width="0.5" stroke-miterlimit="10"/>
<path d="M0 280H1440" stroke="#EF6461" stroke-width="0.5" stroke-miterlimit="10"/>
<path d="M0 320H1440" stroke="#EF6461" stroke-width="0.5" stroke-miterlimit="10"/>
<path d="M0 360H1440" stroke="#EF6461" stroke-width="0.5" stroke-miterlimit="10"/>
<path d="M0 400H1440" stroke="#EF6461" stroke-width="0.5" stroke-miterlimit="10"/>
<path d="M0 440H1440" stroke="#EF6461" stroke-width="0.5" stroke-miterlimit="10"/>
<path d="M0 480H1440" stroke="#EF6461" stroke-width="0.5" stroke-miterlimit="10"/>
<path d="M0 520H1440" stroke="#EF6461" stroke-width="0.5" stroke-miterlimit="10"/>
<path d="M0 560H1440" stroke="#EF6461" stroke-width="0.5" stroke-miterlimit="10"/>
<path d="M0 600H1440" stroke="#EF6461" stroke-width="0.5" stroke-miterlimit="10"/>
<path d="M0 640H1440" stroke="#EF6461" stroke-width="0.5" stroke-miterlimit="10"/>
<path d="M0 680H1440" stroke="#EF6461" stroke-width="0.5" stroke-miterlimit="10"/>
<path d="M0 720H1440" stroke="#EF6461" stroke-width="0.5" stroke-miterlimit="10"/>
<path d="M0 760H1440" stroke="#EF6461" stroke-width="0.5" stroke-miterlimit="10"/>
<path d="M0 800H1440" stroke="#EF6461" stroke-width="0.5" stroke-miterlimit="10"/>
<path d="M0 840H1440" stroke="#EF6461" stroke-width="0.5" stroke-miterlimit="10"/>
<path d="M0 880H1440" stroke="#EF6461" stroke-width="0.5" stroke-miterlimit="10"/>
<path d="M0 920H1440" stroke="#EF6461" stroke-width="0.5" stroke-miterlimit="10"/>
<path d="M0 960H1440" stroke="#EF6461" stroke-width="0.5" stroke-miterlimit="10"/>
<path d="M0 1000H1440" stroke="#EF6461" stroke-width="0.5" stroke-miterlimit="10"/>
</g>
<g opacity="0.15">
<path d="M0 0V1024" stroke="#EF6461" stroke-width="0.5" stroke-miterlimit="10"/>
<path d="M40 0V1024" stroke="#EF6461" stroke-width="0.5" stroke-miterlimit="10"/>
<path d="M80 0V1024" stroke="#EF6461" stroke-width="0.5" stroke-miterlimit="10"/>
<path d="M120 0V1024" stroke="#EF6461" stroke-width="0.5" stroke-miterlimit="10"/>
<path d="M160 0V1024" stroke="#EF6461" stroke-width="0.5" stroke-miterlimit="10"/>
<path d="M200 0V1024" stroke="#EF6461" stroke-width="0.5" stroke-miterlimit="10"/>
<path d="M240 0V1024" stroke="#EF6461" stroke-width="0.5" stroke-miterlimit="10"/>
<path d="M280 0V1024" stroke="#EF6461" stroke-width="0.5" stroke-miterlimit="10"/>
<path d="M320 0V1024" stroke="#EF6461" stroke-width="0.5" stroke-miterlimit="10"/>
<path d="M360 0V1024" stroke="#EF6461" stroke-width="0.5" stroke-miterlimit="10"/>
<path d="M400 0V1024" stroke="#EF6461" stroke-width="0.5" stroke-miterlimit="10"/>
<path d="M440 0V1024" stroke="#EF6461" stroke-width="0.5" stroke-miterlimit="10"/>
<path d="M480 0V1024" stroke="#EF6461" stroke-width="0.5" stroke-miterlimit="10"/>
<path d="M520 0V1024" stroke="#EF6461" stroke-width="0.5" stroke-miterlimit="10"/>
<path d="M560 0V1024" stroke="#EF6461" stroke-width="0.5" stroke-miterlimit="10"/>
<path d="M600 0V1024" stroke="#EF6461" stroke-width="0.5" stroke-miterlimit="10"/>
<path d="M640 0V1024" stroke="#EF6461" stroke-width="0.5" stroke-miterlimit="10"/>
<path d="M680 0V1024" stroke="#EF6461" stroke-width="0.5" stroke-miterlimit="10"/>
<path d="M720 0V1024" stroke="#EF6461" stroke-width="0.5" stroke-miterlimit="10"/>
<path d="M760 0V1024" stroke="#EF6461" stroke-width="0.5" stroke-miterlimit="10"/>
<path d="M800 0V1024" stroke="#EF6461" stroke-width="0.5" stroke-miterlimit="10"/>
<path d="M840 0V1024" stroke="#EF6461" stroke-width="0.5" stroke-miterlimit="10"/>
<path d="M880 0V1024" stroke="#EF6461" stroke-width="0.5" stroke-miterlimit="10"/>
<path d="M920 0V1024" stroke="#EF6461" stroke-width="0.5" stroke-miterlimit="10"/>
<path d="M960 0V1024" stroke="#EF6461" stroke-width="0.5" stroke-miterlimit="10"/>
<path d="M1000 0V1024" stroke="#EF6461" stroke-width="0.5" stroke-miterlimit="10"/>
<path d="M1040 0V1024" stroke="#EF6461" stroke-width="0.5" stroke-miterlimit="10"/>
<path d="M1080 0V1024" stroke="#EF6461" stroke-width="0.5" stroke-miterlimit="10"/>
<path d="M1120 0V1024" stroke="#EF6461" stroke-width="0.5" stroke-miterlimit="10"/>
<path d="M1160 0V1024" stroke="#EF6461" stroke-width="0.5" stroke-miterlimit="10"/>
<path d="M1200 0V1024" stroke="#EF6461" stroke-width="0.5" stroke-miterlimit="10"/>
<path d="M1240 0V1024" stroke="#EF6461" stroke-width="0.5" stroke-miterlimit="10"/>
<path d="M1280 0V1024" stroke="#EF6461" stroke-width="0.5" stroke-miterlimit="10"/>
<path d="M1320 0V1024" stroke="#EF6461" stroke-width="0.5" stroke-miterlimit="10"/>
<path d="M1360 0V1024" stroke="#EF6461" stroke-width="0.5" stroke-miterlimit="10"/>
<path d="M1400 0V1024" stroke="#EF6461" stroke-width="0.5" stroke-miterlimit="10"/>
<path d="M1440 0V1024" stroke="#EF6461" stroke-width="0.5" stroke-miterlimit="10"/>
</g>
</svg>
