<svg width="118" height="118" viewBox="0 0 118 118" fill="none" xmlns="http://www.w3.org/2000/svg">
<g clip-path="url(#clip0_674_585)">
<path d="M44.5372 59.0255C50.1841 59.0255 55.9721 59.0255 61.619 59.0255C62.0425 59.0255 62.7484 58.8844 63.0307 58.6022C63.3131 58.4611 63.3131 58.1788 62.8896 58.1788C57.2427 58.1788 51.4546 58.1788 45.8077 58.1788C45.3842 58.1788 44.6783 58.3199 44.396 58.6022C44.1137 58.8844 44.1137 59.0255 44.5372 59.0255Z" fill="#C95D63"/>
<path d="M42.9844 59.4487C43.1255 60.1543 43.2667 61.001 43.2667 61.7065C43.2667 61.5654 43.2667 61.5654 43.2667 61.4243C43.2667 61.8476 43.2667 62.271 43.2667 62.6943C43.1255 63.3999 44.1138 63.541 44.6784 63.3999C45.102 63.3999 45.5255 63.2588 45.8078 62.9765C46.0902 62.8354 46.3725 62.5532 46.3725 62.271C46.5137 61.0009 46.5137 59.7309 46.0902 58.4609C45.949 58.1787 45.6667 58.0376 45.5255 58.0376C45.2431 57.8965 44.6784 58.0376 44.3961 58.0376C43.9726 58.1787 43.6902 58.3198 43.4079 58.602C43.1255 58.8843 42.9844 59.1665 42.9844 59.4487Z" fill="#C95D63"/>
<path d="M44.6778 63.2587C50.3247 63.3998 55.9716 63.3998 61.6185 63.1176C62.042 63.1176 62.7479 62.9764 63.0302 62.5531C63.1714 62.1298 62.889 62.1298 62.4655 62.1298C56.9598 62.412 51.4541 62.412 45.9483 62.2709C45.5248 62.2709 44.819 62.2709 44.5366 62.6942C44.2543 62.9764 44.2543 63.2587 44.6778 63.2587Z" fill="#C95D63"/>
<path d="M63.0305 58.3199C63.1716 58.3199 63.3127 58.4611 63.4538 58.4611C63.5949 58.6022 63.5949 58.7433 63.7361 58.7433V58.8844C63.7361 59.0255 63.5949 59.0255 63.7361 59.0255C63.5949 59.1666 63.5949 59.3077 63.4538 59.4488L63.3127 59.59C63.0305 59.59 62.7483 59.7311 62.466 59.7311C62.3249 59.7311 62.1838 59.59 62.0427 59.59C61.9016 59.4488 61.9016 59.4488 62.0427 59.59C62.0427 59.59 62.0427 59.4488 61.9016 59.4488C61.9016 59.4488 61.9016 59.4488 61.9016 59.59V59.4488C62.0427 60.5777 62.0427 61.7067 62.0427 62.8356C62.0427 63.1178 62.0427 63.2589 62.3249 63.4C62.466 63.5411 62.7483 63.5411 63.0305 63.5411C63.3127 63.5411 63.5949 63.4 63.7361 63.2589C63.8772 63.1178 64.1594 62.9767 64.0183 62.6945C64.0183 61.7067 64.0183 60.86 63.8772 59.8722C63.8772 59.59 63.8772 59.3077 63.8772 59.0255C63.8772 58.4611 63.4538 58.3199 63.0305 58.3199C62.6071 58.1788 61.9016 58.3199 61.6194 58.8844C61.6194 59.0255 61.4782 59.3077 61.6194 59.4488C61.7605 59.7311 62.0427 59.8722 62.3249 59.8722C62.6071 59.8722 62.8894 59.8722 63.1716 59.7311C63.3127 59.59 63.5949 59.4488 63.7361 59.1666C63.8772 59.0255 63.8772 58.7433 63.7361 58.6022C63.4538 58.4611 63.3127 58.3199 63.0305 58.3199Z" fill="#C95D63"/>
<path d="M71.9261 57.0489C70.7967 56.7667 69.385 57.0489 68.3968 57.6134C67.4086 58.1779 66.8439 59.1656 66.2792 60.2946C65.4322 62.129 65.7145 64.2457 67.1262 65.6569C68.5379 67.2091 70.7967 67.3502 72.7731 66.6446C73.7613 66.3624 74.6084 65.798 75.3142 64.9513C76.0201 64.1046 76.4436 63.1168 76.5848 61.9879C76.7259 60.7179 76.7259 59.4479 76.1613 58.319C75.5966 57.3312 74.6084 56.6256 73.479 56.3434C73.0555 56.4845 72.4908 56.6256 71.9261 57.0489C71.7849 57.1901 71.7849 57.6134 72.2084 57.6134C73.9025 57.8956 74.6084 59.7301 74.7495 61.2823C74.7495 62.8346 74.326 64.6691 73.0555 65.5157C72.4908 65.798 72.2084 65.9391 71.6437 65.9391C70.9379 65.9391 70.3732 65.798 69.8085 65.3746C68.6791 64.5279 67.8321 62.9757 67.9733 61.5646C68.1144 60.5768 68.5379 59.589 69.1026 58.7423C69.5262 58.1779 69.9497 57.8956 70.7967 58.0367C71.2202 58.1779 71.9261 57.8956 72.2084 57.6134C72.4908 57.3312 72.3496 57.0489 71.9261 57.0489Z" fill="#C95D63"/>
<path d="M44.2557 66.2218C50.6085 66.2218 56.9612 66.2218 63.4552 66.2218C63.8787 66.2218 64.5845 66.0807 64.8669 65.6573C65.0081 65.234 64.7257 64.9518 64.3022 64.9518C57.9494 64.9518 51.5967 64.9518 45.1028 64.9518C44.6792 64.9518 43.9734 65.0929 43.691 65.5162C43.4087 65.9396 43.8322 66.2218 44.2557 66.2218Z" fill="#C95D63"/>
<path d="M44.5372 45.7611C50.1841 45.7611 55.9721 45.7611 61.619 45.7611C62.0425 45.7611 62.7484 45.62 63.0307 45.3378C63.3131 45.1967 63.3131 44.9144 62.8896 44.9144C57.2427 44.9144 51.4546 44.9144 45.8077 44.9144C45.3842 44.9144 44.6783 45.0555 44.396 45.3378C44.1137 45.4789 44.1137 45.7611 44.5372 45.7611Z" fill="#C95D63"/>
<path d="M42.9844 46.0429C43.1255 46.7485 43.2667 47.5952 43.2667 48.3008C43.2667 48.1596 43.2667 48.1596 43.2667 48.0185C43.2667 48.4419 43.2667 48.8652 43.2667 49.2885C43.1255 49.9941 44.1138 50.1352 44.6784 49.9941C45.102 49.9941 45.5255 49.853 45.8078 49.5708C46.0902 49.4297 46.3725 49.1474 46.3725 48.8652C46.5137 47.5952 46.5137 46.3252 46.0902 45.0551C45.949 44.7729 45.6667 44.6318 45.5255 44.6318C45.2431 44.4907 44.6784 44.6318 44.3961 44.6318C43.9726 44.7729 43.6902 44.914 43.4079 45.1963C43.1255 45.6196 42.9844 45.7607 42.9844 46.0429Z" fill="#C95D63"/>
<path d="M44.6778 49.9941C50.3247 50.1353 55.9716 50.1353 61.6185 49.853C62.042 49.853 62.7479 49.7119 63.0302 49.2886C63.1714 48.8652 62.889 48.8652 62.4655 48.8652C56.9598 49.1475 51.4541 49.1475 45.9483 49.0064C45.5248 49.0064 44.819 49.0063 44.5366 49.4297C44.2543 49.7119 44.2543 49.9941 44.6778 49.9941Z" fill="#C95D63"/>
<path d="M63.0305 45.0558C63.1716 45.0558 63.3127 45.1969 63.4538 45.1969C63.5949 45.338 63.5949 45.4791 63.7361 45.4791V45.6202C63.7361 45.7613 63.5949 45.7613 63.7361 45.7613C63.5949 45.9025 63.5949 46.0436 63.4538 46.1847L63.3127 46.3258C63.0305 46.3258 62.7483 46.4669 62.466 46.4669C62.3249 46.4669 62.1838 46.3258 62.0427 46.3258C61.9016 46.1847 61.9016 46.1847 62.0427 46.3258C62.0427 46.3258 62.0427 46.1847 61.9016 46.1847C61.9016 46.1847 61.9016 46.1847 61.9016 46.3258V46.1847C62.0427 47.3136 62.0427 48.4425 62.0427 49.5714C62.0427 49.8536 62.0427 49.9947 62.3249 50.1359C62.466 50.277 62.7483 50.277 63.0305 50.277C63.3127 50.277 63.5949 50.1359 63.7361 49.9947C63.8772 49.8536 64.1594 49.7125 64.0183 49.4303C64.0183 48.4425 64.0183 47.5958 63.8772 46.608C63.8772 46.3258 63.8772 46.0436 63.8772 45.7613C63.8772 45.1969 63.4538 44.9147 63.0305 45.0558C62.6071 44.9147 61.9016 45.0558 61.6194 45.6202C61.6194 45.7613 61.4782 46.0436 61.6194 46.1847C61.7605 46.4669 62.0427 46.608 62.3249 46.608C62.6071 46.608 62.8894 46.608 63.1716 46.4669C63.3127 46.3258 63.5949 46.1847 63.7361 45.9025C63.8772 45.7613 63.8772 45.4791 63.7361 45.338C63.4538 45.1969 63.3127 45.0558 63.0305 45.0558Z" fill="#C95D63"/>
<path d="M71.9261 43.6432C70.7967 43.361 69.385 43.6432 68.3968 44.2076C67.4086 44.7721 66.8439 45.7599 66.2792 46.8888C65.4322 48.7233 65.7145 50.84 67.1262 52.2511C68.5379 53.8033 70.7967 53.9445 72.7731 53.2389C73.7613 52.9567 74.6084 52.3922 75.3142 51.5455C76.0201 50.6988 76.4436 49.7111 76.5848 48.5822C76.7259 47.3121 76.7259 46.0421 76.1613 44.9132C75.5966 43.9254 74.6084 43.2198 73.479 42.9376C73.0555 43.0787 72.4908 43.2198 71.9261 43.6432C71.7849 43.7843 71.7849 44.2076 72.2084 44.2076C73.9025 44.4899 74.6084 46.3243 74.7495 47.8766C74.7495 49.4288 74.326 51.2633 73.0555 52.11C72.4908 52.3922 72.2084 52.5333 71.6437 52.5333C70.9379 52.5333 70.3732 52.3922 69.8085 51.9689C68.6791 51.1222 67.8321 49.5699 67.9733 48.1588C68.1144 47.171 68.5379 46.1832 69.1026 45.3365C69.5262 44.7721 69.9497 44.4899 70.7967 44.631C71.2202 44.7721 71.9261 44.4899 72.2084 44.2076C72.4908 44.0665 72.3496 43.7843 71.9261 43.6432Z" fill="#C95D63"/>
<path d="M44.2557 52.816C50.6085 52.816 56.9612 52.816 63.4552 52.816C63.8787 52.816 64.5845 52.6749 64.8669 52.2516C65.0081 51.8282 64.7257 51.546 64.3022 51.546C57.9494 51.546 51.5967 51.546 45.1028 51.546C44.6792 51.546 43.9734 51.6871 43.691 52.1105C43.4087 52.5338 43.8322 52.816 44.2557 52.816Z" fill="#C95D63"/>
<path d="M44.2559 11.4702C49.0558 14.8569 54.2792 17.8203 59.3614 20.6425C64.3024 23.4648 69.667 26.1459 73.761 30.0971C74.1845 30.5204 76.0197 29.6738 75.7374 29.3915C71.6434 25.4404 66.2788 22.7592 61.3378 19.9369C56.2556 16.9736 51.0322 14.1513 46.2324 10.7646C45.8088 10.4824 43.9736 11.329 44.2559 11.4702Z" fill="#C95D63"/>
<path d="M43.5506 11.0472C43.2683 17.5384 43.1271 24.1707 43.2683 30.6619C43.2683 30.9441 43.6918 30.9441 43.833 30.9441C54.1385 30.9441 64.4441 30.9441 74.7497 31.0852C75.1732 31.0852 76.1614 30.803 76.1614 30.2386C76.1614 24.8763 76.3026 19.514 76.3026 14.0105C76.3026 12.4583 77.0085 10.4827 75.0321 10.3416C74.0439 10.3416 73.0556 10.3416 72.2086 10.3416C65.997 10.3416 59.6443 10.4827 53.4327 10.4827C50.7504 10.4827 48.2093 10.4827 45.527 10.4827C44.8212 10.4827 43.4094 11.6116 44.68 11.6116C49.9034 11.4705 54.9856 11.4705 60.209 11.4705C63.1736 11.4705 66.2794 11.4705 69.244 11.4705C70.3734 11.4705 71.5027 11.4705 72.6321 11.4705C73.0556 11.4705 73.4792 11.3294 73.7615 11.4705C73.9027 11.4705 74.0438 11.4705 74.185 11.4705C74.3262 11.7527 74.185 12.7405 74.185 13.0228C74.185 18.9495 74.0438 24.8763 74.0438 30.6619C74.4674 30.3797 75.0321 30.0975 75.4556 29.8152C65.15 29.8152 54.8444 29.8152 44.5388 29.6741C44.68 29.8152 44.9623 29.8152 45.1035 29.9563C44.9623 23.4651 45.1035 17.115 45.3859 10.6238C45.6682 9.91827 43.5506 10.3416 43.5506 11.0472Z" fill="#C95D63"/>
<path d="M42.5625 35.6C42.5625 37.0111 42.5625 38.4222 42.5625 39.8334C43.2681 39.8334 43.9736 39.6923 44.6792 39.6923C44.6792 39.5511 44.6792 39.41 44.6792 39.2689C44.6792 38.8456 44.1147 38.7045 43.8325 38.7045C43.5503 38.7045 43.2681 38.8456 43.127 38.9867C42.9858 39.1278 42.7036 39.2689 42.7036 39.5511C42.7036 39.6923 42.7036 39.8334 42.7036 39.9745C42.7036 40.3978 43.2681 40.5389 43.5503 40.5389C43.8325 40.5389 44.1147 40.3978 44.2559 40.2567C44.397 40.1156 44.6792 39.9745 44.6792 39.6923C44.6792 38.2811 44.6792 36.87 44.6792 35.4589C44.6792 35.0355 44.1147 34.8944 43.8325 34.8944C43.5503 34.8944 43.2681 35.0355 43.127 35.1766C42.8447 35.3177 42.5625 35.4589 42.5625 35.6Z" fill="#C95D63"/>
<path d="M43.6913 36.1645C54.2792 36.1645 64.8671 36.3057 75.5962 36.3057C76.0197 36.3057 76.7256 36.1645 76.8668 35.7412C77.0079 35.3179 76.7256 35.0356 76.3021 35.0356C65.7141 35.0356 55.1262 34.8945 44.3971 34.8945C43.9736 34.8945 43.2677 35.0356 43.1266 35.459C42.9854 35.8823 43.2677 36.1645 43.6913 36.1645Z" fill="#C95D63"/>
<path d="M74.3266 35.7411C74.3266 37.0111 74.4677 38.2811 74.4677 39.6923C74.4677 39.9745 74.4677 40.1156 74.7499 40.2567C74.891 40.3978 75.1733 40.3978 75.4555 40.3978C75.7377 40.3978 76.02 40.2567 76.1611 40.1156C76.3022 39.9745 76.5844 39.8334 76.5844 39.5511C76.5844 38.2811 76.4433 37.0111 76.4433 35.6C76.4433 35.3177 76.4433 35.1766 76.1611 35.0355C76.02 34.8944 75.7377 34.8944 75.4555 34.8944C75.1733 34.8944 74.891 35.0355 74.7499 35.1766C74.4677 35.3177 74.1855 35.6 74.3266 35.7411Z" fill="#C95D63"/>
<path d="M43.5513 40.6803C53.9981 40.6803 64.586 40.6803 75.0327 40.5392C75.8798 40.5392 77.1503 39.2692 75.7386 39.2692C65.2919 39.2692 54.7039 39.2692 44.2572 39.4103C43.5513 39.5514 42.1396 40.6803 43.5513 40.6803Z" fill="#C95D63"/>
<path d="M40.8676 72.4306C41.2911 57.8959 41.4323 43.2201 41.4323 28.6855C41.4323 21.6298 41.0088 14.4331 41.4323 7.3774C41.5734 5.96627 41.4323 3.84957 42.4205 2.72066C43.4087 1.73287 45.1028 1.73287 46.3733 1.73287C50.185 1.73287 53.8554 1.73287 57.6671 1.73287C61.9023 1.73287 66.1374 1.73287 70.3726 1.73287C72.2078 1.73287 74.1843 1.45064 75.8783 1.73287C78.2783 2.0151 78.9841 4.69625 79.1253 6.81295C79.1253 7.65962 81.1017 7.09517 81.1017 6.10738C80.8194 3.28512 79.4076 0.180625 76.1607 0.0395117C72.349 -0.101602 68.5374 0.180625 64.7257 0.180625C60.3494 0.180625 56.1142 0.180625 51.7379 0.180625C48.9144 0.180625 45.5263 -0.242715 42.7028 0.745078C39.7382 1.87398 39.4559 4.83736 39.3147 7.65962C39.0323 11.7519 39.3147 15.8442 39.4559 19.9365C39.4559 28.121 39.4559 36.4467 39.4559 44.6313C39.1735 53.9448 39.0323 63.2582 38.75 72.5717C38.75 73.7006 40.8676 73.4184 40.8676 72.4306Z" fill="#C95D63"/>
<path d="M79.2667 7.65984C78.8432 22.3356 78.702 36.8703 78.702 51.546C78.702 58.6017 79.1256 65.7985 78.702 72.8541C78.5609 74.2653 78.702 76.0997 77.855 77.2286C76.8668 78.6398 74.8904 78.4987 73.3375 78.4987C69.5258 78.4987 65.8554 78.4987 62.0437 78.4987C57.8085 78.4987 53.5734 78.4987 49.3382 78.4987C47.6441 78.4987 45.8089 78.7809 44.256 78.4987C41.8561 78.2164 41.1502 75.3942 41.009 73.4186C40.8678 72.5719 38.8914 72.9953 39.0326 73.983C39.3149 76.8053 40.7267 79.9098 43.9736 79.9098C47.9265 79.9098 51.8793 79.9098 55.8321 79.9098C60.2085 79.9098 64.4436 79.9098 68.82 79.9098C71.5022 79.9098 74.7492 80.3331 77.2903 79.3453C80.3961 78.2164 80.6784 75.2531 80.8196 72.4308C81.102 68.3385 80.8196 64.2462 80.6785 60.1539C80.6785 51.9694 80.6785 43.6437 80.6785 35.4591C80.8196 26.1457 80.9608 16.8322 81.2431 7.51873C81.3843 6.53094 79.4079 6.81317 79.2667 7.65984Z" fill="#C95D63"/>
<path d="M60.3482 72.1488C60.2071 71.8666 59.9247 71.8666 59.6424 71.8666C59.0777 71.8666 58.513 72.0077 58.0895 72.2899C57.5248 72.5721 57.2424 72.8544 56.9601 73.4188C56.5366 74.1244 56.5366 75.1122 57.1013 75.8177C57.666 76.5233 58.6542 76.8055 59.5012 76.6644C60.6306 76.5233 62.0423 76.1 62.3246 74.83C62.607 73.8422 62.1835 72.8544 61.76 71.8666C61.76 71.7255 61.4776 71.7255 61.4776 71.7255C61.1953 71.7255 60.9129 71.7255 60.7717 71.8666C60.4894 71.8666 60.3482 72.0077 60.0659 72.1488C60.0659 72.1488 59.7835 72.2899 59.7835 72.431C60.2071 73.2777 60.4894 74.2655 60.3482 75.2533C60.3482 75.2533 60.3482 75.2533 60.3482 75.1122C60.3482 75.2533 60.2071 75.3944 60.2071 75.5355C60.2071 75.6766 60.0659 75.6766 60.0659 75.8177C60.0659 75.8177 60.0659 75.8177 59.9247 75.9589L59.7835 76.1C59.6424 76.2411 59.9247 76.1 59.7835 76.1H59.6424C59.6424 76.1 59.7835 75.9589 59.7835 76.1C59.9247 76.1 59.9247 75.9589 59.9247 76.1C59.9247 76.1 59.9247 76.1 60.0659 76.1C60.2071 76.1 60.2071 76.1 60.0659 76.1H60.2071C60.0659 76.1 60.4894 76.1 60.3482 76.1C60.3482 76.1 60.2071 76.1 60.3482 76.1C60.4894 76.1 60.3482 76.1 60.3482 76.1C60.3482 76.1 60.2071 76.1 60.3482 76.1C60.4894 76.1 60.3482 76.1 60.3482 76.1H60.2071C60.2071 76.1 60.0659 76.1 60.2071 76.1H60.0659C59.7835 75.9589 59.5012 75.8177 59.36 75.6766C58.6542 74.83 58.513 74.1244 58.6542 73.4188C58.6542 73.4188 58.6542 73.4188 58.6542 73.5599C58.7953 73.2777 58.7953 72.8544 59.0777 72.5721L59.2188 72.431C59.2188 72.431 59.36 72.2899 59.2188 72.431C59.2188 72.431 59.2188 72.431 59.0777 72.431C58.7953 72.5721 58.3718 72.7133 58.0895 72.5721C58.0895 72.5721 57.9483 72.5721 58.0895 72.5721C58.0895 72.5721 58.0895 72.5721 58.2306 72.7133C58.3718 72.8544 58.513 72.8544 58.513 72.8544C58.7953 72.8544 59.0777 72.8544 59.2188 72.7133C59.36 72.5721 60.4894 72.2899 60.3482 72.1488Z" fill="#C95D63"/>
<path d="M43.973 6.38965C54.1374 6.53076 64.4429 6.67187 74.6074 6.81299C75.4544 6.81299 76.7249 5.54297 75.3132 5.54297C65.1488 5.40186 54.9844 5.26074 44.6788 5.11963C43.8318 5.11963 42.5612 6.38965 43.973 6.38965Z" fill="#C95D63"/>
<path d="M9.96024 112H13.2362V106.204H15.6302C18.7592 106.204 21.1322 105.133 21.1322 101.647C21.1322 98.119 18.5702 97.132 15.4832 97.132H9.96024V112ZM13.2362 99.904H14.9162C16.1762 99.904 17.7302 100.114 17.7302 101.647C17.7302 103.033 16.5752 103.432 15.4202 103.432H13.2362V99.904ZM22.7888 112H25.9388V107.737C25.9388 105.7 26.2328 104.314 28.6268 104.314C29.0888 104.314 29.5298 104.398 29.9708 104.524V101.647C29.6768 101.563 29.2778 101.542 28.9208 101.542C27.5348 101.542 26.6528 102.193 25.9808 103.432H25.9388V101.794H22.7888V112ZM30.5934 106.897C30.5934 110.152 33.1134 112.252 36.2634 112.252C39.4134 112.252 41.9334 110.152 41.9334 106.897C41.9334 103.642 39.4134 101.542 36.2634 101.542C33.1134 101.542 30.5934 103.642 30.5934 106.897ZM33.7434 106.897C33.7434 105.364 34.6884 104.314 36.2634 104.314C37.8384 104.314 38.7834 105.364 38.7834 106.897C38.7834 108.43 37.8384 109.48 36.2634 109.48C34.6884 109.48 33.7434 108.43 33.7434 106.897ZM50.7398 101.794H47.9678V98.77H44.8178V101.794H42.8018V104.314H44.8178V109.165C44.8178 111.391 46.4348 112.252 48.5348 112.252C49.2698 112.252 50.0468 112.189 50.7398 111.937V109.312C50.4668 109.564 49.7948 109.606 49.4588 109.606C48.0938 109.606 47.9678 108.808 47.9678 107.716V104.314H50.7398V101.794ZM51.9625 106.897C51.9625 110.152 54.4825 112.252 57.6325 112.252C60.7825 112.252 63.3025 110.152 63.3025 106.897C63.3025 103.642 60.7825 101.542 57.6325 101.542C54.4825 101.542 51.9625 103.642 51.9625 106.897ZM55.1125 106.897C55.1125 105.364 56.0575 104.314 57.6325 104.314C59.2075 104.314 60.1525 105.364 60.1525 106.897C60.1525 108.43 59.2075 109.48 57.6325 109.48C56.0575 109.48 55.1125 108.43 55.1125 106.897ZM72.1089 101.794H69.3369V98.77H66.1869V101.794H64.1709V104.314H66.1869V109.165C66.1869 111.391 67.8039 112.252 69.9039 112.252C70.6389 112.252 71.4159 112.189 72.1089 111.937V109.312C71.8359 109.564 71.1639 109.606 70.8279 109.606C69.4629 109.606 69.3369 108.808 69.3369 107.716V104.314H72.1089V101.794ZM84.2097 101.794H80.9757L78.7287 108.535H78.6867L76.0617 101.794H72.6597L77.1327 112.084L76.9017 112.672C76.4607 113.785 76.2297 114.394 74.8017 114.394C74.2767 114.394 73.8147 114.289 73.3317 114.079L72.9117 116.662C73.6677 116.914 74.4657 117.04 75.2637 117.04C78.2667 117.04 78.7497 115.822 79.5897 113.659L84.2097 101.794ZM85.6726 116.788H88.8226V110.908H88.8646C89.5786 111.895 90.7966 112.252 92.0986 112.252C94.9966 112.252 96.7606 109.648 96.7606 106.813C96.7606 103.726 94.7656 101.542 91.7416 101.542C90.3136 101.542 89.0956 102.403 88.6126 103.138H88.5706V101.794H85.6726V116.788ZM88.5706 106.897C88.5706 105.364 89.5156 104.314 91.0906 104.314C92.6656 104.314 93.6106 105.364 93.6106 106.897C93.6106 108.43 92.6656 109.48 91.0906 109.48C89.5156 109.48 88.5706 108.43 88.5706 106.897ZM106.061 108.619C105.536 109.333 104.843 109.858 103.814 109.858C102.596 109.858 101.693 109.081 101.441 107.884H108.749V106.897C108.749 103.642 106.901 101.542 103.961 101.542C100.811 101.542 98.2912 103.642 98.2912 106.897C98.2912 110.152 100.811 112.252 103.961 112.252C105.599 112.252 107.258 111.517 108.266 110.236L106.061 108.619ZM101.441 105.742C101.525 104.755 102.281 103.81 103.667 103.81C104.801 103.81 105.62 104.692 105.599 105.742H101.441Z" fill="#C95D63"/>
</g>
<defs>
<clipPath id="clip0_674_585">
<rect width="118" height="118" fill="white"/>
</clipPath>
</defs>
</svg>
