<svg width="100" height="100" viewBox="0 0 100 100" fill="none" xmlns="http://www.w3.org/2000/svg">
<path d="M48.8183 63.9357C48.9409 62.8195 48.8183 61.7034 48.5732 60.5872C48.4506 60.0911 47.5928 60.2151 47.2251 60.2151C44.8966 60.7112 42.5681 57.6107 43.1808 55.3783C43.3034 55.1303 42.6906 55.0063 42.4455 55.0063C41.5876 54.8822 39.7493 55.0063 39.5042 53.8901C39.3817 53.27 39.7493 52.7739 39.9944 52.2778C40.7298 51.0376 41.4651 49.6734 41.8327 48.3091C42.4455 46.2008 42.0778 43.8444 42.9357 41.8601C43.671 40.1238 44.8966 38.5115 46.4898 37.3953C50.1664 34.7909 55.1911 35.7831 58.0098 39.2556C60.706 42.7282 60.8286 47.689 59.1128 51.5337C58.1324 53.766 56.4166 55.1303 55.1911 57.1146C53.9656 58.9749 53.9656 61.2073 54.946 63.1916C55.1911 63.6877 57.0294 63.5637 56.6617 62.9436C55.3137 60.0911 56.4166 57.7347 58.2549 55.6264C59.8481 53.766 61.0737 51.6577 61.5639 49.3013C62.6669 44.7125 61.1962 39.3797 57.152 36.7752C53.843 34.6669 49.3085 34.4188 45.7545 36.2791C43.9162 37.2713 42.4455 38.7596 41.4651 40.6199C40.3621 42.8522 40.4847 45.2086 40.117 47.565C39.7493 49.5493 38.4012 51.0376 37.6659 52.8979C36.5629 55.5023 40.2395 55.6264 41.8327 55.8744C41.5876 55.7504 41.3425 55.6264 41.0974 55.5023C40.6072 57.3626 41.8327 59.347 43.3034 60.2151C44.6515 61.0833 46.2447 61.3313 47.8379 60.9592C47.3477 60.8352 46.8574 60.7112 46.4898 60.5872C46.7349 61.7034 46.8574 62.6955 46.7349 63.9357C46.98 64.5558 48.8183 64.5558 48.8183 63.9357Z" fill="#0A74A6"/>
<path d="M17.5669 28.2179C20.2631 25.6134 23.572 24.0012 27.2487 23.8771C29.2095 23.8771 31.0478 24.1252 32.8861 24.8693C34.4793 25.4894 36.4402 26.2335 37.5432 27.4737C37.9108 27.9698 37.9108 27.9698 37.5432 28.5899C37.2981 28.962 37.053 29.334 36.6853 29.5821C36.0725 30.2022 35.3372 30.6983 34.4793 31.0703C32.641 31.9385 30.6802 32.4346 28.5967 32.3105C24.7976 32.3105 21.2435 30.4502 18.4248 27.9698C17.812 27.3497 15.2384 28.3419 15.9737 28.962C19.5278 32.1865 24.1848 34.0468 28.9644 33.7988C33.2538 33.5507 38.8913 31.6904 40.607 27.3497C40.607 27.2257 40.607 27.1017 40.4845 26.9776C33.3763 20.6526 22.2239 21.2727 15.3609 27.8458C14.3805 28.962 16.9541 28.838 17.5669 28.2179Z" fill="#0A74A6"/>
<path d="M28.2289 23.8769C26.6357 24.0009 24.7974 25.1171 24.3071 26.8534C23.9395 28.2176 24.5522 29.9539 25.7778 30.698C26.5131 31.1941 27.371 31.3181 28.2289 31.1941C29.2093 31.0701 30.3123 30.574 30.8025 29.5819C31.5378 28.3416 31.2927 26.4813 30.4348 25.3651C29.8221 24.621 28.9642 24.497 28.1063 24.621C27.2484 24.621 26.0229 25.1171 25.5327 26.1093C24.7974 27.2255 24.5522 29.2098 25.7778 30.0779C26.5131 30.574 27.371 30.574 28.1063 30.45C29.0867 30.326 30.0672 29.9539 30.6799 29.2098C31.4153 28.2176 31.2927 26.7294 30.3123 25.9853C29.2093 25.2411 27.6161 25.4892 26.6357 26.2333C26.0229 26.7294 25.6552 27.5975 26.0229 28.3416C26.5131 29.5819 28.3514 29.0858 29.2093 28.5897C29.6995 28.3416 30.0672 27.9696 29.9446 27.3495C29.9446 26.9774 29.6995 26.6054 29.3318 26.4813C29.0867 26.3573 28.5965 26.3573 28.2289 26.4813C27.8612 26.6054 27.4935 26.7294 27.1259 26.9774C26.8808 27.2255 26.6357 27.4735 26.6357 27.8456C26.6357 28.3416 27.371 28.3416 27.7386 28.3416C28.1063 28.3416 28.474 28.2176 28.7191 27.9696C28.8416 27.8456 29.2093 27.7215 29.2093 27.4735C29.2093 27.3495 29.2093 27.3495 29.2093 27.2255C28.474 27.3495 27.7386 27.4735 27.1259 27.7215C27.0033 27.5975 27.2484 27.8456 27.1259 27.7215C27.1259 27.8456 27.2484 27.8456 27.2484 27.9696C27.2484 27.9696 27.2484 28.0936 27.2484 27.9696V28.0936C27.2484 27.9696 27.2484 28.0936 27.2484 28.0936C27.1259 28.2176 27.2484 28.0936 27.4935 27.9696C27.8612 27.8456 28.1063 27.8456 28.474 27.7215C28.5965 27.7215 28.5965 27.7215 28.7191 27.7215C28.5965 27.7215 28.7191 27.7215 28.7191 27.7215C28.5965 27.5975 28.5965 27.5975 28.5965 27.5975C28.474 27.3495 28.474 27.2255 28.5965 26.9774C28.5965 26.8534 28.5965 26.7294 28.7191 26.7294C28.7191 26.7294 28.8416 26.4813 28.8416 26.6054C28.8416 26.6054 28.8416 26.4813 28.9642 26.4813C28.9642 26.4813 28.8416 26.6054 28.9642 26.4813C28.5965 26.7294 28.2289 26.8534 27.8612 26.8534C27.8612 26.8534 27.6161 26.8534 27.7386 26.8534C27.7386 26.8534 27.9837 26.9774 27.8612 26.9774C27.9837 26.9774 27.9837 27.1014 28.1063 27.1014C28.2289 27.2255 28.3514 27.3495 28.474 27.4735C28.5965 27.5975 28.5965 27.8456 28.5965 27.9696C28.5965 28.2176 28.5965 28.3416 28.5965 28.4657C28.5965 28.5897 28.474 28.8377 28.474 28.9617C28.474 28.8377 28.3514 29.0858 28.3514 29.0858C28.2289 29.2098 28.3514 29.0858 28.3514 29.0858L28.2289 29.2098C28.1063 29.3338 28.474 29.0858 28.3514 29.2098C28.2289 29.3338 28.5965 29.0858 28.474 29.2098C28.3514 29.3338 28.8416 29.0858 28.5965 29.2098C28.474 29.2098 28.9642 29.2098 28.7191 29.2098C28.474 29.2098 28.9642 29.2098 28.7191 29.2098C28.474 29.2098 28.8416 29.2098 28.8416 29.2098H28.5965C28.7191 29.2098 28.5965 29.2098 28.474 29.2098H28.3514C28.2289 29.2098 28.474 29.3338 28.3514 29.2098C28.2289 29.0858 28.1063 28.9617 27.9838 28.8377C27.4935 28.0936 27.7386 26.8534 28.2289 26.1093L28.3514 25.9853C28.3514 25.9853 28.2289 26.1093 28.3514 25.9853C28.3514 25.9853 28.474 25.8612 28.3514 25.9853C28.474 25.9853 28.5965 25.8612 28.3514 25.9853C28.1063 26.1093 27.9837 26.1093 27.7386 26.1093C27.6161 26.1093 27.8612 26.1093 27.7386 26.1093C27.6161 26.1093 27.8612 26.1093 27.8612 26.1093C27.8612 26.1093 27.9838 26.1093 27.9838 26.2333C27.9838 26.2333 27.8612 26.1093 27.9838 26.2333C28.1063 26.3573 28.1063 26.3573 28.2289 26.4813C28.3514 26.6054 28.474 26.7294 28.474 26.9774C28.8416 27.8456 29.0867 28.9617 28.7191 29.9539C28.5965 30.0779 28.5965 30.202 28.474 30.45C28.474 30.45 28.5965 30.326 28.474 30.45C28.474 30.45 28.3514 30.574 28.474 30.45C28.3514 30.45 28.2289 30.574 28.5965 30.45C28.5965 30.45 29.0867 30.326 28.9642 30.326C28.8416 30.326 29.0867 30.326 29.0867 30.326C29.3318 30.326 29.2093 30.326 29.0867 30.326H28.9642C29.0867 30.326 28.9642 30.326 28.9642 30.326C28.7191 30.202 28.5965 30.202 28.474 30.0779C27.6161 29.4578 27.1259 28.3416 27.371 27.2255C27.371 26.9774 27.4935 26.7294 27.6161 26.4813C27.7386 26.3573 27.8612 26.1093 27.9838 25.9853C28.1063 25.8612 27.8612 26.1093 27.9838 25.9853L28.1063 25.8612L28.2289 25.7372C28.2289 25.7372 27.9837 25.8612 28.2289 25.7372C28.3514 25.6132 27.9837 25.8612 28.1063 25.7372C28.3514 25.6132 28.1063 25.7372 27.9838 25.7372H28.1063C27.9837 25.7372 27.9837 25.7372 27.8612 25.7372H27.9838C28.3514 25.7372 28.7191 25.6132 28.9642 25.3651C29.0867 25.2411 29.4544 25.1171 29.4544 24.8691C29.5769 23.7529 28.5965 23.8769 28.2289 23.8769Z" fill="#0A74A6"/>
<path d="M46.6127 30.5741C46.245 23.753 45.0195 16.5598 38.6467 12.9632C33.0092 9.73863 25.7785 9.24255 19.8959 11.971C14.7487 14.3274 11.1946 19.4122 10.2142 24.9932C9.23377 30.9462 11.6848 37.1472 16.2193 41.1158C21.6117 45.7046 29.3326 46.4487 35.8279 43.7203C37.5437 42.9762 35.9505 42.232 34.8475 42.7281C24.0628 47.1929 12.2976 37.8913 12.7878 26.3574C12.9104 21.5206 15.484 16.4357 19.6508 13.7073C24.6755 10.4828 31.2934 11.2269 36.3181 13.9553C42.5684 17.4279 43.6714 24.7451 43.9165 31.1942C43.9165 32.0623 46.6127 31.5663 46.6127 30.5741Z" fill="#0A74A6"/>
<path d="M56.1727 30.9461C56.4178 25.3652 57.2757 18.7921 62.0553 15.0715C66.5898 11.5989 73.3302 10.6067 78.4775 13.0872C88.2818 17.6759 89.3848 31.5662 82.2767 39.0075C77.8647 43.5962 71.2468 44.9605 65.3643 42.6041C64.1387 42.108 61.9327 43.3482 63.7711 44.0923C69.6536 46.5727 76.6392 46.0766 81.909 42.48C86.9337 39.1315 90.1201 33.3025 89.9975 27.2255C89.875 21.3965 86.8112 15.5676 81.7865 12.5911C76.149 9.11849 68.9183 9.36653 63.0357 11.971C59.8493 13.3352 57.2757 15.6916 55.56 18.7921C53.5991 22.5127 53.2314 26.7294 52.9863 30.8221C52.9863 32.0623 56.0502 32.1863 56.1727 30.9461Z" fill="#0A74A6"/>
<path d="M53.2305 69.2684C53.5981 76.2136 54.9462 83.5308 61.5641 87.0034C67.3241 89.9799 73.8195 89.9799 79.5795 87.2514C84.6042 84.895 88.4034 80.5543 89.5064 74.9734C90.7319 68.8964 88.4034 62.4473 83.8689 58.4786C78.4765 53.7658 71.1233 53.3938 64.7505 55.9982C64.3829 56.1222 63.1573 56.4943 63.0348 56.8664C63.0348 57.1144 64.0152 56.6183 64.1377 56.6183C74.7999 52.1536 86.6876 61.2071 87.0553 72.493C87.1778 77.4538 84.9719 82.5386 81.1727 85.7632C76.3931 89.7318 68.3046 88.2436 63.2799 85.2671C57.3973 81.6705 56.2943 74.4773 56.0492 68.1522C56.0492 68.1522 53.2305 68.7723 53.2305 69.2684Z" fill="#0A74A6"/>
<path d="M44.4068 67.5322C44.1617 73.4852 43.1813 80.1823 38.1566 83.9029C33.6221 87.3755 26.8816 88.3676 21.4893 86.6314C18.9156 85.7632 16.0969 84.1509 14.6263 81.7946C13.1556 79.5622 12.4203 76.7097 12.2977 74.1053C12.0526 68.8964 14.5037 63.5635 18.4254 60.215C23.3276 55.9983 30.3131 55.1301 36.1957 57.4865C36.4408 57.6105 35.8281 56.4943 35.7055 56.4943C35.4604 56.1223 34.9702 55.2541 34.48 55.0061C28.8425 52.6497 21.9795 53.3938 17.0773 57.3625C12.5429 61.0831 9.96922 67.1601 10.7045 73.1131C11.3173 78.198 14.5037 83.4068 18.548 86.6314C23.5727 90.6 30.5583 90.8481 36.3183 88.4917C39.7498 87.1274 42.446 84.771 44.0392 81.4225C45.7549 77.8259 46.1226 73.8572 46.2451 70.0126C46.2451 69.5165 45.5098 68.7724 45.2647 68.4003C45.0196 68.1523 44.4068 67.2841 44.4068 67.5322Z" fill="#0A74A6"/>
<path d="M64.9966 24.497C65.3643 21.7686 67.3251 19.1642 70.1439 18.9161C73.2077 18.6681 76.3941 20.9004 76.5167 24.125C76.6392 25.8613 75.2911 26.7294 74.4333 28.0936C73.5754 29.3338 73.0852 30.8221 72.9626 32.4344C72.8401 33.9226 72.9626 35.6589 71.492 36.527C70.2664 37.2712 68.6732 36.155 68.9183 34.6667C69.0409 33.4265 66.3447 33.7986 66.2222 34.9148C65.977 36.403 66.9575 37.7672 68.4281 38.2633C70.0213 38.8834 71.7371 38.5114 73.0852 37.6432C74.4333 36.7751 75.2911 35.5349 75.5362 33.9226C75.7813 32.0623 75.6588 30.45 76.6392 28.7137C77.4971 27.2255 78.9677 26.3573 79.0903 24.6211C79.3354 23.0088 78.7226 21.2725 77.6196 20.0323C75.5362 17.5519 71.8596 16.6837 68.7958 17.5519C65.3643 18.42 62.6681 21.3965 62.1779 24.8691C62.0553 26.1093 64.7515 25.6132 64.9966 24.497Z" fill="#0A74A6"/>
<path d="M69.1623 23.753C69.2848 23.5049 69.2848 23.3809 69.4074 23.2569C69.2848 23.3809 69.53 23.1329 69.4074 23.2569C69.53 23.1329 69.7751 23.1329 69.53 23.2569C69.1623 23.2569 69.6525 23.2569 69.4074 23.2569C69.6525 23.2569 69.4074 23.2569 69.6525 23.2569C69.7751 23.2569 70.0202 23.3809 70.2653 23.5049C70.6329 23.753 70.878 24.2491 71.0006 24.7451C71.1232 25.2412 71.3683 25.9853 71.2457 26.3574L71.1231 26.6054L71.0006 26.7295L70.878 26.8535C71.0006 26.7295 71.0006 26.7295 70.878 26.8535C70.7555 26.9775 70.7555 26.9775 70.6329 27.1015C70.2653 27.3496 69.7751 27.7216 69.4074 28.0937C68.5495 29.0859 68.427 30.3261 68.427 31.5663C68.427 32.1864 69.0397 32.4344 69.6525 32.3104C70.1427 32.3104 71.1231 31.9383 71.1231 31.3182C71.1231 30.5741 71.0006 29.83 71.2457 29.2099C71.3683 28.9618 71.4908 28.8378 71.7359 28.5898C71.8585 28.4658 71.6134 28.7138 71.8585 28.4658C71.981 28.3417 72.1036 28.3417 72.2261 28.2177C72.7164 27.8457 73.3291 27.3496 73.6968 26.8535C74.0644 26.1094 74.0644 25.3652 73.8193 24.6211C73.4517 23.1329 72.5938 21.8927 71.0006 21.6446C69.4074 21.2726 67.324 22.0167 66.5887 23.753C66.0984 24.8692 68.7946 24.7451 69.1623 23.753Z" fill="#0A74A6"/>
<path d="M81.54 26.7291C81.9077 26.7291 82.3979 26.7291 82.7655 26.7291H82.643C82.7655 26.7291 83.0107 26.7291 83.1332 26.8531C83.2558 26.8531 83.3783 26.8531 83.5009 26.7291C83.6234 26.6051 83.6234 26.481 83.5009 26.233C83.5009 25.985 83.3783 25.8609 83.2558 25.7369C83.1332 25.6129 83.0107 25.4889 82.8881 25.4889C82.2753 25.3648 81.6626 25.2408 81.0498 25.3648C80.9272 25.3648 80.8047 25.4889 80.8047 25.6129C80.8047 25.7369 80.8047 25.985 80.8047 26.109C80.9272 26.233 80.9272 26.481 81.1723 26.6051C81.1723 26.6051 81.4175 26.7291 81.54 26.7291Z" fill="#0A74A6"/>
<path d="M78.5991 29.582C79.5795 30.0781 80.56 30.5742 81.5404 31.0703C81.908 31.1943 82.2757 31.1943 82.6434 30.9462C82.7659 30.8222 82.8885 30.8222 82.8885 30.6982C82.8885 30.5742 82.7659 30.4502 82.6434 30.4502C82.1532 30.2021 81.6629 30.0781 81.2953 29.8301C81.1727 29.8301 81.0502 29.706 80.9276 29.706C80.9276 29.706 80.8051 29.706 80.9276 29.706H80.8051C80.8051 29.706 80.6825 29.706 80.6825 29.582C80.4374 29.458 80.1923 29.334 79.9472 29.21C79.7021 29.0859 79.2119 29.0859 78.8442 29.21C78.7217 29.21 78.5991 29.334 78.4765 29.458C78.354 29.458 78.4765 29.582 78.5991 29.582Z" fill="#0A74A6"/>
<path d="M77.0066 33.1787C77.7419 33.9228 78.3547 34.5429 78.8449 35.4111C78.9675 35.5351 79.09 35.5351 79.2126 35.6591C79.3351 35.7831 79.5802 35.7831 79.8254 35.7831C79.9479 35.7831 80.5607 35.7831 80.4381 35.4111C79.8254 34.5429 79.2126 33.6748 78.4773 32.9307C78.3547 32.8066 78.1096 32.8066 77.987 32.6826C77.8645 32.6826 77.6194 32.6826 77.3743 32.6826C77.1292 32.8066 76.7615 32.9307 77.0066 33.1787Z" fill="#0A74A6"/>
<path d="M15.485 71.3769C17.6909 70.7568 19.6518 69.5166 21.245 68.0284C21.9803 67.2843 22.8382 66.2921 23.8186 65.92C25.0442 65.424 26.1472 66.1681 26.7599 67.1602C27.2501 67.9044 28.5982 67.5323 29.0884 66.9122C30.0689 65.796 30.9267 64.8039 32.3974 65.796C33.3778 66.4161 34.1131 67.5323 35.0936 68.2764C36.9319 69.8887 39.1378 70.7568 41.5889 70.8809C41.3438 70.3848 41.0987 69.8887 40.8536 69.2686C39.0153 70.8809 37.9123 72.9892 36.4417 74.8495C34.8485 76.9579 32.5199 78.0741 29.9463 78.1981C27.2501 78.1981 24.6765 77.3299 22.348 75.9657C20.2646 74.7255 17.3233 73.2373 16.588 70.7568C16.2203 69.5166 13.5241 70.2608 13.8918 71.501C14.8722 74.3534 17.8135 76.2137 20.2646 77.578C22.9608 79.0662 25.7795 80.0584 28.9659 80.1824C31.7846 80.1824 34.7259 79.3143 37.0544 77.454C39.383 75.4696 40.4859 72.4931 42.6919 70.5088C43.5498 69.7647 42.937 68.8965 41.9566 68.8965C38.4025 68.8965 36.9319 65.672 34.2357 64.0597C31.5395 62.4475 28.8433 64.0597 27.005 66.1681C27.7404 66.0441 28.5982 66.0441 29.3335 65.92C27.7404 63.6877 24.6765 63.1916 22.348 64.4318C21.1224 65.0519 20.2646 66.0441 19.2841 67.0362C18.0586 68.1524 16.7105 69.0206 15.1173 69.5166C13.4016 70.0127 13.8918 71.873 15.485 71.3769Z" fill="#0A74A6"/>
<path d="M17.2006 71.3769C19.1615 70.3847 21.2449 71.0048 23.0832 71.7489C24.7989 72.4931 26.7598 73.8573 28.7207 73.6093C29.7011 73.4852 30.4364 72.9892 31.1717 72.4931C32.0296 71.997 32.8875 71.6249 33.7454 71.3769C35.7062 70.7568 37.7896 70.7568 39.7505 71.1288C40.3633 71.2529 41.2211 71.1288 41.5888 70.6328C41.9565 70.2607 41.8339 69.5166 41.2211 69.3926C39.0152 68.8965 36.9318 68.8965 34.7258 69.2685C33.6228 69.5166 32.6424 69.7646 31.5394 70.2607C31.0492 70.5087 30.559 70.6328 30.0687 70.8808C29.7011 71.1288 28.9658 71.7489 28.5981 71.7489C28.2304 71.7489 27.6177 71.3769 27.25 71.2529C26.7598 71.0048 26.147 70.7568 25.6568 70.5087C24.5538 70.0127 23.4508 69.5166 22.2253 69.2685C20.0193 68.7724 17.8134 68.8965 15.8525 69.8886C14.3819 70.7568 15.8525 71.997 17.2006 71.3769Z" fill="#0A74A6"/>
<path d="M68.9179 74.4771C69.0405 71.7486 68.9179 69.0201 69.1631 66.2917C69.1631 65.9196 69.4082 64.3074 69.8984 65.2995C70.266 65.9196 70.1435 66.7878 70.266 67.4079C70.3886 69.1442 70.3886 70.7564 70.1435 72.4927C70.1435 72.7408 71.7367 72.4927 71.8592 72.1207C71.9818 71.7486 72.1043 71.2525 72.2269 70.8805C72.2269 70.7564 72.5946 70.2604 72.5946 70.2604C72.472 70.2604 72.3495 70.3844 72.2269 70.3844C72.3495 70.5084 72.5946 70.6324 72.7171 70.7564C73.4524 71.7486 73.575 73.3609 73.4524 74.4771C73.4524 74.7251 75.1682 74.4771 75.1682 73.981C75.2907 73.3609 75.2907 72.7408 75.6584 72.1207C75.781 71.9966 75.781 71.8726 75.9035 71.7486C75.6584 71.6246 75.6584 71.6246 75.9035 71.7486C76.0261 71.8726 76.1486 72.1207 76.2712 72.3687C76.6388 73.3609 76.5163 74.353 76.5163 75.3452C76.5163 75.5932 78.232 75.3452 78.232 74.8491C78.232 74.229 78.3546 73.7329 78.5997 73.1128C78.7222 72.9888 78.7222 72.7408 78.8448 72.6167C78.9674 72.4927 79.4576 72.1207 79.0899 72.1207C78.8448 72.1207 78.5997 72.1207 78.4771 72.1207C79.335 72.4927 79.2125 73.3609 79.335 74.105C79.335 74.9731 79.335 75.8413 79.335 76.5854C79.335 78.1977 79.335 80.058 78.7222 81.6702C77.9869 83.9026 75.6584 83.5306 73.8201 83.5306C72.2269 83.5306 70.6337 83.9026 69.2856 82.6624C68.0601 81.5462 67.3247 79.6859 66.5894 78.1977C65.8541 76.8334 64.9962 75.4692 64.6286 73.857C64.506 73.3609 64.3835 72.1207 64.8737 71.7486C65.3639 71.3765 65.9767 72.6167 66.0992 72.9888C66.3443 73.3609 66.712 74.6011 67.2022 74.6011C67.5699 74.6011 68.0601 74.6011 68.4277 74.353C68.5503 74.353 69.0405 73.981 68.6728 73.981C68.5503 73.981 68.0601 73.1128 68.0601 72.9888C67.6924 72.3687 67.4473 71.6246 66.8345 71.2525C65.8541 70.6324 64.0158 71.1285 63.2805 71.8726C62.0549 73.1128 62.7903 74.9731 63.5256 76.3374C64.3835 78.1977 65.3639 80.058 66.4669 81.7943C67.4473 83.2825 68.5503 84.1507 70.3886 84.1507C71.369 84.1507 72.2269 84.0266 73.2073 84.0266C74.1878 84.0266 75.0456 84.0266 76.0261 83.9026C77.4967 83.6546 79.335 83.1585 80.0703 81.6702C80.9282 80.058 80.8057 77.7016 80.9282 75.9653C80.9282 74.8491 81.0508 73.6089 80.9282 72.4927C80.8057 71.7486 80.438 71.1285 79.5801 71.1285C77.4967 71.2525 76.5163 72.9888 76.3937 74.9731C77.0065 74.8491 77.6193 74.6011 78.1095 74.4771C78.1095 73.2368 78.3546 70.5084 76.5163 70.3844C75.6584 70.3844 74.678 70.7564 74.1878 71.2525C73.4524 71.9966 73.3299 72.9888 73.2073 73.857C73.8201 73.7329 74.4329 73.4849 74.9231 73.3609C75.0456 71.8726 74.9231 68.8961 72.8397 68.8961C72.1043 68.8961 71.369 69.1442 70.8788 69.7643C70.3886 70.3844 70.266 71.1285 70.0209 71.8726C70.6337 71.7486 71.2465 71.6246 71.7367 71.5006C71.9818 69.3922 72.1043 66.9118 71.6141 64.8034C71.2465 63.1912 69.1631 63.5632 68.1826 64.3074C66.8345 65.2995 67.2022 67.1598 67.2022 68.6481C67.2022 70.6324 67.0796 72.4927 67.0796 74.4771C67.2022 75.0972 68.9179 74.9731 68.9179 74.4771Z" fill="#0A74A6"/>
<path d="M66.8352 64.3076C66.345 63.3154 66.345 62.3233 66.8352 61.4551C67.3254 60.3389 68.1833 59.8429 69.1637 59.5948C69.2863 59.5948 69.2863 59.5948 69.4088 59.5948C69.2863 59.5948 69.2863 59.5948 69.4088 59.5948C69.5314 59.5948 69.7765 59.5948 69.899 59.5948C70.0216 59.5948 70.5118 59.5948 70.1441 59.5948C70.2667 59.5948 70.3892 59.5948 70.3892 59.5948C70.5118 59.5948 70.6344 59.5948 70.5118 59.5948C70.3892 59.5948 70.3892 59.5948 70.6344 59.5948C70.7569 59.5948 70.8795 59.5948 70.8795 59.7188C70.6343 59.5948 71.002 59.8429 71.1246 59.8429C71.2471 59.8429 71.2471 59.8429 71.1246 59.8429C71.2471 59.8429 71.2471 59.9669 71.3697 59.9669C71.4922 60.0909 71.4922 60.0909 71.6148 60.2149C72.4727 61.2071 72.7178 62.6953 72.4727 63.9355C72.3501 64.6797 73.3305 65.0517 73.9433 65.0517C74.4335 65.0517 75.5365 65.0517 75.5365 64.3076C75.6591 62.8194 75.5365 61.3311 74.8012 60.0909C73.9433 58.7267 72.5952 57.9826 71.1246 57.7345C69.6539 57.4865 67.9382 57.7345 66.5901 58.2306C65.4871 58.7267 64.5067 59.5948 64.0165 60.711C63.5262 61.9512 63.4037 63.3154 64.0165 64.5556C64.3841 65.1758 65.1194 65.5478 65.8548 65.4238C66.0999 65.2998 67.2028 64.9277 66.8352 64.3076Z" fill="#0A74A6"/>
</svg>
