<svg width="100" height="100" viewBox="0 0 100 100" fill="none" xmlns="http://www.w3.org/2000/svg">
<path d="M41.6074 70.0503C45.5184 70.0665 49.3891 69.2826 52.9851 67.7432C59.2153 70.6038 65.0899 74.1876 70.4881 78.4175V78.769C70.484 79.4842 70.7709 80.1711 71.284 80.672L82.7744 92.2152C83.8289 93.2616 85.526 93.2616 86.5805 92.2152L91.2471 87.5607C92.2975 86.5062 92.2975 84.797 91.2471 83.7425L79.7236 72.1994C79.1256 71.6297 78.2973 71.359 77.4771 71.4681C73.2509 66.062 69.663 60.1876 66.7945 53.9568C71.6268 42.7446 68.8026 28.4181 58.738 18.353C45.9743 5.58932 26.3096 4.47431 14.9122 15.86C9.32447 21.5448 6.46785 29.3746 7.08203 37.3225C7.67192 45.7911 11.3527 53.7508 17.4254 59.6858C23.8011 66.1989 32.4956 69.924 41.607 70.0498L41.6074 70.0503ZM77.8091 73.4725C77.9788 73.4725 78.1364 73.5412 78.2535 73.6584L89.8091 85.2015C90.0515 85.448 90.0515 85.848 89.8091 86.0904L85.1546 90.757C84.9041 90.9954 84.5122 90.9954 84.2657 90.757L72.7101 79.2056C72.5889 79.0924 72.5203 78.9349 72.5243 78.7692C72.5202 78.5995 72.5889 78.4379 72.7101 78.3248L77.3646 73.6582C77.4859 73.545 77.6434 73.4763 77.8091 73.4723V73.4725ZM75.6353 72.4382L71.498 76.5755H71.502C66.4879 72.6806 61.078 69.3271 55.3644 66.5635C56.2007 66.1069 57.0088 65.6059 57.7967 65.0645L65.5947 67.8685C65.9704 68.0018 66.3946 67.9089 66.6775 67.626C66.9603 67.3432 67.0533 66.919 66.9199 66.5432L64.1563 58.7534C64.7058 57.9777 65.2108 57.1697 65.6674 56.3333C68.4147 62.0504 71.7562 67.4565 75.6389 72.471L75.6353 72.4382ZM59.72 63.5655C60.2372 63.1211 60.7544 62.6646 61.2311 62.1797C61.7078 61.6949 62.1725 61.1454 62.6169 60.6687L64.229 65.1778L59.72 63.5655ZM16.3836 17.3319H16.3795C21.2239 12.5845 27.7655 9.9784 34.5445 10.0916C43.1222 10.2087 51.3038 13.7198 57.2998 19.8531C69.235 31.78 70.3624 50.128 59.7725 60.7216C49.183 71.3111 30.8112 70.1841 18.8636 58.2287C13.1626 52.6409 9.70807 45.162 9.15056 37.1986C8.56875 29.8411 11.2031 22.5928 16.3788 17.3322L16.3836 17.3319Z" fill="#0A74A6"/>
<path d="M41.018 65.0649H41.8867H42.024C42.0927 65.0689 42.1655 65.0689 42.2382 65.0649C46.1008 64.9033 49.8624 63.7921 53.1918 61.8286L53.3695 61.7235C54.8725 60.8185 56.2584 59.7397 57.5069 58.5074C62.2058 53.7316 64.6058 47.1576 64.0846 40.4789C63.62 33.3437 60.5412 26.6282 55.4382 21.623C50.4969 16.6211 43.9147 13.5705 36.9009 13.0372C36.8524 13.0292 36.7999 13.0292 36.7473 13.0372C35.8787 12.9928 35.01 12.9928 34.1413 13.0372H34.0161C28.2384 13.1706 22.7357 15.522 18.6469 19.6069C14.5541 23.6877 12.1945 29.1906 12.049 34.9647C12.0409 35.0091 12.0409 35.0495 12.049 35.0899V37.6959C12.0409 37.7485 12.0409 37.801 12.049 37.8535C12.6066 44.8757 15.6853 51.4571 20.7156 56.3867C26.0731 61.8492 33.3696 64.9685 41.0185 65.0654L41.018 65.0649ZM22.9089 55.5902L27.5311 50.968L33.1271 56.5194L29.4867 60.1598V60.1638C27.0868 58.9638 24.8686 57.4204 22.909 55.5901L22.9089 55.5902ZM36.0035 42.4955L41.547 36.9521L47.1025 42.4955L41.547 48.051L36.0035 42.4955ZM40.0883 49.55L34.5328 55.0934L28.9894 49.55L34.5328 44.0066L40.0883 49.55ZM48.561 44.0066L54.1044 49.55L48.561 55.0934L43.0135 49.55L48.561 44.0066ZM50.0196 42.5359L55.5751 36.9925L61.1185 42.5359L55.5711 48.0509L50.0196 42.5359ZM48.561 41.0773L43.0135 35.4813L48.561 29.8976L54.1044 35.441L48.561 41.0773ZM41.547 34.0349L36.0035 28.4915L41.547 22.936L47.1025 28.4915L41.547 34.0349ZM40.0883 35.4813L34.5328 41.0368L28.9894 35.4813L34.5328 29.8976L40.0883 35.4813ZM27.5305 34.0349L22.9083 29.4127L28.4517 23.8693L33.1263 28.4793L27.5305 34.0349ZM26.0638 35.4813L20.5204 41.0368L15.8941 36.4146L21.4375 30.8712L26.0638 35.4813ZM27.5345 36.952L33.1263 42.4954L27.5829 48.0509L22.0274 42.4954L27.5345 36.952ZM31.4455 61.0727L34.5485 57.9697L39.5182 62.9959C36.7384 62.7979 34.0112 62.1474 31.4415 61.0727H31.4455ZM41.5505 62.107L36.0071 56.5636L41.5505 51.0081L47.106 56.5636L41.5505 62.107ZM43.6999 62.8828L48.5605 58.0222L51.1463 60.6081C48.819 61.8039 46.2938 62.5595 43.6959 62.8424L43.6999 62.8828ZM56.0478 56.9959C55.1023 57.9333 54.0639 58.7616 52.9448 59.4807L49.9751 56.5232L55.5306 50.9677L58.5003 53.9454C57.7851 55.0403 56.9609 56.0626 56.0478 56.9958V56.9959ZM59.6275 52.103L57.0296 49.5495L61.9022 44.6768C61.6073 47.2707 60.8356 49.7879 59.6275 52.103ZM62.0154 40.4792L57.0296 35.4813L60.1326 32.3783C61.1992 34.9601 61.8376 37.6954 62.0154 40.4792ZM59.2235 30.3743L55.5711 34.0349L50.0156 28.4915L54.6378 23.8693H54.6418C56.468 25.8086 58.0115 27.9985 59.2236 30.3743H59.2235ZM53.1913 22.3784L48.5569 27.0127L43.0135 21.4693L46.6458 17.829V17.8249C49.0337 19.0249 51.2357 20.5562 53.1912 22.3784L53.1913 22.3784ZM37.1798 15.138H37.1838C39.7374 15.3683 42.2464 15.9703 44.6302 16.9279L41.5272 20.0309L36.9252 15.4169L37.1798 15.138ZM35.4626 16.8552L40.0848 21.4775L34.5293 27.0209L29.9071 22.3986L35.4626 16.8552ZM33.7131 15.1058L33.9919 15.3967L28.4485 20.9401L24.9859 17.4856C27.6929 16.0795 30.6707 15.2634 33.7171 15.0977L33.7131 15.1058ZM20.093 21.0451C21.0465 20.1158 22.0849 19.2795 23.196 18.5522L27.0425 22.3905L21.4385 27.9419L17.6123 24.1157C18.3355 23.0127 19.1678 21.9824 20.093 21.045V21.0451ZM16.5779 25.9461L20.0324 29.4006L14.4769 34.9561L14.1981 34.6652C14.3678 31.6228 15.1759 28.6531 16.5779 25.946L16.5779 25.9461ZM14.1901 38.1719L14.4285 37.9255L19.0507 42.5477L15.9477 45.6507C14.9942 43.2588 14.4002 40.7376 14.1902 38.1719L14.1901 38.1719ZM20.5213 44.0142L26.0647 49.5496L21.4507 54.1718C19.6325 52.2163 18.1012 50.0103 16.8972 47.6264L20.5213 44.0142Z" fill="#0A74A6"/>
</svg>
