<svg width="100" height="100" viewBox="0 0 100 100" fill="none" xmlns="http://www.w3.org/2000/svg">
<path d="M56.8452 10.0003C37.2544 10.0003 20.9225 24.1606 17.5131 42.7817C6.50281 52.4433 1.90146 61.4453 4.89348 67.5056C6.98332 71.7363 12.4398 73.8686 20.2077 73.8686C21.5952 73.8686 23.0806 73.7793 24.6129 73.6431C31.8996 83.5516 43.6339 90 56.8496 90C78.9051 90 96.8496 72.0555 96.8496 50C96.8453 27.9445 78.9007 10 56.8452 10V10.0003ZM84.7442 24.4973C81.9309 25.6976 78.7004 26.7019 75.1464 27.4724C72.78 21.1646 69.4473 16.206 65.5402 13.2009C73.0481 14.9758 79.7005 18.9851 84.7442 24.4967V24.4973ZM57.8574 12.235C63.9652 12.8394 69.4725 18.8875 72.9505 27.9153C68.2644 28.7793 63.1399 29.2603 57.8574 29.3157V12.235ZM48.2342 13.1841C44.3099 16.2018 40.9603 21.1944 38.581 27.4894C35.0144 26.719 31.7753 25.7061 28.9449 24.5015C34.0098 18.9642 40.6918 14.9463 48.234 13.1839L48.2342 13.1841ZM55.6783 12.252V29.315C50.4261 29.2512 45.3356 28.7702 40.6833 27.9104C44.0925 18.9553 49.5107 12.9329 55.6783 12.2519V12.252ZM19.0745 48.0941C19.4874 39.8329 22.5646 32.2656 27.4593 26.226C30.4811 27.5753 33.9841 28.6989 37.8487 29.5502C36.0398 35.0279 34.9332 41.3439 34.7588 48.095L19.0741 48.0993L19.0745 48.0941ZM37.3927 69.0437C33.1791 70.1673 29.2208 70.9293 25.6328 71.3251C21.5171 65.3196 19.091 58.0757 19.0356 50.2786H34.741C34.7665 57.063 35.7242 63.4517 37.3926 69.0446L37.3927 69.0437ZM6.84603 66.541C4.56039 61.9145 8.45067 54.2406 17.0355 46.1624C16.9163 47.4265 16.8482 48.7076 16.8482 50.0015C16.8482 57.9265 19.1763 65.3157 23.1687 71.5383C14.767 72.0874 8.76537 70.4233 6.8466 66.5416L6.84603 66.541ZM27.1397 73.3637C30.5149 72.9211 34.1709 72.1763 38.0607 71.125C40.4399 78.0499 43.9512 83.5615 48.1564 86.8009C39.7078 84.8048 32.3486 79.974 27.1392 73.3641L27.1397 73.3637ZM57.8564 87.7965V78.969C57.4818 79.4542 57.0051 79.8671 56.439 80.1651L55.6772 80.5652V87.7454C49.2418 87.009 43.5685 80.2629 40.1886 70.5244C41.3633 70.1796 42.5593 69.8093 43.7724 69.4135L44.2533 70.3286C44.4449 70.6946 44.8194 70.9117 45.2195 70.9117C45.3089 70.9117 45.3983 70.8989 45.4876 70.8777L48.1393 70.2094L52.0209 77.5727C52.2167 77.943 52.5955 78.1515 52.9871 78.1515C53.1573 78.1515 53.3319 78.1132 53.4936 78.0281L54.9194 77.279C55.2769 77.0917 55.4983 76.7214 55.5025 76.3171L55.5366 68.324C56.4346 68.0643 57.2476 67.7409 58.0989 67.2897L61.3464 65.5787L65.0408 82.9904C65.1131 83.3266 65.3344 83.6075 65.6451 83.7523C65.7941 83.8204 65.9516 83.8544 66.1091 83.8544C66.2836 83.8544 66.4581 83.8118 66.6156 83.731L71.042 81.3986C71.357 81.2326 71.5741 80.9219 71.6166 80.5644L74.2384 58.7943L78.0946 56.7641C79.414 56.0703 80.8867 54.6233 82.0358 52.8867C82.9594 51.4949 83.9214 49.5668 83.2531 48.2943C82.5551 46.9706 80.4441 46.6939 78.7926 46.6939C77.1369 46.6939 74.7874 46.9961 73.1744 47.8473L69.5013 49.7839L50.0673 39.6158C49.7524 39.4498 49.3693 39.4498 49.0543 39.6158L44.6279 41.9439C44.3257 42.1014 44.1171 42.3951 44.0618 42.7313C44.0065 43.0676 44.1129 43.4123 44.347 43.6592L56.6092 56.5686L53.3617 58.2796C52.4977 58.7351 51.7613 59.2288 51.0251 59.8374L44.5003 55.394C44.1683 55.1684 43.7384 55.1428 43.3809 55.3301L41.9551 56.0792C41.4231 56.3601 41.2145 57.0156 41.4954 57.5519L45.3217 64.8386L43.266 66.6431C43.0362 66.8432 42.9255 67.1241 42.9127 67.4178C41.772 67.7881 40.6442 68.1328 39.5333 68.4563C37.9031 63.0338 36.9497 56.8238 36.9242 50.2775H46.1262L44.0577 48.0983H36.9498C37.1243 41.4714 38.2054 35.2913 39.959 29.9882C44.8366 30.9161 50.1781 31.4353 55.6905 31.5034V38.8667L57.8697 40.0074V31.5034C63.4112 31.4438 68.7906 30.9246 73.7069 29.9925C75.0689 34.0657 76.0308 38.6666 76.4862 43.583C77.2013 43.4936 77.9291 43.4425 78.6612 43.4383C78.2057 38.4074 77.2438 33.7213 75.8776 29.546C79.7295 28.6947 83.2323 27.5796 86.2414 26.2388C91.1361 32.2742 94.2133 39.8413 94.6262 48.0982H86.6159C86.7649 48.7835 86.7904 49.5113 86.6713 50.2774H94.6602C94.5921 59.4793 91.2254 67.907 85.6838 74.4358C82.8662 73.2313 79.6059 72.1928 76.0179 71.3926L75.7583 73.5633C78.8397 74.2613 81.6617 75.1381 84.143 76.1426C77.465 83.1015 68.1696 87.5234 57.8566 87.7958L57.8564 87.7965ZM58.6097 55.513L46.9184 43.2038L49.5658 41.8121L67.1572 51.0183L58.6097 55.513ZM74.1876 49.7799C75.2134 49.2436 77.0648 48.8775 78.7929 48.8775C80.2741 48.8775 81.0785 49.1457 81.3041 49.3074C81.3339 50.2906 79.1802 53.7296 77.0819 54.832L72.7278 57.1261C72.7235 57.1261 72.7235 57.1261 72.7193 57.1304L61.6065 62.9784H61.6023L57.0822 65.3577C56.2224 65.8131 55.4436 66.1068 54.4944 66.3494L46.1139 68.4689L45.7266 67.3709L52.0896 61.7782C52.8259 61.1312 53.5112 60.6589 54.3752 60.2077L74.1876 49.7799ZM71.8977 60.0245L69.5227 79.7352L66.8754 81.127L63.3554 64.5194L71.8977 60.0245ZM53.3529 68.8859L53.3273 75.3639L50.314 69.6563L53.3529 68.8859ZM46.9984 63.3529L44.0403 57.7176L49.3181 61.3099L46.9984 63.3529Z" fill="#0A74A6"/>
</svg>
