<svg width="16" height="16" viewBox="0 0 16 16" fill="none" xmlns="http://www.w3.org/2000/svg">
<circle cx="8" cy="8" r="7.5" fill="white" stroke="#0A74A6"/>
<path d="M8 1C4.13999 1 1 4.13999 1 8C1 11.86 4.13999 15 8 15C11.86 15 15 11.86 15 8C15 4.13999 11.86 1 8 1ZM10.682 6.28847L7.8819 10.4883C7.76575 10.6629 7.57675 10.7758 7.36873 10.7961C7.34576 10.7987 7.32345 10.8 7.29982 10.8C7.11476 10.8 6.93626 10.7272 6.80503 10.5946L5.4053 9.1949C5.13165 8.92126 5.13165 8.47896 5.4053 8.20531C5.67894 7.93167 6.12124 7.93167 6.39489 8.20531L7.19155 9.00198L9.51794 5.51273C9.73252 5.19052 10.1663 5.1039 10.4885 5.31915C10.8101 5.53242 10.8967 5.9662 10.6821 6.28839L10.682 6.28847Z" fill="#0A74A6"/>
</svg>
