<svg width="56" height="56" viewBox="0 0 56 56" fill="none" xmlns="http://www.w3.org/2000/svg">
<path d="M28 54.25C22.2773 54.25 13.0447 52.0951 13.0447 46.4819C13.0447 42.3209 18.459 40.0349 22.5386 39.2303C23.1307 39.1135 23.7065 39.4992 23.8232 40.092C23.9399 40.6847 23.5543 41.2598 22.9615 41.3766C18.4106 42.2737 15.2321 44.3731 15.2321 46.4815C15.2321 50.3909 23.6363 52.0619 27.9996 52.0619C33.0625 52.0619 40.7672 50.1327 40.7672 46.4815C40.7672 44.3809 37.6062 42.2855 33.0802 41.3855C32.4878 41.2677 32.103 40.6919 32.2209 40.0994C32.3388 39.5069 32.9143 39.122 33.507 39.2401C37.5874 40.0515 42.9551 42.3405 42.9551 46.4818C42.955 52.0884 33.7394 54.25 27.9999 54.25L28 54.25Z" fill="#474747"/>
<path d="M27.1684 47.7073C26.5093 46.936 11.0264 28.7032 10.991 18.7641C10.9576 9.37994 18.5785 1.75134 27.9996 1.75134C37.4113 1.75134 44.9092 9.37294 45.0086 18.7487C45.1145 28.7681 29.492 46.9438 28.827 47.7124C28.3905 48.217 27.604 48.2175 27.1683 47.7075L27.1684 47.7073ZM27.9998 3.93861C19.793 3.93861 13.1496 10.5811 13.1785 18.7562C13.2044 26.1099 23.3229 39.5793 28.0045 45.2918C32.7463 39.5695 42.8991 26.1585 42.8212 18.7711C42.7346 10.5923 36.0858 3.93814 27.9994 3.93814L27.9998 3.93861Z" fill="#474747"/>
<path d="M28 30.6338C21.4522 30.6338 16.1252 25.3068 16.1252 18.759C16.1252 12.2112 21.4522 6.88416 28 6.88416C34.5478 6.88416 39.8748 12.2112 39.8748 18.759C39.8747 25.3068 34.5474 30.6338 28 30.6338Z" fill="#C95D63"/>
<path d="M28.0075 25.5C27.7164 25.5 27.4309 25.3899 27.2125 25.1664L22.5393 20.4928C20.8314 18.7851 20.8298 16.0168 22.5395 14.3076C24.0197 12.8274 26.306 12.6321 27.999 13.7213C29.6885 12.632 31.9779 12.8258 33.46 14.3076C35.1691 16.0167 35.1697 18.7834 33.4598 20.4928L28.8476 25.1051C28.6316 25.321 28.3823 25.5 28.0075 25.5Z" fill="white"/>
</svg>
