<svg width="106" height="70" viewBox="0 0 106 70" fill="none" xmlns="http://www.w3.org/2000/svg">
<path d="M35.4399 15.9221H48.5687C49.0035 15.9221 49.3548 16.2691 49.3548 16.6988V54.491C49.3548 54.6397 49.3046 54.7884 49.221 54.9206C47.5485 57.3993 29.6365 82.2526 1.77338 54.7223" stroke="#C95D63" stroke-width="3" stroke-miterlimit="10" stroke-linecap="round" stroke-linejoin="round"/>
<path d="M43.2837 9.26263C45.3804 9.26263 47.0802 7.58319 47.0802 5.5115C47.0802 3.43981 45.3804 1.76038 43.2837 1.76038C41.187 1.76038 39.4872 3.43981 39.4872 5.5115C39.4872 7.58319 41.187 9.26263 43.2837 9.26263Z" stroke="#C95D63" stroke-width="3" stroke-miterlimit="10" stroke-linecap="round" stroke-linejoin="round"/>
<path d="M49.3547 54.7224L64.2396 16.5667L74.4416 42.114L84.6603 16.5667L103.86 68.2397" stroke="#C95D63" stroke-width="3" stroke-miterlimit="10" stroke-linecap="round" stroke-linejoin="round"/>
</svg>
