<?xml version="1.0" standalone="no"?>
<!DOCTYPE svg PUBLIC "-//W3C//DTD SVG 20010904//EN"
 "http://www.w3.org/TR/2001/REC-SVG-20010904/DTD/svg10.dtd">
<svg version="1.0" xmlns="http://www.w3.org/2000/svg"
 width="700.000000pt" height="700.000000pt" viewBox="0 0 700.000000 700.000000"
 preserveAspectRatio="xMidYMid meet">
<metadata>
Created by potrace 1.14, written by Peter Selinger 2001-2017
</metadata>
<g transform="translate(0.000000,700.000000) scale(0.100000,-0.100000)"
fill="#000000" stroke="none">
<path d="M2796 5598 c-146 -57 -235 -178 -244 -329 -13 -228 161 -402 395
-394 67 2 90 8 147 36 125 62 205 181 211 314 8 158 -68 286 -213 357 -59 29
-77 33 -157 34 -67 1 -102 -3 -139 -18z m187 -306 c45 -39 4 -116 -60 -110
-73 6 -93 91 -29 122 33 16 60 13 89 -12z"/>
<path d="M2426 4779 c-73 -20 -125 -85 -120 -151 1 -18 3 -39 3 -45 2 -27 72
-91 109 -100 20 -4 191 -8 380 -8 l342 1 0 -1047 0 -1048 -60 -75 c-108 -134
-277 -282 -427 -374 -310 -191 -629 -249 -977 -177 -260 54 -575 217 -860 445
-37 30 -202 174 -244 214 -55 53 -104 75 -151 69 -103 -14 -161 -114 -123
-213 18 -47 248 -254 442 -397 339 -251 719 -413 1050 -447 63 -7 283 -8 320
-2 14 2 43 7 65 10 95 13 124 19 214 46 53 15 119 37 148 48 307 124 618 367
834 653 43 56 69 106 109 209 29 74 58 149 65 165 14 33 72 180 215 545 51
129 101 254 111 277 10 24 19 46 19 49 0 3 6 20 14 37 8 18 31 75 51 127 65
168 106 274 130 330 12 30 40 99 61 153 20 53 41 94 45 90 4 -5 77 -181 162
-393 236 -586 308 -762 319 -780 47 -75 178 -82 240 -13 10 10 33 57 52 103
18 47 87 216 151 375 65 160 155 381 200 493 45 112 85 204 89 205 6 2 171
-425 250 -643 30 -84 159 -428 171 -455 7 -16 70 -183 140 -370 70 -187 172
-459 227 -605 266 -707 243 -656 302 -684 100 -47 219 22 219 128 0 31 -68
224 -263 742 -321 852 -298 792 -314 834 -63 171 -421 1122 -431 1145 -19 46
-47 118 -51 135 -5 24 -99 263 -114 290 -43 81 -159 99 -228 36 -36 -32 -8 34
-359 -836 -52 -129 -109 -268 -125 -308 l-31 -74 -94 234 c-51 128 -99 244
-105 258 -13 30 -21 50 -47 115 -10 28 -35 88 -54 135 -20 47 -66 162 -103
255 -37 94 -76 182 -87 198 -54 79 -190 79 -243 1 -11 -16 -42 -85 -68 -154
-27 -69 -54 -138 -61 -155 -7 -16 -23 -57 -35 -90 -13 -33 -29 -73 -36 -90 -7
-16 -56 -138 -108 -270 -52 -132 -137 -349 -190 -483 -53 -134 -96 -247 -96
-251 0 -4 -6 -15 -12 -24 -11 -14 -13 125 -13 708 0 548 -3 736 -12 768 -7 23
-27 58 -45 76 -62 64 -60 63 -521 65 -229 0 -428 -2 -441 -5z"/>
</g>
</svg>
