<?xml version="1.0" standalone="no"?>
<!DOCTYPE svg PUBLIC "-//W3C//DTD SVG 20010904//EN"
 "http://www.w3.org/TR/2001/REC-SVG-20010904/DTD/svg10.dtd">
<svg version="1.0" xmlns="http://www.w3.org/2000/svg"
 width="122.000000pt" height="122.000000pt" viewBox="0 0 122.000000 122.000000"
 preserveAspectRatio="xMidYMid meet">
<metadata>
Created by potrace 1.14, written by Peter Selinger 2001-2017
</metadata>
<g transform="translate(0.000000,122.000000) scale(0.100000,-0.100000)"
fill="#000000" stroke="none">
<path d="M472 1000 c-57 -24 -41 -110 22 -110 54 0 78 74 34 104 -25 18 -25
18 -56 6z m46 -52 c-2 -15 -10 -23 -23 -23 -13 0 -21 8 -23 23 -3 18 1 22 23
22 22 0 26 -4 23 -22z"/>
<path d="M393 838 c-11 -20 14 -28 83 -28 l74 0 0 -210 0 -210 -34 -38 c-46
-50 -118 -89 -182 -97 -82 -10 -190 36 -284 122 -27 25 -36 28 -44 14 -10 -15
94 -100 164 -133 91 -44 179 -46 264 -4 104 51 129 88 217 311 42 108 79 199
82 201 2 3 25 -48 51 -113 53 -137 62 -152 74 -138 5 6 31 65 57 133 27 67 52
119 55 115 4 -5 51 -127 104 -273 54 -146 102 -269 107 -274 5 -6 11 -3 14 7
4 8 -23 93 -58 189 -36 95 -86 230 -112 300 -31 84 -51 125 -60 122 -7 -3 -34
-61 -61 -129 -27 -68 -51 -121 -54 -119 -3 3 -28 60 -55 127 -28 67 -55 122
-60 122 -6 0 -42 -81 -82 -180 l-72 -180 0 177 c-1 120 -5 179 -12 184 -16 9
-170 11 -176 2z"/>
</g>
</svg>
