<?xml version="1.0" standalone="no"?>
<!DOCTYPE svg PUBLIC "-//W3C//DTD SVG 20010904//EN"
 "http://www.w3.org/TR/2001/REC-SVG-20010904/DTD/svg10.dtd">
<svg version="1.0" xmlns="http://www.w3.org/2000/svg"
 width="700.000000pt" height="700.000000pt" viewBox="0 0 700.000000 700.000000"
 preserveAspectRatio="xMidYMid meet">
<metadata>
Created by potrace 1.14, written by Peter Selinger 2001-2017
</metadata>
<g transform="translate(0.000000,700.000000) scale(0.100000,-0.100000)"
fill="#000000" stroke="none">
<path d="M2850 5829 c-152 -29 -281 -171 -296 -327 -29 -296 285 -501 554
-363 56 29 124 97 153 153 145 281 -96 595 -411 537z m126 -310 c53 -44 28
-112 -45 -125 -26 -5 -71 26 -77 52 -17 68 67 119 122 73z"/>
<path d="M2390 4761 c-98 -52 -107 -189 -17 -255 27 -20 44 -21 399 -26 l371
-5 -1 -1047 0 -1046 -28 -39 c-131 -174 -365 -372 -559 -471 -206 -105 -352
-143 -570 -147 -297 -7 -559 74 -904 280 -106 63 -348 254 -469 370 -40 38
-88 78 -105 88 -97 53 -217 -20 -217 -133 0 -53 15 -79 86 -146 287 -275 592
-486 886 -612 103 -44 269 -99 326 -108 20 -3 40 -8 43 -10 23 -14 208 -31
335 -31 346 -1 687 120 994 351 126 94 292 258 393 388 73 94 53 49 343 783
52 132 99 249 103 260 10 23 51 125 327 828 53 136 59 146 70 125 12 -22 177
-429 355 -873 109 -272 125 -304 168 -332 63 -42 162 -22 200 41 10 17 76 173
146 346 249 614 326 803 334 818 7 12 9 11 15 -4 5 -11 92 -244 196 -519 103
-275 201 -536 218 -580 17 -44 56 -147 87 -230 31 -82 60 -159 65 -170 5 -11
48 -126 95 -255 48 -129 95 -255 105 -280 10 -25 55 -144 101 -265 126 -337
126 -338 142 -375 67 -154 287 -114 287 52 0 20 -52 172 -121 354 -66 175
-125 330 -129 344 -11 35 -229 611 -240 635 -5 11 -54 144 -110 295 -56 151
-105 284 -111 295 -5 11 -85 225 -179 475 -300 798 -280 749 -317 777 -65 50
-168 37 -212 -26 -10 -14 -55 -118 -100 -231 -46 -113 -88 -216 -94 -230 -5
-14 -18 -45 -27 -70 -20 -51 -147 -365 -160 -395 -5 -11 -30 -72 -55 -135 -26
-63 -50 -119 -54 -123 -5 -5 -18 18 -31 50 -12 32 -28 72 -35 88 -7 17 -43
104 -79 195 -37 91 -70 174 -75 185 -18 41 -41 96 -155 381 -115 284 -118 291
-159 318 -36 24 -50 27 -97 23 -48 -4 -58 -8 -90 -45 -20 -22 -42 -60 -50 -84
-7 -24 -17 -47 -20 -53 -4 -5 -16 -35 -28 -65 -33 -90 -232 -592 -247 -627 -8
-17 -15 -35 -15 -40 0 -6 -6 -23 -14 -39 -7 -16 -67 -164 -132 -329 -64 -165
-120 -304 -124 -308 -4 -4 -7 324 -7 730 0 669 -2 742 -17 778 -22 52 -52 83
-101 106 -37 17 -73 19 -470 19 -400 0 -433 -1 -465 -19z"/>
</g>
</svg>
